<?xml version="1.0" encoding="utf-8"?>
<!-- Generator: Adobe Illustrator 24.1.1, SVG Export Plug-In . SVG Version: 6.00 Build 0)  -->
<svg version="1.1" id="Layer_2_1_" xmlns="http://www.w3.org/2000/svg" xmlns:xlink="http://www.w3.org/1999/xlink" x="0px" y="0px"
	 viewBox="0 0 757 750.1" style="enable-background:new 0 0 757 750.1;" xml:space="preserve">
<style type="text/css">
	.st0{fill:#ffffff;}
	.st1{fill:#00D2FF;}
	.st2{fill:#7F92FF;}
	.st3{fill:#5E1AD5;}
	.st4{fill:#0000FF;}
</style>
<g id="Layer_1-2">
	<g>
		<g>
			<path class="st0" d="M308.2,410.4c-9.1,9.1-21.6,14.7-35.5,14.7c-27.7,0-50.1-22.5-50.1-50.1s22.4-50.1,50.1-50.1
				c13.9,0,26.4,5.6,35.5,14.7l35.5-35.5c-18.1-18.1-43.2-29.4-70.9-29.4c-55.4,0-100.3,44.9-100.3,100.3s44.9,100.3,100.3,100.3
				c27.7,0,52.8-11.2,70.9-29.4L308.2,410.4z"/>
			<polygon class="st0" points="695.5,275.5 550.1,275.5 550.1,325.7 626.5,325.7 597.8,342.1 597.8,475 647.9,475 647.9,325.7 
				695.5,325.7 			"/>
			<g>
				<path class="st1" d="M37.5,252.9l-3.4-1.6c-0.8,1.6-1.5,3.2-2.3,4.8l3.1,1.6C35.8,256.1,36.6,254.5,37.5,252.9L37.5,252.9z"/>
				<path class="st1" d="M36,207l-5.2-3.4c-0.8,1.2-1.6,2.3-2.3,3.5l4.9,3.3C34.3,209.3,35.2,208.1,36,207L36,207z"/>
				<path class="st1" d="M35,230.8l-3.1-1.7c-0.8,1.3-1.5,2.7-2.3,4l2.9,1.7C33.3,233.4,34.2,232.1,35,230.8z"/>
				<path class="st1" d="M46.9,237.3l-4-2.2c-0.8,1.4-1.7,2.9-2.5,4.3l3.8,2.2C45,240.2,45.9,238.7,46.9,237.3L46.9,237.3z"/>
				<path class="st1" d="M40.9,275.2l-2.1-0.8c-0.6,1.5-1.2,3-1.8,4.6l1.8,0.8C39.5,278.3,40.2,276.7,40.9,275.2z"/>
				<path class="st1" d="M40.5,215.2l3.7,2.5c0.9-1.2,1.9-2.4,2.8-3.6l-4-2.6C42.2,212.8,41.3,214,40.5,215.2z"/>
				<path class="st1" d="M19.3,222.1c-0.7,1.2-1.4,2.4-2,3.7l4.2,2.5c0.8-1.2,1.5-2.4,2.3-3.7L19.3,222.1L19.3,222.1z"/>
				<path class="st1" d="M49.5,190.4l-5.8-4.4c-1.2,1.5-2.3,3-3.5,4.5l5.6,4.3c0.6-0.7,1.2-1.5,1.8-2.2
					C48.3,191.8,48.9,191.1,49.5,190.4L49.5,190.4z"/>
				<path class="st1" d="M28.6,270.6l-2.6-1c-0.5,1.3-1,2.6-1.5,4l2.3,1C27.4,273.2,28,271.9,28.6,270.6z"/>
				<path class="st1" d="M80,160.7l-6.8-7c-2.1,2-4.2,3.9-6.2,6l6.5,6.6C75.7,164.3,77.8,162.5,80,160.7L80,160.7z"/>
				<path class="st1" d="M66.7,210.9c1.3-1.5,2.6-3,3.9-4.4l-5-3.9c-1.2,1.5-2.5,3-3.7,4.6L66.7,210.9L66.7,210.9z"/>
				<path class="st1" d="M69.3,188.9c1.7-1.7,3.4-3.3,5.1-4.9l-5.4-4.8c-1.6,1.7-3.2,3.5-4.8,5.2L69.3,188.9L69.3,188.9z"/>
				<path class="st1" d="M61.6,229.5l4.8,3.3c1-1.4,2-2.7,3.1-4l-5.1-3.4C63.4,226.7,62.5,228.1,61.6,229.5L61.6,229.5z"/>
				<path class="st1" d="M58.2,221.4l-4.6-3c-0.9,1.3-1.8,2.6-2.7,3.9l4.4,2.9C56.2,223.9,57.2,222.6,58.2,221.4L58.2,221.4z"/>
				<path class="st1" d="M55.4,194.9c-0.7,0.8-1.3,1.6-2,2.4c-0.5,0.7-1,1.4-1.6,2.1l4.4,3.4c1.3-1.5,2.6-2.9,3.9-4.3L55.4,194.9
					L55.4,194.9z"/>
				<path class="st1" d="M25.1,247.2l-2.3-1.1c-0.7,1.4-1.4,2.9-2,4.3l2,1C23.5,250.1,24.3,248.6,25.1,247.2z"/>
				<path class="st1" d="M53.2,174.6l6.1,5.4c1.7-1.7,3.3-3.4,5-5.1l-6.4-5.7C56.2,171,54.7,172.8,53.2,174.6z"/>
				<path class="st1" d="M58.7,243.8l-4.3-2.4c-0.9,1.6-1.7,3.1-2.6,4.7l3.9,2.3C56.7,246.9,57.7,245.3,58.7,243.8L58.7,243.8z"/>
				<path class="st1" d="M49.6,258.5l-3.3-1.5c-0.8,1.8-1.7,3.5-2.5,5.3l2.9,1.5C47.7,262,48.6,260.2,49.6,258.5z"/>
				<path class="st1" d="M101.4,182.9c-2,1.8-4,3.6-5.9,5.5l5.6,5.7c1.9-1.8,3.8-3.6,5.8-5.4L101.4,182.9L101.4,182.9z"/>
				<path class="st1" d="M108.4,161.8c-2.5,1.9-5,3.8-7.4,5.8l13,14.9c2.3-1.9,4.6-3.8,7-5.6L108.4,161.8L108.4,161.8z"/>
				<path class="st1" d="M15.8,265.7l-1.4-0.5c-0.4,1.1-0.9,2.2-1.3,3.4l1.2,0.5C14.7,267.9,15.3,266.8,15.8,265.7L15.8,265.7z"/>
				<path class="st1" d="M107.1,125.8c-3.2,2.2-6.3,4.5-9.4,6.9l7.2,9.4c3.1-2.1,6.3-4.1,9.5-6L107.1,125.8z"/>
				<path class="st1" d="M87.9,196c-1.6,1.7-3.2,3.4-4.7,5.2l5.9,5.2c0.2-0.2,0.3-0.4,0.5-0.5c1.4-1.5,2.8-3,4.2-4.5L87.9,196
					L87.9,196z"/>
				<path class="st1" d="M125.6,113.9c-3.8,2.3-7.5,4.6-11.1,7l27.6,41.2c3.1-2,6.3-3.8,9.5-5.7L125.6,113.9L125.6,113.9z"/>
				<path class="st1" d="M274.2,74.3c-44.2,0-86.2,9.6-123.9,26.8l22.8,44.5c30.9-13.7,65.1-21.3,101.2-21.3
					c30.4,0,59.5,5.4,86.5,15.4L378,92.8C345.7,80.8,310.7,74.3,274.2,74.3L274.2,74.3z"/>
				<path class="st1" d="M145,103.6c-4.4,2.1-8.8,4.3-13.1,6.7l25.3,43.1c3.6-1.9,7.2-3.7,10.9-5.5L145,103.6L145,103.6z"/>
				<path class="st1" d="M116.6,139.2c-3.1,2.1-6.1,4.1-9.1,6.3l20.1,26.3c2.7-2,5.4-3.9,8.2-5.7L116.6,139.2L116.6,139.2z"/>
				<path class="st1" d="M2.8,264c0.4-0.9,0.8-1.9,1.2-2.8l-3-1.1c-0.4,0.9-0.7,1.8-1,2.7L2.8,264L2.8,264z"/>
				<path class="st1" d="M78.8,187.9c-1.6,1.7-3.3,3.4-4.8,5.1l5.2,4.6c1.7-1.6,3.3-3.3,5.1-4.9L78.8,187.9L78.8,187.9z"/>
				<path class="st1" d="M71.8,214.9l5.5,4.2c1.3-1.5,2.6-3,4-4.5l-5.8-4.4C74.3,211.8,73,213.3,71.8,214.9L71.8,214.9z"/>
				<path class="st1" d="M8,244l3.5,1.8c0.7-1.3,1.3-2.6,2-3.9l-3.7-1.7C9.2,241.4,8.6,242.7,8,244L8,244z"/>
				<path class="st1" d="M99.8,151.3c-2.6,2-5.1,4-7.6,6.1l6.1,7c2.6-1.9,5.2-3.7,7.8-5.5C106.1,159,99.8,151.3,99.8,151.3z"/>
				<path class="st1" d="M83.8,164.7c-2.1,1.9-4.1,3.8-6.1,5.8l5.6,5.7c2.1-1.8,4.3-3.6,6.4-5.3L83.8,164.7L83.8,164.7z"/>
				<path class="st1" d="M98.8,180.2l-5.7-6c-2.1,1.8-4.1,3.6-6.1,5.5l5.5,5.6C94.6,183.6,96.7,181.9,98.8,180.2L98.8,180.2z"/>
				<path class="st1" d="M96.8,147.7l-7.1-8.6c-2.6,2.1-5.2,4.3-7.7,6.5l6.9,7.9C91.4,151.6,94.1,149.6,96.8,147.7L96.8,147.7z"/>
			</g>
			<g>
				<path class="st2" d="M451.1,614.1l-4.9-6.5c-2,1.4-3.9,2.7-5.9,4l5.1,6.8C447.3,617,449.2,615.6,451.1,614.1L451.1,614.1z"/>
				<path class="st2" d="M442,602.1l-4.1-5.4c-2,1.3-4,2.6-6,3.8l4.4,5.8C438.2,605,440.1,603.5,442,602.1L442,602.1z"/>
				<path class="st2" d="M453.5,558.2l-4.3-4.3c-1.2,1.1-2.5,2.2-3.8,3.3l4.6,4.5C451.3,560.5,452.4,559.4,453.5,558.2L453.5,558.2z
					"/>
				<path class="st2" d="M428.4,595.8c1.9-1.3,3.9-2.7,5.8-4.1l-4.2-5.5c-2,1.3-4,2.6-6,3.8L428.4,595.8L428.4,595.8z"/>
				<path class="st2" d="M434.4,626.2l-5.1-7.8c-2.5,1.5-5,2.9-7.5,4.3l5.3,8.3C429.5,629.4,432,627.8,434.4,626.2L434.4,626.2z"/>
				<path class="st2" d="M466.8,600.9l-4.6-5.3c-0.9,0.7-1.8,1.5-2.7,2.2c-0.6,0.5-1.2,0.9-1.8,1.3l4.8,5.5
					C464,603.4,465.4,602.2,466.8,600.9L466.8,600.9z"/>
				<path class="st2" d="M454.7,591.9c0.8-0.7,1.6-1.5,2.5-2.2l-3.6-4.2c-1.5,1.2-3.1,2.3-4.6,3.5l3.9,4.5
					C453.4,592.9,454.1,592.4,454.7,591.9L454.7,591.9z"/>
				<path class="st2" d="M466.5,543.8l-3.7-3.3c-1.2,1.3-2.5,2.6-3.7,3.9l4,3.4C464.2,546.5,465.3,545.2,466.5,543.8L466.5,543.8z"
					/>
				<path class="st2" d="M462.5,567.3l-3.6-3.6c-1.2,1.1-2.4,2.1-3.6,3.1l3.8,3.7C460.3,569.5,461.4,568.4,462.5,567.3L462.5,567.3z
					"/>
				<path class="st2" d="M471.4,576.4l-3.2-3.2c-1.1,1-2.3,2-3.4,3l3.4,3.3C469.3,578.4,470.4,577.4,471.4,576.4L471.4,576.4z"/>
				<path class="st2" d="M431.1,568.8l5,5.6c1.5-1.3,3-2.6,4.5-3.9l-4.7-5.5C434.3,566.3,432.7,567.6,431.1,568.8L431.1,568.8z"/>
				<path class="st2" d="M409.1,623.5l-4.6-8.2c-3,1.4-5.9,2.7-8.9,3.9l4.8,8.8C403.2,626.6,406.2,625.1,409.1,623.5L409.1,623.5z"
					/>
				<path class="st2" d="M382.5,640.2l5.2,11.7c3.6-1.6,7.2-3.3,10.8-5l-5.2-10.7C389.7,637.6,386.1,638.9,382.5,640.2L382.5,640.2z
					"/>
				<path class="st2" d="M343.4,614.8c-4,1.2-8.1,2.3-12.2,3.3l14.1,48.5c4.9-1.2,9.8-2.6,14.6-4.1L343.4,614.8z"/>
				<path class="st2" d="M418.6,602.3l-4.3-6.6c-2.4,1.3-4.9,2.6-7.3,3.9l4.5,7C413.9,605.2,416.3,603.8,418.6,602.3L418.6,602.3z"
					/>
				<path class="st2" d="M448.8,580l-3.9-4.5c-1.6,1.2-3.1,2.4-4.7,3.6l4.1,4.7C445.8,582.6,447.3,581.3,448.8,580z"/>
				<path class="st2" d="M426,613.4l-4.4-6.7c-2.5,1.4-4.9,2.7-7.5,4l4.6,7.3C421.1,616.4,423.5,614.9,426,613.4L426,613.4z"/>
				<path class="st2" d="M416.9,637.1l-5.2-9.2c-3,1.5-6.1,2.9-9.1,4.3l5.3,9.9C410.9,640.5,413.9,638.8,416.9,637.1L416.9,637.1z"
					/>
				<path class="st2" d="M405,596.5c2.4-1.4,4.7-2.8,7-4.3l-4.5-6.9c-2.3,1.5-4.5,2.9-6.9,4.3L405,596.5L405,596.5z"/>
				<path class="st2" d="M516.4,538.3l2.7,1.7c0.5-0.7,0.9-1.5,1.4-2.2L518,536C517.4,536.8,516.9,537.5,516.4,538.3z"/>
				<path class="st2" d="M506.5,557.8c0.8-1.1,1.6-2.1,2.4-3.2l-3.1-2.4c-0.9,1.1-1.7,2.2-2.6,3.3L506.5,557.8L506.5,557.8z"/>
				<path class="st2" d="M421,586.1c1.9-1.4,3.8-2.8,5.7-4.2l-4.9-6.5c-0.5,0.3-0.9,0.7-1.3,1l0,0c-1.4,1.1-2.9,2.1-4.4,3.1
					L421,586.1L421,586.1z"/>
				<path class="st2" d="M508.7,529.5l-1.1-0.8c-0.6,0.9-1.3,1.9-2,2.8l1.3,0.8C507.5,531.4,508.1,530.4,508.7,529.5L508.7,529.5z"
					/>
				<path class="st2" d="M393.7,616c2.9-1.4,5.8-2.8,8.6-4.3l-9.9-17.4c-2.7,1.5-5.4,2.9-8.1,4.3L393.7,616L393.7,616z"/>
				<path class="st2" d="M476.2,552.5l-3.1-2.7c-1.1,1.2-2.3,2.4-3.4,3.6l3.3,2.8C474.1,555,475.1,553.8,476.2,552.5L476.2,552.5z"
					/>
				<path class="st2" d="M366.9,660.2c4.3-1.5,8.5-3.1,12.6-4.8l-19.1-46.3c-3.6,1.3-7.2,2.6-10.8,3.8L366.9,660.2L366.9,660.2z"/>
				<path class="st2" d="M381,636.8c3.5-1.4,7-2.9,10.5-4.5l-14.7-30.1c-3.1,1.4-6.2,2.8-9.4,4.1L381,636.8L381,636.8z"/>
				<path class="st2" d="M325.9,619.3c-17.6,3.9-35.9,6-54.7,6c-48.5,0-93.8-13.7-132.2-37.4l-26.4,43
					c46.1,28.5,100.5,44.9,158.7,44.9c23.5,0,46.4-2.7,68.4-7.8L325.9,619.3L325.9,619.3z"/>
				<path class="st2" d="M485.6,561l-2.5-2.2c-1.1,1.1-2.1,2.2-3.2,3.3l2.7,2.3C483.6,563.2,484.6,562.1,485.6,561L485.6,561z"/>
				<path class="st2" d="M484.8,541.9c1-1.3,2.1-2.7,3.1-4.1l-2.5-2c-1.1,1.4-2.2,2.7-3.4,4L484.8,541.9L484.8,541.9z"/>
				<path class="st2" d="M481.6,586.7l-4.1-4.2c-1,1-2.1,1.9-3.2,2.8l4.4,4.3C479.7,588.7,480.7,587.7,481.6,586.7L481.6,586.7z"/>
				<path class="st2" d="M477.4,529.6l-2.8-2.3c-1.2,1.5-2.5,2.9-3.8,4.4l3.3,2.4C475.2,532.7,476.3,531.1,477.4,529.6z"/>
				<path class="st2" d="M498.4,522.3l-1.8-1.2c-0.8,1.1-1.6,2.2-2.4,3.3l2,1.3C497,524.5,497.7,523.4,498.4,522.3L498.4,522.3z"/>
				<path class="st2" d="M489.8,570.4l3.9,3.3c0.9-1,1.8-2.1,2.6-3.1l-3.6-3.2C491.8,568.4,490.8,569.4,489.8,570.4L489.8,570.4z"/>
				<path class="st2" d="M495,549.3c0.9-1.2,1.8-2.5,2.7-3.7l-1.8-1.4c-1,1.2-2,2.4-3,3.6L495,549.3L495,549.3z"/>
				<path class="st2" d="M485.4,513.2c-0.9,1.3-1.8,2.6-2.8,3.9l2.3,1.4c0.8-1.3,1.7-2.6,2.5-3.9L485.4,513.2L485.4,513.2z"/>
			</g>
			<g>
				<path class="st3" d="M171.4,488.9c-1.7-1.4-3.4-2.8-5.1-4.3l-5,5c1.6,1.7,3.2,3.3,4.9,4.9L171.4,488.9z"/>
				<path class="st3" d="M155.9,474.7l-4.3,3.5c1.4,1.9,2.9,3.7,4.4,5.5l4.8-4.2C159.1,478,157.5,476.3,155.9,474.7L155.9,474.7z"/>
				<path class="st3" d="M175.7,508.4c-2-1.2-4-2.5-6-3.8l-4.6,5.5c1.9,1.6,3.9,3.2,5.9,4.7L175.7,508.4L175.7,508.4z"/>
				<path class="st3" d="M139,476.4c-1.3-1.6-2.6-3.3-3.9-5l-2.1,1.4c1.1,1.8,2.3,3.6,3.5,5.4L139,476.4L139,476.4z"/>
				<path class="st3" d="M162.1,499c-1.9-1.5-3.8-3-5.6-4.6l-3.9,3.9c1.7,1.8,3.4,3.6,5.2,5.3L162.1,499L162.1,499z"/>
				<path class="st3" d="M146.8,491.9l3.5-3.1c-1.7-1.7-3.4-3.4-5.1-5.2l-3.1,2.5C143.7,488,145.2,490,146.8,491.9L146.8,491.9z"/>
				<path class="st3" d="M353.7,504.2c-24.1,15.3-52.9,23.9-83.6,23.2c-9.3-0.2-18.3-1.3-27.1-3.1L232.2,573
					c11.9,2.5,24.1,4,36.7,4.3c41,1,79.3-10.5,111.5-30.9L353.7,504.2z"/>
				<path class="st3" d="M114.4,485.6l-2.9,2c1.2,1.9,2.5,3.8,3.8,5.7l3.2-2.3C117.1,489.2,115.8,487.4,114.4,485.6L114.4,485.6z"/>
				<path class="st3" d="M228.6,520.5l-14.9,47.3c3.4,1.2,6.8,2.2,10.2,3.2c1.2,0.3,2.5,0.6,3.7,0.9l11.2-48.7
					C235.4,522.5,232,521.6,228.6,520.5L228.6,520.5z"/>
				<path class="st3" d="M125.7,499.7l-3.6,3c1.7,2.1,3.4,4.3,5.2,6.3l3.9-3.4C129.3,503.6,127.5,501.6,125.7,499.7L125.7,499.7z"/>
				<path class="st3" d="M172.9,500.6c1.8,1.5,3.5,2.9,5.4,4.3l5.3-7.2c-1.8-1.2-3.6-2.4-5.3-3.6L172.9,500.6L172.9,500.6z"/>
				<path class="st3" d="M185.4,524.3l4.9-8.3c-2.5-1.1-4.9-2.3-7.3-3.5l-4.9,7.3C180.5,521.4,182.9,522.9,185.4,524.3L185.4,524.3z
					"/>
				<path class="st3" d="M128.8,483.7c-1.4-1.7-2.7-3.4-4-5.2l-2,1.4c1.2,1.9,2.4,3.7,3.7,5.5L128.8,483.7L128.8,483.7z"/>
				<path class="st3" d="M150.3,468.3c-1.3-1.6-2.6-3.1-3.9-4.8l-3.2,2.2c1.1,1.8,2.2,3.5,3.3,5.2L150.3,468.3L150.3,468.3z"/>
				<path class="st3" d="M194,547.6c-3.4-1.3-6.8-2.8-10.1-4.4l-4.8,8.8c3.4,1.9,6.8,3.8,10.3,5.6L194,547.6L194,547.6z"/>
				<path class="st3" d="M212.2,553.7c-3.9-1.1-7.8-2.3-11.6-3.6l-4.5,10.7c4,1.8,8,3.5,12.1,5.1L212.2,553.7L212.2,553.7z"/>
				<path class="st3" d="M199.9,534.5c-3.2-1.1-6.3-2.3-9.4-3.5l-4.5,8.4c3.1,1.7,6.3,3.3,9.5,4.8L199.9,534.5L199.9,534.5z"/>
				<path class="st3" d="M223.8,518.9c-3-1-5.9-2.2-8.8-3.4L201.8,547c3.7,1.6,7.4,3,11.2,4.3L223.8,518.9z"/>
				<path class="st3" d="M185,509.5c2.2,1.4,4.4,2.8,6.7,4.1l4.6-7.8c-2.1-1.3-4.1-2.6-6.1-3.9L185,509.5L185,509.5z"/>
				<path class="st3" d="M140.8,497.1c-1.8-1.8-3.6-3.6-5.3-5.5l-2.9,2.4c1.6,2,3.2,4,4.9,6L140.8,497.1L140.8,497.1z"/>
				<path class="st3" d="M192.1,528c2.9,1.5,5.8,2.9,8.8,4.2l8.6-19.1c-2.5-1.2-5-2.5-7.4-3.8L192.1,528L192.1,528z"/>
				<path class="st3" d="M160,529.6c-1.1-0.8-2.3-1.5-3.4-2.3c-1.2-0.8-2.4-1.7-3.5-2.6l-4.6,5.6c2.2,1.9,4.5,3.8,6.8,5.6L160,529.6
					L160,529.6z"/>
				<path class="st3" d="M153.4,508.5c-2-1.6-4-3.3-5.9-5l-3.6,3.5c1.8,1.9,3.7,3.8,5.6,5.6L153.4,508.5L153.4,508.5z"/>
				<path class="st3" d="M183.4,527.8c-2.6-1.3-5.3-2.7-7.9-4.1l-4.4,6.5c2.6,1.8,5.2,3.5,7.9,5.1L183.4,527.8z"/>
				<path class="st3" d="M144.6,518c-2.1-1.8-4.2-3.6-6.2-5.5l-4.1,4.1c1.9,2.1,3.9,4.1,6,6L144.6,518L144.6,518z"/>
				<path class="st3" d="M176.5,539.5c-2.9-1.5-5.7-3.1-8.4-4.8l-4.8,7.2c2.8,2,5.6,3.9,8.5,5.7L176.5,539.5L176.5,539.5z"/>
				<path class="st3" d="M163.7,524.7l4.2-5.7c-2.1-1.4-4.3-2.9-6.4-4.4l-4.1,5c1.1,0.9,2.1,1.8,3.1,2.7
					C161.5,523,162.6,523.8,163.7,524.7L163.7,524.7z"/>
			</g>
			<g>
				<path class="st4" d="M247.8,210.3l-0.5-4c-2.6,0.3-5.3,0.6-7.9,1l0.8,4.7C242.7,211.4,245.3,210.9,247.8,210.3L247.8,210.3z"/>
				<path class="st4" d="M249.6,224l-0.7-5.5c-2.5,0.3-5,0.6-7.6,0.9l1,6.2C244.7,225.1,247.1,224.5,249.6,224L249.6,224z"/>
				<path class="st4" d="M144.9,219.7l8.1,9.9c2.9-2.6,5.9-5.1,8.9-7.6l-6.8-9.7C151.6,214.7,148.2,217.2,144.9,219.7L144.9,219.7z"
					/>
				<path class="st4" d="M183,223.9l-4.8-8.4c-3,1.7-5.9,3.5-8.8,5.3l5.8,8.9C177.8,227.7,180.4,225.7,183,223.9z"/>
				<path class="st4" d="M235.3,181.6l0.8,5.2c2.8-0.6,5.6-1.2,8.4-1.6l-0.6-4.7C241.1,180.8,238.2,181.1,235.3,181.6L235.3,181.6z"
					/>
				<path class="st4" d="M191.6,202.8l-3.6-8.1c-3.1,1.3-6.2,2.7-9.2,4.2l4.4,8.5C185.9,205.8,188.7,204.3,191.6,202.8L191.6,202.8z
					"/>
				<path class="st4" d="M176.1,211.8l-5.1-8.9c-3.3,1.8-6.6,3.7-9.8,5.7l6.1,9.3C170.3,215.7,173.2,213.7,176.1,211.8L176.1,211.8z
					"/>
				<path class="st4" d="M255.6,179.6l0.2,4c2.5-0.3,5.1-0.5,7.6-0.6l-0.1-3.6C260.7,179.4,258.1,179.5,255.6,179.6L255.6,179.6z"/>
				<path class="st4" d="M263.9,195.5l-0.1-2.4c-2.5,0-5,0.1-7.5,0.2l0.2,3C258.9,195.9,261.4,195.7,263.9,195.5L263.9,195.5z"/>
				<path class="st4" d="M140.1,223.4c-2.3,1.9-4.6,3.8-6.9,5.8c-1.2,1.1-2.3,2.2-3.4,3.3L165,268c2.4-2.3,4.8-4.5,7.3-6.6
					L140.1,223.4L140.1,223.4z"/>
				<path class="st4" d="M264.9,221.7l-0.1-3.8c-2.4,0-4.7,0-7,0.1l0.3,4.6C260.3,222.2,262.6,221.9,264.9,221.7L264.9,221.7z"/>
				<path class="st4" d="M246.2,197.7l-0.5-3.8c-2.8,0.3-5.5,0.6-8.3,1.1l0.7,4.4C240.8,198.8,243.5,198.2,246.2,197.7L246.2,197.7z
					"/>
				<path class="st4" d="M264.4,208l-0.1-2.5c-2.4,0-4.8,0-7.3,0.1l0.2,3.2C259.6,208.4,262,208.2,264.4,208L264.4,208z"/>
				<path class="st4" d="M226.4,189.2l-1.3-5.9c-2.9,0.6-5.7,1.2-8.6,1.9l1.7,6.4C221,190.8,223.7,190,226.4,189.2L226.4,189.2z"/>
				<path class="st4" d="M232.1,214.4l-1.2-5.5c-2.5,0.5-5,1.1-7.5,1.8l1.6,6.1C227.3,215.9,229.7,215.1,232.1,214.4z"/>
				<path class="st4" d="M235.1,227.7l-1.5-6.8c-2.4,0.5-4.7,1-7,1.6l2,7.3C230.7,229.1,232.8,228.4,235.1,227.7L235.1,227.7z"/>
				<path class="st4" d="M184.7,226.8c-2.7,1.6-5.4,3.3-8,5l11.6,17.5c2.2-1.4,4.5-2.8,6.8-4.1L184.7,226.8z"/>
				<path class="st4" d="M197.1,215.2l-3.3-7.5c-2.8,1.2-5.6,2.6-8.4,3.9l4.1,8C192,218.1,194.5,216.6,197.1,215.2z"/>
				<path class="st4" d="M203.9,230.6c-2.3,1.1-4.7,2.2-6.9,3.4l4.1,8c2.1-1.1,4.3-2.1,6.4-3.1L203.9,230.6L203.9,230.6z"/>
				<path class="st4" d="M126.5,235.8c-35.1,36-56.7,85.2-56.7,139.4h50c0-40.5,16.1-77.3,42.2-104.2L126.5,235.8L126.5,235.8z"/>
				<path class="st4" d="M163.7,224.7c-3.1,2.2-6.2,4.4-9.1,6.8l21.7,26.5c2.3-1.8,4.7-3.6,7.1-5.3L163.7,224.7z"/>
				<path class="st4" d="M206.1,196.1c0.6-0.3,1.3-0.5,2-0.8l-2.3-7.1c-2.8,0.9-5.6,1.8-8.4,2.9l2.9,7.5
					C202.1,197.8,204.1,196.9,206.1,196.1L206.1,196.1z"/>
				<path class="st4" d="M202.4,227.3l-3.5-7.9c-2.6,1.2-5.1,2.4-7.6,3.7l4.3,8.3C197.9,230,200.1,228.7,202.4,227.3L202.4,227.3z"
					/>
				<path class="st4" d="M212.2,207.9l-2.1-6.3c-0.6,0.2-1.2,0.4-1.8,0.6c-2,0.7-4,1.4-6,2.1l2.6,6.8
					C207.4,209.9,209.7,208.9,212.2,207.9L212.2,207.9z"/>
				<path class="st4" d="M220.4,233l-2.6-7.9c-2.2,0.7-4.4,1.5-6.5,2.3l3.2,8.3C216.5,234.8,218.4,233.9,220.4,233L220.4,233z"/>
				<path class="st4" d="M216.3,220.3l-2.2-6.8c-2.4,0.8-4.8,1.6-7.1,2.6l2.8,7.3C211.9,222.3,214.1,221.3,216.3,220.3L216.3,220.3z
					"/>
				<path class="st4" d="M229.3,201.8l-1.1-5c-2.7,0.6-5.4,1.2-8,1.9l1.5,5.6C224.1,203.3,226.7,202.5,229.3,201.8L229.3,201.8z"/>
			</g>
			<path class="st0" d="M457.6,354.3c-19.7-4.5-36.7-8.4-36.7-19.1c0-14.6,19.3-16.8,30.8-16.8c12.3,0,24.7,2.7,37.1,8.1l1,0.4
				l32.1-32.1l-3.5-2.3c-17.1-10.8-41.3-17-66.4-17c-49.9,0-82.1,24.3-82.1,61.8c0,43.5,39.1,52.6,70.6,59.9
				c19.7,4.6,36.8,8.5,36.8,19.5c0,13.5-19.6,15.5-31.3,15.5c-16.5,0-34.3-4.5-48.9-12.5l-1-0.6l-31.2,31.2l3.1,2.4
				c17.4,13.5,47.9,22.2,77.8,22.2c61,0,82.6-33.1,82.6-61.5C528.2,370.5,489.1,361.5,457.6,354.3L457.6,354.3z"/>
		</g>
	</g>
</g>
</svg>
