<svg id="Layer_1" data-name="Layer 1" xmlns="http://www.w3.org/2000/svg" viewBox="0 0 60 60"><defs><style>.cls-1{fill:blue;}.cls-2{fill:#8080ff;}.cls-3{fill:#fff;}.cls-4{fill:#bfbfff;}.cls-5{fill:#4040ff;}</style></defs><title>document-and-files029-file</title><path class="cls-1" d="M42.1,7H21.85a4,4,0,0,0-4.05,4.05V49a4,4,0,0,0,4.05,4h27a4,4,0,0,0,4-4V17.8Zm0,0"/><path class="cls-2" d="M42.1,7v9.45a1.34,1.34,0,0,0,1.35,1.35H52.9Zm0,0"/><path class="cls-3" d="M45.25,34.18H25.45a1.35,1.35,0,1,1,0-2.7h19.8a1.35,1.35,0,1,1,0,2.7Zm0,0"/><path class="cls-3" d="M45.25,26.08H25.45a1.35,1.35,0,0,1,0-2.7h19.8a1.35,1.35,0,0,1,0,2.7Zm0,0"/><path class="cls-3" d="M45.25,42.28H25.45a1.35,1.35,0,1,1,0-2.7h19.8a1.35,1.35,0,0,1,0,2.7Zm0,0"/><path class="cls-4" d="M19.15,53.08A12.15,12.15,0,1,1,31.3,40.93,12.16,12.16,0,0,1,19.15,53.08Zm0,0"/><path class="cls-5" d="M19.15,43.63a1.34,1.34,0,0,1-1.35-1.35V42a3.39,3.39,0,0,1,1.93-3,1.37,1.37,0,0,0,.75-1.48,1.4,1.4,0,0,0-1.07-1.07,1.36,1.36,0,0,0-1.61,1.33,1.35,1.35,0,0,1-2.7,0,4.06,4.06,0,0,1,4.77-4,4.09,4.09,0,0,1,3.27,3.27,4,4,0,0,1-2.25,4.38.66.66,0,0,0-.39.6v.24a1.34,1.34,0,0,1-1.35,1.35Zm0,0"/><path class="cls-5" d="M20.5,46.78a1.35,1.35,0,1,1-1.35-1.35,1.34,1.34,0,0,1,1.35,1.35Zm0,0"/></svg>