<?xml version="1.0" encoding="utf-8"?>
<!-- Generator: Adobe Illustrator 25.4.1, SVG Export Plug-In . SVG Version: 6.00 Build 0)  -->
<svg version="1.1" id="Layer_1" height="60" xmlns="http://www.w3.org/2000/svg" xmlns:xlink="http://www.w3.org/1999/xlink" x="0px" y="0px"
	 viewBox="0 0 180 60" style="enable-background:new 0 0 180 60;" xml:space="preserve">
<g>
	<g>
		<g>
			<g>
				<path style="fill:#7F92FF;" d="M30.4,24.3c1.9,1.9,1.9,4.9,0,6.8c-1.9,1.9-4.9,1.9-6.8,0c-1.9-1.9-1.9-4.9,0-6.8
					C25.5,22.5,28.5,22.5,30.4,24.3z"/>
				
					<linearGradient id="SVGID_1_" gradientUnits="userSpaceOnUse" x1="311.464" y1="-502.3171" x2="357.8574" y2="-455.9237" gradientTransform="matrix(0.8571 0 0 -0.8571 -250.3151 -373.3084)">
					<stop  offset="0" style="stop-color:#7F92FF"/>
					<stop  offset="1" style="stop-color:#5E1AD5"/>
				</linearGradient>
				<path style="fill:url(#SVGID_1_);" d="M49.5,1.3c-2,9.5-7.7,21.3-17.7,31.3C21.9,42.5,10,48.3,0.5,50.3C3.8,50.6,7.3,50,11,49
					l-0.8,3.3l6.1,3.2l3.2-3.3l6.8,1.4l1.6,4l6.9-1l0.6-4.5l6.3-2.9l3.7,2.2l5-4.8l-2.2-4l3.3-6l4.3-0.3l1.2-6.8l-4.2-2L52,20.6
					l3.3-2.8l-3.1-6.2l-3.9,0.8C49.3,8.3,49.8,4.6,49.5,1.3z M38.2,38.8c-3.9,3.9-9.4,5.4-14.6,4.3c3.6-2.3,7.1-5.1,10.4-8.4
					c3.3-3.3,6.1-6.8,8.4-10.4C43.5,29.4,42.2,34.9,38.2,38.8z"/>
				<path style="fill:#5E1AD5;" d="M37.4,20c0.5-0.7,0.2-1.4-0.1-1.8c-0.1-0.1-0.2-0.2-0.2-0.3c-5.5-5.5-14.3-5.5-19.7,0
					c-5.5,5.5-5.5,14.3,0,19.7c0.1,0.1,0.2,0.2,0.3,0.2c0.3,0.3,1,0.7,1.8,0.1c0.6-0.4,1-1.2,0.3-2.2c-0.1-0.1-0.1-0.1-0.2-0.2
					c-4.5-4.5-4.5-11.2,0-15.6c4.5-4.5,11.1-4.5,15.6,0c0.1,0.1,0.2,0.2,0.2,0.2C36.2,21.1,37,20.6,37.4,20z"/>
				<path style="fill:#7F92FF;" d="M40.8,14.8c0.6-0.9,0.1-1.5-0.2-2c-7.9-7.1-20-6.9-27.6,0.8c-7.5,7.6-7.8,19.7-0.7,27.6
					c0.3,0.3,1.1,0.8,1.9,0.2c0.6-0.4,1-1.2,0.3-2.2c-6.1-6.7-5.8-17.1,0.6-23.5c6.4-6.4,16.8-6.7,23.5-0.6
					C39.6,15.9,40.4,15.4,40.8,14.8z"/>
				<path style="fill:#5E1AD5;" d="M41,9.5L41,9.5c0.1,0.1,0.2,0.2,0.3,0.2c0.9,0.7,1.7,0.2,2.1-0.3c0.7-1-0.1-1.9-0.3-2.1
					c-10.2-8-25-7.3-34.4,2.1S-1.4,33.7,6.6,43.9c0.3,0.3,1.1,1,2.1,0.3c0.6-0.4,1.1-1.3,0.2-2.4l-0.1-0.1c-6.8-9-6.1-21.9,2.1-30.1
					C19.1,3.3,32,2.7,41,9.5C41,9.4,41,9.4,41,9.5z"/>
			</g>
		</g>
	</g>
	<g>
		<path style="fill:#2F48DD;" d="M80.1,19.8c2.1,0,4.1,0.5,5.9,1.4c1.8,1,3.2,2.3,4.3,4s1.6,3.5,1.6,5.6c0,2-0.5,3.9-1.6,5.6
			s-2.5,3-4.3,4c-1.8,1-3.8,1.4-5.9,1.4h-9.4V19.8H80.1z M80,25.1h-3.3v11.4H80c1.6,0,3-0.6,4.2-1.7c1.2-1.1,1.7-2.5,1.7-4.1
			c0-1.6-0.6-3-1.7-4.1C83,25.6,81.6,25.1,80,25.1z"/>
		<path style="fill:#2F48DD;" d="M103.2,25.8c2.1,0,3.8,0.5,5,1.5c1.2,1,1.7,2.5,1.7,4.3v10.1h-5.5V40c-1.5,1.4-3.2,2.1-5,2.1
			c-1.6,0-2.9-0.5-3.9-1.4c-1-0.9-1.5-2.1-1.5-3.5c0-1.5,0.5-2.6,1.5-3.4c1-0.8,2.4-1.3,4.2-1.3h4.6v-0.3c0-0.7-0.2-1.2-0.7-1.6
			s-1.1-0.5-2-0.5c-1.5,0-3,0.5-4.6,1.4l-1.6-3.6C98,26.5,100.6,25.8,103.2,25.8z M101.8,38.6c0.9,0,1.8-0.3,2.6-0.8v-2.9h-2.6
			c-0.7,0-1.3,0.2-1.7,0.5s-0.6,0.7-0.6,1.3c0,0.6,0.2,1.1,0.6,1.4C100.5,38.5,101.1,38.6,101.8,38.6z"/>
		<path style="fill:#2F48DD;" d="M124.2,25.8c1,0,1.9,0.2,2.6,0.6s1.4,0.9,1.8,1.7c1.1-0.9,2-1.4,3-1.8c0.9-0.3,1.9-0.5,3-0.5
			c1.6,0,2.9,0.4,4,1.3c1,0.9,1.5,2.2,1.5,3.8v10.8h-5.5v-9.1c0-0.8-0.2-1.3-0.6-1.8c-0.4-0.4-0.9-0.6-1.6-0.6c-1.1,0-2.2,0.3-3.1,1
			c0.1,0.8,0.1,1.4,0.1,1.9v8.6h-5.5v-9.1c0-0.8-0.2-1.3-0.6-1.8c-0.4-0.4-0.9-0.6-1.6-0.6c-1,0-2.1,0.3-3,1v10.5h-5.5V26.1h5.5V28
			C120.3,26.5,122.2,25.8,124.2,25.8z"/>
		<path style="fill:#2F48DD;" d="M159.7,33.9v1.4h-11.3c0.4,1.8,1.5,2.7,3.5,2.7c0.7,0,1.4-0.1,2-0.3c0.6-0.2,1.2-0.5,1.6-0.9l3,2.6
			c-0.9,0.8-2,1.5-3.2,2s-2.5,0.7-3.8,0.7c-1.6,0-3.1-0.4-4.4-1.1s-2.3-1.7-3.1-3s-1.1-2.6-1.1-4.1c0-2.3,0.8-4.2,2.4-5.8
			c1.6-1.6,3.6-2.3,6.1-2.3c1.7,0,3.2,0.4,4.5,1.1c1.3,0.7,2.3,1.7,3,2.9C159.3,31,159.7,32.4,159.7,33.9z M148.3,32.6h6
			c0-0.8-0.3-1.5-0.8-2c-0.5-0.5-1.3-0.8-2.1-0.8c-0.8,0-1.5,0.2-2,0.7C148.8,31,148.5,31.7,148.3,32.6z"/>
		<path style="fill:#2F48DD;" d="M178.7,33.9v1.4h-11.3c0.4,1.8,1.5,2.7,3.5,2.7c0.7,0,1.4-0.1,2-0.3c0.6-0.2,1.2-0.5,1.6-0.9l3,2.6
			c-0.9,0.8-2,1.5-3.2,2s-2.5,0.7-3.8,0.7c-1.6,0-3.1-0.4-4.4-1.1s-2.3-1.7-3.1-3s-1.1-2.6-1.1-4.1c0-2.3,0.8-4.2,2.4-5.8
			c1.6-1.6,3.6-2.3,6.1-2.3c1.7,0,3.2,0.4,4.5,1.1c1.3,0.7,2.3,1.7,3,2.9C178.4,31,178.7,32.4,178.7,33.9z M167.4,32.6h6
			c0-0.8-0.3-1.5-0.8-2c-0.5-0.5-1.3-0.8-2.1-0.8c-0.8,0-1.5,0.2-2,0.7C167.9,31,167.5,31.7,167.4,32.6z"/>
	</g>
</g>
</svg>
