<?xml version="1.0" encoding="utf-8"?>
<!-- Generator: Adobe Illustrator 25.4.1, SVG Export Plug-In . SVG Version: 6.00 Build 0)  -->
<svg version="1.1" height="60" id="Layer_1" xmlns="http://www.w3.org/2000/svg" xmlns:xlink="http://www.w3.org/1999/xlink" x="0px" y="0px"
	 viewBox="0 0 160 60" style="enable-background:new 0 0 160 60;" xml:space="preserve">
<style type="text/css">
	.st0{fill:#2F48DD;}
	.st1{fill:#7F92FF;}
	.st2{fill:url(#SVGID_1_);}
	.st3{fill:#5E1AD5;}
</style>
<g>
	<g>
		<g>
			<path class="st0" d="M33,32.9c0.6,0,1,0.2,1.5,0.6c0.4,0.4,0.6,0.9,0.6,1.5s-0.2,1-0.6,1.5c-0.4,0.4-0.9,0.6-1.5,0.6h-0.1
				c-1.3,0-2.4-0.2-3.3-0.6c-1-0.3-1.8-0.9-2.5-1.6c-0.7-0.7-1.2-1.5-1.5-2.4c-0.3-0.9-0.5-2-0.5-3.1v-5.9c-1,0-1.8,0.3-2.4,0.9
				c-0.6,0.6-0.9,1.5-0.9,2.9V37h-10c-1.3,0-2.4-0.2-3.3-0.5S6.7,35.6,6,35c-0.7-0.7-1.2-1.5-1.5-2.5C4.2,31.6,4,30.4,4,29.1v-7.8
				h6.7v4h-2V29c0,1.4,0.3,2.3,0.9,2.9c0.6,0.6,1.4,0.9,2.4,0.9h5.3v-5.5c0-1.3,0.2-2.4,0.5-3.4c0.3-0.9,0.9-1.8,1.6-2.5
				c0.7-0.7,1.5-1.1,2.5-1.5c0.9-0.3,2.1-0.5,3.3-0.5h4.7v10c0,1.1,0.3,2.1,0.9,2.7C31.2,32.7,32,32.9,33,32.9z M10.6,43
				c-0.5-0.3-0.7-0.9-0.7-1.5c0-0.7,0.3-1.1,0.7-1.5c0.4-0.3,0.9-0.5,1.6-0.5c0.6,0,1.2,0.2,1.6,0.5s0.7,0.9,0.7,1.5
				s-0.3,1.1-0.8,1.5c-0.4,0.3-0.9,0.5-1.6,0.5C11.4,43.4,11,43.3,10.6,43z M15.9,43c-0.5-0.3-0.7-0.9-0.7-1.5
				c0-0.7,0.3-1.1,0.7-1.5c0.4-0.3,0.9-0.5,1.6-0.5c0.6,0,1.2,0.2,1.6,0.5s0.7,0.9,0.7,1.5S19.5,42.6,19,43
				c-0.4,0.3-0.9,0.5-1.6,0.5C16.9,43.5,16.3,43.3,15.9,43z"/>
			<path class="st0" d="M58.1,32.9c0.6,0,1,0.2,1.5,0.6c0.4,0.4,0.6,0.9,0.6,1.5s-0.2,1-0.6,1.5c-0.4,0.4-0.9,0.6-1.5,0.6l0,0
				c-1.3,0-2.4-0.2-3.3-0.6c-1-0.3-1.8-0.9-2.5-1.6l0,0c-0.8,0.7-1.7,1.2-2.8,1.6c-1.1,0.4-2.4,0.6-3.8,0.6c-1.4,0-2.7-0.2-3.8-0.6
				c-1.1-0.3-2.1-0.9-2.8-1.6l0,0c-0.7,0.7-1.5,1.2-2.5,1.6c-0.9,0.3-2.1,0.6-3.3,0.6v-4c1,0,1.8-0.3,2.3-0.9
				c0.6-0.6,0.9-1.5,0.9-2.7v-1.2c0-1.4,0.3-2.6,0.7-3.7s1.1-2.1,1.9-2.7c0.9-0.8,1.8-1.3,3-1.7c1.1-0.4,2.4-0.6,3.8-0.6
				c1.4,0,2.7,0.2,3.8,0.6c1.1,0.3,2.1,0.9,2.9,1.7c0.9,0.8,1.5,1.6,1.9,2.7s0.7,2.3,0.7,3.8v1.2c0,1.1,0.3,2.1,0.9,2.7
				C56.3,32.7,57.1,32.9,58.1,32.9z M47.4,32.6c0.6-0.3,1-0.5,1.5-0.9s0.7-0.9,0.9-1.5c0.3-0.6,0.3-1.2,0.3-2c0-0.7-0.1-1.4-0.3-2
				c-0.3-0.6-0.5-1.1-0.9-1.5S48,24,47.4,23.8c-0.6-0.3-1.2-0.3-1.9-0.3s-1.3,0.1-1.9,0.3c-0.6,0.3-1,0.6-1.5,1
				c-0.4,0.4-0.7,0.9-0.9,1.5c-0.3,0.6-0.3,1.2-0.3,1.9s0.1,1.4,0.3,2c0.3,0.6,0.5,1.1,0.9,1.5s0.9,0.8,1.5,0.9
				c0.6,0.3,1.2,0.3,1.9,0.3C46.2,32.9,46.9,32.9,47.4,32.6z"/>
			<path class="st0" d="M58.1,37.1V33h1.2c-0.8-1.4-1.2-2.9-1.2-4.7c0-1.4,0.3-2.7,0.7-3.8c0.4-1.1,1.1-2,1.9-2.7
				c0.9-0.8,1.8-1.3,2.9-1.7c1.1-0.4,2.4-0.6,3.8-0.6c1.8,0,3.3,0.3,4.7,1v6.2h-4.7v-3.1c-0.7,0-1.3,0.1-1.9,0.3
				c-0.6,0.3-1,0.5-1.5,0.9s-0.7,0.9-0.9,1.5c-0.3,0.6-0.3,1.2-0.3,2c0,0.7,0.1,1.4,0.3,2c0.3,0.6,0.5,1.1,0.9,1.5
				c0.4,0.4,0.9,0.8,1.5,0.9c0.6,0.3,1.2,0.3,1.9,0.3h4.7v4.1L58.1,37.1L58.1,37.1z"/>
			<path class="st0" d="M74.4,37.1V33h6.3c0.7,0,1.3-0.1,1.9-0.3s1-0.5,1.5-0.9s0.7-0.9,0.9-1.5c0.3-0.6,0.3-1.2,0.3-2
				c0-0.7-0.1-1.4-0.3-2c-0.3-0.6-0.5-1.1-0.9-1.5s-0.9-0.8-1.5-0.9c-0.6-0.3-1.2-0.3-1.9-0.3h-3.2v-4h3.1c1.4,0,2.7,0.2,3.8,0.6
				s2.1,0.9,2.9,1.7c0.9,0.8,1.5,1.6,1.9,2.7s0.7,2.3,0.7,3.8c0,1.4-0.3,2.7-0.7,3.8c-0.4,1.1-1.1,2-1.9,2.7
				c-0.9,0.8-1.8,1.4-2.9,1.7c-1.1,0.4-2.4,0.6-3.8,0.6C80.6,37.1,74.4,37.1,74.4,37.1z"/>
		</g>
	</g>
	<g>
		<g>
			<path class="st1" d="M133.4,24.3c1.9,1.9,1.9,4.9,0,6.8c-1.9,1.9-4.9,1.9-6.8,0c-1.9-1.9-1.9-4.9,0-6.8
				C128.5,22.5,131.5,22.5,133.4,24.3z"/>
			
				<linearGradient id="SVGID_1_" gradientUnits="userSpaceOnUse" x1="206.8086" y1="-478.3138" x2="253.202" y2="-431.9204" gradientTransform="matrix(0.8571 0 0 -0.8571 -57.5814 -352.737)">
				<stop  offset="0" style="stop-color:#7F92FF"/>
				<stop  offset="1" style="stop-color:#5E1AD5"/>
			</linearGradient>
			<path class="st2" d="M152.5,1.3c-2,9.5-7.7,21.3-17.7,31.3c-9.9,9.9-21.8,15.7-31.3,17.7c3.3,0.3,6.8-0.3,10.5-1.3l-0.8,3.3
				l6.1,3.2l3.2-3.3l6.8,1.4l1.6,4l6.9-1l0.6-4.5l6.3-2.9l3.7,2.2l5-4.8l-2.2-4l3.3-6l4.3-0.3l1.2-6.8l-4.2-2l-0.8-6.9l3.3-2.8
				l-3.1-6.2l-3.9,0.8C152.3,8.3,152.8,4.6,152.5,1.3z M141.2,38.8c-3.9,3.9-9.4,5.4-14.6,4.3c3.6-2.3,7.1-5.1,10.4-8.4
				c3.3-3.3,6.1-6.8,8.4-10.4C146.5,29.4,145.2,34.9,141.2,38.8z"/>
			<path class="st3" d="M140.4,20c0.5-0.7,0.2-1.4-0.1-1.8c-0.1-0.1-0.2-0.2-0.2-0.3c-5.5-5.5-14.3-5.5-19.7,0
				c-5.5,5.5-5.5,14.3,0,19.7c0.1,0.1,0.2,0.2,0.3,0.2c0.3,0.3,1,0.7,1.8,0.1c0.6-0.4,1-1.2,0.3-2.2c-0.1-0.1-0.1-0.1-0.2-0.2
				c-4.5-4.5-4.5-11.2,0-15.6c4.5-4.5,11.1-4.5,15.6,0c0.1,0.1,0.2,0.2,0.2,0.2C139.2,21.1,140,20.6,140.4,20z"/>
			<path class="st1" d="M143.8,14.8c0.6-0.9,0.1-1.5-0.2-2c-7.9-7.1-20-6.9-27.6,0.8c-7.5,7.6-7.8,19.7-0.7,27.6
				c0.3,0.3,1.1,0.8,1.9,0.2c0.6-0.4,1-1.2,0.3-2.2c-6.1-6.7-5.8-17.1,0.6-23.5c6.4-6.4,16.8-6.7,23.5-0.6
				C142.6,15.9,143.4,15.4,143.8,14.8z"/>
			<path class="st3" d="M144,9.5L144,9.5c0.1,0.1,0.2,0.2,0.3,0.2c0.9,0.7,1.7,0.2,2.1-0.3c0.7-1-0.1-1.9-0.3-2.1
				c-10.2-8-25-7.3-34.4,2.1s-10.1,24.3-2.1,34.5c0.3,0.3,1.1,1,2.1,0.3c0.6-0.4,1.1-1.3,0.2-2.4l-0.1-0.1c-6.8-9-6.1-21.9,2.1-30.1
				C122.1,3.3,135,2.7,144,9.5C144,9.4,144,9.4,144,9.5z"/>
		</g>
	</g>
</g>
</svg>
