<svg width="161" height="160" viewBox="0 0 161 160" fill="none" xmlns="http://www.w3.org/2000/svg">
<path d="M161 80C161 91.8811 158.405 103.168 153.746 113.308C141.119 140.865 113.292 160 81 160C48.7081 160 20.8811 140.865 8.25405 113.308C3.59459 103.168 1 91.8811 1 80C1 35.8162 36.8162 0 81 0C125.184 0 161 35.8162 161 80Z" fill="#F4F7FC"/>
<mask id="mask0_402_581" style="mask-type:alpha" maskUnits="userSpaceOnUse" x="0" y="0" width="160" height="160">
<path d="M160 80C160 91.8811 157.405 103.168 152.746 113.308C140.119 140.865 112.292 160 80 160C47.7081 160 19.8811 140.865 7.25405 113.308C2.59459 103.168 0 91.8811 0 80C0 35.8162 35.8162 0 80 0C124.184 0 160 35.8162 160 80Z" fill="#F4F7FC"/>
</mask>
<g mask="url(#mask0_402_581)">
<g clip-path="url(#clip0_402_581)">
<path d="M90.7147 85.5799C89.4179 84.2833 87.3151 84.2833 86.0183 85.5801L78.5481 93.0503L67.9499 82.4521L75.4201 74.9817C76.7172 73.6846 76.7172 71.5818 75.4201 70.285C74.1233 68.988 72.0203 68.988 70.7235 70.285L63.2533 77.7555L57.2802 71.7824C55.9834 70.4854 53.8804 70.4854 52.5836 71.7824L39.3742 84.9918C30.1691 94.1967 29.5937 108.814 37.6483 118.695C37.5404 118.779 37.4352 118.868 37.3361 118.967L21.9733 134.331C20.6762 135.627 20.6762 137.73 21.9733 139.027C22.6218 139.676 23.4716 140 24.3215 140C25.1713 140 26.0214 139.676 26.6697 139.027L42.0327 123.664C42.1319 123.565 42.2209 123.46 42.3048 123.352C46.9162 127.111 52.5587 128.99 58.2013 128.99C64.6501 128.99 71.099 126.535 76.0082 121.626L89.2176 108.416C90.5146 107.12 90.5146 105.017 89.2176 103.72L83.2445 97.7467L90.7147 90.2765C92.0118 88.9797 92.0118 86.8767 90.7147 85.5799ZM67.9499 109.631C67.5175 110.063 66.951 110.28 66.3843 110.28C65.8176 110.28 65.2511 110.063 64.8186 109.631L51.0393 95.8518C50.1747 94.9871 50.1747 93.5851 51.0393 92.7205C51.9041 91.8561 53.3057 91.8561 54.1705 92.7205L67.9499 106.5C68.8145 107.364 68.8145 108.767 67.9499 109.631Z" fill="url(#paint0_linear_402_581)"/>
<path d="M140.027 25.6694C141.324 24.3726 141.324 22.2698 140.027 20.9728C138.731 19.6757 136.628 19.6757 135.331 20.9728L119.968 36.3356C119.869 36.4345 119.78 36.5395 119.696 36.6473C115.217 32.988 109.661 30.9979 103.799 30.9979C97.0725 30.9979 90.7486 33.6175 85.9922 38.3739L72.7828 51.5833C71.4858 52.8804 71.4858 54.9829 72.7828 56.28L104.72 88.2171C105.343 88.84 106.188 89.1897 107.068 89.1897C107.949 89.1897 108.794 88.8398 109.417 88.2171L122.626 75.0077C127.382 70.2513 130.002 63.9274 130.002 57.2008C130.002 51.3389 128.012 45.7832 124.352 41.3036C124.46 41.2197 124.565 41.1309 124.664 41.032L140.027 25.6694ZM110.2 67.4999C109.767 67.9323 109.201 68.1484 108.634 68.1484C108.067 68.1484 107.501 67.9323 107.068 67.4999L93.2892 53.7207C92.4246 52.8561 92.4246 51.4541 93.2892 50.5895C94.1541 49.7249 95.5556 49.7249 96.4205 50.5895L110.2 64.3686C111.064 65.2332 111.064 66.6355 110.2 67.4999Z" fill="url(#paint1_linear_402_581)"/>
<path d="M53.2224 71.394C54.394 70.2225 56.2935 70.2225 57.4651 71.394L89.6086 103.538C90.7802 104.709 90.7802 106.609 89.6086 107.78L86.8157 110.573L50.4295 74.187L53.2224 71.394Z" fill="url(#paint2_linear_402_581)"/>
<path d="M70.5949 70.234C71.9259 68.903 74.0839 68.903 75.4149 70.234C76.7459 71.565 76.7459 73.7229 75.4149 75.054L73.8204 76.6485L69.0004 71.8285L70.5949 70.234Z" fill="#C4C4C4"/>
</g>
<g clip-path="url(#clip1_402_581)">
<path d="M90.7147 85.5799C89.4179 84.2833 87.3151 84.2833 86.0183 85.5801L78.5481 93.0503L67.9499 82.4521L75.4201 74.9817C76.7172 73.6846 76.7172 71.5818 75.4201 70.285C74.1233 68.988 72.0203 68.988 70.7235 70.285L63.2533 77.7555L57.2802 71.7824C55.9834 70.4854 53.8804 70.4854 52.5836 71.7824L39.3742 84.9918C30.1691 94.1967 29.5937 108.814 37.6483 118.695C37.5404 118.779 37.4352 118.868 37.3361 118.967L21.9733 134.331C20.6762 135.627 20.6762 137.73 21.9733 139.027C22.6218 139.676 23.4716 140 24.3215 140C25.1713 140 26.0214 139.676 26.6697 139.027L42.0327 123.664C42.1319 123.565 42.2209 123.46 42.3048 123.352C46.9162 127.111 52.5587 128.99 58.2013 128.99C64.6501 128.99 71.099 126.535 76.0082 121.626L89.2176 108.416C90.5146 107.12 90.5146 105.017 89.2176 103.72L83.2445 97.7467L90.7147 90.2765C92.0118 88.9797 92.0118 86.8767 90.7147 85.5799ZM67.9499 109.631C67.5175 110.063 66.951 110.28 66.3843 110.28C65.8176 110.28 65.2511 110.063 64.8186 109.631L51.0393 95.8518C50.1747 94.9871 50.1747 93.5851 51.0393 92.7205C51.9041 91.8561 53.3057 91.8561 54.1705 92.7205L67.9499 106.5C68.8145 107.364 68.8145 108.767 67.9499 109.631Z" fill="url(#paint3_linear_402_581)"/>
<path d="M140.027 25.6694C141.324 24.3726 141.324 22.2698 140.027 20.9728C138.731 19.6757 136.628 19.6757 135.331 20.9728L119.968 36.3356C119.869 36.4345 119.78 36.5395 119.696 36.6473C115.217 32.988 109.661 30.9979 103.799 30.9979C97.0725 30.9979 90.7486 33.6175 85.9922 38.3739L72.7828 51.5833C71.4858 52.8804 71.4858 54.9829 72.7828 56.28L104.72 88.2171C105.343 88.84 106.188 89.1897 107.068 89.1897C107.949 89.1897 108.794 88.8398 109.417 88.2171L122.626 75.0077C127.382 70.2513 130.002 63.9274 130.002 57.2008C130.002 51.3389 128.012 45.7832 124.352 41.3036C124.46 41.2197 124.565 41.1309 124.664 41.032L140.027 25.6694ZM110.2 67.4999C109.767 67.9323 109.201 68.1484 108.634 68.1484C108.067 68.1484 107.501 67.9323 107.068 67.4999L93.2892 53.7207C92.4246 52.8561 92.4246 51.4541 93.2892 50.5895C94.1541 49.7249 95.5556 49.7249 96.4205 50.5895L110.2 64.3686C111.064 65.2332 111.064 66.6355 110.2 67.4999Z" fill="url(#paint4_linear_402_581)"/>
<path d="M53.2224 71.394C54.394 70.2225 56.2935 70.2225 57.4651 71.394L89.6086 103.538C90.7802 104.709 90.7802 106.609 89.6086 107.78L86.8157 110.573L50.4295 74.187L53.2224 71.394Z" fill="url(#paint5_linear_402_581)"/>
<path d="M109.257 88.4297C108.085 89.6013 106.186 89.6013 105.014 88.4297L72.6808 56.0961C71.5092 54.9245 71.5092 53.025 72.6808 51.8534L75.7243 48.81L112.301 85.3862L109.257 88.4297Z" fill="url(#paint6_linear_402_581)"/>
<path d="M70.5949 70.234C71.9259 68.903 74.0839 68.903 75.4149 70.234C76.7459 71.565 76.7459 73.7229 75.4149 75.054L73.8204 76.6485L69.0004 71.8285L70.5949 70.234Z" fill="url(#paint7_linear_402_581)"/>
<path d="M86.0252 85.5469C87.327 84.2452 89.4375 84.2452 90.7393 85.5469C92.041 86.8487 92.041 88.9592 90.7393 90.261L89.0002 92.0001L84.2862 87.286L86.0252 85.5469Z" fill="url(#paint8_linear_402_581)"/>
</g>
<path fill-rule="evenodd" clip-rule="evenodd" d="M112.303 94.8545C111.481 94.9525 110.893 95.6988 110.991 96.5214C111.089 97.344 111.835 97.9314 112.658 97.8334L116.63 97.3602C117.453 97.2622 118.04 96.5159 117.942 95.6933C117.844 94.8707 117.098 94.2833 116.275 94.3813L112.303 94.8545ZM95.8548 111.303C95.9528 110.48 96.6991 109.893 97.5217 109.991C98.3443 110.089 98.9317 110.835 98.8337 111.658L98.3605 115.63C98.2625 116.452 97.5162 117.04 96.6936 116.942C95.871 116.844 95.2836 116.097 95.3816 115.275L95.8548 111.303ZM109.374 103.566C109.655 102.787 110.514 102.382 111.293 102.663L115.057 104.019C115.836 104.299 116.24 105.159 115.96 105.938C115.679 106.718 114.82 107.122 114.04 106.841L110.277 105.486C109.497 105.205 109.093 104.346 109.374 103.566ZM103.663 110.293C103.383 109.514 103.787 108.654 104.566 108.374C105.346 108.093 106.205 108.497 106.486 109.277L107.842 113.04C108.122 113.819 107.718 114.679 106.939 114.959C106.159 115.24 105.3 114.836 105.019 114.057L103.663 110.293Z" fill="#CCD0DB"/>
<path fill-rule="evenodd" clip-rule="evenodd" d="M51.0987 64.5469C51.9213 64.4489 52.5087 63.7026 52.4107 62.88C52.3127 62.0574 51.5664 61.4699 50.7438 61.5679L46.7719 62.0411C45.9493 62.1391 45.3619 62.8854 45.4599 63.708C45.5579 64.5307 46.3042 65.1181 47.1268 65.0201L51.0987 64.5469ZM67.5471 48.0985C67.4491 48.9211 66.7028 49.5085 65.8802 49.4105C65.0576 49.3125 64.4702 48.5662 64.5682 47.7436L65.0413 43.7716C65.1393 42.949 65.8857 42.3616 66.7083 42.4596C67.5309 42.5576 68.1183 43.3039 68.0203 44.1265L67.5471 48.0985ZM54.028 55.8352C53.7472 56.6147 52.8878 57.0189 52.1084 56.7382L48.3451 55.3826C47.5657 55.1019 47.1614 54.2424 47.4422 53.463C47.7229 52.6836 48.5823 52.2794 49.3617 52.5601L53.1251 53.9157C53.9045 54.1964 54.3087 55.0558 54.028 55.8352ZM59.7384 49.1081C60.0191 49.8875 59.6149 50.747 58.8355 51.0277C58.0561 51.3084 57.1966 50.9042 56.9159 50.1248L55.5603 46.3615C55.2796 45.5821 55.6839 44.7226 56.4633 44.4419C57.2427 44.1612 58.1021 44.5654 58.3828 45.3448L59.7384 49.1081Z" fill="#CACEDA"/>
</g>
<defs>
<linearGradient id="paint0_linear_402_581" x1="46.2246" y1="87.7019" x2="96.5659" y2="149.087" gradientUnits="userSpaceOnUse">
<stop stop-color="#E1E5EF"/>
<stop offset="1" stop-color="#B8BDC9"/>
</linearGradient>
<linearGradient id="paint1_linear_402_581" x1="96.5" y1="38" x2="145.774" y2="98.0846" gradientUnits="userSpaceOnUse">
<stop stop-color="#E1E5EF"/>
<stop offset="1" stop-color="#B8BDC9"/>
</linearGradient>
<linearGradient id="paint2_linear_402_581" x1="42" y1="72.5" x2="34.3486" y2="91.8401" gradientUnits="userSpaceOnUse">
<stop stop-color="#B0B8C7"/>
<stop offset="1" stop-color="#757982"/>
</linearGradient>
<linearGradient id="paint3_linear_402_581" x1="46" y1="78" x2="96.1339" y2="130.016" gradientUnits="userSpaceOnUse">
<stop stop-color="#E1E5EF"/>
<stop offset="1" stop-color="#B8BDC9"/>
</linearGradient>
<linearGradient id="paint4_linear_402_581" x1="96.5" y1="38" x2="145.774" y2="98.0846" gradientUnits="userSpaceOnUse">
<stop stop-color="#E1E5EF"/>
<stop offset="1" stop-color="#B8BDC9"/>
</linearGradient>
<linearGradient id="paint5_linear_402_581" x1="42" y1="72.5" x2="34.3486" y2="91.8401" gradientUnits="userSpaceOnUse">
<stop stop-color="#CACFD8"/>
<stop offset="1" stop-color="#9DA2AA"/>
</linearGradient>
<linearGradient id="paint6_linear_402_581" x1="79.5" y1="59.5" x2="72.0802" y2="76.1793" gradientUnits="userSpaceOnUse">
<stop stop-color="#C2C7D2"/>
<stop offset="1" stop-color="#ADB0B6"/>
</linearGradient>
<linearGradient id="paint7_linear_402_581" x1="69" y1="68" x2="75" y2="77" gradientUnits="userSpaceOnUse">
<stop stop-color="#D4DAE4"/>
<stop offset="1" stop-color="#B0B5BF"/>
</linearGradient>
<linearGradient id="paint8_linear_402_581" x1="84.3717" y1="83.4559" x2="90.3238" y2="92.2226" gradientUnits="userSpaceOnUse">
<stop stop-color="#D4DAE4"/>
<stop offset="1" stop-color="#B0B5BF"/>
</linearGradient>
<clipPath id="clip0_402_581">
<rect width="120" height="120" fill="white" transform="translate(21 20)"/>
</clipPath>
<clipPath id="clip1_402_581">
<rect width="120" height="120" fill="white" transform="translate(21 20)"/>
</clipPath>
</defs>
</svg>
