<svg id="Layer_1" data-name="Layer 1" xmlns="http://www.w3.org/2000/svg" xmlns:xlink="http://www.w3.org/1999/xlink" viewBox="0 0 2102.62 2102.59"><defs><style>.cls-1{fill:url(#linear-gradient);}.cls-2{fill:url(#linear-gradient-2);}.cls-3{fill:url(#linear-gradient-3);}.cls-4{fill:url(#linear-gradient-4);}.cls-5{fill:url(#linear-gradient-5);}.cls-6{fill:url(#linear-gradient-6);}.cls-7{fill:url(#linear-gradient-7);}.cls-8{fill:url(#linear-gradient-8);}.cls-9{fill:url(#linear-gradient-9);}.cls-10{fill:url(#linear-gradient-10);}.cls-11{fill:url(#linear-gradient-11);}.cls-12{fill:url(#linear-gradient-12);}.cls-13{fill:url(#linear-gradient-13);}.cls-14{fill:url(#linear-gradient-14);}.cls-15{fill:url(#linear-gradient-15);}.cls-16{fill:url(#linear-gradient-16);}.cls-17{fill:url(#linear-gradient-17);}.cls-18{fill:url(#linear-gradient-18);}.cls-19{fill:url(#linear-gradient-19);}.cls-20{fill:url(#linear-gradient-20);}.cls-21{fill:url(#linear-gradient-21);}.cls-22{fill:url(#linear-gradient-22);}.cls-23{fill:url(#linear-gradient-23);}.cls-24{fill:url(#linear-gradient-24);}.cls-25{fill:url(#linear-gradient-25);}.cls-26{fill:url(#linear-gradient-26);}.cls-27{fill:url(#linear-gradient-27);}.cls-28{fill:url(#linear-gradient-28);}.cls-29{fill:url(#linear-gradient-29);}.cls-30{fill:url(#linear-gradient-30);}.cls-31{fill:url(#linear-gradient-31);}.cls-32{fill:url(#linear-gradient-32);}.cls-33{fill:url(#linear-gradient-33);}.cls-34{fill:url(#linear-gradient-34);}.cls-35{fill:url(#linear-gradient-35);}.cls-36{fill:url(#linear-gradient-36);}.cls-37{fill:url(#linear-gradient-37);}.cls-38{fill:url(#linear-gradient-38);}.cls-39{fill:url(#linear-gradient-39);}.cls-40{fill:url(#linear-gradient-40);}.cls-41{fill:url(#linear-gradient-41);}.cls-42{fill:url(#linear-gradient-42);}.cls-43{fill:url(#linear-gradient-43);}.cls-44{fill:url(#linear-gradient-44);}.cls-45{fill:url(#linear-gradient-45);}.cls-46{fill:url(#linear-gradient-46);}.cls-47{fill:url(#linear-gradient-47);}.cls-48{fill:url(#linear-gradient-48);}.cls-49{fill:url(#linear-gradient-49);}.cls-50{fill:url(#linear-gradient-50);}.cls-51{fill:url(#linear-gradient-51);}.cls-52{fill:url(#linear-gradient-52);}.cls-53{fill:url(#linear-gradient-53);}.cls-54{fill:url(#linear-gradient-54);}.cls-55{fill:url(#linear-gradient-55);}.cls-56{fill:url(#linear-gradient-56);}.cls-57{fill:url(#linear-gradient-57);}.cls-58{fill:url(#linear-gradient-58);}.cls-59{fill:url(#linear-gradient-59);}.cls-60{fill:url(#linear-gradient-60);}.cls-61{fill:url(#linear-gradient-61);}.cls-62{fill:url(#linear-gradient-62);}.cls-63{fill:url(#linear-gradient-63);}.cls-64{fill:url(#linear-gradient-64);}.cls-65{fill:url(#linear-gradient-65);}.cls-66{fill:url(#linear-gradient-66);}.cls-67{fill:url(#linear-gradient-67);}.cls-68{fill:url(#linear-gradient-68);}.cls-69{fill:url(#linear-gradient-69);}.cls-70{fill:url(#linear-gradient-70);}.cls-71{fill:url(#linear-gradient-71);}.cls-72{fill:url(#linear-gradient-72);}.cls-73{fill:url(#linear-gradient-73);}.cls-74{fill:url(#linear-gradient-74);}.cls-75{fill:url(#linear-gradient-75);}.cls-76{fill:url(#linear-gradient-76);}.cls-77{fill:url(#linear-gradient-77);}.cls-78{fill:url(#linear-gradient-78);}.cls-79{fill:url(#linear-gradient-79);}.cls-80{fill:url(#linear-gradient-80);}.cls-81{fill:url(#linear-gradient-81);}.cls-82{fill:url(#linear-gradient-82);}.cls-83{fill:url(#linear-gradient-83);}.cls-84{fill:url(#linear-gradient-84);}.cls-85{fill:url(#linear-gradient-85);}.cls-86{fill:url(#linear-gradient-86);}.cls-87{fill:url(#linear-gradient-87);}.cls-88{fill:url(#linear-gradient-88);}.cls-89{fill:url(#linear-gradient-89);}.cls-90{fill:url(#linear-gradient-90);}.cls-91{fill:url(#linear-gradient-91);}.cls-92{fill:url(#linear-gradient-92);}.cls-93{fill:url(#linear-gradient-93);}.cls-94{fill:url(#linear-gradient-94);}.cls-95{fill:url(#linear-gradient-95);}.cls-96{fill:url(#linear-gradient-96);}.cls-97{fill:url(#linear-gradient-97);}.cls-98{fill:url(#linear-gradient-98);}.cls-99{fill:url(#linear-gradient-99);}.cls-100{fill:url(#linear-gradient-100);}.cls-101{fill:url(#linear-gradient-101);}.cls-102{fill:url(#linear-gradient-102);}.cls-103{fill:url(#linear-gradient-103);}.cls-104{fill:url(#linear-gradient-104);}.cls-105{fill:url(#linear-gradient-105);}.cls-106{fill:url(#linear-gradient-106);}.cls-107{fill:url(#linear-gradient-107);}.cls-108{fill:url(#linear-gradient-108);}.cls-109{fill:url(#linear-gradient-109);}.cls-110{fill:url(#linear-gradient-110);}.cls-111{fill:url(#linear-gradient-111);}.cls-112{fill:url(#linear-gradient-112);}.cls-113{fill:url(#linear-gradient-113);}.cls-114{fill:url(#linear-gradient-114);}.cls-115{fill:url(#linear-gradient-115);}.cls-116{fill:url(#linear-gradient-116);}.cls-117{fill:url(#linear-gradient-117);}.cls-118{fill:url(#linear-gradient-118);}.cls-119{fill:url(#linear-gradient-119);}.cls-120{fill:url(#linear-gradient-120);}.cls-121{fill:url(#linear-gradient-121);}.cls-122{fill:url(#linear-gradient-122);}.cls-123{fill:url(#linear-gradient-123);}.cls-124{fill:url(#linear-gradient-124);}.cls-125{fill:url(#linear-gradient-125);}.cls-126{fill:url(#linear-gradient-126);}.cls-127{fill:url(#linear-gradient-127);}.cls-128{fill:url(#linear-gradient-128);}.cls-129{fill:url(#linear-gradient-129);}.cls-130{fill:url(#linear-gradient-130);}.cls-131{fill:url(#linear-gradient-131);}.cls-132{fill:url(#linear-gradient-132);}.cls-133{fill:url(#linear-gradient-133);}.cls-134{fill:url(#linear-gradient-134);}.cls-135{fill:url(#linear-gradient-135);}.cls-136{fill:url(#linear-gradient-136);}.cls-137{fill:url(#linear-gradient-137);}.cls-138{fill:url(#linear-gradient-138);}.cls-139{fill:url(#linear-gradient-139);}.cls-140{fill:url(#linear-gradient-140);}.cls-141{fill:url(#linear-gradient-141);}.cls-142{fill:url(#linear-gradient-142);}.cls-143{fill:url(#linear-gradient-143);}.cls-144{fill:url(#linear-gradient-144);}.cls-145{fill:url(#linear-gradient-145);}.cls-146{fill:url(#linear-gradient-146);}.cls-147{fill:url(#linear-gradient-147);}.cls-148{fill:url(#linear-gradient-148);}</style><linearGradient id="linear-gradient" x1="1030.66" y1="1077.95" x2="1030.66" y2="1025.07" gradientUnits="userSpaceOnUse"><stop offset="0" stop-color="blue"/><stop offset="0.04" stop-color="blue" stop-opacity="0.93"/><stop offset="0.18" stop-color="blue" stop-opacity="0.69"/><stop offset="0.31" stop-color="blue" stop-opacity="0.48"/><stop offset="0.45" stop-color="blue" stop-opacity="0.31"/><stop offset="0.58" stop-color="blue" stop-opacity="0.17"/><stop offset="0.7" stop-color="blue" stop-opacity="0.08"/><stop offset="0.81" stop-color="blue" stop-opacity="0.02"/><stop offset="0.9" stop-color="blue" stop-opacity="0"/></linearGradient><linearGradient id="linear-gradient-2" x1="1038.77" y1="1079.52" x2="1079.11" y2="1067.96" gradientUnits="userSpaceOnUse"><stop offset="0" stop-color="#7f92ff" stop-opacity="0"/><stop offset="0.12" stop-color="#7f92ff" stop-opacity="0.02"/><stop offset="0.25" stop-color="#7f92ff" stop-opacity="0.07"/><stop offset="0.37" stop-color="#7f92ff" stop-opacity="0.15"/><stop offset="0.5" stop-color="#7f92ff" stop-opacity="0.26"/><stop offset="0.63" stop-color="#7f92ff" stop-opacity="0.41"/><stop offset="0.76" stop-color="#7f92ff" stop-opacity="0.59"/><stop offset="0.89" stop-color="#7f92ff" stop-opacity="0.8"/><stop offset="1" stop-color="#7f92ff"/></linearGradient><linearGradient id="linear-gradient-3" x1="1037.53" y1="1024.7" x2="1064.22" y2="1024.7" gradientUnits="userSpaceOnUse"><stop offset="0" stop-color="#00d2ff"/><stop offset="0.11" stop-color="#00d2ff" stop-opacity="0.8"/><stop offset="0.24" stop-color="#00d2ff" stop-opacity="0.59"/><stop offset="0.37" stop-color="#00d2ff" stop-opacity="0.41"/><stop offset="0.5" stop-color="#00d2ff" stop-opacity="0.26"/><stop offset="0.63" stop-color="#00d2ff" stop-opacity="0.15"/><stop offset="0.75" stop-color="#00d2ff" stop-opacity="0.07"/><stop offset="0.88" stop-color="#00d2ff" stop-opacity="0.02"/><stop offset="1" stop-color="#00d2ff" stop-opacity="0"/></linearGradient><linearGradient id="linear-gradient-4" x1="1079.3" y1="1063.79" x2="1068.09" y2="1023.56" gradientUnits="userSpaceOnUse"><stop offset="0" stop-color="#5e1ad5" stop-opacity="0"/><stop offset="0.13" stop-color="#5e1ad5" stop-opacity="0.02"/><stop offset="0.27" stop-color="#5e1ad5" stop-opacity="0.08"/><stop offset="0.41" stop-color="#5e1ad5" stop-opacity="0.18"/><stop offset="0.55" stop-color="#5e1ad5" stop-opacity="0.31"/><stop offset="0.69" stop-color="#5e1ad5" stop-opacity="0.49"/><stop offset="0.83" stop-color="#5e1ad5" stop-opacity="0.7"/><stop offset="0.98" stop-color="#5e1ad5" stop-opacity="0.95"/><stop offset="1" stop-color="#5e1ad5"/></linearGradient><linearGradient id="linear-gradient-5" x1="1287.58" y1="8391" x2="1287.58" y2="8290.1" gradientTransform="translate(-2408.9 8755.08) rotate(-146.77)" xlink:href="#linear-gradient"/><linearGradient id="linear-gradient-6" x1="1303.91" y1="8394.88" x2="1380.9" y2="8372.8" gradientTransform="translate(-2408.9 8755.08) rotate(-146.77)" xlink:href="#linear-gradient-2"/><linearGradient id="linear-gradient-7" x1="1301.3" y1="8288.2" x2="1352.23" y2="8288.2" gradientTransform="translate(-2408.9 8755.08) rotate(-146.77)" xlink:href="#linear-gradient-3"/><linearGradient id="linear-gradient-8" x1="1381.88" y1="8363.75" x2="1360.48" y2="8286.97" gradientTransform="translate(-2408.9 8755.08) rotate(-146.77)" xlink:href="#linear-gradient-4"/><linearGradient id="linear-gradient-9" x1="247.64" y1="8612.46" x2="247.64" y2="8463.48" gradientTransform="translate(-1228.16 9284.52) rotate(-162.46)" xlink:href="#linear-gradient"/><linearGradient id="linear-gradient-10" x1="272.2" y1="8618.64" x2="385.87" y2="8586.04" gradientTransform="translate(-1228.16 9284.52) rotate(-162.46)" xlink:href="#linear-gradient-2"/><linearGradient id="linear-gradient-11" x1="268.21" y1="8460.03" x2="343.41" y2="8460.03" gradientTransform="translate(-1228.16 9284.52) rotate(-162.46)" xlink:href="#linear-gradient-3"/><linearGradient id="linear-gradient-12" x1="387.64" y1="8572.09" x2="356.05" y2="8458.72" gradientTransform="translate(-1228.16 9284.52) rotate(-162.46)" xlink:href="#linear-gradient-4"/><linearGradient id="linear-gradient-13" x1="-3086.87" y1="7030.01" x2="-3086.87" y2="6833.12" gradientTransform="matrix(-0.76, 0.65, -0.65, -0.76, 3246.83, 8280.77)" xlink:href="#linear-gradient"/><linearGradient id="linear-gradient-14" x1="-3054.11" y1="7038.52" x2="-2903.88" y2="6995.44" gradientTransform="matrix(-0.76, 0.65, -0.65, -0.76, 3246.83, 8280.77)" xlink:href="#linear-gradient-2"/><linearGradient id="linear-gradient-15" x1="-3059.48" y1="6828.13" x2="-2960.09" y2="6828.13" gradientTransform="matrix(-0.76, 0.65, -0.65, -0.76, 3246.83, 8280.77)" xlink:href="#linear-gradient-3"/><linearGradient id="linear-gradient-16" x1="-2901.29" y1="6976.56" x2="-2943.05" y2="6826.74" gradientTransform="matrix(-0.76, 0.65, -0.65, -0.76, 3246.83, 8280.77)" xlink:href="#linear-gradient-4"/><linearGradient id="linear-gradient-17" x1="-176.41" y1="1082.21" x2="-176.41" y2="788.77" gradientTransform="matrix(-0.98, -0.21, -0.21, 0.98, 1188.48, 125.18)" xlink:href="#linear-gradient"/><linearGradient id="linear-gradient-18" x1="-127.13" y1="1095.36" x2="96.76" y2="1031.16" gradientTransform="matrix(-0.98, -0.21, -0.21, 0.98, 1188.48, 125.18)" xlink:href="#linear-gradient-2"/><linearGradient id="linear-gradient-19" x1="-135.27" y1="780.69" x2="12.85" y2="780.69" gradientTransform="matrix(-0.98, -0.21, -0.21, 0.98, 1188.48, 125.18)" xlink:href="#linear-gradient-3"/><linearGradient id="linear-gradient-20" x1="100.95" y1="1002.42" x2="38.72" y2="779.13" gradientTransform="matrix(-0.98, -0.21, -0.21, 0.98, 1188.48, 125.18)" xlink:href="#linear-gradient-4"/><linearGradient id="linear-gradient-21" x1="-2283.09" y1="1837.87" x2="-2283.09" y2="1496.29" gradientTransform="matrix(0.63, 0.77, -0.77, 0.63, 3700.2, 1654.54)" xlink:href="#linear-gradient"/><linearGradient id="linear-gradient-22" x1="-2225.57" y1="1853.34" x2="-1964.94" y2="1778.6" gradientTransform="matrix(0.63, 0.77, -0.77, 0.63, 3700.2, 1654.54)" xlink:href="#linear-gradient-2"/><linearGradient id="linear-gradient-23" x1="-2235.09" y1="1486.66" x2="-2062.66" y2="1486.66" gradientTransform="matrix(0.63, 0.77, -0.77, 0.63, 3700.2, 1654.54)" xlink:href="#linear-gradient-3"/><linearGradient id="linear-gradient-24" x1="-1959.95" y1="1744.94" x2="-2032.39" y2="1485.02" gradientTransform="matrix(0.63, 0.77, -0.77, 0.63, 3700.2, 1654.54)" xlink:href="#linear-gradient-4"/><linearGradient id="linear-gradient-25" x1="2484.91" y1="2098.3" x2="2484.91" y2="1708.68" gradientTransform="matrix(-0.55, -0.83, -0.83, 0.55, 4099.25, 2193.29)" xlink:href="#linear-gradient"/><linearGradient id="linear-gradient-26" x1="2550.64" y1="2116.08" x2="2847.93" y2="2030.83" gradientTransform="matrix(-0.55, -0.83, -0.83, 0.55, 4099.25, 2193.29)" xlink:href="#linear-gradient-2"/><linearGradient id="linear-gradient-27" x1="2539.75" y1="1697.51" x2="2736.43" y2="1697.51" gradientTransform="matrix(-0.55, -0.83, -0.83, 0.55, 4099.25, 2193.29)" xlink:href="#linear-gradient-3"/><linearGradient id="linear-gradient-28" x1="2853.72" y1="1992.27" x2="2771.09" y2="1695.79" gradientTransform="matrix(-0.55, -0.83, -0.83, 0.55, 4099.25, 2193.29)" xlink:href="#linear-gradient-4"/><linearGradient id="linear-gradient-29" x1="2228.82" y1="1927.24" x2="2228.82" y2="1489.38" gradientTransform="translate(-1826.65 409.15) rotate(-22.79)" xlink:href="#linear-gradient"/><linearGradient id="linear-gradient-30" x1="2302.82" y1="1947.34" x2="2636.91" y2="1851.54" gradientTransform="translate(-1826.65 409.15) rotate(-22.79)" xlink:href="#linear-gradient-2"/><linearGradient id="linear-gradient-31" x1="2290.55" y1="1476.67" x2="2511.57" y2="1476.67" gradientTransform="translate(-1826.65 409.15) rotate(-22.79)" xlink:href="#linear-gradient-3"/><linearGradient id="linear-gradient-32" x1="2643.5" y1="1808.05" x2="2550.64" y2="1474.87" gradientTransform="translate(-1826.65 409.15) rotate(-22.79)" xlink:href="#linear-gradient-4"/><linearGradient id="linear-gradient-33" x1="-2545.81" y1="2071.29" x2="-2545.81" y2="1585.49" gradientTransform="matrix(-0.9, 0.43, 0.43, 0.9, -1858.64, 423.55)" xlink:href="#linear-gradient"/><linearGradient id="linear-gradient-34" x1="-2463.61" y1="2093.7" x2="-2092.93" y2="1987.41" gradientTransform="matrix(-0.9, 0.43, 0.43, 0.9, -1858.64, 423.55)" xlink:href="#linear-gradient-2"/><linearGradient id="linear-gradient-35" x1="-2477.26" y1="1571.23" x2="-2232.03" y2="1571.23" gradientTransform="matrix(-0.9, 0.43, 0.43, 0.9, -1858.64, 423.55)" xlink:href="#linear-gradient-3"/><linearGradient id="linear-gradient-36" x1="-2085.54" y1="1939.02" x2="-2188.57" y2="1569.35" gradientTransform="matrix(-0.9, 0.43, 0.43, 0.9, -1858.64, 423.55)" xlink:href="#linear-gradient-4"/><linearGradient id="linear-gradient-37" x1="1580.11" y1="8414.79" x2="1580.11" y2="7880.75" gradientTransform="translate(-2919.68 8386.54) rotate(-139.15)" xlink:href="#linear-gradient"/><linearGradient id="linear-gradient-38" x1="1670.56" y1="8439.52" x2="2078.04" y2="8322.67" gradientTransform="translate(-2919.68 8386.54) rotate(-139.15)" xlink:href="#linear-gradient-2"/><linearGradient id="linear-gradient-39" x1="1655.53" y1="7864.95" x2="1925.1" y2="7864.95" gradientTransform="translate(-2919.68 8386.54) rotate(-139.15)" xlink:href="#linear-gradient-3"/><linearGradient id="linear-gradient-40" x1="2086.22" y1="8269.35" x2="1972.97" y2="7862.99" gradientTransform="translate(-2919.68 8386.54) rotate(-139.15)" xlink:href="#linear-gradient-4"/><linearGradient id="linear-gradient-41" x1="-1533.81" y1="1491.83" x2="-1533.81" y2="909.54" gradientTransform="matrix(-0.99, 0.12, 0.12, 0.99, -387.78, 24.27)" xlink:href="#linear-gradient"/><linearGradient id="linear-gradient-42" x1="-1435.1" y1="1518.88" x2="-990.79" y2="1391.48" gradientTransform="matrix(-0.99, 0.12, 0.12, 0.99, -387.78, 24.27)" xlink:href="#linear-gradient-2"/><linearGradient id="linear-gradient-43" x1="-1451.51" y1="892.19" x2="-1157.58" y2="892.19" gradientTransform="matrix(-0.99, 0.12, 0.12, 0.99, -387.78, 24.27)" xlink:href="#linear-gradient-3"/><linearGradient id="linear-gradient-44" x1="-981.81" y1="1333.23" x2="-1105.3" y2="890.14" gradientTransform="matrix(-0.99, 0.12, 0.12, 0.99, -387.78, 24.27)" xlink:href="#linear-gradient-4"/><linearGradient id="linear-gradient-45" x1="-2117.19" y1="1795.42" x2="-2117.19" y2="1165.15" gradientTransform="translate(3411.58 1346.52) rotate(45.54)" xlink:href="#linear-gradient"/><linearGradient id="linear-gradient-46" x1="-2010.27" y1="1824.78" x2="-1529.36" y2="1686.88" gradientTransform="translate(3411.58 1346.52) rotate(45.54)" xlink:href="#linear-gradient-2"/><linearGradient id="linear-gradient-47" x1="-2028.06" y1="1146.26" x2="-1709.91" y2="1146.26" gradientTransform="translate(3411.58 1346.52) rotate(45.54)" xlink:href="#linear-gradient-3"/><linearGradient id="linear-gradient-48" x1="-1519.58" y1="1623.73" x2="-1653.24" y2="1144.13" gradientTransform="translate(3411.58 1346.52) rotate(45.54)" xlink:href="#linear-gradient-4"/><linearGradient id="linear-gradient-49" x1="3247.42" y1="3405.3" x2="3247.42" y2="2726.84" gradientTransform="matrix(-0.2, -0.98, -0.98, 0.2, 4762.01, 3881.11)" xlink:href="#linear-gradient"/><linearGradient id="linear-gradient-50" x1="3362.59" y1="3436.97" x2="3880.27" y2="3288.53" gradientTransform="matrix(-0.2, -0.98, -0.98, 0.2, 4762.01, 3881.11)" xlink:href="#linear-gradient-2"/><linearGradient id="linear-gradient-51" x1="3343.42" y1="2706.41" x2="3685.89" y2="2706.41" gradientTransform="matrix(-0.2, -0.98, -0.98, 0.2, 4762.01, 3881.11)" xlink:href="#linear-gradient-3"/><linearGradient id="linear-gradient-52" x1="3890.85" y1="3220.46" x2="3746.97" y2="2704.2" gradientTransform="matrix(-0.2, -0.98, -0.98, 0.2, 4762.01, 3881.11)" xlink:href="#linear-gradient-4"/><linearGradient id="linear-gradient-53" x1="-74.75" y1="1298.77" x2="-74.75" y2="572.19" gradientTransform="translate(1044.35 93.58) rotate(12.71)" xlink:href="#linear-gradient"/><linearGradient id="linear-gradient-54" x1="48.64" y1="1332.76" x2="603.04" y2="1173.79" gradientTransform="translate(1044.35 93.58) rotate(12.71)" xlink:href="#linear-gradient-2"/><linearGradient id="linear-gradient-55" x1="28.1" y1="550.22" x2="394.86" y2="550.22" gradientTransform="translate(1044.35 93.58) rotate(12.71)" xlink:href="#linear-gradient-3"/><linearGradient id="linear-gradient-56" x1="614.42" y1="1100.81" x2="460.33" y2="547.93" gradientTransform="translate(1044.35 93.58) rotate(12.71)" xlink:href="#linear-gradient-4"/><linearGradient id="linear-gradient-57" x1="3474.15" y1="6030.14" x2="3474.15" y2="5207.68" gradientTransform="translate(-4636.18 4748.36) rotate(-88.91)" xlink:href="#linear-gradient"/><linearGradient id="linear-gradient-58" x1="3613.95" y1="6068.74" x2="4241.51" y2="5888.79" gradientTransform="translate(-4636.18 4748.36) rotate(-88.91)" xlink:href="#linear-gradient-2"/><linearGradient id="linear-gradient-59" x1="3590.66" y1="5182.62" x2="4005.82" y2="5182.62" gradientTransform="translate(-4636.18 4748.36) rotate(-88.91)" xlink:href="#linear-gradient-3"/><linearGradient id="linear-gradient-60" x1="4254.48" y1="5806.01" x2="4080.06" y2="5180.17" gradientTransform="translate(-4636.18 4748.36) rotate(-88.91)" xlink:href="#linear-gradient-4"/><linearGradient id="linear-gradient-61" x1="3544.7" y1="4862.47" x2="3544.7" y2="3991.82" gradientTransform="matrix(0.17, -0.99, -0.99, -0.17, 4753.55, 5637.68)" xlink:href="#linear-gradient"/><linearGradient id="linear-gradient-62" x1="3692.75" y1="4903.39" x2="4357.08" y2="4712.89" gradientTransform="matrix(0.17, -0.99, -0.99, -0.17, 4753.55, 5637.68)" xlink:href="#linear-gradient-2"/><linearGradient id="linear-gradient-63" x1="3668.08" y1="3965.23" x2="4107.57" y2="3965.23" gradientTransform="matrix(0.17, -0.99, -0.99, -0.17, 4753.55, 5637.68)" xlink:href="#linear-gradient-3"/><linearGradient id="linear-gradient-64" x1="4370.85" y1="4625.2" x2="4186.21" y2="3962.69" gradientTransform="matrix(0.17, -0.99, -0.99, -0.17, 4753.55, 5637.68)" xlink:href="#linear-gradient-4"/><linearGradient id="linear-gradient-65" x1="3509.24" y1="4731.4" x2="3509.24" y2="3812.59" gradientTransform="matrix(0.37, -0.93, 0.93, 0.37, -4342.4, 3094.49)" xlink:href="#linear-gradient"/><linearGradient id="linear-gradient-66" x1="3665.53" y1="4774.64" x2="4366.6" y2="4573.6" gradientTransform="matrix(0.37, -0.93, 0.93, 0.37, -4342.4, 3094.49)" xlink:href="#linear-gradient-2"/><linearGradient id="linear-gradient-67" x1="3639.48" y1="3784.45" x2="4103.27" y2="3784.45" gradientTransform="matrix(0.37, -0.93, 0.93, 0.37, -4342.4, 3094.49)" xlink:href="#linear-gradient-3"/><linearGradient id="linear-gradient-68" x1="4381.17" y1="4480.99" x2="4186.32" y2="3781.83" gradientTransform="matrix(0.37, -0.93, 0.93, 0.37, -4342.4, 3094.49)" xlink:href="#linear-gradient-4"/><linearGradient id="linear-gradient-69" x1="2648.2" y1="2123.46" x2="2648.2" y2="1878.09" gradientTransform="translate(-2324.31 667.22) rotate(-29.57)" xlink:href="#linear-gradient"/><linearGradient id="linear-gradient-70" x1="2689.25" y1="2134.3" x2="2876.48" y2="2080.62" gradientTransform="translate(-2324.31 667.22) rotate(-29.57)" xlink:href="#linear-gradient-2"/><linearGradient id="linear-gradient-71" x1="2682.5" y1="1871.55" x2="2806.36" y2="1871.55" gradientTransform="translate(-2324.31 667.22) rotate(-29.57)" xlink:href="#linear-gradient-3"/><linearGradient id="linear-gradient-72" x1="2879.87" y1="2056.78" x2="2827.83" y2="1870.07" gradientTransform="translate(-2324.31 667.22) rotate(-29.57)" xlink:href="#linear-gradient-4"/><linearGradient id="linear-gradient-73" x1="2248.09" y1="8033.18" x2="2248.09" y2="7258.66" gradientTransform="matrix(0.9, -0.43, -0.43, -0.9, 2070.1, 9046.9)" xlink:href="#linear-gradient"/><linearGradient id="linear-gradient-74" x1="2379.69" y1="8069.47" x2="2970.66" y2="7900.01" gradientTransform="matrix(0.9, -0.43, -0.43, -0.9, 2070.1, 9046.9)" xlink:href="#linear-gradient-2"/><linearGradient id="linear-gradient-75" x1="2357.77" y1="7235.14" x2="2748.73" y2="7235.14" gradientTransform="matrix(0.9, -0.43, -0.43, -0.9, 2070.1, 9046.9)" xlink:href="#linear-gradient-3"/><linearGradient id="linear-gradient-76" x1="2982.84" y1="7822.13" x2="2818.58" y2="7232.77" gradientTransform="matrix(0.9, -0.43, -0.43, -0.9, 2070.1, 9046.9)" xlink:href="#linear-gradient-4"/><linearGradient id="linear-gradient-77" x1="-3795.11" y1="6700.21" x2="-3795.11" y2="5733.42" gradientTransform="matrix(0.15, 0.99, 0.99, -0.15, -4599.42, 5326.26)" xlink:href="#linear-gradient"/><linearGradient id="linear-gradient-78" x1="-3630.61" y1="6745.75" x2="-2892.93" y2="6534.22" gradientTransform="matrix(0.15, 0.99, 0.99, -0.15, -4599.42, 5326.26)" xlink:href="#linear-gradient-2"/><linearGradient id="linear-gradient-79" x1="-3658.04" y1="5703.74" x2="-3170.02" y2="5703.74" gradientTransform="matrix(0.15, 0.99, 0.99, -0.15, -4599.42, 5326.26)" xlink:href="#linear-gradient-3"/><linearGradient id="linear-gradient-80" x1="-2877.57" y1="6436.7" x2="-3082.59" y2="5701.04" gradientTransform="matrix(0.15, 0.99, 0.99, -0.15, -4599.42, 5326.26)" xlink:href="#linear-gradient-4"/><linearGradient id="linear-gradient-81" x1="2502.04" y1="2679.99" x2="2502.04" y2="1664.78" gradientTransform="translate(-2571.24 824.97) rotate(-33.11)" xlink:href="#linear-gradient"/><linearGradient id="linear-gradient-82" x1="2674.82" y1="2727.86" x2="3449.45" y2="2505.74" gradientTransform="translate(-2571.24 824.97) rotate(-33.11)" xlink:href="#linear-gradient-2"/><linearGradient id="linear-gradient-83" x1="2646.01" y1="1633.55" x2="3158.47" y2="1633.55" gradientTransform="translate(-2571.24 824.97) rotate(-33.11)" xlink:href="#linear-gradient-3"/><linearGradient id="linear-gradient-84" x1="3465.62" y1="2403.28" x2="3250.32" y2="1630.77" gradientTransform="translate(-2571.24 824.97) rotate(-33.11)" xlink:href="#linear-gradient-4"/><linearGradient id="linear-gradient-85" x1="12.8" y1="9063.62" x2="12.8" y2="7999.95" gradientTransform="matrix(0.99, 0.16, 0.16, -0.99, -767.07, 9394.7)" xlink:href="#linear-gradient"/><linearGradient id="linear-gradient-86" x1="193.88" y1="9113.83" x2="1005.49" y2="8881.1" gradientTransform="matrix(0.99, 0.16, 0.16, -0.99, -767.07, 9394.7)" xlink:href="#linear-gradient-2"/><linearGradient id="linear-gradient-87" x1="163.68" y1="7967.16" x2="700.6" y2="7967.16" gradientTransform="matrix(0.99, 0.16, 0.16, -0.99, -767.07, 9394.7)" xlink:href="#linear-gradient-3"/><linearGradient id="linear-gradient-88" x1="1022.46" y1="8773.69" x2="796.89" y2="7964.3" gradientTransform="matrix(0.99, 0.16, 0.16, -0.99, -767.07, 9394.7)" xlink:href="#linear-gradient-4"/><linearGradient id="linear-gradient-89" x1="-1630.45" y1="1714.67" x2="-1630.45" y2="602.53" gradientTransform="translate(2678.38 760.64) rotate(34.17)" xlink:href="#linear-gradient"/><linearGradient id="linear-gradient-90" x1="-1441.08" y1="1767.21" x2="-592.49" y2="1523.88" gradientTransform="translate(2678.38 760.64) rotate(34.17)" xlink:href="#linear-gradient-2"/><linearGradient id="linear-gradient-91" x1="-1472.67" y1="568.19" x2="-911.28" y2="568.19" gradientTransform="translate(2678.38 760.64) rotate(34.17)" xlink:href="#linear-gradient-3"/><linearGradient id="linear-gradient-92" x1="-574.71" y1="1411.51" x2="-810.57" y2="565.25" gradientTransform="translate(2678.38 760.64) rotate(34.17)" xlink:href="#linear-gradient-4"/><linearGradient id="linear-gradient-93" x1="2968.78" y1="3485.01" x2="2968.78" y2="2325.17" gradientTransform="matrix(-0.25, -0.97, -0.97, 0.25, 4715.35, 3657.52)" xlink:href="#linear-gradient"/><linearGradient id="linear-gradient-94" x1="3166.32" y1="3539.84" x2="4051.31" y2="3286.07" gradientTransform="matrix(-0.25, -0.97, -0.97, 0.25, 4715.35, 3657.52)" xlink:href="#linear-gradient-2"/><linearGradient id="linear-gradient-95" x1="3133.36" y1="2289.3" x2="3718.82" y2="2289.3" gradientTransform="matrix(-0.25, -0.97, -0.97, 0.25, 4715.35, 3657.52)" xlink:href="#linear-gradient-3"/><linearGradient id="linear-gradient-96" x1="4069.87" y1="3168.84" x2="3823.9" y2="2286.28" gradientTransform="matrix(-0.25, -0.97, -0.97, 0.25, 4715.35, 3657.52)" xlink:href="#linear-gradient-4"/><linearGradient id="linear-gradient-97" x1="-3657.6" y1="7287.14" x2="-3657.6" y2="6079.42" gradientTransform="translate(3516.52 8021.73) rotate(135.12)" xlink:href="#linear-gradient"/><linearGradient id="linear-gradient-98" x1="-3451.87" y1="7344.27" x2="-2530.34" y2="7080.03" gradientTransform="translate(3516.52 8021.73) rotate(135.12)" xlink:href="#linear-gradient-2"/><linearGradient id="linear-gradient-99" x1="-3486.2" y1="6042.01" x2="-2876.56" y2="6042.01" gradientTransform="translate(3516.52 8021.73) rotate(135.12)" xlink:href="#linear-gradient-3"/><linearGradient id="linear-gradient-100" x1="-2510.98" y1="6957.9" x2="-2767.11" y2="6038.91" gradientTransform="translate(3516.52 8021.73) rotate(135.12)" xlink:href="#linear-gradient-4"/><linearGradient id="linear-gradient-101" x1="3396.08" y1="5154.01" x2="3396.08" y2="3897.84" gradientTransform="matrix(0.19, -0.98, -0.98, -0.19, 4728.96, 5756.61)" xlink:href="#linear-gradient"/><linearGradient id="linear-gradient-102" x1="3610.1" y1="5213.47" x2="4568.59" y2="4938.63" gradientTransform="matrix(0.19, -0.98, -0.98, -0.19, 4728.96, 5756.61)" xlink:href="#linear-gradient-2"/><linearGradient id="linear-gradient-103" x1="3574.38" y1="3858.87" x2="4208.47" y2="3858.87" gradientTransform="matrix(0.19, -0.98, -0.98, -0.19, 4728.96, 5756.61)" xlink:href="#linear-gradient-3"/><linearGradient id="linear-gradient-104" x1="4588.76" y1="4811.55" x2="4322.36" y2="3855.69" gradientTransform="matrix(0.19, -0.98, -0.98, -0.19, 4728.96, 5756.61)" xlink:href="#linear-gradient-4"/><linearGradient id="linear-gradient-105" x1="1643.3" y1="8590.02" x2="1643.3" y2="7286.27" gradientTransform="translate(-3311.78 8022.71) rotate(-132.67)" xlink:href="#linear-gradient"/><linearGradient id="linear-gradient-106" x1="1865.46" y1="8651.77" x2="2860.26" y2="8366.52" gradientTransform="translate(-3311.78 8022.71) rotate(-132.67)" xlink:href="#linear-gradient-2"/><linearGradient id="linear-gradient-107" x1="1828.38" y1="7245.78" x2="2486.49" y2="7245.78" gradientTransform="translate(-3311.78 8022.71) rotate(-132.67)" xlink:href="#linear-gradient-3"/><linearGradient id="linear-gradient-108" x1="2881.21" y1="8234.59" x2="2604.73" y2="7242.52" gradientTransform="translate(-3311.78 8022.71) rotate(-132.67)" xlink:href="#linear-gradient-4"/><linearGradient id="linear-gradient-109" x1="-1763.6" y1="8987.81" x2="-1763.6" y2="7635.03" gradientTransform="matrix(0.82, 0.57, 0.57, -0.82, -2682.11, 8570.88)" xlink:href="#linear-gradient"/><linearGradient id="linear-gradient-110" x1="-1533.05" y1="9051.92" x2="-500.84" y2="8755.94" gradientTransform="matrix(0.82, 0.57, 0.57, -0.82, -2682.11, 8570.88)" xlink:href="#linear-gradient-2"/><linearGradient id="linear-gradient-111" x1="-1571.53" y1="7592.97" x2="-888.68" y2="7592.97" gradientTransform="matrix(0.82, 0.57, 0.57, -0.82, -2682.11, 8570.88)" xlink:href="#linear-gradient-3"/><linearGradient id="linear-gradient-112" x1="-479.08" y1="8619" x2="-765.96" y2="7589.62" gradientTransform="matrix(0.82, 0.57, 0.57, -0.82, -2682.11, 8570.88)" xlink:href="#linear-gradient-4"/><linearGradient id="linear-gradient-113" x1="727.25" y1="1827.16" x2="727.25" y2="426.55" gradientTransform="matrix(1, -0.07, 0.07, 1, -310.63, 16.87)" xlink:href="#linear-gradient"/><linearGradient id="linear-gradient-114" x1="965.99" y1="1893.57" x2="2034.69" y2="1587.12" gradientTransform="matrix(1, -0.07, 0.07, 1, -310.63, 16.87)" xlink:href="#linear-gradient-2"/><linearGradient id="linear-gradient-115" x1="926.13" y1="382.95" x2="1633.13" y2="382.95" gradientTransform="matrix(1, -0.07, 0.07, 1, -310.63, 16.87)" xlink:href="#linear-gradient-3"/><linearGradient id="linear-gradient-116" x1="2057.25" y1="1445.3" x2="1760.22" y2="379.52" gradientTransform="matrix(1, -0.07, 0.07, 1, -310.63, 16.87)" xlink:href="#linear-gradient-4"/><linearGradient id="linear-gradient-117" x1="1887.69" y1="8445.61" x2="1887.69" y2="6996.47" gradientTransform="matrix(0.91, -0.41, -0.41, -0.91, 1939.62, 9104.13)" xlink:href="#linear-gradient"/><linearGradient id="linear-gradient-118" x1="2134.73" y1="8514.36" x2="3240.46" y2="8197.29" gradientTransform="matrix(0.91, -0.41, -0.41, -0.91, 1939.62, 9104.13)" xlink:href="#linear-gradient-2"/><linearGradient id="linear-gradient-119" x1="2093.48" y1="6951.32" x2="2824.98" y2="6951.32" gradientTransform="matrix(0.91, -0.41, -0.41, -0.91, 1939.62, 9104.13)" xlink:href="#linear-gradient-3"/><linearGradient id="linear-gradient-120" x1="3263.83" y1="8050.51" x2="2956.51" y2="6947.81" gradientTransform="matrix(0.91, -0.41, -0.41, -0.91, 1939.62, 9104.13)" xlink:href="#linear-gradient-4"/><linearGradient id="linear-gradient-121" x1="-732.63" y1="1692.27" x2="-732.63" y2="195.19" gradientTransform="matrix(0.95, 0.31, -0.31, 0.95, 1463.79, 198.81)" xlink:href="#linear-gradient"/><linearGradient id="linear-gradient-122" x1="-477.39" y1="1763.32" x2="664.92" y2="1435.76" gradientTransform="matrix(0.95, 0.31, -0.31, 0.95, 1463.79, 198.81)" xlink:href="#linear-gradient-2"/><linearGradient id="linear-gradient-123" x1="-520.01" y1="148.5" x2="235.68" y2="148.5" gradientTransform="matrix(0.95, 0.31, -0.31, 0.95, 1463.79, 198.81)" xlink:href="#linear-gradient-3"/><linearGradient id="linear-gradient-124" x1="689.08" y1="1284.08" x2="371.6" y2="144.91" gradientTransform="matrix(0.95, 0.31, -0.31, 0.95, 1463.79, 198.81)" xlink:href="#linear-gradient-4"/><linearGradient id="linear-gradient-125" x1="-2018.39" y1="2016.6" x2="-2018.39" y2="471.62" gradientTransform="matrix(-0.99, 0.15, 0.15, 0.99, -516.91, 39.49)" xlink:href="#linear-gradient"/><linearGradient id="linear-gradient-126" x1="-1754.95" y1="2089.95" x2="-576.09" y2="1751.92" gradientTransform="matrix(-0.99, 0.15, 0.15, 0.99, -516.91, 39.49)" xlink:href="#linear-gradient-2"/><linearGradient id="linear-gradient-127" x1="-1798.94" y1="423.39" x2="-1019.07" y2="423.39" gradientTransform="matrix(-0.99, 0.15, 0.15, 0.99, -516.91, 39.49)" xlink:href="#linear-gradient-3"/><linearGradient id="linear-gradient-128" x1="-551.13" y1="1595.35" x2="-878.77" y2="419.72" gradientTransform="matrix(-0.99, 0.15, 0.15, 0.99, -516.91, 39.49)" xlink:href="#linear-gradient-4"/><linearGradient id="linear-gradient-129" x1="1329.59" y1="8855.03" x2="1329.59" y2="7261.39" gradientTransform="translate(-3107.06 8222.96) rotate(-136.14)" xlink:href="#linear-gradient"/><linearGradient id="linear-gradient-130" x1="1601.35" y1="8930.73" x2="2817.35" y2="8582.05" gradientTransform="translate(-3107.06 8222.96) rotate(-136.14)" xlink:href="#linear-gradient-2"/><linearGradient id="linear-gradient-131" x1="1555.97" y1="7211.6" x2="2360.41" y2="7211.6" gradientTransform="translate(-3107.06 8222.96) rotate(-136.14)" xlink:href="#linear-gradient-3"/><linearGradient id="linear-gradient-132" x1="2843.11" y1="8420.5" x2="2505.15" y2="7207.84" gradientTransform="translate(-3107.06 8222.96) rotate(-136.14)" xlink:href="#linear-gradient-4"/><linearGradient id="linear-gradient-133" x1="-4349.75" y1="5223.54" x2="-4349.75" y2="3582.06" gradientTransform="matrix(-0.34, 0.94, 0.94, 0.34, -4327.17, 3053.81)" xlink:href="#linear-gradient"/><linearGradient id="linear-gradient-134" x1="-4069.8" y1="5301.53" x2="-2817.31" y2="4942.38" gradientTransform="matrix(-0.34, 0.94, 0.94, 0.34, -4327.17, 3053.81)" xlink:href="#linear-gradient-2"/><linearGradient id="linear-gradient-135" x1="-4116.56" y1="3530.73" x2="-3287.97" y2="3530.73" gradientTransform="matrix(-0.34, 0.94, 0.94, 0.34, -4327.17, 3053.81)" xlink:href="#linear-gradient-3"/><linearGradient id="linear-gradient-136" x1="-2790.75" y1="4775.96" x2="-3138.86" y2="3526.9" gradientTransform="matrix(-0.34, 0.94, 0.94, 0.34, -4327.17, 3053.81)" xlink:href="#linear-gradient-4"/><linearGradient id="linear-gradient-137" x1="3226.99" y1="5648.3" x2="3226.99" y2="3958.6" gradientTransform="matrix(0.23, -0.97, 0.97, 0.23, -4527.3, 3726.96)" xlink:href="#linear-gradient"/><linearGradient id="linear-gradient-138" x1="3515.19" y1="5728.61" x2="4804.48" y2="5358.91" gradientTransform="matrix(0.23, -0.97, 0.97, 0.23, -4527.3, 3726.96)" xlink:href="#linear-gradient-2"/><linearGradient id="linear-gradient-139" x1="3467.05" y1="3905.73" x2="4319.98" y2="3905.73" gradientTransform="matrix(0.23, -0.97, 0.97, 0.23, -4527.3, 3726.96)" xlink:href="#linear-gradient-3"/><linearGradient id="linear-gradient-140" x1="4831.84" y1="5187.56" x2="4473.5" y2="3901.81" gradientTransform="matrix(0.23, -0.97, 0.97, 0.23, -4527.3, 3726.96)" xlink:href="#linear-gradient-4"/><linearGradient id="linear-gradient-141" x1="-3254.94" y1="2887.41" x2="-3254.94" y2="1149.86" gradientTransform="matrix(-0.87, 0.5, 0.5, 0.87, -2166.3, 577.09)" xlink:href="#linear-gradient"/><linearGradient id="linear-gradient-142" x1="-2958.55" y1="2970.03" x2="-1632.75" y2="2589.86" gradientTransform="matrix(-0.87, 0.5, 0.5, 0.87, -2166.3, 577.09)" xlink:href="#linear-gradient-2"/><linearGradient id="linear-gradient-143" x1="-3008.06" y1="1095.46" x2="-2130.98" y2="1095.46" gradientTransform="matrix(-0.87, 0.5, 0.5, 0.87, -2166.3, 577.09)" xlink:href="#linear-gradient-3"/><linearGradient id="linear-gradient-144" x1="-1604.6" y1="2413.62" x2="-1973.08" y2="1091.46" gradientTransform="matrix(-0.87, 0.5, 0.5, 0.87, -2166.3, 577.09)" xlink:href="#linear-gradient-4"/><linearGradient id="linear-gradient-145" x1="1982.12" y1="8416.71" x2="1982.12" y2="6630.65" gradientTransform="translate(-3839.55 7366.47) rotate(-122.48)" xlink:href="#linear-gradient"/><linearGradient id="linear-gradient-146" x1="2286.81" y1="8501.66" x2="3649.63" y2="8110.88" gradientTransform="translate(-3839.55 7366.47) rotate(-122.48)" xlink:href="#linear-gradient-2"/><linearGradient id="linear-gradient-147" x1="2235.92" y1="6574.69" x2="3137.48" y2="6574.69" gradientTransform="translate(-3839.55 7366.47) rotate(-122.48)" xlink:href="#linear-gradient-3"/><linearGradient id="linear-gradient-148" x1="3678.58" y1="7929.68" x2="3299.81" y2="6570.61" gradientTransform="translate(-3839.55 7366.47) rotate(-122.48)" xlink:href="#linear-gradient-4"/></defs><path class="cls-1" d="M1038.32,1078a29.65,29.65,0,0,1-.79-52.88l1.4,2.66a26.64,26.64,0,0,0,.7,47.52Z"/><path class="cls-2" d="M1051.31,1080.94a29.26,29.26,0,0,1-13-3l1.31-2.7a26.3,26.3,0,0,0,11.68,2.69,26.8,26.8,0,0,0,24-15.09l2.7,1.3A29.8,29.8,0,0,1,1051.31,1080.94Z"/><path class="cls-3" d="M1038.93,1027.73l-1.4-2.66a29.69,29.69,0,0,1,13.78-3.39,29.33,29.33,0,0,1,12.91,3l-1.31,2.69a26.68,26.68,0,0,0-24,.4Z"/><path class="cls-4" d="M1078,1064.15l-2.7-1.3a26.35,26.35,0,0,0,2.62-11.54,26.81,26.81,0,0,0-15-24l1.31-2.69a29.8,29.8,0,0,1,16.72,26.67A29.3,29.3,0,0,1,1078,1064.15Z"/><path class="cls-5" d="M1051.33,1107.86c-1.81,0-3.64-.08-5.47-.26l.29-3a53.57,53.57,0,0,0,51.18-80.7l2.58-1.54a56.56,56.56,0,0,1-48.58,85.48Z"/><path class="cls-6" d="M1097.33,1023.92a53,53,0,0,0-16.68-17.39,53.84,53.84,0,0,0-57-1.07l-1.55-2.57a56.87,56.87,0,0,1,60.2,1.13,56,56,0,0,1,17.61,18.36Z"/><path class="cls-7" d="M1045.86,1107.6a56.54,56.54,0,0,1-25.54-9,56,56,0,0,1-17.52-18.22l2.58-1.54A53,53,0,0,0,1022,1096.1a53.63,53.63,0,0,0,24.18,8.52Z"/><path class="cls-8" d="M1002.8,1080.39a56.93,56.93,0,0,1,1.21-60.07,56.08,56.08,0,0,1,18.09-17.43l1.54,2.57a53.14,53.14,0,0,0-17.12,16.51,53.88,53.88,0,0,0-1.14,56.88Z"/><path class="cls-9" d="M1066.06,1133.5l-.54-3A80.52,80.52,0,0,0,1106.76,993l2.07-2.17a83.51,83.51,0,0,1-42.77,142.72Z"/><path class="cls-10" d="M992.63,996.2l-2.19-2.05a84,84,0,0,1,86-22.44,82.48,82.48,0,0,1,32.37,19.07l-2.07,2.17a79.71,79.71,0,0,0-31.2-18.38A81,81,0,0,0,992.63,996.2Z"/><path class="cls-11" d="M1051.4,1134.81a84,84,0,0,1-25.24-3.89A82.7,82.7,0,0,1,994,1112l2.06-2.18a79.81,79.81,0,0,0,31,18.22,80.68,80.68,0,0,0,38.46,2.49l.53,3A82.54,82.54,0,0,1,1051.4,1134.81Z"/><path class="cls-12" d="M994,1112a84,84,0,0,1-22.27-85.86,82.69,82.69,0,0,1,18.74-32l2.19,2.05a79.73,79.73,0,0,0-18.07,30.86A81,81,0,0,0,996,1109.84Z"/><path class="cls-13" d="M1153.67,1092.54l-2.78-1.12A107.36,107.36,0,0,0,1024.7,947.31l-.75-2.91a110.37,110.37,0,0,1,129.72,148.14Z"/><path class="cls-14" d="M944.56,1079.29a110.35,110.35,0,0,1,35.31-112.06A109.3,109.3,0,0,1,1024,944.4l.75,2.91a107.47,107.47,0,0,0-76,72.57,107.59,107.59,0,0,0-1.21,58.66Z"/><path class="cls-15" d="M1079,1158.14l-.75-2.9a106.28,106.28,0,0,0,42.57-22.14,107.59,107.59,0,0,0,30.08-41.68l2.78,1.12a110.44,110.44,0,0,1-30.92,42.85A109.22,109.22,0,0,1,1079,1158.14Z"/><path class="cls-16" d="M1051.35,1161.65a110.23,110.23,0,0,1-84.12-38.89,109.4,109.4,0,0,1-22.67-43.47l2.9-.75a107.52,107.52,0,0,0,72.28,75.37,107.59,107.59,0,0,0,58.5,1.33l.75,2.9A110.65,110.65,0,0,1,1051.35,1161.65Z"/><path class="cls-17" d="M1091,1210.91l-.72-2.91a161.49,161.49,0,0,0,64.2-280.86l1.92-2.31a164.47,164.47,0,0,1-65.4,286.08Z"/><path class="cls-18" d="M1051.51,1215.8a164.57,164.57,0,0,1-160-125.7l2.91-.71a161.44,161.44,0,0,0,123.28,119.81,159.81,159.81,0,0,0,72.64-1.2l.72,2.91A162.7,162.7,0,0,1,1051.51,1215.8Z"/><path class="cls-19" d="M1154.51,927.14a161.7,161.7,0,0,0-69.57-33.72,159.93,159.93,0,0,0-72.15,1.08l-.72-2.91a163,163,0,0,1,73.5-1.1,164.68,164.68,0,0,1,70.86,34.34Z"/><path class="cls-20" d="M891.48,1090.1a164.69,164.69,0,0,1,42.67-154.19,164.83,164.83,0,0,1,77.92-44.32l.72,2.91a161.46,161.46,0,0,0-119.37,123.18,159.85,159.85,0,0,0,1,71.71Z"/><path class="cls-21" d="M865,1095.52A191.48,191.48,0,0,1,1125.94,875l-1.17,2.76A188.47,188.47,0,0,0,868,1094.83Z"/><path class="cls-22" d="M1051.39,1242.74a191.28,191.28,0,0,1-148.09-70.06A189.39,189.39,0,0,1,865,1095.52l2.92-.69A188.71,188.71,0,0,0,993,1230.5a189,189,0,0,0,102.91,3.92l.7,2.91A191.64,191.64,0,0,1,1051.39,1242.74Z"/><path class="cls-23" d="M1234.54,1007.24a186.65,186.65,0,0,0-37.54-75.4,188.82,188.82,0,0,0-72.23-54.07l1.17-2.76a191.78,191.78,0,0,1,73.38,54.93,189.66,189.66,0,0,1,38.14,76.6Z"/><path class="cls-24" d="M1096.6,1237.33l-.7-2.91a188.72,188.72,0,0,0,134.51-124.54,188.85,188.85,0,0,0,4.13-102.64l2.92-.7a191.4,191.4,0,0,1-64.78,192.78A189.6,189.6,0,0,1,1096.6,1237.33Z"/><path class="cls-25" d="M1051.48,1269.67a218.89,218.89,0,0,1-110.34-29.8l1.52-2.59a215.42,215.42,0,0,0,322.85-208.47l3-.31a218.44,218.44,0,0,1-212.42,241.12C1054.54,1269.65,1053,1269.67,1051.48,1269.67Z"/><path class="cls-26" d="M941.14,1239.87A218.64,218.64,0,0,1,833,1055.44,218.87,218.87,0,0,1,863.4,940.05l2.58,1.52a215.36,215.36,0,0,0,6.19,229.23,213.24,213.24,0,0,0,70.49,66.48Z"/><path class="cls-27" d="M1265.51,1028.81a215.76,215.76,0,0,0-35.06-97,213.25,213.25,0,0,0-69.92-66.15l1.52-2.59a216.32,216.32,0,0,1,70.9,67.07,218.88,218.88,0,0,1,35.54,98.34Z"/><path class="cls-28" d="M866,941.57l-2.58-1.52a218.59,218.59,0,0,1,183.48-107,218.93,218.93,0,0,1,115.17,30.09l-1.52,2.59a215.35,215.35,0,0,0-228.7,6.49A213.22,213.22,0,0,0,866,941.57Z"/><path class="cls-29" d="M1037.54,1296.35A245.47,245.47,0,0,1,862,895.18l2.32,1.91a242.44,242.44,0,0,0,173.43,396.26Z"/><path class="cls-30" d="M1051.63,1296.75q-7,0-14.09-.4l.17-3a242.71,242.71,0,0,0,213.14-104.42,243,243,0,0,0,42.58-125.44l3,.16a245.37,245.37,0,0,1-150.08,213.88A243.14,243.14,0,0,1,1051.63,1296.75Z"/><path class="cls-31" d="M864.28,897.09,862,895.18a245.89,245.89,0,0,1,94.32-70.08,243,243,0,0,1,108-18.86l-.16,3a240,240,0,0,0-106.73,18.63A242.92,242.92,0,0,0,864.28,897.09Z"/><path class="cls-32" d="M1296.42,1063.65l-3-.16A242.77,242.77,0,0,0,1189.21,852a243,243,0,0,0-125-42.73l.16-3a245.42,245.42,0,0,1,213.2,150A243.19,243.19,0,0,1,1296.42,1063.65Z"/><path class="cls-33" d="M1264.94,1220.16l-2.36-1.86a269.34,269.34,0,0,0-201.73-436.11l.11-3a272.33,272.33,0,0,1,204,441Z"/><path class="cls-34" d="M1051.44,1323.61a269.49,269.49,0,0,1-33.05-2A273,273,0,0,1,881.21,1264l1.88-2.35A269.23,269.23,0,0,0,1168,1294a266.68,266.68,0,0,0,94.62-75.67l2.36,1.86a272.86,272.86,0,0,1-213.5,103.45Z"/><path class="cls-35" d="M840.55,883.68l-2.35-1.87A269.7,269.7,0,0,1,933.36,806,273,273,0,0,1,1061,779.19l-.11,3a269.8,269.8,0,0,0-126.19,26.47A266.74,266.74,0,0,0,840.55,883.68Z"/><path class="cls-36" d="M881.21,1264A272.66,272.66,0,0,1,781,1018.76a273,273,0,0,1,57.21-137l2.35,1.87A269.23,269.23,0,0,0,808.66,1168a266.52,266.52,0,0,0,74.43,93.64Z"/><path class="cls-37" d="M1051.2,1350.59a300.18,300.18,0,0,1-68-7.8l.68-2.92a296.36,296.36,0,0,0,339.89-405l2.76-1.18a299.26,299.26,0,0,1-275.35,416.93Z"/><path class="cls-38" d="M1323.79,934.84a296.68,296.68,0,0,0-230-176.77,297,297,0,0,0-160.5,21.44l-1.2-2.75a299.3,299.3,0,0,1,315,48.2,296.38,296.38,0,0,1,79.48,108.7Z"/><path class="cls-39" d="M983.22,1342.79a300,300,0,0,1-127.67-65.12,296.46,296.46,0,0,1-79.12-107.87l2.75-1.19a293.44,293.44,0,0,0,78.33,106.79,296.93,296.93,0,0,0,126.39,64.47Z"/><path class="cls-40" d="M776.43,1169.8A299.26,299.26,0,0,1,825,855.55a296.59,296.59,0,0,1,107.1-78.79l1.2,2.75a296.68,296.68,0,0,0-175.13,229,297.12,297.12,0,0,0,21.06,160.14Z"/><path class="cls-41" d="M1229.86,1324.52l-1.64-2.51a323.39,323.39,0,0,0-63.45-573.51l1.06-2.81a326.41,326.41,0,0,1,64,578.83Z"/><path class="cls-42" d="M1051,1377.64a326.42,326.42,0,0,1-274-149.38l2.52-1.62a323.31,323.31,0,0,0,312.05,145.45A320.2,320.2,0,0,0,1228.22,1322l1.64,2.51A323.21,323.21,0,0,1,1092,1375.07,328.1,328.1,0,0,1,1051,1377.64Z"/><path class="cls-43" d="M875.23,780.08l-1.64-2.52a323.24,323.24,0,0,1,137-50,326.94,326.94,0,0,1,155.21,18.13l-1.06,2.81a324,324,0,0,0-153.78-18A320.21,320.21,0,0,0,875.23,780.08Z"/><path class="cls-44" d="M777.06,1228.26a326.77,326.77,0,0,1-20.61-316.81A327.2,327.2,0,0,1,873.59,777.56l1.64,2.52a323.29,323.29,0,0,0-144.7,311.55,320.36,320.36,0,0,0,49.05,135Z"/><path class="cls-45" d="M716.21,1163.15A353.29,353.29,0,0,1,1159.51,715l-.91,2.86A350.29,350.29,0,0,0,719.06,1162.2Z"/><path class="cls-46" d="M1051.39,1404.53a352.85,352.85,0,0,1-252.17-105.85,349.69,349.69,0,0,1-83-135.53l2.85-1A350.71,350.71,0,0,0,973,1392.68a351.08,351.08,0,0,0,191.15-9.77l1,2.84A353.72,353.72,0,0,1,1051.39,1404.53Z"/><path class="cls-47" d="M1383.22,939.41a346.88,346.88,0,0,0-82-133.37,350.89,350.89,0,0,0-142.66-88.15l.91-2.86a354,354,0,0,1,143.89,88.91,349.84,349.84,0,0,1,82.67,134.51Z"/><path class="cls-48" d="M1165.11,1385.75l-1-2.84a350.7,350.7,0,0,0,228.42-252.8,351,351,0,0,0-9.34-190.7l2.85-1a353.2,353.2,0,0,1-87.39,365A349.85,349.85,0,0,1,1165.11,1385.75Z"/><path class="cls-49" d="M1051,1431.56a380.41,380.41,0,0,1-300.8-148l2.38-1.83a377.3,377.3,0,0,0,661.28-126l2.89.83a380.69,380.69,0,0,1-365.75,275Z"/><path class="cls-50" d="M750.18,1283.55a380.73,380.73,0,0,1-53.9-368.39A381.15,381.15,0,0,1,820.83,748.83l1.82,2.39a377.23,377.23,0,0,0-140.78,376.19,373.64,373.64,0,0,0,70.69,154.31Z"/><path class="cls-51" d="M1416.73,1156.55l-2.89-.83a378,378,0,0,0,6.91-180.5,373.53,373.53,0,0,0-70-153.4l2.38-1.83a376.56,376.56,0,0,1,70.55,154.62A381.14,381.14,0,0,1,1416.73,1156.55Z"/><path class="cls-52" d="M1350.76,821.82a377.2,377.2,0,0,0-375.55-140,373.72,373.72,0,0,0-152.56,69.35l-1.82-2.39A380.81,380.81,0,0,1,1187,696.09,381.24,381.24,0,0,1,1353.14,820Z"/><path class="cls-53" d="M796.64,1369.11A407.28,407.28,0,0,1,945.91,658l.78,2.89a404.29,404.29,0,0,0-148.18,705.93Z"/><path class="cls-54" d="M1051.65,1458.54a408.62,408.62,0,0,1-89.89-10,403.16,403.16,0,0,1-165.12-79.39l1.87-2.34A404.78,404.78,0,0,0,1189,1431.35a405.13,405.13,0,0,0,179.25-129.09l2.35,1.86a407.51,407.51,0,0,1-318.94,154.42Z"/><path class="cls-55" d="M1303.14,735.09a400.29,400.29,0,0,0-162.94-78,405.12,405.12,0,0,0-193.51,3.79l-.78-2.89a408,408,0,0,1,194.95-3.83A403.24,403.24,0,0,1,1305,732.74Z"/><path class="cls-56" d="M1370.59,1304.12l-2.35-1.86a404.78,404.78,0,0,0,63.3-388.1,405.2,405.2,0,0,0-128.4-179.07l1.87-2.35a407.18,407.18,0,0,1,143.49,408.12A403.28,403.28,0,0,1,1370.59,1304.12Z"/><path class="cls-57" d="M1051.41,1512.21c-3,0-5.93,0-8.9-.09A460.83,460.83,0,0,1,639.16,1257.8l2.68-1.34a458,458,0,0,0,817.2,3.46l2.67,1.37a460.92,460.92,0,0,1-410.3,250.92Z"/><path class="cls-58" d="M1461.71,1261.29l-2.67-1.37a458.54,458.54,0,0,0-17.37-448.06,459,459,0,0,0-184.14-169.49l1.36-2.68a460.92,460.92,0,0,1,253.23,420.43A456.58,456.58,0,0,1,1461.71,1261.29Z"/><path class="cls-59" d="M639.16,1257.8a462,462,0,0,1-48.66-215.29,456.68,456.68,0,0,1,49.77-199.93l2.68,1.36a453.57,453.57,0,0,0-49.45,198.63,458.86,458.86,0,0,0,48.34,213.89Z"/><path class="cls-60" d="M643,843.94l-2.68-1.36A461,461,0,0,1,1060.11,590.5a456.74,456.74,0,0,1,198.78,49.19l-1.36,2.68A458.54,458.54,0,0,0,812.4,660.62,459.08,459.08,0,0,0,643,843.94Z"/><path class="cls-61" d="M1051.68,1539.24a488,488,0,0,1-468.81-351.16l2.87-.84a485,485,0,0,0,850.69,158.85l2.38,1.83a487.93,487.93,0,0,1-387.13,191.32Z"/><path class="cls-62" d="M582.87,1188.08a488.57,488.57,0,0,1,107.8-465.46A489.28,489.28,0,0,1,917.28,582.07l.83,2.89A484.91,484.91,0,0,0,573.39,969.39a480.36,480.36,0,0,0,12.35,217.85Z"/><path class="cls-63" d="M1438.81,1347.92l-2.38-1.83a485.83,485.83,0,0,0,92.8-212.86,480.43,480.43,0,0,0-11.94-216.42l2.88-.84a483.36,483.36,0,0,1,12,217.77A489.07,489.07,0,0,1,1438.81,1347.92Z"/><path class="cls-64" d="M1517.29,916.81a484.94,484.94,0,0,0-384.06-343.42A480.4,480.4,0,0,0,918.11,585l-.83-2.89A488.59,488.59,0,0,1,1379.5,690.22,489.15,489.15,0,0,1,1520.17,916Z"/><path class="cls-65" d="M1051.32,1566.31a515.11,515.11,0,0,1-512-459.47l3-.32A512,512,0,0,0,1397.1,1428.9l2,2.21a516,516,0,0,1-347.81,135.2Z"/><path class="cls-66" d="M1399.13,1431.11l-2-2.21a512.59,512.59,0,0,0,156.57-476.19,513.16,513.16,0,0,0-126.8-249.39l2.2-2a515,515,0,0,1,101.25,538.86A510,510,0,0,1,1399.13,1431.11Z"/><path class="cls-67" d="M539.32,1106.84a511.93,511.93,0,0,1,1.31-122.15A517.25,517.25,0,0,1,572.3,862.48a510.06,510.06,0,0,1,130-189.91l2,2.21a507,507,0,0,0-129.28,188.8,513.91,513.91,0,0,0-31.48,121.5,508.6,508.6,0,0,0-1.3,121.44Z"/><path class="cls-68" d="M1426.87,703.32A512.67,512.67,0,0,0,953.41,548.81a513.25,513.25,0,0,0-249,126l-2-2.21a514.94,514.94,0,0,1,537.8-100.27,510.15,510.15,0,0,1,188.93,129Z"/><path class="cls-69" d="M1051.4,1188.84A137.56,137.56,0,0,1,935.61,977l2.53,1.62a134.54,134.54,0,0,0,121.54,207l.19,3Q1055.63,1188.84,1051.4,1188.84Z"/><path class="cls-70" d="M1059.87,1188.58l-.19-3a134.72,134.72,0,0,0,110.61-71.51,134.86,134.86,0,0,0,15.24-71.91l3-.21a137.5,137.5,0,0,1-69.36,129A136.23,136.23,0,0,1,1059.87,1188.58Z"/><path class="cls-71" d="M938.14,978.58,935.61,977a137.82,137.82,0,0,1,47.85-45.24,136.27,136.27,0,0,1,58.88-17.65l.19,3a133.24,133.24,0,0,0-57.59,17.26A134.81,134.81,0,0,0,938.14,978.58Z"/><path class="cls-72" d="M1185.53,1042.16a134.73,134.73,0,0,0-71.29-109.74,134.86,134.86,0,0,0-71.71-15.35l-.19-3a137.52,137.52,0,0,1,128.56,69.39,136.13,136.13,0,0,1,17.62,58.49Z"/><path class="cls-73" d="M1036.7,1485.18A434.16,434.16,0,0,1,710.25,782.72l2.36,1.86a431.15,431.15,0,0,0,324.19,697.6Z"/><path class="cls-74" d="M712.61,784.58l-2.36-1.86A434.61,434.61,0,0,1,1103,620.33a435,435,0,0,1,218.86,91.5l-1.87,2.34a431,431,0,0,0-456.15-51A426.77,426.77,0,0,0,712.61,784.58Z"/><path class="cls-75" d="M1051.33,1485.43q-7.32,0-14.63-.25l.1-3a432,432,0,0,0,202-42.73,427,427,0,0,0,150.45-120.37l2.35,1.86a429.92,429.92,0,0,1-151.5,121.21A435.49,435.49,0,0,1,1051.33,1485.43Z"/><path class="cls-76" d="M1391.55,1320.94l-2.35-1.86a431.07,431.07,0,0,0,50.25-455.21A427.12,427.12,0,0,0,1320,714.17l1.87-2.34a434.64,434.64,0,0,1,160.48,390.6A435.16,435.16,0,0,1,1391.55,1320.94Z"/><path class="cls-77" d="M542.8,873,540,872a541.94,541.94,0,0,1,958.57-126.63l-2.47,1.69A538.93,538.93,0,0,0,542.8,873Z"/><path class="cls-78" d="M1354.68,1500.33l-1.68-2.48a538.82,538.82,0,0,0,231.33-525A533.61,533.61,0,0,0,1496.07,747l2.47-1.69a542.51,542.51,0,0,1,46.82,528.47A543.11,543.11,0,0,1,1354.68,1500.33Z"/><path class="cls-79" d="M603.14,1355.93a536.7,536.7,0,0,1-87.82-225.69A539.58,539.58,0,0,1,540,872l2.83,1a539.92,539.92,0,0,0,62.82,481.3Z"/><path class="cls-80" d="M1050.8,1593.13a542,542,0,0,1-447.66-237.2l2.48-1.68a538.79,538.79,0,0,0,524.18,230.08,533.87,533.87,0,0,0,223.2-86.48l1.68,2.48a536.84,536.84,0,0,1-224.44,87A544.57,544.57,0,0,1,1050.8,1593.13Z"/><path class="cls-81" d="M1051.64,1620.3A569.05,569.05,0,0,1,554.51,773.87l2.62,1.46A566.09,566.09,0,0,0,1121.38,1613l.37,3A570.37,570.37,0,0,1,1051.64,1620.3Z"/><path class="cls-82" d="M1121.75,1616l-.37-3c85.74-10.63,166.17-40.13,239.08-87.68A566,566,0,0,0,1612.57,978l3-.39a568.93,568.93,0,0,1-253.44,550.25C1288.81,1575.62,1207.94,1605.28,1121.75,1616Z"/><path class="cls-83" d="M557.13,775.33l-2.62-1.46a565.9,565.9,0,0,1,79.31-109.22,571.7,571.7,0,0,1,106.7-89.85,563.44,563.44,0,0,1,238.63-87.92l.37,3a560.6,560.6,0,0,0-237.36,87.47A568.81,568.81,0,0,0,636,666.69,562.83,562.83,0,0,0,557.13,775.33Z"/><path class="cls-84" d="M1612.57,978a566.76,566.76,0,0,0-327.94-442.29,567.46,567.46,0,0,0-305.11-45.82l-.37-3a568.94,568.94,0,0,1,548.67,253.64,563.66,563.66,0,0,1,87.72,237.05Z"/><path class="cls-85" d="M692.17,1527.19a596.26,596.26,0,0,1,188.15-1047l.86,2.87A593.25,593.25,0,0,0,694,1524.8Z"/><path class="cls-86" d="M1620.58,884.51A593.11,593.11,0,0,0,1147.51,466.1c-90-14.8-179.61-9.1-266.33,16.93l-.86-2.87c87.16-26.17,177.22-31.89,267.68-17a596.15,596.15,0,0,1,475.46,420.52Z"/><path class="cls-87" d="M1052.44,1647.54a603.95,603.95,0,0,1-238.08-49.13,592.78,592.78,0,0,1-122.19-71.22l1.81-2.39A590.44,590.44,0,0,0,955.1,1636.52c89.39,14.7,178.42,9.17,264.61-16.41l.85,2.87A588.81,588.81,0,0,1,1052.44,1647.54Z"/><path class="cls-88" d="M1220.56,1623l-.85-2.87a593.11,593.11,0,0,0,416.81-472.59c14.6-88.82,9.24-177.31-15.94-263l2.88-.85c25.3,86.14,30.69,175.08,16,264.34a596.08,596.08,0,0,1-418.92,475Z"/><path class="cls-89" d="M510.51,1361.34a623.41,623.41,0,0,1,611-929.41l-.33,3a620.43,620.43,0,0,0-608.09,924.94Z"/><path class="cls-90" d="M1050.86,1674.6q-8.22,0-16.45-.22a621.08,621.08,0,0,1-333.17-107.45c-79.3-53.84-143.47-123-190.73-205.59l2.6-1.49c47,82.18,110.9,151,189.82,204.6A620.31,620.31,0,0,0,1363,1587.7l1.5,2.6A624.72,624.72,0,0,1,1050.86,1674.6Z"/><path class="cls-91" d="M1588.57,741.14c-47-81.46-110.5-149.75-188.88-203A617.38,617.38,0,0,0,1121.2,434.91l.33-3A620.61,620.61,0,0,1,1401.38,535.7c78.75,53.46,142.61,122.08,189.79,203.94Z"/><path class="cls-92" d="M1364.49,1590.3l-1.5-2.6c80.8-46.88,148.58-110.13,201.45-188a620.24,620.24,0,0,0,24.13-658.55l2.6-1.5a623.27,623.27,0,0,1-24.24,661.74C1513.8,1479.63,1445.69,1543.19,1364.49,1590.3Z"/><path class="cls-93" d="M1050.84,1701.38a650.62,650.62,0,0,1-494.58-228.7l2.29-2A647.12,647.12,0,0,0,1681,1200.22l2.92.69a650.79,650.79,0,0,1-633.1,500.47Z"/><path class="cls-94" d="M556.26,1472.68c-64.37-75.51-109.61-162.9-134.48-259.72A650,650,0,0,1,632.84,553.81l1.94,2.29a647,647,0,0,0-210.09,656.11c24.75,96.38,69.78,183.36,133.86,258.52Z"/><path class="cls-95" d="M1683.94,1200.91l-2.92-.69a643,643,0,0,0,17.38-152.51,649.46,649.46,0,0,0-20.47-157.3c-24.58-95.71-69.18-182.18-132.58-257l2.29-1.94c63.69,75.19,108.5,162.06,133.2,258.21a647.23,647.23,0,0,1,3.1,311.25Z"/><path class="cls-96" d="M1545.35,633.39a647,647,0,0,0-654.94-208.7c-95.1,24.42-181.11,68.63-255.63,131.41l-1.94-2.29c74.88-63.07,161.28-107.49,256.82-132a650,650,0,0,1,658,209.66Z"/><path class="cls-97" d="M1697.2,1253.92l-2.87-.89A674,674,0,0,0,833.27,413.62l-1-2.84a677,677,0,0,1,864.9,843.14Z"/><path class="cls-98" d="M412.07,1274.06A677,677,0,0,1,832.3,410.78l1,2.84a670.08,670.08,0,0,0-135.77,64.1,674.2,674.2,0,0,0-282.6,795.36Z"/><path class="cls-99" d="M1272.27,1691.17l-1-2.83c96.57-33.27,182.52-87,255.44-159.58A670.78,670.78,0,0,0,1694.33,1253l2.87.89a674.08,674.08,0,0,1-168.35,277C1455.6,1603.82,1369.27,1657.75,1272.27,1691.17Z"/><path class="cls-100" d="M1051.44,1728.14a676,676,0,0,1-479.7-199.29c-72.48-72.78-126.2-158.5-159.67-254.79l2.83-1c33.33,95.85,86.81,181.2,159,253.66a673.84,673.84,0,0,0,697.43,161.6l1,2.83A677.74,677.74,0,0,1,1051.44,1728.14Z"/><path class="cls-101" d="M1051.84,1755.32A704.19,704.19,0,0,1,370.6,1231.25l2.9-.77a701.15,701.15,0,0,0,1223.42,261.09l2.33,1.88a704.1,704.1,0,0,1-547.41,261.87Z"/><path class="cls-102" d="M370.6,1231.25a700.34,700.34,0,0,1-23-155.17,704.34,704.34,0,0,1,527.7-706.52l.75,2.9a701.08,701.08,0,0,0-502.6,858Z"/><path class="cls-103" d="M1599.25,1493.45l-2.33-1.88a698.12,698.12,0,0,0,142-304.17,705.17,705.17,0,0,0,13.1-159.66,697.28,697.28,0,0,0-22.34-153.53l2.9-.76a703.83,703.83,0,0,1-133.32,620Z"/><path class="cls-104" d="M1729.67,874.21a701,701,0,0,0-542.27-510.5C1083,343.06,978.31,346,876.1,372.46l-.75-2.9C978,343,1083.18,340,1188,360.77a704,704,0,0,1,544.59,512.68Z"/><path class="cls-105" d="M1051.43,1781.93a733.16,733.16,0,0,1-245.5-42.3l1-2.83a727.83,727.83,0,0,0,941.54-894.28l2.87-.86a730.4,730.4,0,0,1-699.92,940.27Z"/><path class="cls-106" d="M1748.48,842.52A724.12,724.12,0,0,0,1685,693.35a728.07,728.07,0,0,0-846.5-338l-.88-2.86a730.77,730.77,0,0,1,913.78,489.15Z"/><path class="cls-107" d="M805.93,1739.63a727.42,727.42,0,0,1-291.77-193.1,735.05,735.05,0,0,1-98.54-134.79,727,727,0,0,1-63.71-148.65l2.87-.87a723.48,723.48,0,0,0,63.45,148A733.72,733.72,0,0,0,652.34,1660a724,724,0,0,0,154.6,76.82Z"/><path class="cls-108" d="M351.91,1263.09A730.76,730.76,0,0,1,837.57,352.51l.88,2.86a728,728,0,0,0-483.67,906.85Z"/><path class="cls-109" d="M379,1401.91a758.32,758.32,0,0,1,787.66-1100l-.46,3A755.29,755.29,0,0,0,381.67,1400.52Z"/><path class="cls-110" d="M1800,1171.05l-3-.47a755.22,755.22,0,0,0-630.87-865.72l.46-3A758.45,758.45,0,0,1,1800,1171.05Z"/><path class="cls-111" d="M933.67,1800.38a754.22,754.22,0,0,1-161.88-44.23A757.77,757.77,0,0,1,379,1401.91l2.66-1.39a751.65,751.65,0,0,0,239.22,271.17,759,759,0,0,0,152,81.68,751.2,751.2,0,0,0,161.23,44Z"/><path class="cls-112" d="M1050.91,1809.49a758.66,758.66,0,0,1-117.24-9.11l.46-3a755.28,755.28,0,0,0,863-626.83l3,.47a753.8,753.8,0,0,1-44.29,160.79,758.37,758.37,0,0,1-704.84,477.65Z"/><path class="cls-113" d="M754.18,1778A785.11,785.11,0,0,1,641.5,381.73l1.57,2.56a782.12,782.12,0,0,0,112.25,1390.9Z"/><path class="cls-114" d="M1050.68,1836.21A780.12,780.12,0,0,1,754.18,1778l1.14-2.78a777.78,777.78,0,0,0,167.61,47.57,782.38,782.38,0,0,0,854-479.69l2.78,1.12a785,785,0,0,1-676.88,490.31Q1076.76,1836.21,1050.68,1836.21Z"/><path class="cls-115" d="M643.07,384.29l-1.57-2.56a781.54,781.54,0,0,1,358.3-113.6,781.79,781.79,0,0,1,346.42,55.62l-1.13,2.78a777.85,777.85,0,0,0-166.6-46.86,788.45,788.45,0,0,0-366.84,27.2A778,778,0,0,0,643.07,384.29Z"/><path class="cls-116" d="M1779.69,1344.19l-2.78-1.12a777.53,777.53,0,0,0,46.22-165.69,782.35,782.35,0,0,0-478-850.85l1.13-2.78a785.11,785.11,0,0,1,433.47,1020.44Z"/><path class="cls-117" d="M999.58,1861.9a812.33,812.33,0,0,1-571-1332.09l2.3,1.93A809.29,809.29,0,0,0,999.77,1858.9Z"/><path class="cls-118" d="M430.88,531.74l-2.3-1.93A807.89,807.89,0,0,1,559.49,404.88a812.56,812.56,0,0,1,1017,26.76l-1.93,2.29A809.25,809.25,0,0,0,430.88,531.74Z"/><path class="cls-119" d="M1051.67,1863.58q-26.06,0-52.09-1.68l.19-3a804.15,804.15,0,0,0,191.67-10.55,809.59,809.59,0,0,0,478.72-275.57l2.29,1.93a812.38,812.38,0,0,1-620.78,288.87Z"/><path class="cls-120" d="M1672.45,1574.71l-2.29-1.93a809.31,809.31,0,0,0-95.65-1138.85l1.93-2.29a808,808,0,0,1,122.77,129.79,812.56,812.56,0,0,1-26.76,1013.28Z"/><path class="cls-121" d="M469.05,1655.55A839.18,839.18,0,0,1,908.94,224.37l.51,3A836.21,836.21,0,0,0,471.13,1653.39Z"/><path class="cls-122" d="M1051.65,1890.43a839.07,839.07,0,0,1-582.6-234.88l2.08-2.16a831.75,831.75,0,0,0,147.7,113.51A836.46,836.46,0,0,0,1656.78,1628L1659,1630a840.2,840.2,0,0,1-607.3,260.4Z"/><path class="cls-123" d="M1629.65,447.46a831.17,831.17,0,0,0-147-112.41,842.69,842.69,0,0,0-375.16-118,831.41,831.41,0,0,0-198.06,10.26l-.51-3a835.46,835.46,0,0,1,400.73,28.78,843.65,843.65,0,0,1,174.55,79.33A834.42,834.42,0,0,1,1631.73,445.3Z"/><path class="cls-124" d="M1659,1630l-2.17-2.07a831.44,831.44,0,0,0,111.41-146.31A836.46,836.46,0,0,0,1629.65,447.46l2.08-2.16A839.17,839.17,0,0,1,1659,1630Z"/><path class="cls-125" d="M1544.77,1762.93l-1.71-2.46A863,863,0,0,0,1331.81,235.22l1-2.83a866.05,866.05,0,0,1,212,1530.54Z"/><path class="cls-126" d="M1050.48,1917.17A866.07,866.07,0,0,1,336.82,1540.6l2.47-1.69a863,863,0,0,0,1203.77,221.56l1.71,2.46a861.33,861.33,0,0,1-169.8,91.59,873.15,873.15,0,0,1-324.49,62.65Z"/><path class="cls-127" d="M561.73,340.66,560,338.19A861.44,861.44,0,0,1,728.91,247.6,872.78,872.78,0,0,1,1132,189.1a861,861,0,0,1,200.8,43.29l-1,2.83a859.16,859.16,0,0,0-411.55-36.67A867.47,867.47,0,0,0,730,250.39,857.51,857.51,0,0,0,561.73,340.66Z"/><path class="cls-128" d="M336.82,1540.6a860.61,860.61,0,0,1-89.68-168A866.3,866.3,0,0,1,560,338.19l1.71,2.47A863,863,0,0,0,339.29,1538.91Z"/><path class="cls-129" d="M1051.19,1944.38a895.55,895.55,0,0,1-248.44-35.12l.83-2.88A890.34,890.34,0,0,0,1887.15,744.85l2.82-1a892.87,892.87,0,0,1-838.78,1200.56Z"/><path class="cls-130" d="M1887.15,744.85a885.65,885.65,0,0,0-88.59-177.45A890.6,890.6,0,0,0,740,217.27l-1.05-2.81A893.29,893.29,0,0,1,1890,743.82Z"/><path class="cls-131" d="M802.75,1909.26A889.24,889.24,0,0,1,432.49,1695.2,897.92,897.92,0,0,1,302.3,1538a888.08,888.08,0,0,1-88.71-176.66l2.81-1a885.33,885.33,0,0,0,88.42,176.06A897.45,897.45,0,0,0,609.14,1824a885.31,885.31,0,0,0,194.44,82.38Z"/><path class="cls-132" d="M213.59,1361.36A893.32,893.32,0,0,1,738.92,214.46l1.05,2.81a885,885,0,0,0-174.8,88.25A890.59,890.59,0,0,0,216.4,1360.32Z"/><path class="cls-133" d="M1962.61,948.67A917.11,917.11,0,0,0,429.19,377.57l-2-2.21a920.15,920.15,0,0,1,1538.44,573Z"/><path class="cls-134" d="M1148.94,1966.19l-.32-3a919.08,919.08,0,0,0,464.76-187.38c138.48-107.22,242.84-251.53,301.79-417.31A921.16,921.16,0,0,0,1962.72,1153a911.7,911.7,0,0,0-.11-204.31l3-.34a914.71,914.71,0,0,1,.11,205,924.67,924.67,0,0,1-47.7,206.2c-59.15,166.33-163.85,311.11-302.78,418.68A922.21,922.21,0,0,1,1148.94,1966.19Z"/><path class="cls-135" d="M136.71,1151.5a915.07,915.07,0,0,1,.37-203.62A919.64,919.64,0,0,1,427.15,375.36l2,2.21A911.57,911.57,0,0,0,288,543a917.27,917.27,0,0,0-148.28,608.13Z"/><path class="cls-136" d="M1051.31,1971.41a913.54,913.54,0,0,1-104.74-6A924.57,924.57,0,0,1,743.11,1918c-165.9-59-310.41-163.34-417.9-301.77a922.34,922.34,0,0,1-188.5-464.73l3-.33a919.34,919.34,0,0,0,187.89,463.22c107.14,138,251.17,242,416.53,300.79a922.19,922.19,0,0,0,202.81,47.23,911.09,911.09,0,0,0,201.7.79l.32,3A914.89,914.89,0,0,1,1051.31,1971.41Z"/><path class="cls-137" d="M1052.05,1998.35a947.21,947.21,0,0,1-919-715.27l2.91-.74A943.76,943.76,0,0,0,830.32,1969c175.16,42.18,357.39,33.67,527-24.62a946.43,946.43,0,0,0,422.06-292l2.31,1.92a947.68,947.68,0,0,1-729.61,344.07Z"/><path class="cls-138" d="M1781.66,1654.28l-2.31-1.92a938.4,938.4,0,0,0,115-176.1,948.75,948.75,0,0,0,74.6-204c42.41-176.1,33.59-359.22-25.5-529.56a946.29,946.29,0,0,0-295.35-423l1.9-2.33a949.26,949.26,0,0,1,296.28,424.32c59.29,170.88,68.13,354.58,25.59,531.24a943.18,943.18,0,0,1-190.21,381.28Z"/><path class="cls-139" d="M133,1283.08a942.71,942.71,0,0,1-2.29-453.46,952.14,952.14,0,0,1,74.17-203.29,941.59,941.59,0,0,1,114.2-175.75l2.32,1.9A938.87,938.87,0,0,0,207.6,627.68a951.86,951.86,0,0,0-100.35,432.56,938.75,938.75,0,0,0,28.7,222.1Z"/><path class="cls-140" d="M321.44,452.48l-2.32-1.9A949.36,949.36,0,0,1,743,155.91C913.52,97,1096.79,88.32,1273,130.75a951.65,951.65,0,0,1,202.07,73.57A942.17,942.17,0,0,1,1650,317.44l-1.9,2.33A938.73,938.73,0,0,0,1473.73,207a949.3,949.3,0,0,0-201.43-73.33C1096.64,91.37,914,100,744,158.75A946.4,946.4,0,0,0,321.44,452.48Z"/><path class="cls-141" d="M1857.15,1598.22l-2.48-1.68a973.34,973.34,0,0,0,166.43-500.86c8.61-184.21-35.57-366.54-127.75-527.27A970.59,970.59,0,0,0,1015.25,81.1l-.11-3A973.55,973.55,0,0,1,1896,566.92c92.47,161.23,136.78,344.12,128.15,528.9A976.35,976.35,0,0,1,1857.15,1598.22Z"/><path class="cls-142" d="M1052.12,2025.16q-24.06,0-48.15-1.19a976.2,976.2,0,0,1-504.28-170l1.7-2.47A973.2,973.2,0,0,0,1004.12,2021c185.2,9.18,368.5-34.94,530.09-127.62A975.87,975.87,0,0,0,1714,1760.87a966.16,966.16,0,0,0,140.65-164.33l2.48,1.68a968.36,968.36,0,0,1-141.09,164.84,977,977,0,0,1-663.94,262.1Z"/><path class="cls-143" d="M249.62,503.64,247.14,502A967.43,967.43,0,0,1,387.67,338.53,981.63,981.63,0,0,1,786.92,114,968.64,968.64,0,0,1,1015.14,78.1l.11,3A966.55,966.55,0,0,0,568.41,209.27a975.77,975.77,0,0,0-178.7,131.45A965.69,965.69,0,0,0,249.62,503.64Z"/><path class="cls-144" d="M499.69,1854a968.93,968.93,0,0,1-162.12-140,979.29,979.29,0,0,1-130.91-178.22c-92.72-161.68-137-345.08-128.07-530.38A976.22,976.22,0,0,1,247.14,502l2.48,1.69a973.19,973.19,0,0,0-168,501.83C72.68,1190.2,116.83,1373,209.27,1534.22a976.15,976.15,0,0,0,130.5,177.67,965.5,965.5,0,0,0,161.62,139.58Z"/><path class="cls-145" d="M1052.22,2052.31a1004.92,1004.92,0,0,1-498.69-132.46l1.49-2.6a1002.1,1002.1,0,0,0,497.2,132.06q7.13,0,14.26-.1a995.6,995.6,0,0,0,520.64-156.09c160.69-102.27,288-247.14,368.16-418.93A1000.69,1000.69,0,0,0,2043,938.76l3-.33a1003.57,1003.57,0,0,1-88,537c-80.4,172.32-208.1,317.62-369.27,420.2a998.5,998.5,0,0,1-522.21,156.55C1061.76,2052.27,1057,2052.31,1052.22,2052.31Z"/><path class="cls-146" d="M2043,938.76A992.7,992.7,0,0,0,1993.51,722,1003.09,1003.09,0,0,0,1893.12,515.5C1790.29,354,1644.52,226.22,1471.55,146.12A1000.29,1000.29,0,0,0,933,60.25l-.35-3a1003.41,1003.41,0,0,1,540.21,86.11c173.48,80.35,319.69,208.46,422.83,370.5A1005.79,1005.79,0,0,1,1996.34,721,995.57,995.57,0,0,1,2046,938.43Z"/><path class="cls-147" d="M553.53,1919.85A996.41,996.41,0,0,1,207,1588.74,1006.08,1006.08,0,0,1,106.8,1383.1,995.37,995.37,0,0,1,57,1167.23l3-.34a992.5,992.5,0,0,0,49.7,215.21A1006.18,1006.18,0,0,0,365,1776a992.51,992.51,0,0,0,190,141.23Z"/><path class="cls-148" d="M57,1167.23a1003.5,1003.5,0,0,1,87-538.69C224.35,455.62,352.26,309.84,513.89,207a1005.67,1005.67,0,0,1,204.28-99.69,995,995,0,0,1,214.44-50l.35,3a992.4,992.4,0,0,0-213.79,49.85A1003.32,1003.32,0,0,0,515.5,209.5C354.36,312.07,226.83,457.41,146.7,629.81a1000.42,1000.42,0,0,0-86.77,537.08Z"/></svg>