<svg id="Layer_1" data-name="Layer 1" xmlns="http://www.w3.org/2000/svg" viewBox="0 0 60 60"><defs><style>.cls-1{fill:blue;}.cls-2{fill:#8080ff;}</style></defs><title>technology017-touch</title><path class="cls-1" d="M8.35,18.79A1.34,1.34,0,0,0,9.7,17.44V9.7h7.74a1.35,1.35,0,0,0,0-2.7H8.35A1.34,1.34,0,0,0,7,8.35v9.09a1.34,1.34,0,0,0,1.35,1.35Zm0,0"/><path class="cls-1" d="M17.44,50.38H9.7V42.64a1.35,1.35,0,0,0-2.7,0v9.09a1.34,1.34,0,0,0,1.35,1.35h9.09a1.35,1.35,0,0,0,0-2.7Zm0,0"/><path class="cls-1" d="M51.73,41.29a1.34,1.34,0,0,0-1.35,1.35v7.74H42.64a1.35,1.35,0,0,0,0,2.7h9.09a1.34,1.34,0,0,0,1.35-1.35V42.64a1.34,1.34,0,0,0-1.35-1.35Zm0,0"/><path class="cls-1" d="M51.73,7H42.64a1.35,1.35,0,0,0,0,2.7h7.74v7.74a1.35,1.35,0,0,0,2.7,0V8.35A1.34,1.34,0,0,0,51.73,7Zm0,0"/><path class="cls-2" d="M46.92,46.31A1.34,1.34,0,0,0,45.57,45h-6.3a5.07,5.07,0,0,1-5.06-5.07V24.15a4.22,4.22,0,1,0-8.43,0V46.31a1.35,1.35,0,1,0,2.7,0V24.15a1.52,1.52,0,1,1,3,0V39.89a7.78,7.78,0,0,0,7.76,7.77h6.3a1.35,1.35,0,0,0,1.35-1.35Zm0,0"/><path class="cls-2" d="M36.68,24.05v15.6a2.87,2.87,0,0,0,2.86,2.86h6a1.35,1.35,0,1,0,0-2.7h-6a.16.16,0,0,1-.16-.16V24.05a9.39,9.39,0,0,0-18.78,0V46.31a1.35,1.35,0,1,0,2.7,0V24.05a6.69,6.69,0,1,1,13.38,0Zm0,0"/><path class="cls-2" d="M15.66,31.28a1.35,1.35,0,0,0,2.7,0V23.69a11.66,11.66,0,1,1,23.32,0V35.38a1.35,1.35,0,1,0,2.7,0V23.69a14.36,14.36,0,1,0-28.72,0Zm0,0"/><path class="cls-2" d="M17,36a1.34,1.34,0,0,0-1.35,1.35v9a1.35,1.35,0,0,0,2.7,0v-9A1.35,1.35,0,0,0,17,36Zm0,0"/></svg>