<svg id="Layer_1" data-name="Layer 1" xmlns="http://www.w3.org/2000/svg" viewBox="0 0 60 60"><defs><style>.cls-1{fill:#bfbfff;}.cls-2{fill:blue;}.cls-3{fill:none;}.cls-4{fill:#8080ff;}.cls-5{fill:#4040ff;}</style></defs><title>work-from-home033-balance</title><path class="cls-1" d="M40.93,35H32.74a1.35,1.35,0,0,1,0-2.7h8.19A1.36,1.36,0,0,0,42.28,31v-5.4a1.35,1.35,0,1,1,2.7,0V31a4.06,4.06,0,0,1-4,4.05Zm0,0"/><path class="cls-1" d="M27.25,35h-8.1a4.06,4.06,0,0,1-4-4.05v-5.4a1.35,1.35,0,1,1,2.7,0V31a1.36,1.36,0,0,0,1.35,1.35h8.1a1.35,1.35,0,1,1,0,2.7Zm0,0"/><rect class="cls-1" x="28.69" y="35" width="2.7" height="13.5"/><path class="cls-1" d="M50.38,16.83v8.72H36.88V16.83l6.75-4.51Zm0,0"/><path class="cls-2" d="M52.48,16.33l-8.1-5.4a1.34,1.34,0,0,0-1.5,0l-8.1,5.4a1.35,1.35,0,1,0,1.5,2.24l7.35-4.9L51,18.57a1.35,1.35,0,0,0,1.5-2.24Zm0,0"/><rect class="cls-3" x="7" y="8" width="46.08" height="43.2"/><path class="cls-4" d="M20.5,12.05v2.7a1.35,1.35,0,0,1-2.7,0v-2.7a1.35,1.35,0,0,0-2.7,0v2.7a1.35,1.35,0,0,1-2.7,0v-2.7a4,4,0,0,1,8.1,0Zm0,0"/><path class="cls-2" d="M25.9,18.8v6.75a1.33,1.33,0,0,1-1.35,1.35H8.35A1.33,1.33,0,0,1,7,25.55V18.8l2.38-2.7H23.61Zm0,0"/><path class="cls-5" d="M53.08,25.55a1.33,1.33,0,0,1-1.35,1.35H35.53a1.35,1.35,0,0,1,0-2.7h16.2a1.33,1.33,0,0,1,1.35,1.35Zm0,0"/><path class="cls-5" d="M24.55,13.4H8.35A1.33,1.33,0,0,0,7,14.75V18.8H25.9V14.75a1.33,1.33,0,0,0-1.35-1.35Zm0,0"/><path class="cls-5" d="M30,29.6a4.05,4.05,0,1,0,4.05,4,4,4,0,0,0-4.05-4Zm0,0"/><path class="cls-5" d="M42.19,49.85a1.33,1.33,0,0,1-1.35,1.35H19.24a1.33,1.33,0,0,1-1.35-1.35,4,4,0,0,1,4.05-4.05h16.2a4,4,0,0,1,4,4.05Zm0,0"/></svg>