<?xml version="1.0" encoding="utf-8"?>
<!-- Generator: Adobe Illustrator 25.4.1, SVG Export Plug-In . SVG Version: 6.00 Build 0)  -->
<svg version="1.1" id="Layer_1" xmlns="http://www.w3.org/2000/svg" xmlns:xlink="http://www.w3.org/1999/xlink" x="0px" y="0px"
	 viewBox="0 0 60 60" style="enable-background:new 0 0 60 60;" xml:space="preserve">
<g>
	<path style="fill:#8080FF;" d="M30,13c-6.7,0-12.1,5.4-12.1,12.1v12.1h24.3V25.1C42.1,18.4,36.7,13,30,13z M23.9,25.1
		c0,0.7-0.5,1.2-1.2,1.2c-0.7,0-1.2-0.5-1.2-1.2c0-4.7,3.8-8.5,8.5-8.5c0.7,0,1.2,0.5,1.2,1.2s-0.5,1.2-1.2,1.2
		C26.6,19.1,23.9,21.8,23.9,25.1z"/>
	<path style="fill:#0000FF;" d="M11,13.3c-0.8-0.6-2-0.3-2.5,0.5s-0.3,2,0.5,2.5l3.6,2.4c0.8,0.6,2,0.3,2.5-0.5
		c0.6-0.8,0.3-2-0.5-2.5L11,13.3z M51,16.3c0.8-0.6,1.1-1.7,0.5-2.5s-1.7-1.1-2.5-0.5l-3.6,2.4c-0.8,0.6-1.1,1.7-0.5,2.5
		s1.7,1.1,2.5,0.5L51,16.3z M7.5,25.1c-1,0-1.8,0.8-1.8,1.8c0,1,0.8,1.8,1.8,1.8h4.9c1,0,1.8-0.8,1.8-1.8c0-1-0.8-1.8-1.8-1.8H7.5z
		 M47.6,25.1c-1,0-1.8,0.8-1.8,1.8c0,1,0.8,1.8,1.8,1.8h4.9c1,0,1.8-0.8,1.8-1.8c0-1-0.8-1.8-1.8-1.8H47.6z M15.4,37.3
		c-1.3,0-2.4,1.1-2.4,2.4v4.9c0,1.3,1.1,2.4,2.4,2.4h29.1c1.3,0,2.4-1.1,2.4-2.4v-4.9c0-1.3-1.1-2.4-2.4-2.4H15.4z"/>
</g>
</svg>
