<svg id="Layer_1" data-name="Layer 1" xmlns="http://www.w3.org/2000/svg" viewBox="0 0 60 60"><defs><style>.cls-1{fill:#4040ff;}.cls-2{fill:blue;}.cls-3{fill:#bfbfff;}.cls-4{fill:#8080ff;}</style></defs><title>ecommerce011-box</title><path class="cls-1" d="M45.24,20v1.44H15V20l3.38-4.74A.73.73,0,0,1,19,15h22.3a.73.73,0,0,1,.59.3Zm0,0"/><path class="cls-2" d="M45.24,20V44.52a.72.72,0,0,1-.72.72H15.72a.72.72,0,0,1-.72-.72V20Zm0,0"/><rect class="cls-3" x="17.88" y="38.04" width="6.48" height="1.44"/><rect class="cls-3" x="25.8" y="38.04" width="2.16" height="1.44"/><rect class="cls-3" x="17.88" y="40.92" width="4.32" height="1.44"/><path class="cls-4" d="M35.16,20v1.44H25.08V20h0v-.16L26.18,15h7.88l1.09,4.88V20Zm0,0"/><path class="cls-3" d="M25.08,20v7.2a.72.72,0,0,0,.34.61.7.7,0,0,0,.7,0l4-2,4,2a.72.72,0,0,0,.32.08.73.73,0,0,0,.38-.11.72.72,0,0,0,.34-.61V20Zm0,0"/></svg>