<svg id="Layer_1" data-name="Layer 1" xmlns="http://www.w3.org/2000/svg" viewBox="0 0 60 60"><defs><style>.cls-1{fill:blue;}.cls-2{fill:#bfbfff;}.cls-3{fill:#8080ff;}</style></defs><title>technology046-cable</title><path class="cls-1" d="M47.13,20.41a1.35,1.35,0,0,0-1.35,1.35V33.1a15.58,15.58,0,0,1-3.42,9.77,13,13,0,0,0,.77-4.42,13.09,13.09,0,0,0-26.18,0,13,13,0,0,0,.77,4.42A15.58,15.58,0,0,1,14.3,33.1V21.76a1.35,1.35,0,1,0-2.7,0V33.1a18.44,18.44,0,0,0,36.88,0V21.76a1.34,1.34,0,0,0-1.35-1.35ZM30,48.84a6.06,6.06,0,1,1,6.06-6.06A6.07,6.07,0,0,1,30,48.84Zm0-20.78A10.41,10.41,0,0,1,40.43,38.45a10.28,10.28,0,0,1-1.75,5.76,8.36,8.36,0,0,0,.12-1.43,8.76,8.76,0,0,0-17.52,0,9.52,9.52,0,0,0,.11,1.43A10.39,10.39,0,0,1,30,28.06Zm0,0"/><path class="cls-2" d="M16.32,9H9.58a1.34,1.34,0,0,0-1.35,1.35v6.08a1.35,1.35,0,0,0,1.35,1.35h6.74a1.36,1.36,0,0,0,1.35-1.35V10.35A1.35,1.35,0,0,0,16.32,9Zm0,0"/><path class="cls-2" d="M50.5,9H43.76a1.35,1.35,0,0,0-1.35,1.35v6.08a1.36,1.36,0,0,0,1.35,1.35H50.5a1.35,1.35,0,0,0,1.35-1.35V10.35A1.34,1.34,0,0,0,50.5,9Zm0,0"/><path class="cls-3" d="M17.55,15.08H8.35A1.34,1.34,0,0,0,7,16.43v2.95a3.74,3.74,0,0,0,3.73,3.73h4.43a3.75,3.75,0,0,0,3.74-3.73V16.43a1.35,1.35,0,0,0-1.35-1.35Zm0,0"/><path class="cls-3" d="M51.73,15.08h-9.2a1.35,1.35,0,0,0-1.35,1.35v2.95a3.75,3.75,0,0,0,3.74,3.73h4.43a3.74,3.74,0,0,0,3.73-3.73V16.43a1.34,1.34,0,0,0-1.35-1.35Zm0,0"/></svg>