<svg id="Layer_1" data-name="Layer 1" xmlns="http://www.w3.org/2000/svg" viewBox="0 0 60 60"><defs><style>.cls-1{fill:#8080ff;}.cls-2{fill:blue;}.cls-3{fill:#bfbfff;}.cls-4{fill:#fff;}</style></defs><title>office043-deadline</title><path class="cls-1" d="M46.24,12.7H8.35A1.34,1.34,0,0,0,7,14.05v29.7A1.34,1.34,0,0,0,8.35,45.1H46.24a1.34,1.34,0,0,0,1.35-1.35V14.05a1.34,1.34,0,0,0-1.35-1.35Zm0,0"/><path class="cls-2" d="M13.93,10a1.34,1.34,0,0,0-1.35,1.35v4.5a1.35,1.35,0,0,0,2.7,0v-4.5A1.34,1.34,0,0,0,13.93,10Zm0,0"/><path class="cls-2" d="M21.94,10a1.34,1.34,0,0,0-1.35,1.35v4.5a1.35,1.35,0,1,0,2.7,0v-4.5A1.34,1.34,0,0,0,21.94,10Zm0,0"/><path class="cls-2" d="M32.74,10a1.34,1.34,0,0,0-1.35,1.35v4.5a1.35,1.35,0,1,0,2.7,0v-4.5A1.34,1.34,0,0,0,32.74,10Zm0,0"/><path class="cls-2" d="M40.84,10a1.34,1.34,0,0,0-1.35,1.35v4.5a1.35,1.35,0,1,0,2.7,0v-4.5A1.34,1.34,0,0,0,40.84,10Zm0,0"/><path class="cls-3" d="M19.24,20.8h-5.4a1.34,1.34,0,0,0-1.35,1.35v5.4a1.34,1.34,0,0,0,1.35,1.35h5.4a1.34,1.34,0,0,0,1.35-1.35v-5.4a1.34,1.34,0,0,0-1.35-1.35Zm0,0"/><path class="cls-3" d="M30,20.8h-5.4a1.34,1.34,0,0,0-1.35,1.35v5.4a1.34,1.34,0,0,0,1.35,1.35H30a1.34,1.34,0,0,0,1.35-1.35v-5.4A1.34,1.34,0,0,0,30,20.8Zm0,0"/><path class="cls-3" d="M40.84,20.8h-5.4a1.34,1.34,0,0,0-1.35,1.35v5.4a1.34,1.34,0,0,0,1.35,1.35h5.4a1.34,1.34,0,0,0,1.35-1.35v-5.4a1.34,1.34,0,0,0-1.35-1.35Zm0,0"/><path class="cls-3" d="M19.24,31.6h-5.4A1.34,1.34,0,0,0,12.49,33v5.4a1.34,1.34,0,0,0,1.35,1.35h5.4a1.34,1.34,0,0,0,1.35-1.35V33a1.34,1.34,0,0,0-1.35-1.35Zm0,0"/><path class="cls-3" d="M30,31.6h-5.4A1.34,1.34,0,0,0,23.29,33v5.4a1.34,1.34,0,0,0,1.35,1.35H30a1.34,1.34,0,0,0,1.35-1.35V33A1.34,1.34,0,0,0,30,31.6Zm0,0"/><path class="cls-2" d="M53.08,41.23a9.45,9.45,0,1,1-9.45-9.45,9.45,9.45,0,0,1,9.45,9.45Zm0,0"/><path class="cls-4" d="M50.38,41.23a6.75,6.75,0,1,1-6.75-6.75,6.75,6.75,0,0,1,6.75,6.75Zm0,0"/><path class="cls-1" d="M44.08,37.09a1.34,1.34,0,0,0-1.35,1.35v1.35H41.29a1.35,1.35,0,1,0,0,2.7h2.79a1.34,1.34,0,0,0,1.35-1.35v-2.7a1.34,1.34,0,0,0-1.35-1.35Zm0,0"/></svg>