<?xml version="1.0" encoding="utf-8"?>
<!-- Generator: Adobe Illustrator 25.4.1, SVG Export Plug-In . SVG Version: 6.00 Build 0)  -->
<svg version="1.1" id="Layer_1" xmlns="http://www.w3.org/2000/svg" xmlns:xlink="http://www.w3.org/1999/xlink" x="0px" y="0px"
	 viewBox="0 0 60 60" style="enable-background:new 0 0 60 60;" xml:space="preserve">
<g>
	<path style="fill:#8080FF;" d="M19,37.4H9.5l-1.6,3.2v5.1c0,0.9,0.7,1.6,1.6,1.6c0,0,0,0,0,0H19c0.9,0,1.6-0.7,1.6-1.6c0,0,0,0,0,0
		v-6.7C20.6,38.1,19.9,37.4,19,37.4C19.1,37.4,19,37.4,19,37.4L19,37.4z"/>
	<path style="fill:#8080FF;" d="M50.5,37.4h-9.6c-0.9,0-1.6,0.7-1.6,1.6v6.7c0,0.9,0.7,1.6,1.6,1.6h9.6c0.9,0,1.6-0.7,1.6-1.6
		c0,0,0,0,0,0v-5.1L50.5,37.4z"/>
	<path style="fill:#0000FF;" d="M25.5,18.5H10.1c-0.9,0-1.6,0.7-1.6,1.6c0,0.9,0.7,1.6,1.6,1.6h15.4V18.5z"/>
	<path style="fill:#0000FF;" d="M49.9,18.5H35v3.2h14.8c0.9,0,1.6-0.7,1.6-1.6C51.4,19.2,50.7,18.5,49.9,18.5z"/>
	<path style="fill:#BFBFFF;" d="M47.4,25.3l-4.1-11.5c-0.2-0.6-0.8-1.1-1.5-1.1H18.1c-0.7,0-1.3,0.4-1.5,1.1l-4.1,11.5
		c-0.3,0.8,0.1,1.7,1,2c0.2,0.1,0.3,0.1,0.5,0.1h31.9c0.9,0,1.6-0.7,1.6-1.6C47.5,25.7,47.5,25.5,47.4,25.3z"/>
	<path style="fill:#0000FF;" d="M46,24.3H14c-3.4,0-6.1,2.7-6.1,6.1v10.1h44.3V30.4C52.1,27,49.4,24.3,46,24.3z"/>
	<path style="fill:#BFBFFF;" d="M19.6,34c0.9,0,1.6-0.7,1.6-1.6c0-0.9-0.7-1.6-1.6-1.6c-0.9,0-1.6,0.7-1.6,1.6c0,0,0,0,0,0
		C18.1,33.3,18.8,34,19.6,34z"/>
	<path style="fill:#BFBFFF;" d="M40.3,34c0.9,0,1.6-0.7,1.6-1.6c0-0.9-0.7-1.6-1.6-1.6c-0.9,0-1.6,0.7-1.6,1.6v0
		C38.7,33.3,39.4,34,40.3,34z"/>
</g>
</svg>
