<?xml version="1.0" encoding="utf-8"?>
<!-- Generator: Adobe Illustrator 25.4.1, SVG Export Plug-In . SVG Version: 6.00 Build 0)  -->
<svg version="1.1" id="Layer_1" xmlns="http://www.w3.org/2000/svg" xmlns:xlink="http://www.w3.org/1999/xlink" x="0px" y="0px"
	 viewBox="0 0 60 60" style="enable-background:new 0 0 60 60;" xml:space="preserve">
<g>
	<path style="fill:#8080FF;" d="M14.6,40.7H6.5l-1.4,2.7v4.4c0,0.7,0.6,1.3,1.3,1.3c0,0,0,0,0,0h8.2c0.7,0,1.3-0.6,1.4-1.3
		c0,0,0,0,0,0V42C16,41.3,15.4,40.7,14.6,40.7C14.6,40.6,14.6,40.6,14.6,40.7L14.6,40.7z"/>
	<path style="fill:#8080FF;" d="M41.5,40.7h-8.2c-0.7,0-1.3,0.6-1.3,1.3v5.7c0,0.7,0.6,1.3,1.3,1.3h8.2c0.7,0,1.3-0.6,1.3-1.3
		c0,0,0,0,0,0v-4.4L41.5,40.7z"/>
	<path style="fill:#0000FF;" d="M20.1,24.6H7c-0.7,0-1.4,0.6-1.4,1.4s0.6,1.4,1.4,1.4h13.1V24.6z"/>
	<path style="fill:#0000FF;" d="M40.9,24.6H28.3v2.7h12.6c0.7,0,1.3-0.6,1.3-1.4S41.6,24.6,40.9,24.6z"/>
	<path style="fill:#BFBFFF;" d="M38.8,30.4l-3.5-9.8c-0.2-0.5-0.7-0.9-1.3-0.9H13.9c-0.6,0-1.1,0.4-1.3,0.9l-3.5,9.8
		c-0.2,0.7,0.1,1.5,0.8,1.7c0.1,0.1,0.3,0.1,0.4,0.1h27.2c0.7,0,1.3-0.6,1.3-1.4C38.9,30.7,38.9,30.6,38.8,30.4z"/>
	<path style="fill:#0000FF;" d="M37.6,29.5H10.3c-2.9,0-5.2,2.3-5.2,5.2v8.6h37.7v-8.6C42.8,31.9,40.5,29.5,37.6,29.5z"/>
	<path style="fill:#BFBFFF;" d="M15.1,37.8c0.7,0,1.4-0.6,1.4-1.3c0-0.7-0.6-1.4-1.3-1.4c-0.7,0-1.4,0.6-1.4,1.3c0,0,0,0,0,0
		C13.8,37.2,14.4,37.8,15.1,37.8z"/>
	<path style="fill:#BFBFFF;" d="M32.7,37.8c0.7,0,1.4-0.6,1.4-1.3s-0.6-1.4-1.3-1.4c-0.7,0-1.4,0.6-1.4,1.3v0
		C31.4,37.2,32,37.8,32.7,37.8z"/>
</g>
<g>
	<path style="fill:#4D4DFF;" d="M40.1,48c-0.2,0-0.4,0-0.6-0.1C31,45.4,25.2,37.6,25.2,28.8V19c0-1.1,0.8-1.9,1.9-1.9c0,0,0,0,0,0
		c2.4,0,4.6-1.4,5.7-3.5l0.3-0.5c0.3-0.7,1-1.1,1.7-1.1h10.3c0.7,0,1.4,0.4,1.7,1.1l0.3,0.5c1.1,2.2,3.3,3.5,5.7,3.5
		c1.1,0,1.9,0.8,1.9,1.9c0,0,0,0,0,0v9.7c0,8.8-5.8,16.6-14.2,19.1C40.4,48,40.3,48,40.1,48L40.1,48z"/>
	<path style="fill:#BFBFFF;" d="M29.1,20.8v8c0,6.9,4.4,13.1,11,15.3c6.6-2.2,11-8.4,11-15.3v-8c-2.9-0.5-5.5-2.4-7-5h-7.9
		C34.7,18.4,32.1,20.2,29.1,20.8L29.1,20.8z"/>
	<path style="fill:#8080FF;" d="M38.2,35.6c-0.5,0-1.1-0.2-1.4-0.6l-3.5-3.7c-0.7-0.8-0.6-2,0.2-2.7c0.7-0.6,1.8-0.6,2.5,0l2.3,2.3
		l5.9-5.9c0.8-0.8,2-0.8,2.7,0s0.8,2,0,2.7L39.6,35C39.2,35.4,38.8,35.6,38.2,35.6L38.2,35.6z"/>
</g>
</svg>
