<svg id="Layer_1" data-name="Layer 1" xmlns="http://www.w3.org/2000/svg" viewBox="0 0 60 60"><defs><style>.cls-1{fill:blue;}.cls-2{fill:#bfbfff;}.cls-3{fill:#fff;}.cls-4{fill:#4040ff;}.cls-5{fill:none;}.cls-6{fill:#8080ff;}</style></defs><title>business-strategy001-certificate</title><path class="cls-1" d="M50,11H9.72a.72.72,0,0,0-.72.72V39.08a.72.72,0,0,0,.72.72H23.47a.72.72,0,0,0,.72-.72v-.8a.71.71,0,0,0-.14-.42l-1.2-1.66,1.2-1.66a.71.71,0,0,0,.14-.42v-2l1.95-.64a.63.63,0,0,0,.36-.26l1.21-1.66,1.95.64a.82.82,0,0,0,.44,0l1.95-.64,1.21,1.66a.63.63,0,0,0,.36.26l2,.64v2a.71.71,0,0,0,.14.42l1.2,1.66-1.2,1.66a.71.71,0,0,0-.14.42v.8a.72.72,0,0,0,.72.72H50a.72.72,0,0,0,.72-.72V11.72A.72.72,0,0,0,50,11Zm0,0"/><path class="cls-2" d="M46.44,17.48a2.88,2.88,0,0,1-2.88-2.88.72.72,0,0,0-.72-.72H16.92a.72.72,0,0,0-.72.72,2.89,2.89,0,0,1-2.88,2.88.72.72,0,0,0-.72.72V32.6a.72.72,0,0,0,.72.72A2.88,2.88,0,0,1,16.2,36.2a.72.72,0,0,0,.72.72h5a.7.7,0,0,0,.58-.3l1.51-2.08a.71.71,0,0,0,.14-.42v-2l1.95-.64a.63.63,0,0,0,.36-.26l1.21-1.66,1.95.64a.82.82,0,0,0,.44,0l1.95-.64,1.21,1.66a.63.63,0,0,0,.36.26l2,.64v2a.71.71,0,0,0,.14.42l1.51,2.08a.7.7,0,0,0,.58.3h5a.72.72,0,0,0,.72-.72,2.88,2.88,0,0,1,2.88-2.88.72.72,0,0,0,.72-.72V18.2a.72.72,0,0,0-.72-.72Zm0,0"/><path class="cls-3" d="M33.48,18.2h-7.2a.72.72,0,1,1,0-1.44h7.2a.72.72,0,1,1,0,1.44Zm0,0"/><path class="cls-3" d="M40.68,26.84H19.08a.72.72,0,0,1,0-1.44h21.6a.72.72,0,0,1,0,1.44Zm0,0"/><path class="cls-3" d="M40.68,24H19.08a.72.72,0,0,1,0-1.44h21.6a.72.72,0,0,1,0,1.44Zm0,0"/><path class="cls-3" d="M36.36,21.08h-13a.72.72,0,0,1,0-1.44h13a.72.72,0,0,1,0,1.44Zm0,0"/><path class="cls-3" d="M40.68,29.72H37.8a.72.72,0,0,1,0-1.44h2.88a.72.72,0,1,1,0,1.44Zm0,0"/><path class="cls-3" d="M22,29.72H19.08a.72.72,0,0,1,0-1.44H22a.72.72,0,0,1,0,1.44Zm0,0"/><path class="cls-4" d="M43.35,45.05l-6.48-6.48a.75.75,0,0,0-.51-.21h-.07a.72.72,0,0,0-.72.72v1.25l-2,.64a.63.63,0,0,0-.36.26l-.89,1.22a.72.72,0,0,0,.08.93l6.28,6.29A.72.72,0,0,0,40,49.16V46.28h2.88a.72.72,0,0,0,.51-1.23Zm0,0"/><path class="cls-4" d="M27.39,42.45l-.89-1.22a.63.63,0,0,0-.36-.26l-1.95-.64V39.08a.72.72,0,0,0-.72-.72H23.4a.75.75,0,0,0-.51.21l-6.48,6.48a.72.72,0,0,0,.51,1.23H19.8v2.88a.72.72,0,0,0,1.23.51l6.28-6.29a.72.72,0,0,0,.08-.93Zm0,0"/><rect class="cls-5" x="9" y="11" width="41.76" height="38.88"/><path class="cls-6" d="M38.38,35.78,37,33.88V31.54a.72.72,0,0,0-.5-.68l-2.22-.72-1.38-1.9A.74.74,0,0,0,32.1,28l-2.22.73L27.66,28a.74.74,0,0,0-.81.26l-1.38,1.9-2.22.72a.72.72,0,0,0-.5.68v2.34l-1.37,1.9a.69.69,0,0,0,0,.84l1.37,1.9v2.34a.72.72,0,0,0,.5.68l2.22.72,1.38,1.9a.74.74,0,0,0,.81.26l2.22-.73,2.22.73a.91.91,0,0,0,.23,0,.73.73,0,0,0,.58-.29l1.38-1.9,2.22-.72a.72.72,0,0,0,.5-.68V38.52l1.37-1.9a.69.69,0,0,0,0-.84Zm0,0"/><path class="cls-4" d="M34.2,36.2a4.32,4.32,0,1,1-4.32-4.32A4.31,4.31,0,0,1,34.2,36.2Zm0,0"/></svg>