<svg id="Layer_1" data-name="Layer 1" xmlns="http://www.w3.org/2000/svg" viewBox="0 0 60 60"><defs><style>.cls-1{fill:#4040ff;}.cls-2{fill:#bfbfff;}.cls-3{fill:#8080ff;}.cls-4{fill:blue;}</style></defs><title>insurance023-contract</title><path class="cls-1" d="M36.45,53.08H13.05A4.06,4.06,0,0,1,9,49V16.45a4.06,4.06,0,0,1,4.05-4h23.4a4.06,4.06,0,0,1,4,4V49a4.06,4.06,0,0,1-4,4Zm0,0"/><path class="cls-2" d="M13.05,15.1a1.36,1.36,0,0,0-1.35,1.35V49a1.36,1.36,0,0,0,1.35,1.35h23.4A1.36,1.36,0,0,0,37.8,49V16.45a1.36,1.36,0,0,0-1.35-1.35Zm0,0"/><path class="cls-3" d="M32.85,17.8H16.65a1.34,1.34,0,0,1-1.35-1.35V12a1.34,1.34,0,0,1,1.35-1.35,3.25,3.25,0,0,0,3.16-2.47l0-.11a1.35,1.35,0,0,1,1.31-1h7.2a1.35,1.35,0,0,1,1.31,1l0,.11a3.25,3.25,0,0,0,3.16,2.47A1.34,1.34,0,0,1,34.2,12v4.5a1.34,1.34,0,0,1-1.35,1.35Zm0,0"/><path class="cls-3" d="M17.85,28.29a1.35,1.35,0,0,1-1-.39l-2.54-2.55a1.35,1.35,0,0,1,1.9-1.91L17.85,25,22,20.9a1.35,1.35,0,0,1,1.91,1.9L18.8,27.9a1.35,1.35,0,0,1-.95.39Zm0,0"/><path class="cls-3" d="M17.85,37.9a1.36,1.36,0,0,1-1-.4L14.35,35a1.34,1.34,0,0,1,1.9-1.9l1.6,1.59L22,30.5a1.35,1.35,0,1,1,1.91,1.91L18.8,37.5a1.36,1.36,0,0,1-.95.4Zm0,0"/><path class="cls-3" d="M17.85,47.5a1.32,1.32,0,0,1-1-.4l-2.54-2.54a1.35,1.35,0,0,1,1.9-1.91l1.6,1.59L22,40.1a1.36,1.36,0,0,1,1.91,0,1.35,1.35,0,0,1,0,1.91L18.8,47.1a1.32,1.32,0,0,1-.95.4Zm0,0"/><path class="cls-4" d="M41,47.5a1.32,1.32,0,0,1-.39-.06,14,14,0,0,1-10-13.39v-7.7A1.34,1.34,0,0,1,32,25a4.45,4.45,0,0,0,4-2.47l.19-.38a1.36,1.36,0,0,1,1.21-.75h7.2a1.36,1.36,0,0,1,1.21.75l.19.38A4.45,4.45,0,0,0,50,25a1.34,1.34,0,0,1,1.35,1.35v7.7a14,14,0,0,1-10,13.39,1.32,1.32,0,0,1-.39.06Zm0,0"/><path class="cls-2" d="M33.3,27.57v6.48A11.2,11.2,0,0,0,41,44.73,11.2,11.2,0,0,0,48.6,34.05V27.57a7.09,7.09,0,0,1-4.87-3.47H38.17a7.09,7.09,0,0,1-4.87,3.47Zm0,0"/><path class="cls-3" d="M39.68,38.35a1.38,1.38,0,0,1-1-.4L36.18,35.4a1.35,1.35,0,0,1,1.91-1.9l1.59,1.59L43.81,31a1.35,1.35,0,0,1,1.91,1.91L40.63,38a1.36,1.36,0,0,1-1,.4Zm0,0"/></svg>