<svg id="Layer_1" data-name="Layer 1" xmlns="http://www.w3.org/2000/svg" viewBox="0 0 60 60"><defs><style>.cls-1{fill:#4040ff;}.cls-2{fill:blue;}.cls-3{fill:#8080ff;}.cls-4{fill:#fff;}.cls-5{fill:#bfbfff;}</style></defs><title>communication-and-media022-cloud-computing</title><path class="cls-1" d="M31.39,43v8.73a1.35,1.35,0,0,1-2.7,0V43a1.35,1.35,0,1,1,2.7,0Zm0,0"/><path class="cls-2" d="M53.08,25.72A12.21,12.21,0,0,1,40.84,37.87H17.08A10,10,0,1,1,18.62,18a11.4,11.4,0,0,1,21.73-4.43A12.21,12.21,0,0,1,53.08,25.72Zm0,0"/><path class="cls-1" d="M42.91,51.73a1.34,1.34,0,0,1-1.35,1.35h-23a1.35,1.35,0,0,1,0-2.7h23a1.34,1.34,0,0,1,1.35,1.35Zm0,0"/><path class="cls-3" d="M41.47,27.16V33.1a2.7,2.7,0,0,1-2.7,2.7H21.31a2.7,2.7,0,0,1-2.7-2.7V27.16a2.7,2.7,0,0,1,2.7-2.7H38.77a2.7,2.7,0,0,1,2.7,2.7Zm0,0"/><path class="cls-4" d="M35.71,24.46v4.23a1.35,1.35,0,1,1-2.7,0V24.46Zm0,0"/><path class="cls-5" d="M41.47,35.71v5.94a2.7,2.7,0,0,1-2.7,2.7H21.31a2.7,2.7,0,0,1-2.7-2.7V35.71A2.7,2.7,0,0,1,19,34.36H41.11a2.7,2.7,0,0,1,.36,1.35Zm0,0"/><path class="cls-4" d="M35.71,34.36v2.88a1.35,1.35,0,1,1-2.7,0V34.36Zm0,0"/></svg>