<svg id="Layer_1" data-name="Layer 1" xmlns="http://www.w3.org/2000/svg" viewBox="0 0 60 60"><defs><style>.cls-1{fill:#bfbfff;}.cls-2{fill:#4040ff;}.cls-3{fill:#8080ff;}.cls-4{fill:blue;}</style></defs><title>communication-and-media014-cloud-computing</title><path class="cls-1" d="M49,31.3H34.09V27.25a1.35,1.35,0,0,0-2.7,0V31.3H15.1a1.34,1.34,0,0,0-1.35,1.35v5.58a1.35,1.35,0,1,0,2.7,0V34H31.39v9.63a1.35,1.35,0,1,0,2.7,0V34H47.68v9.63a1.35,1.35,0,1,0,2.7,0v-11A1.34,1.34,0,0,0,49,31.3Zm0,0"/><path class="cls-2" d="M19.15,50.38h-2.7V46.33a1.35,1.35,0,0,0-2.7,0v4.05h-2.7a1.35,1.35,0,1,0,0,2.7h8.1a1.35,1.35,0,1,0,0-2.7Zm0,0"/><path class="cls-3" d="M21.85,47.68H8.35A1.34,1.34,0,0,1,7,46.33v-8.1a1.34,1.34,0,0,1,1.35-1.35h13.5a1.34,1.34,0,0,1,1.35,1.35v8.1a1.34,1.34,0,0,1-1.35,1.35Zm0,0"/><path class="cls-3" d="M38.23,51.73h-11a1.34,1.34,0,0,1-1.35-1.35V43.63a1.34,1.34,0,0,1,1.35-1.35h11a1.34,1.34,0,0,1,1.35,1.35v6.75a1.34,1.34,0,0,1-1.35,1.35Zm0,0"/><path class="cls-3" d="M51.73,53.08h-5.4A1.34,1.34,0,0,1,45,51.73v-8.1a1.34,1.34,0,0,1,1.35-1.35h5.4a1.34,1.34,0,0,1,1.35,1.35v8.1a1.34,1.34,0,0,1-1.35,1.35Zm0,0"/><path class="cls-4" d="M44.89,16.45h0Zm-.11-1.24a6.7,6.7,0,0,0-8-5.35,9.46,9.46,0,0,0-4-2.46A9.05,9.05,0,0,0,30,7a9.45,9.45,0,0,0-9.37,8.21A6.76,6.76,0,0,0,21.94,28.6h21.6a6.75,6.75,0,0,0,1.24-13.39Zm0,0"/><path class="cls-2" d="M40.93,53.08H24.55a1.35,1.35,0,1,1,0-2.7H40.93a1.35,1.35,0,1,1,0,2.7Zm0,0"/></svg>