<svg id="Layer_1" data-name="Layer 1" xmlns="http://www.w3.org/2000/svg" viewBox="0 0 60 60"><defs><style>.cls-1{fill:blue;}.cls-2{fill:#8080ff;}.cls-3{fill:#fff;}.cls-4{fill:#bfbfff;}</style></defs><title>computer005-unit</title><path class="cls-1" d="M44.06,14.2c0,1.05.56,1.35.56,1.35v3.06s-.56.3-.56,1.35.56,1.35.56,1.35V43.09s-.56.3-.56,1.35.56,1.35.56,1.35v4.59a2.7,2.7,0,0,1-2.7,2.7H18.7a2.7,2.7,0,0,1-2.7-2.7V45.79s.56-.3.56-1.35S16,43.09,16,43.09V21.31s.56-.3.56-1.35S16,18.61,16,18.61V15.55s.56-.3.56-1.35S16,12.85,16,12.85V9.7A2.7,2.7,0,0,1,18.7,7H41.92a2.7,2.7,0,0,1,2.7,2.7v3.15s-.56.3-.56,1.35Zm0,0"/><rect class="cls-2" x="16" y="43.09" width="28.62" height="2.7"/><path class="cls-3" d="M32.38,38.68A1.34,1.34,0,0,1,31,40H29.59a1.35,1.35,0,0,1,0-2.7H31a1.34,1.34,0,0,1,1.35,1.35Zm0,0"/><rect class="cls-4" x="16" y="18.61" width="28.62" height="2.7"/><rect class="cls-4" x="16" y="12.85" width="28.62" height="2.7"/></svg>