<svg id="Layer_1" data-name="Layer 1" xmlns="http://www.w3.org/2000/svg" viewBox="0 0 60 60"><defs><style>.cls-1{fill:#8080ff;}.cls-2{fill:blue;}.cls-3{fill:#bfbfff;}</style></defs><title>computer024-computer</title><path class="cls-1" d="M24.91,37.67v6.48a1.34,1.34,0,0,1-1.35,1.35H17.8a1.34,1.34,0,0,1-1.35-1.35V37.67a2.7,2.7,0,0,1,2.7-2.7h3.06a2.7,2.7,0,0,1,2.7,2.7Zm0,0"/><path class="cls-2" d="M31.39,44.15A1.34,1.34,0,0,1,30,45.5H11.32a1.35,1.35,0,1,1,0-2.7H30a1.34,1.34,0,0,1,1.35,1.35Zm0,0"/><path class="cls-3" d="M33.37,17.6V34.07a2.7,2.7,0,0,1-2.7,2.7H10.6a2.7,2.7,0,0,1-2.7-2.7V17.6a2.7,2.7,0,0,1,2.7-2.7H30.67a2.7,2.7,0,0,1,2.7,2.7Zm0,0"/><path class="cls-2" d="M31.57,14H9.7A2.7,2.7,0,0,0,7,16.7V35a2.7,2.7,0,0,0,2.7,2.7H31.57a2.7,2.7,0,0,0,2.7-2.7V16.7a2.7,2.7,0,0,0-2.7-2.7Zm0,21H9.7V16.7H31.57c0,20.8,0,18.27,0,18.27Zm0,0"/><path class="cls-2" d="M53.08,16.7V42.8a2.7,2.7,0,0,1-2.7,2.7H40a2.7,2.7,0,0,1-2.7-2.7V16.7A2.7,2.7,0,0,0,40,14H50.38a2.7,2.7,0,0,0,2.7,2.7Zm0,0"/><path class="cls-1" d="M53.08,16.7v5.76H37.33V16.7A2.7,2.7,0,0,1,40,14H50.29a2.79,2.79,0,0,1,2.79,2.7Zm0,0"/><path class="cls-3" d="M46.51,38.39A1.35,1.35,0,1,1,45.16,37a1.34,1.34,0,0,1,1.35,1.35Zm0,0"/><path class="cls-3" d="M46.51,32.63a1.35,1.35,0,1,1-1.35-1.35,1.34,1.34,0,0,1,1.35,1.35Zm0,0"/></svg>