<svg id="Layer_1" data-name="Layer 1" xmlns="http://www.w3.org/2000/svg" viewBox="0 0 60 60"><defs><style>.cls-1{fill:#8080ff;}.cls-2{fill:#bfbfff;}.cls-3{fill:blue;}.cls-4{fill:#4040ff;}</style></defs><title>work-from-home041-working-at home</title><path class="cls-1" d="M46.24,32.42a1.34,1.34,0,0,1-1.32-1.08L42.43,18.92H39.49a1.35,1.35,0,0,1,0-2.7h4a1.35,1.35,0,0,1,1.32,1.09l2.7,13.5A1.35,1.35,0,0,1,46.5,32.4l-.26,0Zm0,0"/><path class="cls-1" d="M46.24,51.32A1.34,1.34,0,0,1,44.89,50V31.07a1.35,1.35,0,0,1,2.7,0V50a1.34,1.34,0,0,1-1.35,1.35Zm0,0"/><path class="cls-1" d="M51.73,32.42H21.85a1.35,1.35,0,0,1,0-2.7H51.73A1.28,1.28,0,0,1,53.08,31a1.42,1.42,0,0,1-1.35,1.44Zm0,0"/><path class="cls-2" d="M37.92,27a1.34,1.34,0,0,1-1.11-1.55l2.7-16.2a1.33,1.33,0,0,1,1.55-1.11,1.35,1.35,0,0,1,1.11,1.55l-2.7,16.2A1.34,1.34,0,0,1,37.92,27Zm0,0"/><path class="cls-3" d="M28.6,29.72,27.25,27H15.1v5.4a2.7,2.7,0,0,0,2.7,2.7h5.4v2.7h5.4V50A1.34,1.34,0,0,0,30,51.32h2.7A1.34,1.34,0,0,0,34,50V35.12a5.4,5.4,0,0,0-5.4-5.4Zm0,0"/><path class="cls-3" d="M11.05,36.47A1.34,1.34,0,0,1,9.7,35.12c0-13-2.53-16.89-2.56-16.94A1.35,1.35,0,1,1,9.56,17c.11.23,2.84,4.49,2.84,18.15a1.34,1.34,0,0,1-1.35,1.35Zm0,0"/><path class="cls-2" d="M21.85,12.17A4.05,4.05,0,1,1,17.8,8.12a4,4,0,0,1,4.05,4.05Zm0,0"/><path class="cls-1" d="M17.8,39.17H16.45V50h2.7V39.17Zm0,0"/><path class="cls-4" d="M25.9,35.12H9.7v2.7a2.7,2.7,0,0,0,2.7,2.7H25.9a2.7,2.7,0,0,0,0-5.4Zm0,0"/><path class="cls-3" d="M20.5,48.62H15.1a1.35,1.35,0,1,0,0,2.7h5.4a1.35,1.35,0,0,0,0-2.7Zm0,0"/><path class="cls-1" d="M27.25,24.32H20.5v-5.4a2.7,2.7,0,1,0-5.4,0V27a2.71,2.71,0,0,0,2.7,2.7H30a1.33,1.33,0,0,0,1.35-1.35,4,4,0,0,0-4.05-4.05Zm0,0"/></svg>