<svg id="Layer_1" data-name="Layer 1" xmlns="http://www.w3.org/2000/svg" viewBox="0 0 60 60"><defs><style>.cls-1{fill:#4040ff;}.cls-2{fill:#8080ff;}.cls-3{fill:blue;}.cls-4{fill:#bfbfff;}</style></defs><title>office033-contract</title><path class="cls-1" d="M48.59,49.58v2.15a1.35,1.35,0,0,1-2.7,0V49.57a3.57,3.57,0,0,0,1.35.27,3.77,3.77,0,0,0,1.35-.26Zm0,0"/><path class="cls-2" d="M51.29,8.35s0,31.76,0,37.89a4,4,0,0,1-8.09,0h0V8.35A1.35,1.35,0,0,1,44.54,7h5.4a1.34,1.34,0,0,1,1.35,1.35Zm0,0"/><path class="cls-3" d="M40.52,8.35V51.73a1.34,1.34,0,0,1-1.35,1.35H9.35A1.34,1.34,0,0,1,8,51.73V16.9L17.9,7H39.17a1.34,1.34,0,0,1,1.35,1.35Zm0,0"/><path class="cls-2" d="M17.9,7v8.55a1.35,1.35,0,0,1-1.35,1.35H8Zm0,0"/><path class="cls-2" d="M28.34,15.19H21.59a1.35,1.35,0,1,0,0,2.7h6.75a1.35,1.35,0,1,0,0-2.7Zm0,0"/><path class="cls-4" d="M33.74,28.69H14.84a1.35,1.35,0,1,0,0,2.7h18.9a1.35,1.35,0,1,0,0-2.7Zm0,0"/><path class="cls-4" d="M14.84,26h18.9a1.35,1.35,0,0,0,0-2.7H14.84a1.35,1.35,0,0,0,0,2.7Zm0,0"/><path class="cls-4" d="M33.74,34.09H14.84a1.35,1.35,0,1,0,0,2.7h18.9a1.35,1.35,0,1,0,0-2.7Zm0,0"/><path class="cls-2" d="M25.64,44.89H22.15l-2.31-2.31a1.39,1.39,0,0,0-1.17-.38,1.37,1.37,0,0,0-1,.73l-1,2H14.84a1.35,1.35,0,1,0,0,2.7h2.7a1.34,1.34,0,0,0,1.2-.75l.52-1,1.38,1.38a1.31,1.31,0,0,0,.95.4h4a1.35,1.35,0,0,0,0-2.7Zm0,0"/><path class="cls-1" d="M51.29,17.89v2.7h-8.1v-2.7Zm0,0"/></svg>