<svg id="Layer_1" data-name="Layer 1" xmlns="http://www.w3.org/2000/svg" viewBox="0 0 60 60"><defs><style>.cls-1{fill:#8080ff;}.cls-2{fill:#4040ff;}.cls-3{fill:blue;}.cls-4{fill:#bfbfff;}</style></defs><title>office002-attached-file</title><path class="cls-1" d="M52.69,21.47V51.73a1.35,1.35,0,0,1-1.35,1.35H28.63V12.58H43.79Zm0,0"/><path class="cls-2" d="M52.69,21.47h-8a.9.9,0,0,1-.9-.9v-8Zm0,0"/><path class="cls-3" d="M37.7,21.47l-8.89-8.89H9.35A1.34,1.34,0,0,0,8,13.93v37.8a1.34,1.34,0,0,0,1.35,1.35h27a1.34,1.34,0,0,0,1.35-1.35Zm0,0"/><path class="cls-4" d="M37.7,21.47h-8a.9.9,0,0,1-.9-.9v-8Zm0,0"/><path class="cls-4" d="M24.29,12.4v.18h-2.7V12.4a2.7,2.7,0,1,0-5.4,0v9.45a1.35,1.35,0,0,0,2.7,0V17.44a1.35,1.35,0,0,1,2.7,0v4.41a4,4,0,1,1-8.1,0V12.4a5.4,5.4,0,1,1,10.8,0Zm0,0"/><path class="cls-1" d="M14.8,31.39H31a1.35,1.35,0,1,0,0-2.7H14.8a1.35,1.35,0,0,0,0,2.7Zm0,0"/><path class="cls-1" d="M31,34.09H14.8a1.35,1.35,0,0,0,0,2.7H31a1.35,1.35,0,1,0,0-2.7Zm0,0"/><path class="cls-1" d="M20.2,39.49H14.8a1.35,1.35,0,1,0,0,2.7h5.4a1.35,1.35,0,1,0,0-2.7Zm0,0"/><path class="cls-1" d="M20.2,44.89H14.8a1.35,1.35,0,0,0,0,2.7h5.4a1.35,1.35,0,0,0,0-2.7Zm0,0"/><path class="cls-4" d="M31,39.49h-5.4a1.34,1.34,0,0,0-1.35,1.35v5.4a1.34,1.34,0,0,0,1.35,1.35H31a1.34,1.34,0,0,0,1.35-1.35v-5.4A1.34,1.34,0,0,0,31,39.49Zm0,0"/></svg>