<svg id="Layer_1" data-name="Layer 1" xmlns="http://www.w3.org/2000/svg" viewBox="0 0 60 60"><defs><style>.cls-1{fill:blue;}.cls-2{fill:#8080ff;}.cls-3{fill:#bfbfff;}.cls-4{fill:#4040ff;}</style></defs><title>document-and-files002-settings</title><path class="cls-1" d="M47.1,16.45V51.73a1.33,1.33,0,0,1-1.35,1.35H13.35A1.33,1.33,0,0,1,12,51.73V8.35A1.33,1.33,0,0,1,13.35,7H35l2.7,4.73,2.7,2Zm0,0"/><path class="cls-2" d="M46.56,15.37l-10.8-8.1A1.46,1.46,0,0,0,35,7v8.1a1.34,1.34,0,0,0,1.35,1.35H47.1a1.3,1.3,0,0,0-.54-1.08Zm0,0"/><path class="cls-3" d="M32.25,44.8h-5.4a1.34,1.34,0,0,1-1.35-1.35v-2.3a8.53,8.53,0,0,1-1.28-.74l-2,1.15a1.35,1.35,0,0,1-1.84-.5l-2.7-4.67a1.35,1.35,0,0,1,.49-1.85l2-1.13a7.72,7.72,0,0,1,0-1.52l-2-1.13a1.35,1.35,0,0,1-.49-1.85l2.7-4.67a1.35,1.35,0,0,1,1.84-.5l2,1.15a8.53,8.53,0,0,1,1.28-.74v-2.3a1.34,1.34,0,0,1,1.35-1.35h5.4a1.34,1.34,0,0,1,1.35,1.35v2.3a8.53,8.53,0,0,1,1.28.74l2-1.15a1.34,1.34,0,0,1,1.84.5l2.7,4.67a1.35,1.35,0,0,1-.49,1.85l-2,1.13a7.72,7.72,0,0,1,0,1.52l2,1.13a1.35,1.35,0,0,1,.49,1.85l-2.7,4.67a1.35,1.35,0,0,1-1.84.5l-2-1.15a8.53,8.53,0,0,1-1.28.74v2.3a1.34,1.34,0,0,1-1.35,1.35Zm0,0"/><path class="cls-4" d="M29.55,36.7a4,4,0,1,1,4.05-4.05,4.06,4.06,0,0,1-4.05,4.05Zm0,0"/></svg>