<svg id="Layer_1" data-name="Layer 1" xmlns="http://www.w3.org/2000/svg" viewBox="0 0 60 60"><defs><style>.cls-1{fill:#4040ff;}.cls-2{fill:blue;}.cls-3{fill:#8080ff;}.cls-4{fill:#bfbfff;}</style></defs><title>ecommerce049-logistics-delivery</title><path class="cls-1" d="M43.56,12.32v13a.72.72,0,0,1-.72.72H27a.72.72,0,0,1-.72-.72v-13c0-.05,0-.1,0-.14h0A.74.74,0,0,1,27,11.6H42.84a.72.72,0,0,1,.72.72Zm0,0"/><rect class="cls-2" x="26.28" y="15.2" width="17.28" height="0.72"/><path class="cls-3" d="M16.55,43.37a.71.71,0,0,1-.64-.39.7.7,0,0,1,.05-.75l4.69-6.57a.72.72,0,0,1,1.18.84l-4.7,6.56a.71.71,0,0,1-.58.31Zm0,0"/><path class="cls-3" d="M21.24,46.88H18.36a.72.72,0,1,1,0-1.44h2.88a.72.72,0,1,1,0,1.44Zm0,0"/><path class="cls-2" d="M50.76,44.72a3.6,3.6,0,0,1-3.6,3.6H21.24a.72.72,0,0,1-.72-.72V12.32H14.76a2.16,2.16,0,0,1,0-4.32h9.36a.72.72,0,0,1,.72.72V44H50a.72.72,0,0,1,.72.72Zm0,0"/><path class="cls-2" d="M19.08,46.16a5,5,0,1,1-5-5,5,5,0,0,1,5,5Zm0,0"/><path class="cls-3" d="M16.2,46.16A2.16,2.16,0,1,1,14,44a2.16,2.16,0,0,1,2.16,2.16Zm0,0"/><path class="cls-3" d="M43.56,11.6v3.6H26.28V11.6a.72.72,0,0,1,.72-.72H42.84a.72.72,0,0,1,.72.72Zm0,0"/><path class="cls-4" d="M37.8,10.88H32v6.48a.72.72,0,0,0,1.12.6l1.76-1.17L36.68,18a.72.72,0,0,0,1.12-.6Zm0,0"/><rect class="cls-4" x="28.44" y="22.4" width="2.88" height="1.44"/><rect class="cls-4" x="28.44" y="20.24" width="5.76" height="1.44"/><path class="cls-1" d="M43.56,28.88v13a.72.72,0,0,1-.72.72H27a.72.72,0,0,1-.72-.72v-13c0-.05,0-.1,0-.14h0a.74.74,0,0,1,.71-.57H42.84a.72.72,0,0,1,.72.72Zm0,0"/><rect class="cls-2" x="26.28" y="31.76" width="17.28" height="0.72"/><path class="cls-3" d="M43.56,28.16v3.6H26.28v-3.6a.72.72,0,0,1,.72-.72H42.84a.72.72,0,0,1,.72.72Zm0,0"/><path class="cls-4" d="M37.8,27.44H32v6.48a.72.72,0,0,0,1.12.6l1.76-1.17,1.76,1.17a.72.72,0,0,0,1.12-.6Zm0,0"/><rect class="cls-4" x="28.44" y="38.96" width="2.88" height="1.44"/><rect class="cls-4" x="28.44" y="36.8" width="5.76" height="1.44"/></svg>