<?xml version="1.0" encoding="utf-8"?>
<!-- Generator: Adobe Illustrator 25.4.1, SVG Export Plug-In . SVG Version: 6.00 Build 0)  -->
<svg version="1.1" id="Layer_1" xmlns="http://www.w3.org/2000/svg" xmlns:xlink="http://www.w3.org/1999/xlink" x="0px" y="0px"
	 viewBox="0 0 60 60" style="enable-background:new 0 0 60 60;" xml:space="preserve">
<g>
	<path style="fill:#8080FF;" d="M-8.4,44.7h-8.2l-1.4,2.7v4.4c0,0.7,0.6,1.3,1.3,1.3c0,0,0,0,0,0h8.2c0.7,0,1.3-0.6,1.3-1.3
		c0,0,0,0,0,0V46C-7,45.3-7.6,44.7-8.4,44.7C-8.4,44.6-8.4,44.6-8.4,44.7L-8.4,44.7z"/>
	<path style="fill:#8080FF;" d="M18.5,44.7h-8.2c-0.7,0-1.3,0.6-1.3,1.3v5.7c0,0.7,0.6,1.3,1.3,1.3h8.2c0.7,0,1.3-0.6,1.3-1.3
		c0,0,0,0,0,0v-4.4L18.5,44.7z"/>
	<path style="fill:#0000FF;" d="M-2.9,28.6H-16c-0.7,0-1.4,0.6-1.4,1.4s0.6,1.4,1.4,1.4h13.1V28.6z"/>
	<path style="fill:#0000FF;" d="M17.9,28.6H5.3v2.7h12.6c0.7,0,1.3-0.6,1.3-1.4S18.6,28.6,17.9,28.6z"/>
	<path style="fill:#BFBFFF;" d="M15.8,34.4l-3.5-9.8c-0.2-0.5-0.7-0.9-1.3-0.9H-9.1c-0.6,0-1.1,0.4-1.3,0.9l-3.5,9.8
		c-0.2,0.7,0.1,1.5,0.8,1.7c0.1,0.1,0.3,0.1,0.4,0.1h27.2c0.7,0,1.3-0.6,1.3-1.4C15.9,34.7,15.9,34.6,15.8,34.4z"/>
	<path style="fill:#0000FF;" d="M14.6,33.5h-27.3c-2.9,0-5.2,2.3-5.2,5.2v8.6h37.7v-8.6C19.8,35.9,17.5,33.5,14.6,33.5z"/>
	<path style="fill:#BFBFFF;" d="M-7.9,41.8c0.7,0,1.4-0.6,1.4-1.3c0-0.7-0.6-1.4-1.3-1.4c-0.7,0-1.4,0.6-1.4,1.3c0,0,0,0,0,0
		C-9.2,41.2-8.6,41.8-7.9,41.8z"/>
	<path style="fill:#BFBFFF;" d="M9.7,41.8c0.7,0,1.4-0.6,1.4-1.3s-0.6-1.4-1.3-1.4c-0.7,0-1.4,0.6-1.4,1.3v0
		C8.4,41.2,9,41.8,9.7,41.8z"/>
</g>
<g>
	<g>
		<path style="fill:#4040FF;" d="M48.3,28.9H31.8c-3.9,1.2-6.6,4.9-6.6,9V49h29.7V37.8C54.9,33.7,52.2,30.1,48.3,28.9L48.3,28.9
			L48.3,28.9z"/>
		<path style="fill:#FFFFFF;" d="M45.4,28.4H34.7c-1,0-1.9,0.2-2.9,0.5c2.5,4.5,8.1,6.3,12.7,3.8c1.6-0.9,2.9-2.2,3.8-3.8
			C47.3,28.6,46.4,28.4,45.4,28.4z"/>
		<path style="fill:#BFBFFF;" d="M50.8,44.7H29.2c-2.2,0-4,1.8-4,4s1.8,4,4,4h1.3l2.7-2.7h13.5l2.7,2.7h1.3c2.2,0,4-1.8,4-4
			C54.9,46.5,53.1,44.7,50.8,44.7z"/>
		<path style="fill:#BFBFFF;" d="M49.5,52.8h1.3c2.2,0,4-1.8,4-4s-1.8-4-4-4H40v5.4h6.7L49.5,52.8z"/>
		<path style="fill:#BFBFFF;" d="M46.8,21.6v-6.4H33.3v6.4c0,2.1,1,4.1,2.7,5.4c0,0.7-0.6,1.3-1.3,1.3c2.2,3,6.4,3.6,9.3,1.4
			c0.5-0.4,1-0.9,1.4-1.4c-0.7,0-1.3-0.6-1.3-1.3C45.8,25.8,46.8,23.8,46.8,21.6L46.8,21.6z"/>
		<path style="fill:#4040FF;" d="M42.7,6.7h-5.4c-2.2,0-4,1.8-4,4v1.3l2,1.3h9.6l2-1.3v-1.3C46.9,8.5,45.1,6.7,42.7,6.7
			C42.8,6.7,42.8,6.7,42.7,6.7z"/>
		<path style="fill:#8080FF;" d="M40,12.1h-6.7v3.1c2.5,3.7,7.5,4.8,11.2,2.3c0.9-0.6,1.7-1.4,2.3-2.3v-3.1H40z"/>
	</g>
	<g>
		<path style="fill:#0000FF;" d="M40.1,51.1c-0.4,0-0.7-0.3-0.7-0.7v-4.5c0-0.4,0.3-0.7,0.7-0.7c0.4,0,0.7,0.3,0.7,0.7v4.5
			C40.9,50.7,40.5,51.1,40.1,51.1z"/>
		<path style="fill:#8080FF;" d="M40.1,35.5c-4.9,0-8.9,4-8.9,8.9s4,8.9,8.9,8.9s8.9-4,8.9-8.9c0-2.4-0.9-4.6-2.6-6.3
			C44.7,36.4,42.5,35.5,40.1,35.5z M45.3,47.3c-1.5,2.6-4.6,3.7-7.4,2.5c-2.7-1.1-4.2-4.1-3.5-7c0.8-2.9,3.5-4.7,6.5-4.3
			c2.9,0.4,5.1,2.9,5.1,5.9C46.1,45.4,45.8,46.4,45.3,47.3z"/>
		<path style="fill:#0000FF;" d="M46.1,44.4c0,1-0.3,2-0.8,2.9c-0.2-0.3-1.1-1.4-5.2-1.4s-5,1.2-5.2,1.4c-1-1.8-1-4,0-5.8
			c0.2,0.3,1.1,1.4,5.2,1.4s5-1.2,5.2-1.4C45.8,42.4,46.1,43.4,46.1,44.4z"/>
	</g>
</g>
</svg>
