<svg id="Layer_1" data-name="Layer 1" xmlns="http://www.w3.org/2000/svg" viewBox="0 0 60 60"><defs><style>.cls-1{fill:#bfbfff;}.cls-2{fill:#8080ff;}.cls-3{fill:#4040ff;}.cls-4{fill:blue;}</style></defs><title>document-and-files036-email</title><path class="cls-1" d="M7,51.24V8.93A1.92,1.92,0,0,1,8.93,7h42.2a1.92,1.92,0,0,1,1.93,1.93V51.24a1.83,1.83,0,0,1-1.83,1.84H8.84A1.84,1.84,0,0,1,7,51.24Zm0,0"/><path class="cls-2" d="M53.06,51.24V30.07L38.22,41.59H21.85L7,30.07V51.24a1.84,1.84,0,0,0,1.84,1.84H51.23a1.83,1.83,0,0,0,1.83-1.84Zm0,0"/><path class="cls-3" d="M37.19,15a10,10,0,0,0-7.14-3.05H30A10.17,10.17,0,0,0,19.81,22.1a10.36,10.36,0,0,0,3.34,7.48,9.58,9.58,0,0,0,6.42,2.71h.51a7.72,7.72,0,0,0,5.44-2.35,1.35,1.35,0,0,0-2-1.82,5.08,5.08,0,0,1-3.63,1.47,6.82,6.82,0,0,1-4.91-2,7.59,7.59,0,0,1-2.48-5.5A7.49,7.49,0,0,1,30,14.61H30a7.37,7.37,0,0,1,5.23,2.25,7.63,7.63,0,0,1,2.2,5.49v0a1.43,1.43,0,0,1-.78,1.26,1.39,1.39,0,0,1-1.44-.06,3.87,3.87,0,0,1-.66-.57,4.7,4.7,0,1,0-1.34,2.44c.16.13.33.26.51.38a4.05,4.05,0,0,0,4.18.2,4.16,4.16,0,0,0,2.23-3.6v-.06a10.31,10.31,0,0,0-3-7.42ZM30,24.09a2,2,0,1,1,2-2,2,2,0,0,1-2,2Zm0,0"/><path class="cls-4" d="M34.3,38.51a7,7,0,0,0-8.52,0L7.61,52.61a1.82,1.82,0,0,0,1.23.47H51.23a1.82,1.82,0,0,0,1.22-.47Zm0,0"/></svg>