<svg id="Layer_1" data-name="Layer 1" xmlns="http://www.w3.org/2000/svg" viewBox="0 0 60 60"><defs><style>.cls-1{fill:blue;}.cls-2{fill:#8080ff;}.cls-3{fill:#4040ff;}.cls-4{fill:#bfbfff;}.cls-5{fill:#fff;}</style></defs><title>office036-email</title><path class="cls-1" d="M31,7.4a1.36,1.36,0,0,0-1.92,0c-4.68,4.73-21,21.13-21.6,21.77l9.91,13.61h25.3l9.91-13.6C39.58,16.11,44,20.53,31,7.4Zm0,0"/><path class="cls-2" d="M7.48,29.17h0a1.32,1.32,0,0,0-.39,1V51.73a1.35,1.35,0,0,0,.39,1l1.22-.31L18.94,42.13l.3-1.2Zm0,0"/><path class="cls-2" d="M53,51.73V30.29a1.31,1.31,0,0,0-.38-1.11h0L40.84,40.93h0l.25,1.15,10.21,10.2,1.3.4a1.35,1.35,0,0,0,.39-1Zm0,0"/><path class="cls-3" d="M40.83,40.93H19.24L7.48,52.68a1.35,1.35,0,0,0,1,.4H51.63a1.32,1.32,0,0,0,1-.4Zm0,0"/><path class="cls-4" d="M19.24,40.93h21.6l4-4V19.33A1.34,1.34,0,0,0,43.54,18h-27a1.35,1.35,0,0,0-1.35,1.35V36.87Zm0,0"/><path class="cls-5" d="M21.93,26.08H38.14a1.35,1.35,0,0,0,0-2.7H21.93a1.35,1.35,0,0,0,0,2.7Zm0,0"/><path class="cls-5" d="M38.14,28.78H21.93a1.35,1.35,0,1,0,0,2.7H38.14a1.35,1.35,0,1,0,0-2.7Zm0,0"/><path class="cls-5" d="M38.14,34.18H21.93a1.35,1.35,0,1,0,0,2.7H38.14a1.35,1.35,0,0,0,0-2.7Zm0,0"/></svg>