<svg id="Layer_1" data-name="Layer 1" xmlns="http://www.w3.org/2000/svg" viewBox="0 0 60 60"><defs><style>.cls-1{fill:#bfbfff;}.cls-2{fill:#8080ff;}.cls-3{fill:blue;}</style></defs><title>business-strategy007-brainstorming</title><path class="cls-1" d="M41.84,31H30.32v-3.6a.72.72,0,0,0-1.44,0V31H17.36a3.6,3.6,0,0,0-3.6,3.6V36.8a.72.72,0,0,0,1.44,0V34.64a2.16,2.16,0,0,1,2.16-2.16H28.88V36.8a.72.72,0,0,0,1.44,0V32.48H41.84A2.16,2.16,0,0,1,44,34.64V36.8a.72.72,0,1,0,1.44,0V34.64a3.6,3.6,0,0,0-3.6-3.6Zm0,0"/><path class="cls-2" d="M38.59,15.08l-1.1-.27.58-1a1.44,1.44,0,0,0-.21-1.76L35.6,9.82a1.44,1.44,0,0,0-1.76-.21l-1,.58-.27-1.1A1.44,1.44,0,0,0,31.2,8H28a1.43,1.43,0,0,0-1.39,1.09l-.28,1.1-1-.58a1.44,1.44,0,0,0-1.76.21l-2.26,2.26a1.44,1.44,0,0,0-.21,1.76l.58,1-1.1.28a1.43,1.43,0,0,0-1.09,1.39v3.2a1.44,1.44,0,0,0,1.09,1.4l1.1.27-.58,1a1.44,1.44,0,0,0,.21,1.76l2.26,2.26a1.45,1.45,0,0,0,1.76.21l1-.58.28,1.1A1.43,1.43,0,0,0,28,28.16h3.2a1.44,1.44,0,0,0,1.4-1.09l.27-1.1,1,.58a1.42,1.42,0,0,0,1.76-.21l2.26-2.26a1.44,1.44,0,0,0,.21-1.76l-.58-1,1.1-.28a1.42,1.42,0,0,0,1.09-1.39v-3.2a1.44,1.44,0,0,0-1.09-1.4Zm0,0"/><path class="cls-3" d="M29.6,44a6.48,6.48,0,0,0-6.48,6.48v1.44a.72.72,0,0,0,.72.72H35.36a.72.72,0,0,0,.72-.72V50.48A6.48,6.48,0,0,0,29.6,44Zm0,0"/><path class="cls-3" d="M44.72,44a6.48,6.48,0,0,0-6.48,6.48v1.44a.72.72,0,0,0,.72.72H50.48a.72.72,0,0,0,.72-.72V50.48A6.48,6.48,0,0,0,44.72,44Zm0,0"/><path class="cls-3" d="M14.48,44A6.48,6.48,0,0,0,8,50.48v1.44a.72.72,0,0,0,.72.72H20.24a.72.72,0,0,0,.72-.72V50.48A6.48,6.48,0,0,0,14.48,44Zm0,0"/><path class="cls-3" d="M18.08,39.68a3.6,3.6,0,1,1-3.6-3.6,3.59,3.59,0,0,1,3.6,3.6Zm0,0"/><path class="cls-3" d="M33.2,39.68a3.6,3.6,0,1,1-3.6-3.6,3.6,3.6,0,0,1,3.6,3.6Zm0,0"/><path class="cls-3" d="M48.32,39.68a3.6,3.6,0,1,1-3.6-3.6,3.6,3.6,0,0,1,3.6,3.6Zm0,0"/><path class="cls-1" d="M34.64,18.08a5,5,0,1,1-5-5,5,5,0,0,1,5,5Zm0,0"/></svg>