<?xml version="1.0" encoding="utf-8"?>
<!-- Generator: Adobe Illustrator 25.4.1, SVG Export Plug-In . SVG Version: 6.00 Build 0)  -->
<svg version="1.1" id="Layer_1" xmlns="http://www.w3.org/2000/svg" xmlns:xlink="http://www.w3.org/1999/xlink" x="0px" y="0px"
	 viewBox="0 0 60 60" style="enable-background:new 0 0 60 60;" xml:space="preserve">
<path style="fill:#8080FF;" d="M15.6,7c-3.2,0-5.7,2.6-5.7,5.7v34.5h25.8V12.8C35.7,9.6,33.2,7,30,7H15.6z M17.1,12.8h11.5
	c0.8,0,1.4,0.6,1.4,1.4v8.6c0,0.8-0.6,1.4-1.4,1.4H17.1c-0.8,0-1.4-0.6-1.4-1.4v-8.6C15.6,13.4,16.3,12.8,17.1,12.8z"/>
<path style="fill:#0000FF;" d="M41.5,12.8l2.9,2.9v5.7c0,2.7,1.8,4.9,4.3,5.6v13.8c0,1.2-1,2.2-2.2,2.2s-2.2-1-2.2-2.2v-2.9
	c0-4.4-3.5-7.9-7.9-7.9h-0.7v4.3h0.7c2,0,3.6,1.6,3.6,3.6v2.9c0,3.6,2.9,6.5,6.5,6.5s6.5-2.9,6.5-6.5V27.1v-2.9v-2.2v-1.2
	c0-1.5-0.6-3-1.7-4.1l-6.9-6.9c-0.8-0.8-2.1-0.8-2.9,0S40.7,12,41.5,12.8z M7,50.1C7,51.7,8.3,53,9.9,53h25.8c1.6,0,2.9-1.3,2.9-2.9
	c0-1.6-1.3-2.9-2.9-2.9H9.9C8.3,47.2,7,48.5,7,50.1z"/>
</svg>
