<?xml version="1.0" encoding="utf-8"?>
<!-- Generator: Adobe Illustrator 25.4.1, SVG Export Plug-In . SVG Version: 6.00 Build 0)  -->
<svg version="1.1" id="Layer_1" xmlns="http://www.w3.org/2000/svg" xmlns:xlink="http://www.w3.org/1999/xlink" x="0px" y="0px"
	 viewBox="0 0 60 60" style="enable-background:new 0 0 60 60;" xml:space="preserve">
<path style="fill:#0000FF;" d="M23.9,7C15.7,7,9.1,13.7,9.1,21.9c0,11.2,13.3,24.9,13.9,25.4c0.5,0.5,1.4,0.5,1.9,0c0,0,0,0,0,0
	c0.6-0.6,13.9-14.2,13.9-25.4C38.8,13.7,32.1,7,23.9,7z"/>
<path style="fill:#8080FF;" d="M32.1,50.4H15.8c-0.7,0-1.4,0.6-1.4,1.4c0,0.7,0.6,1.3,1.4,1.3l0,0h16.2c0.7,0,1.3-0.6,1.3-1.3
	C33.4,51,32.8,50.4,32.1,50.4z"/>
<g>
	<path style="fill:#BFBFFF;" d="M38.8,42.2c-6.7,0-12.1-5.4-12.1-12.2s5.4-12.1,12.1-12.1S50.9,23.3,50.9,30
		C50.9,36.7,45.5,42.1,38.8,42.2z"/>
	<path style="fill:#4040FF;" d="M40.7,30l3.1-3.1c0.5-0.5,0.5-1.4,0-1.9c-0.5-0.5-1.4-0.5-1.9,0l-3.1,3.1L35.7,25
		c-0.5-0.5-1.4-0.5-1.9,0c-0.5,0.5-0.5,1.4,0,1.9l3.1,3.1l-3.1,3.1c-0.5,0.5-0.5,1.4,0,1.9c0,0,0,0,0,0c0.5,0.5,1.4,0.5,1.9,0
		c0,0,0,0,0,0l3.1-3.1l3.1,3.1c0.5,0.5,1.4,0.5,1.9,0c0,0,0,0,0,0c0.5-0.5,0.5-1.4,0-1.9c0,0,0,0,0,0L40.7,30z"/>
</g>
</svg>
