<?xml version="1.0" encoding="utf-8"?>
<!-- Generator: Adobe Illustrator 25.4.1, SVG Export Plug-In . SVG Version: 6.00 Build 0)  -->
<svg version="1.1" id="Layer_1" xmlns="http://www.w3.org/2000/svg" xmlns:xlink="http://www.w3.org/1999/xlink" x="0px" y="0px"
	 viewBox="0 0 60 60" style="enable-background:new 0 0 60 60;" xml:space="preserve">
<path style="fill:#8080FF;" d="M53.1,27.6c0,5.1-1.7,10-4.9,14l0,0c-7.8,10-22.2,11.9-32.3,4.1C10.3,41.4,7,34.7,7,27.6
	c0-0.7,0.6-1.3,1.4-1.3c0.7,0,1.3,0.6,1.3,1.3c0,4.1,1.2,8,3.6,11.4c9.1-6.4,24.5-6.4,33.6,0c2.3-3.3,3.5-7.3,3.5-11.3
	c0-0.7,0.6-1.4,1.3-1.4C52.5,26.3,53.1,26.9,53.1,27.6L53.1,27.6z"/>
<path style="fill:#0000FF;" d="M43.6,22.6c0,3.1-2.1,7.7-6.4,13.8c-3.1,4.4-6.1,7.9-6.2,8c-0.5,0.6-1.4,0.6-1.9,0.1
	c0,0-0.1-0.1-0.1-0.1c-0.1-0.1-3.1-3.6-6.2-8c-4.2-6-6.4-10.7-6.4-13.8C16.5,15.1,22.6,9,30.1,9C37.6,9,43.7,15.1,43.6,22.6
	L43.6,22.6z"/>
<path style="fill:#EEF4FF;" d="M36.4,22.6c0,3.5-2.9,6.4-6.4,6.4s-6.4-2.9-6.4-6.4c0-3.5,2.8-6.4,6.4-6.4
	C33.5,16.2,36.4,19.1,36.4,22.6L36.4,22.6z"/>
<g>
	<path style="fill:#BFBFFF;" d="M30,32.1c-5.4,0-9.8-4.4-9.8-9.8c0-5.4,4.4-9.8,9.8-9.8c5.4,0,9.7,4.4,9.8,9.8
		C39.8,27.7,35.4,32,30,32.1C30,32.1,30,32.1,30,32.1z"/>
	<path style="fill:#8080FF;" d="M30,22.2c-1.8,0-3.2-1.5-3.2-3.3c0-1.8,1.5-3.2,3.3-3.2c1.7,0,3.2,1.4,3.2,3.2
		C33.2,20.7,31.8,22.2,30,22.2z"/>
	<path style="fill:#4040FF;" d="M34.3,28.7h-8.7c-0.6,0-1.1-0.5-1.1-1.1c0,0,0,0,0,0c0-3,2.4-5.4,5.4-5.4s5.4,2.4,5.4,5.4
		C35.4,28.2,34.9,28.7,34.3,28.7C34.3,28.7,34.3,28.7,34.3,28.7z"/>
</g>
</svg>
