<?xml version="1.0" encoding="utf-8"?>
<!-- Generator: Adobe Illustrator 25.4.1, SVG Export Plug-In . SVG Version: 6.00 Build 0)  -->
<svg version="1.1" id="Layer_1" xmlns="http://www.w3.org/2000/svg" xmlns:xlink="http://www.w3.org/1999/xlink" x="0px" y="0px"
	 viewBox="0 0 60 60" style="enable-background:new 0 0 60 60;" xml:space="preserve">
<path style="fill:#0000FF;" d="M25.2,7C16.2,7.1,9,14.3,9,23.3c0,8,6.1,16.6,11.5,24.1c1.3,1.8,2.5,3.5,3.6,5.1
	c0.4,0.6,1.3,0.8,1.9,0.4c0.1-0.1,0.3-0.2,0.4-0.4c1.1-1.6,2.3-3.3,3.6-5.1c5.4-7.5,11.5-16.1,11.5-24.1C41.4,14.3,34.2,7.1,25.2,7z
	 M25.2,31.4c-4.5,0-8.1-3.6-8.1-8.1c0-4.5,3.6-8.1,8.1-8.1s8.1,3.6,8.1,8.1S29.7,31.4,25.2,31.4z"/>
<path style="fill:#BFBFFF;" d="M25.2,31.4c-4.5,0-8.1-3.6-8.1-8.1c0-4.5,3.6-8.1,8.1-8.1s8.1,3.6,8.1,8.1S29.7,31.4,25.2,31.4z"/>
<g>
	<path style="fill:#8080FF;" d="M41.5,43.7H30.7c-5.2,0-9.4-4.2-9.4-9.4c0-2.5,1-4.9,2.7-6.6v-4.2c0-0.5,0.3-1,0.8-1.2
		c0.5-0.2,1.1-0.1,1.5,0.3l2.5,2.5c0.6-0.1,1.3-0.2,1.9-0.2h10.8c5.2,0,9.5,4.2,9.5,9.4C50.9,39.5,46.7,43.7,41.5,43.7
		C41.5,43.7,41.5,43.7,41.5,43.7L41.5,43.7z"/>
	<path style="fill:#FFFFFF;" d="M32,34.3c0-0.7-0.6-1.4-1.3-1.4c-0.7,0-1.4,0.6-1.4,1.3c0,0.7,0.6,1.4,1.3,1.4c0,0,0,0,0,0
		C31.4,35.6,32,35,32,34.3C32,34.3,32,34.3,32,34.3L32,34.3z"/>
	<path style="fill:#FFFFFF;" d="M37.4,34.3c0-0.7-0.6-1.4-1.3-1.4c-0.7,0-1.4,0.6-1.4,1.3c0,0.7,0.6,1.4,1.3,1.4c0,0,0,0,0,0
		C36.8,35.6,37.4,35,37.4,34.3C37.4,34.3,37.4,34.3,37.4,34.3L37.4,34.3z"/>
	<path style="fill:#FFFFFF;" d="M42.8,34.3c0-0.7-0.6-1.4-1.3-1.4c-0.7,0-1.4,0.6-1.4,1.3c0,0.7,0.6,1.4,1.3,1.4c0,0,0,0,0,0
		C42.2,35.6,42.8,35,42.8,34.3C42.8,34.3,42.8,34.3,42.8,34.3L42.8,34.3z"/>
</g>
</svg>
