<svg id="Layer_1" data-name="Layer 1" xmlns="http://www.w3.org/2000/svg" viewBox="0 0 60 60"><defs><style>.cls-1{fill:#4040ff;}.cls-2{fill:#bfbfff;}.cls-3{fill:#8080ff;}.cls-4{fill:blue;}.cls-5{fill:#fff;}</style></defs><title>communication-and-media017-map</title><path class="cls-1" d="M52,16.71,37.5,13.83a1.36,1.36,0,0,0-1.61,1.33V46.84A1.35,1.35,0,0,0,37,48.16L51.47,51a1.35,1.35,0,0,0,1.61-1.32V18A1.36,1.36,0,0,0,52,16.71Zm0,0"/><path class="cls-2" d="M24.19,16.93v34c-1.38.27-1.3.25-1.34.25h0c-.09,0-14.75-3-14.75-3A1.35,1.35,0,0,1,7,46.84V15.16a1.35,1.35,0,0,1,1.61-1.33L23,16.7Zm0,0"/><path class="cls-3" d="M37.41,48.25,24.19,50.9c-1.38.27-1.3.25-1.34.25h0V16.73l.18,0,13.85-2.84a1.3,1.3,0,0,1,.55,0c0,35.25,0,34.43,0,34.43Zm0,0"/><path class="cls-4" d="M32.83,18c0,2.25-1.47,5.88-4.5,11.1C26.17,32.87,24,36,24,36.08a1.35,1.35,0,0,1-2.22,0c-.09-.13-2.22-3.21-4.38-6.94-3-5.22-4.5-8.85-4.5-11.1a10,10,0,0,1,20,0Zm0,0"/><path class="cls-5" d="M27.07,18a4.23,4.23,0,1,1-4.23-4.23A4.23,4.23,0,0,1,27.07,18Zm0,0"/></svg>