<svg id="Layer_1" data-name="Layer 1" xmlns="http://www.w3.org/2000/svg" viewBox="0 0 60 60"><defs><style>.cls-1{fill:#bfbfff;}.cls-2{fill:#4040ff;}.cls-3{fill:#8080ff;}.cls-4{fill:blue;}</style></defs><title>work-from-home047-videocall</title><path class="cls-1" d="M8.35,53.08H30l2.7-4.59V33L30,30l-4.72-2.7H10.6L7,30V51.73a1.34,1.34,0,0,0,1.35,1.35Zm0,0"/><path class="cls-2" d="M53.08,30V8.35A1.34,1.34,0,0,0,51.73,7H30l-2.7,3.58V26.66L30,30,34,32.74H49.5Zm0,0"/><path class="cls-3" d="M30,7H8.35A1.34,1.34,0,0,0,7,8.35V30H30Zm0,0"/><path class="cls-4" d="M53.08,51.73V30H30v23H51.73a1.34,1.34,0,0,0,1.35-1.35Zm0,0"/><path class="cls-3" d="M19.24,40.84a4,4,0,1,1,4.05-4.05,4.06,4.06,0,0,1-4.05,4.05Zm0,0"/><path class="cls-2" d="M24.64,48.94H13.84a1.34,1.34,0,0,1-1.35-1.35,6.75,6.75,0,0,1,13.5,0,1.34,1.34,0,0,1-1.35,1.35Zm0,0"/><path class="cls-1" d="M40.84,40.84a4,4,0,1,1,4-4.05,4.06,4.06,0,0,1-4,4.05Zm0,0"/><path class="cls-3" d="M46.24,48.94H35.44a1.34,1.34,0,0,1-1.35-1.35,6.75,6.75,0,0,1,13.5,0,1.34,1.34,0,0,1-1.35,1.35Zm0,0"/><path class="cls-1" d="M40.84,17.89a4.05,4.05,0,1,1,4-4.05,4.06,4.06,0,0,1-4,4.05Zm0,0"/><path class="cls-3" d="M46.24,26H35.44a1.34,1.34,0,0,1-1.35-1.35,6.75,6.75,0,0,1,13.5,0A1.34,1.34,0,0,1,46.24,26Zm0,0"/><path class="cls-1" d="M19.24,17.89a4.05,4.05,0,1,1,4.05-4.05,4.06,4.06,0,0,1-4.05,4.05Zm0,0"/><path class="cls-2" d="M24.64,26H13.84a1.34,1.34,0,0,1-1.35-1.35,6.75,6.75,0,0,1,13.5,0A1.34,1.34,0,0,1,24.64,26Zm0,0"/></svg>