<?xml version="1.0" encoding="UTF-8"?>
<svg version="1.1" viewBox="0 0 2000 2000" width="500" height="500" xmlns="http://www.w3.org/2000/svg">
<path transform="translate(1075,233)" d="m0 0h32l17 3 16 5 21 10 14 10 10 9 11 11 11 15 8 15 7 19 4 19 1 8v22l-3 19-5 17-8 18-8 13-8 10-9 10-10 9-4 3 15 5 13 8 10 8 10 10 10 16 11 25 16 27 13 23 15 29 13 28 15 37 12 34 10 33 9 36 7 34 6 42 3 32 2 33 1 26 3 20 6 21 7 16 8 14 11 14 10 11 11 9 12 9 15 9 19 10 23 9 25 8 28 7 59 10 12 6 10 9 6 9 3 9 1 7v94l-1 11-4 10-6 9-7 7-12 6-11 3-18-1-36-5-24-4-36-8-29-8-32-11-31-13-26-13-17-10-24-16-14-11-13-11-12-11-19-19-13 32-11 29-13 38-12 41-11 44-8 41-4 25-4 39-2 39 466 1 19 3 16 5 21 10 14 10 12 11 9 9 12 17 8 16 5 13 4 16 2 14v22l-4 24-5 15-8 17-8 12-10 13-10 10-19 14-16 8-16 6-17 4-17 2h-1279l-22-3-15-4-18-8-14-8-14-11-14-14-11-15-10-19-7-21-3-17v-31l4-31 9-52 18-90 16-74 18-80 18-79 22-94 12-50 25-104 15-62 13-53 1-7-19-10-130-65-9-7-6-7-6-12-1-4v-19l4-12 6-8 9-9 10-5 6-2h19l13 4 17 9 19 9 17 9 19 9 17 9 188 94 19 9 19 10 46 23 9 7 7 8 5 11 2 8v13l-4 13-9 13-10 7-9 4-8 2h-12l-13-4-112-56-3-2v607h496l1-28 3-43 6-47 8-45 8-37 12-46 10-34 13-38 8-23 13-33 13-31 16-35 11-23 20-40 12-22 10-18 14-24 1-2-1-21-4-34-5-29-6-27-10-35-9-25-2-2-9 11-15 14-15 13-16 12-15 10-17 10-23 12-26 10-24 7-20 4-23 3-20 1h-238l-15-3-12-7-7-7-6-10-3-9v-17l5-15 10-21 14-21 11-13 4-5 8-7 9-8 17-12 18-10 21-8 18-5 21-3 121-1 21-3 17-5 21-10 15-10 13-11 10-10 11-14 9-13 9-15 10-21 11-30 6-16 7-11 6-7 1-2-15-2-20-5-17-7-15-9-14-11-14-14-11-15-10-19-7-21-3-17v-32l4-20 6-17 8-16 7-11 11-13 10-10 16-12 19-10 21-7z" fill="#3B3CFE"/>
<path transform="translate(1075,233)" d="m0 0h32l17 3 16 5 21 10 14 10 10 9 11 11 11 15 8 15 7 19 4 19 1 8v22l-3 19-5 17-8 18-8 13-8 10-9 10-10 9-4 3 15 5 13 8 10 8 10 10 10 16 11 25 16 27 13 23 15 29 13 28 15 37 12 34 10 33 9 36 7 34 6 42 3 32 2 33 1 26 3 20 6 21 7 16 8 14 11 14 10 11 11 9 12 9 15 9 19 10 23 9 25 8 28 7 59 10 12 6 10 9 6 9 3 9 1 7v94l-1 11-4 10-6 9-7 7-12 6-11 3-18-1-36-5-24-4-36-8-29-8-32-11-31-13-26-13-17-10-24-16-14-11-13-11-12-11-19-19-2-3-9-11-8-11-11-17-12-22-10-21-7-18-7-22-5-20-6-37-3-34-1-20-1-2 1-2-1-21-4-34-5-29-6-27-10-35-9-25-2-2-9 11-15 14-15 13-16 12-15 10-17 10-23 12-26 10-24 7-20 4-23 3-20 1h-238l-15-3-12-7-7-7-6-10-3-9v-17l5-15 10-21 14-21 11-13 4-5 8-7 9-8 17-12 18-10 21-8 18-5 21-3 121-1 21-3 17-5 21-10 15-10 13-11 10-10 11-14 9-13 9-15 10-21 11-30 6-16 7-11 6-7 1-2-15-2-20-5-17-7-15-9-14-11-14-14-11-15-10-19-7-21-3-17v-32l4-20 6-17 8-16 7-11 11-13 10-10 16-12 19-10 21-7z" fill="#3B3CFE"/>
<path transform="translate(268,683)" d="m0 0h19l13 4 17 9 19 9 17 9 19 9 17 9 188 94 19 9 19 10 46 23 9 7 7 8 5 11 2 8v13l-4 13-9 13-10 7-9 4-8 2h-12l-13-4-112-56-3-2v877l-41 1h-102l-22-3-15-4-18-8-14-8-14-11-14-14-11-15-10-19-7-21-3-17v-31l4-31 9-52 18-90 16-74 18-80 18-79 22-94 12-50 25-104 15-62 13-53 1-7-19-10-130-65-9-7-6-7-6-12-1-4v-19l4-12 6-8 9-9 10-5z" fill="#0002FE"/>
<path transform="translate(1240,550)" d="m0 0 3 3 14 24 13 23 15 29 13 28 15 37 12 34 10 33 9 36 7 34 6 42 3 32 2 33 1 26 3 20 6 21 7 16 8 14 11 14 10 11 11 9 12 9 15 9 19 10 23 9 25 8 28 7 59 10 12 6 10 9 6 9 3 9 1 7v94l-1 11-4 10-6 9-7 7-12 6-11 3-18-1-36-5-24-4-36-8-29-8-32-11-31-13-26-13-17-10-24-16-14-11-13-11-12-11-19-19-2-3-9-11-8-11-11-17-12-22-10-21-7-18-7-22-5-20-6-37-3-34-1-20-1-2 1-2-1-21-4-34-5-29-6-27-10-35-9-25-1-3h2l2-4 2-3h2l2-4 10-13 10-14 18-27 14-25 8-16 4-9 10-24 9-27 3-12 1-10z" fill="#7A7AFE"/>
<path transform="translate(507,1588)" d="m0 0 1131 1 14 3 11 6 9 10 6 13 1 4v18l-3 10-9 14-8 6-13 5-5 1-1136 1-1-12v-79z" fill="#B9B9FE"/>
<path transform="translate(1075,233)" d="m0 0h32l17 3 16 5 21 10 14 10 10 9 11 11 11 15 8 15 7 19 4 19 1 8v22l-3 19-5 17-8 18-8 13-8 10-9 10-10 9-4 3-3 1-7-1h-33l-18 6-12 7-12 9-3 2-2 3-28-6-20-7-16-9-12-9-10-9-9-9-11-15-10-19-7-21-3-17v-32l4-20 6-17 8-16 7-11 11-13 10-10 16-12 19-10 21-7z" fill="#B8B8FE"/>
<path transform="translate(268,683)" d="m0 0h19l13 4 17 9 19 9 17 9 19 9 17 9 188 94 19 9 19 10 46 23 9 7 7 8 5 11 2 8v13l-4 13-9 13-10 7-9 4-8 2h-12l-13-4-112-56-5-2v-2l-6-2-39-20-41-20-12-5-19-10-130-65-9-7-6-7-6-12-1-4v-19l4-12 6-8 9-9 10-5z" fill="#7A7AFE"/>
</svg>
