<?xml version="1.0" encoding="UTF-8"?>
<svg version="1.1" viewBox="0 0 2000 2000" width="500" height="500" xmlns="http://www.w3.org/2000/svg">
<path transform="translate(628,233)" d="m0 0h27l16 4 14 6 12 8 13 12 10 14 7 15 4 16 1 12v93h539v-102l3-15 5-12 7-12 8-10 10-10 15-10 15-6 14-3h27l16 4 14 6 12 8 13 12 10 14 7 15 4 16 1 12v93h168l21 3 20 6 16 7 15 8 14 10 14 12 8 8 11 14 9 14 8 16 6 15 5 19 3 25v1043l-3 24-5 19-8 20-10 18-12 16-11 12-7 7-14 11-15 9-16 8-24 8-16 3-20 2h-1219l-24-3-16-4-17-6-16-8-16-10-13-11-10-9-12-14-10-15-10-19-7-19-5-23-1-9v-1059l3-19 6-21 7-16 9-16 10-14 9-10 14-14 18-13 16-9 16-7 21-6 20-3 168-1 1-101 3-14 4-11 8-14 8-10 10-10 15-10 15-6z" fill="#0000FD"/>
<path transform="translate(628,233)" d="m0 0h27l16 4 14 6 12 8 13 12 10 14 7 15 4 16 1 12v93h539v-102l3-15 5-12 7-12 8-10 10-10 15-10 15-6 14-3h27l16 4 14 6 12 8 13 12 10 14 7 15 4 16 1 12v93h168l21 3 20 6 16 7 15 8 14 10 14 12 8 8 11 14 9 14 8 16 6 15 5 19 3 25v255h-1535l-2-1v-263l3-19 6-21 7-16 9-16 10-14 9-10 14-14 18-13 16-9 16-7 21-6 20-3 168-1 1-101 3-14 4-11 8-14 8-10 10-10 15-10 15-6z" fill="#B8B9FD"/>
<path transform="translate(791,959)" d="m0 0h32l21 3 19 5 19 7 23 12 17 12 13 12 10 10 11 14 12 19 9 19 7 22 4 20 1 9v36l-3 17-6 21-8 19-8 16-9 13-7 9-11 13-7 6 2 4 12 12 11 14 7 10 9 16 7 16 6 19 4 19 1 10v35l-3 18-6 21-6 15-8 16-8 13-10 13-11 12-7 7-11 9-17 12-19 10-21 8-19 5-22 3h-25l-21-3-20-5-21-8-17-9-15-10-13-11-5-4v-2h-2v-2h-2l-7-8-9-10-10-15-6-10-9-21-6-20-4-21-1-9v-18l2-10 5-10 9-10 11-7 9-3h16l8 2 9 4 6 4 7 7 7 14 2 7 2 22 4 15 5 12 8 12 9 10 8 7 13 8 11 5 15 4 8 1h14l16-3 16-6 13-8 10-8 8-9 9-15 6-16 3-13v-21l-3-14-4-11-7-14-9-12-10-9-13-8-14-6-12-3-22-2-14-4-13-9-7-9-5-13-1-5v-13l4-13 7-10 9-8 10-5 6-2 23-2 19-5 19-10 13-11 8-10 6-10 6-15 4-16v-21l-3-15-7-17-7-11-8-10-9-8-16-9-16-6-11-2h-23l-17 4-12 5-12 7-11 9-12 16-8 17-6 20-6 11-10 10-8 5-12 4h-13l-10-3-11-6-8-7-8-14-2-8v-16l4-18 6-17 8-16 9-15 8-11 10-11 7-8 10-9 15-11 15-9 16-8 24-8 19-4z" fill="#B8B9FD"/>
<path transform="translate(1348,233)" d="m0 0h27l16 4 14 6 12 8 13 12 10 14 7 15 4 16 1 12v92l-1 1 1 161-1 30-2 14-4 11-7 13-7 9-6 7-14 11-17 9-16 5-5 1h-20l-18-4-12-5-16-9-12-11-10-12-8-15-4-15-2-28v-274l3-15 5-12 7-12 8-10 10-10 15-10 15-6z" fill="#7A7CFD"/>
<path transform="translate(628,233)" d="m0 0h27l16 4 14 6 12 8 13 12 10 14 7 15 4 16 1 12v92h-2l1 7 1 155-1 30-3 17-5 12-7 12-11 13-14 11-17 9-16 5-5 1h-20l-18-4-12-5-16-9-12-11-10-12-8-16-3-9-2-15-1-18v-274l3-14 4-11 8-14 8-10 10-10 15-10 15-6z" fill="#7A7CFD"/>
<path transform="translate(1085,959)" d="m0 0h131l9 2 14 8 7 8 7 14 2 10v546l-4 15-6 10-5 5-8 7-12 5-8 2-10-1-12-4-9-6-8-7-5-8-3-9-1-7-1-498-75-1-9-2-13-7-6-5-7-10-4-12-1-6 1-16 4-10 9-11 11-8 7-3z" fill="#B7B8FD"/>
<path transform="translate(741,413)" d="m0 0h526v1l-13 1-14 3-21 1-61 1-31 1-108 1h-81l-85-1-61-1-32-4v-2h-19z" fill="#CDCEFE"/>
<path transform="translate(745,970)" d="m0 0h4l-2 4-10 4-22 12-13 9-5 5-17 16-9 9-11 16-8 13-5 5 2-6 5-12 11-16 11-12 7-8 10-9 15-11 15-9 16-8z" fill="#BCBEFD"/>
<path transform="translate(1071,964)" d="m0 0h5v3l-6 4h-2v2l-8 8-3 6-3 8v17l3 8 4 6 11 12 1 5-5-1-8-6-7-10-4-12-1-6 1-16 4-10 9-11z" fill="#C0C2FD"/>
<path transform="translate(649,1490)" d="m0 0 5 4 4 7v3l4 1 4 8 6 7 19 19 14 11 14 10 4 4v2l-6-1-15-10-13-11-5-4v-2h-2v-2h-2l-7-8-9-10-10-15-5-8z" fill="#BFC1FD"/>
<path transform="translate(1691,437)" d="m0 0 11 7 11 9 10 9 10 11 12 17 6 10-1 2-2-4-4-2-6-7-3-5-4-4v-2h-2l-8-10-11-9-16-15-3-3z" fill="#C9CBFE"/>
<path transform="translate(941,1527)" d="m0 0h2l-1 4-12 12-11 9-17 12-19 10-7 3-8 1 2-4 16-8 11-6 13-8 12-9h3l2-4 8-7 3-1v-2z" fill="#BCBEFD"/>
<path transform="translate(984,1440)" d="m0 0h1v11l-9 27-8 16-9 16-11 14-2-4 1-2h2v-3h2v-3l3-2 1-3h2l1-4 10-21 6-15 4-12 4-10z" fill="#BEC0FD"/>
<path transform="translate(859,968)" d="m0 0 13 2 14 6 19 10 17 12 13 12 4 5v3l-4-2-2-5-6-4-4-2v-2l-5-2-14-10-9-5v-2l-5-2-18-7-7-3-6-3z" fill="#BFC1FD"/>
<path transform="translate(985,1167)" d="m0 0 1 3-3 18-8 22-8 16-5 8h-3l1-5 4-6 12-32 3-6 2-8z" fill="#BFC1FD"/>
<path transform="translate(659,1367)" d="m0 0h5l-3 3-10 5-7 6-7 11-3 7-3 18-2-4v-16l4-10 8-10 9-7 3-2z" fill="#C2C4FD"/>
<path transform="translate(1209,961)" d="m0 0h12l8 2 10 6 7 8 4 7 1 8-3-1-2-2-2-3-1-4-4-2-5-6v-2l-4-2-9-5-12-3z" fill="#C1C3FD"/>
<path transform="translate(634,1102)" d="m0 0 1 4v9l2 7 4 10 5 8 7 6 3 6-6-1-9-8-8-14-1-4v-17z" fill="#C3C5FD"/>
<path transform="translate(675,1366)" d="m0 0h10l9 2 9 6 7 7 6 11v7h-2l-4-8-4-6-7-8-14-7-10-3z" fill="#C0C2FD"/>
<path transform="translate(1251,1551)" d="m0 0h1v9l-6 11-4 5-12 9-7 1 5-6h2l1-3 8-6h2l1-7 4-5 2-5h2z" fill="#C0C2FD"/>
<path transform="translate(1166,1548)" d="m0 0 7 14 6 7v2l4 2 6 6 3 6-6-1-11-9-7-10-2-5z" fill="#BFC1FD"/>
<path transform="translate(884,1456)" d="m0 0 5 1-6 11h-2l-2 5-4 2v3l-6 3-7 5-6 2v-2h2v-3l12-9 9-10z" fill="#B9BBFD"/>
<path transform="translate(766,1264)" d="m0 0h1l1 20 3 8 3 5 5 5 1 3 2 1v3l-5-1-6-7-6-12-1-4v-14z" fill="#B9BBFD"/>
<path transform="translate(767,1055)" d="m0 0 4 1-1 3-11 6-10 8-5 5-5 4-1-3 4-6 5-5 8-7 4-2h4v-2h4z" fill="#BABCFD"/>
<path transform="translate(886,1186)" d="m0 0h1v6l-7 9-11 11-5 3-3-1 4-6 11-10 4-6 3-1z" fill="#BDBEFD"/>
<path transform="translate(859,968)" d="m0 0 13 2 14 6 10 6v3l-21-9-10-4-6-3z" fill="#EAEBFD"/>
<path transform="translate(937,1015)" d="m0 0 4 1 9 10 5 7-1 3-4-2-10-12z" fill="#BBBDFD"/>
<path transform="translate(829,962)" d="m0 0h7l3 1 14 1 16 5-4 1-5-1-2 1-24-6-5-1z" fill="#BDBFFD"/>
<path transform="translate(1670,426)" d="m0 0 17 8-2 3-5-1-9-5z" fill="#C8CAFE"/>
<path transform="translate(261,485)" d="m0 0 2 1-1 5-4 5h-2l-1 5-3 4-2-1 6-12z" fill="#CCCEFE"/>
<path transform="translate(931,1280)" d="m0 0 5 1 8 8 1 4-6-3-8-8z" fill="#BDBFFD"/>
<path transform="translate(1760,523)" d="m0 0 2 3 4 16-6-4-1-8z" fill="#CBCDFE"/>
<path transform="translate(270,472)" d="m0 0 3 2-1 4h-2l-2 5-6 2 2-5z" fill="#CACCFE"/>
<path transform="translate(648,1371)" d="m0 0 2 1-13 13-2 4h-2l2-5 9-10z" fill="#A6A7FD"/>
<path transform="translate(766,1264)" d="m0 0h1l1 19-2 1-2-6v-7z" fill="#C8CAFE"/>
<path transform="translate(719,1119)" d="m0 0 1 3-4 13-4 1 2-7z" fill="#C3C5FD"/>
<path transform="translate(1068,966)" d="m0 0 2 1-13 13-2-1 9-10z" fill="#ABACFD"/>
<path transform="translate(1766,545)" d="m0 0h1v11h-2l-1-10z" fill="#C4C6FE"/>
<path transform="translate(738,1080)" d="m0 0 1 4-5 6-1-4z" fill="#B1B3FD"/>
<path transform="translate(291,451)" d="m0 0 3 1-3 5-4 1v-3z" fill="#CCCEFE"/>
</svg>
