<svg id="Layer_1" data-name="Layer 1" xmlns="http://www.w3.org/2000/svg" viewBox="0 0 60 60"><defs><style>.cls-1{fill:#bfbfff;}.cls-2{fill:blue;}.cls-3{fill:#8080ff;}.cls-4{fill:#4040ff;}</style></defs><title>work-from-home002-working-at home</title><path class="cls-1" d="M30,10.91,9.7,23.58V51.73a1.33,1.33,0,0,0,1.35,1.35H49a1.33,1.33,0,0,0,1.35-1.35V23.58Zm0,0"/><path class="cls-2" d="M52.45,20.71,30.76,7.21a1.34,1.34,0,0,0-1.44,0L7.63,20.71A1.33,1.33,0,0,0,7,21.85v3.67a1.35,1.35,0,0,0,2.07,1.14l21-13L51,26.66a1.35,1.35,0,0,0,2.07-1.14V21.85a1.33,1.33,0,0,0-.63-1.14Zm0,0"/><path class="cls-2" d="M31.39,23.2h-2.7a4.06,4.06,0,0,0-4.05,4.05V30a1.35,1.35,0,0,0,2.7,0v-2.7a1.36,1.36,0,0,1,1.35-1.35h2.7a1.36,1.36,0,0,1,1.35,1.35V30a1.35,1.35,0,1,0,2.7,0v-2.7a4.06,4.06,0,0,0-4-4.05Zm0,0"/><path class="cls-3" d="M30,30H17.89v16.2a1.34,1.34,0,0,0,1.35,1.35h21.6a1.34,1.34,0,0,0,1.35-1.35V30Zm0,0"/><path class="cls-4" d="M30,36.7a1.34,1.34,0,0,0-1.35,1.35v2.7a1.35,1.35,0,0,0,2.7,0v-2.7A1.34,1.34,0,0,0,30,36.7Zm0,0"/><path class="cls-4" d="M40.84,28.6H19.24A1.34,1.34,0,0,0,17.89,30l5.63,8.85a1.36,1.36,0,0,0,1.12.6h10.8a1.36,1.36,0,0,0,1.12-.6L42.19,30a1.34,1.34,0,0,0-1.35-1.35Zm0,0"/></svg>