<?xml version="1.0" encoding="utf-8"?>
<!-- Generator: Adobe Illustrator 25.2.0, SVG Export Plug-In . SVG Version: 6.00 Build 0)  -->
<svg version="1.1" id="Layer_1" xmlns="http://www.w3.org/2000/svg" xmlns:xlink="http://www.w3.org/1999/xlink" x="0px" y="0px"
	 viewBox="0 0 60 60" style="enable-background:new 0 0 60 60;" xml:space="preserve">
<path style="fill:#BFBFFF;" d="M30,10.91L9.7,23.58v28.15c-0.01,0.73,0.58,1.34,1.31,1.35c0.01,0,0.03,0,0.04,0H49
	c0.73,0.01,1.34-0.58,1.35-1.31c0-0.01,0-0.03,0-0.04V23.58L30,10.91z"/>
<path style="fill:#0000FF;" d="M52.45,20.71L30.76,7.21c-0.44-0.28-1-0.28-1.44,0L7.63,20.71C7.24,20.95,7,21.39,7,21.85v3.67
	c0,0.75,0.61,1.35,1.35,1.35c0.25,0,0.5-0.07,0.72-0.21l21-13l20.93,13c0.63,0.4,1.46,0.21,1.86-0.42c0.14-0.21,0.21-0.46,0.21-0.72
	v-3.67c0-0.46-0.24-0.9-0.63-1.14L52.45,20.71z"/>
<g>
	<path style="fill:#E1E1FF;" d="M29.97,34.99c-0.42,0-0.77,0.34-0.77,0.77l0,0v7.26c0.04,0.43,0.41,0.74,0.84,0.71
		c0.38-0.03,0.67-0.33,0.71-0.71v-7.26C30.74,35.33,30.4,34.99,29.97,34.99L29.97,34.99z"/>
	<path style="fill:#E1E1FF;" d="M25.89,34.99c-0.42,0-0.77,0.34-0.77,0.76v0.01v3.6h-3.76c-0.42,0-0.77,0.34-0.77,0.76
		c0,0,0,0,0,0.01v2.89c0.04,0.43,0.41,0.74,0.84,0.71c0.38-0.03,0.67-0.33,0.71-0.71v-2.1h3.76c0.42,0,0.77-0.34,0.77-0.76v-0.01
		v-4.4c0-0.42-0.34-0.77-0.76-0.77C25.89,34.99,25.89,34.99,25.89,34.99z"/>
	<path style="fill:#E1E1FF;" d="M38.55,39.36h-3.76v-3.6c0-0.42-0.34-0.77-0.77-0.77c-0.42,0-0.77,0.34-0.77,0.77l0,0v4.37
		c-0.02,0.42,0.31,0.78,0.73,0.79c0.01,0,0.02,0,0.03,0h3.76v2.12c0.04,0.43,0.41,0.74,0.84,0.71c0.38-0.03,0.67-0.33,0.71-0.71
		v-2.91C39.32,39.71,38.98,39.36,38.55,39.36L38.55,39.36z"/>
	<path style="fill:#4040FF;" d="M41.36,45.02c0,1.53-1.24,2.78-2.77,2.78s-2.78-1.24-2.78-2.77s1.24-2.78,2.77-2.78c0,0,0,0,0.01,0
		C40.11,42.25,41.35,43.48,41.36,45.02L41.36,45.02z"/>
	<path style="fill:#0000FF;" d="M32.73,45.02c0,1.53-1.24,2.78-2.77,2.78c-1.53,0-2.78-1.24-2.78-2.77s1.24-2.78,2.77-2.78
		c0.01,0,0.02,0,0.02,0c1.53,0,2.78,1.24,2.78,2.77c0,0,0,0,0,0.01L32.73,45.02L32.73,45.02z"/>
	<path style="fill:#8080FF;" d="M24.13,45.02c0,1.53-1.24,2.78-2.77,2.78s-2.78-1.24-2.78-2.77s1.24-2.78,2.77-2.78h0.01
		C22.89,42.25,24.13,43.49,24.13,45.02z"/>
	<path style="fill:#4040FF;" d="M36.02,27c-0.34-3.33-3.32-5.75-6.65-5.41c-2.27,0.23-4.21,1.72-5.03,3.85
		c-3.41,0.29-5.93,3.29-5.64,6.7c0.27,3.19,2.94,5.65,6.14,5.66h11.17c2.99,0,5.41-2.42,5.41-5.41s-2.42-5.41-5.41-5.41L36.02,27z"
		/>
</g>
</svg>
