<svg id="Layer_1" data-name="Layer 1" xmlns="http://www.w3.org/2000/svg" viewBox="0 0 60 60"><defs><style>.cls-1{fill:#8080ff;}.cls-2{fill:#bfbfff;}.cls-3{fill:#4040ff;}.cls-4{fill:blue;}</style></defs><title>office026-id-card</title><path class="cls-1" d="M51.73,16.63H8.35A1.34,1.34,0,0,0,7,18V51.73a1.34,1.34,0,0,0,1.35,1.35H51.73a1.34,1.34,0,0,0,1.35-1.35V18a1.34,1.34,0,0,0-1.35-1.35Zm0,0"/><path class="cls-2" d="M35.89,31.39h11.7a1.35,1.35,0,0,0,0-2.7H35.89a1.35,1.35,0,0,0,0,2.7Zm0,0"/><path class="cls-2" d="M47.59,34.09H35.89a1.35,1.35,0,0,0,0,2.7h11.7a1.35,1.35,0,0,0,0-2.7Zm0,0"/><path class="cls-2" d="M47.59,39.49H35.89a1.35,1.35,0,0,0,0,2.7h11.7a1.35,1.35,0,0,0,0-2.7Zm0,0"/><path class="cls-2" d="M47.59,44.89H35.89a1.35,1.35,0,0,0,0,2.7h11.7a1.35,1.35,0,0,0,0-2.7Zm0,0"/><path class="cls-3" d="M30,25.09a5.4,5.4,0,0,1-5.4-5.4V7.45A.45.45,0,0,1,25.09,7H35a.45.45,0,0,1,.45.45V19.69a5.4,5.4,0,0,1-5.4,5.4Zm0,0"/><path class="cls-2" d="M31.84,19.33a1.8,1.8,0,1,1-1.8-1.8,1.81,1.81,0,0,1,1.8,1.8Zm0,0"/><path class="cls-4" d="M30,30v16.2a1.34,1.34,0,0,1-1.35,1.35H12.49a1.34,1.34,0,0,1-1.35-1.35V30a1.34,1.34,0,0,1,1.35-1.35h16.2A1.34,1.34,0,0,1,30,30Zm0,0"/><path class="cls-1" d="M26,44.89v2.7H15.19v-2.7a5.4,5.4,0,1,1,10.8,0Zm0,0"/><path class="cls-2" d="M24.64,38.14a4.05,4.05,0,1,1-4.05-4,4,4,0,0,1,4.05,4Zm0,0"/></svg>