<?xml version="1.0" encoding="utf-8"?>
<!-- Generator: Adobe Illustrator 25.4.1, SVG Export Plug-In . SVG Version: 6.00 Build 0)  -->
<svg version="1.1" id="Layer_1" xmlns="http://www.w3.org/2000/svg" xmlns:xlink="http://www.w3.org/1999/xlink" x="0px" y="0px"
	 viewBox="0 0 60 60" style="enable-background:new 0 0 60 60;" xml:space="preserve">
<g>
	<g>
		<path style="fill:#8080FF;" d="M53.3,13.8v8c0,3.8-3.1,6.8-6.8,6.8h-33c-3.8,0-6.8-3.1-6.8-6.8v-8c0-3.8,3.1-6.8,6.8-6.8h33
			C50.3,6.9,53.3,10,53.3,13.8z"/>
		<path style="fill:#BFBFFF;" d="M14,12.7c-0.8,0-1.4,0.6-1.4,1.3c0,0,0,0,0,0v7.3c0,0.8,0.6,1.4,1.4,1.4c0.8,0,1.4-0.6,1.4-1.4
			v-7.3C15.3,13.4,14.7,12.8,14,12.7C14,12.7,14,12.7,14,12.7z"/>
		<path style="fill:#BFBFFF;" d="M37.2,30.1L37.2,30.1c0.5-0.5,1.4-0.5,1.9,0l4.2,4c0.5,0.5,0.5,1.4,0,1.9c0,0,0,0,0,0l0,0
			c-0.5,0.5-1.4,0.5-1.9,0l-4.2-4C36.6,31.5,36.6,30.6,37.2,30.1L37.2,30.1L37.2,30.1z"/>
		<path style="fill:#BFBFFF;" d="M42.3,24.3c0,6-4.9,10.8-10.8,10.8c-6,0-10.8-4.9-10.8-10.8s4.8-10.8,10.8-10.8l0,0
			C37.4,13.5,42.3,18.3,42.3,24.3z"/>
		<path style="fill:#0000FF;" d="M23.8,32c4.2,4.2,11.1,4.2,15.3,0c4.2-4.2,4.2-11.1,0-15.3c-4.2-4.2-11.1-4.2-15.3,0c0,0,0,0,0,0
			C19.6,20.9,19.5,27.7,23.8,32C23.8,32,23.8,32,23.8,32z M31.5,16.2c4.5,0,8.1,3.6,8.1,8.1s-3.6,8.1-8.1,8.1s-8.1-3.6-8.1-8.1
			S27,16.2,31.5,16.2z"/>
		<path style="fill:#0000FF;" d="M41.4,34.3c1.7-1.7,4.4-1.7,6,0c0,0,0,0,0,0l4.6,4.6c1.7,1.7,1.7,4.4,0,6.1c-1.7,1.7-4.4,1.7-6.1,0
			l-4.6-4.6C39.7,38.7,39.7,35.9,41.4,34.3C41.4,34.3,41.4,34.3,41.4,34.3z"/>
	</g>
	<g>
		<path style="fill:#BFBFFF;" d="M15.2,39.2l1.5,1.5h10l1.5-1.5c0.3-0.3,0.9-0.3,1.2,0l0,0l1.5,1.5h3.2c1.4,0,2.6,1.2,2.6,2.6v7.1
			c0,1.5-1.2,2.6-2.6,2.6H9.3c-1.5,0-2.6-1.2-2.6-2.6v-7c0-1.4,1.2-2.6,2.6-2.6h3.2l1.5-1.5C14.3,38.9,14.9,38.9,15.2,39.2
			L15.2,39.2L15.2,39.2z"/>
		<path style="fill:#0000FF;" d="M25.3,47.8h7.1c0.5,0,0.9,0.4,0.9,0.9c0,0.5-0.4,0.9-0.9,0.9h-7.1c-0.5,0-0.9-0.4-0.9-0.9
			C24.4,48.2,24.8,47.8,25.3,47.8z"/>
		<path style="fill:#0000FF;" d="M25.3,44.3h7.1c0.5,0,0.9,0.4,0.9,0.9S32.8,46,32.4,46l0,0h-7.1c-0.5,0-0.9-0.4-0.9-0.9
			S24.8,44.3,25.3,44.3z"/>
		<path style="fill:#8080FF;" d="M11.1,47.8h7.1c0.5,0,0.9,0.4,0.9,0.9c0,0.5-0.4,0.9-0.9,0.9h-7.1c-0.5,0-0.9-0.4-0.9-0.9
			C10.2,48.2,10.6,47.8,11.1,47.8L11.1,47.8z"/>
		<path style="fill:#8080FF;" d="M11.1,44.3h7.1c0.5,0,0.9,0.4,0.9,0.9S18.6,46,18.1,46h-7.1c-0.5,0-0.9-0.4-0.9-0.9
			S10.6,44.3,11.1,44.3z"/>
	</g>
</g>
</svg>
