<svg id="Layer_1" data-name="Layer 1" xmlns="http://www.w3.org/2000/svg" xmlns:xlink="http://www.w3.org/1999/xlink" viewBox="0 0 60 60"><defs><style>.cls-1{fill:none;}.cls-2{clip-path:url(#clip-path);}.cls-3{fill:#4040ff;}.cls-4{fill:#8080ff;}.cls-5{fill:#bfbfff;}.cls-6{fill:blue;}</style><clipPath id="clip-path"><rect class="cls-1" x="7" y="7" width="46.08" height="46.08"/></clipPath></defs><title>insurance024-package</title><g class="cls-2"><path class="cls-3" d="M44.35,16.9h-36A1.35,1.35,0,0,1,7.14,15l3.6-7.2A1.36,1.36,0,0,1,12,7H23.2l3.15,1.8L29.5,7H40.75A1.36,1.36,0,0,1,42,7.75l3.6,7.2a1.35,1.35,0,0,1-1.21,1.95Zm0,0"/></g><rect class="cls-4" x="23.2" y="7" width="6.3" height="9.9"/><path class="cls-4" d="M7,15.55V39A1.34,1.34,0,0,0,8.35,40.3h36A1.34,1.34,0,0,0,45.7,39V15.55H29.5l-3.15,1.8-3.15-1.8Zm0,0"/><path class="cls-5" d="M23.2,15.55v9a1.34,1.34,0,0,0,1.35,1.35h3.6a1.34,1.34,0,0,0,1.35-1.35v-9Zm0,0"/><path class="cls-5" d="M19.15,35.8h-5.4a1.35,1.35,0,1,1,0-2.7h5.4a1.35,1.35,0,1,1,0,2.7Zm0,0"/><path class="cls-5" d="M19.15,30.4h-5.4a1.35,1.35,0,0,1,0-2.7h5.4a1.35,1.35,0,0,1,0,2.7Zm0,0"/><path class="cls-6" d="M42.73,53.08a1.32,1.32,0,0,1-.39-.06,14,14,0,0,1-10-13.39v-7.7a1.34,1.34,0,0,1,1.35-1.35,4.45,4.45,0,0,0,4-2.47l.19-.38A1.36,1.36,0,0,1,39.13,27h7.2a1.36,1.36,0,0,1,1.21.75l.19.38a4.45,4.45,0,0,0,4,2.47,1.34,1.34,0,0,1,1.35,1.35v7.7A14,14,0,0,1,43.12,53a1.32,1.32,0,0,1-.39.06Zm0,0"/><path class="cls-5" d="M35.08,33.15v6.48a11.2,11.2,0,0,0,7.65,10.68,11.2,11.2,0,0,0,7.65-10.68V33.15a7.09,7.09,0,0,1-4.87-3.47H40a7.09,7.09,0,0,1-4.87,3.47Zm0,0"/><path class="cls-4" d="M41.46,43.93a1.38,1.38,0,0,1-1-.4L38,41a1.35,1.35,0,0,1,1.91-1.9l1.59,1.59,4.13-4.14a1.35,1.35,0,0,1,1.91,1.91l-5.09,5.09a1.36,1.36,0,0,1-.95.4Zm0,0"/></svg>