<svg id="Layer_1" data-name="Layer 1" xmlns="http://www.w3.org/2000/svg" viewBox="0 0 60 60"><defs><style>.cls-1{fill:blue;}.cls-2{fill:#bfbfff;}</style></defs><title>computer035-internet</title><path class="cls-1" d="M52.4,30A1.43,1.43,0,0,1,53,28.69a23.63,23.63,0,0,0-.6-4.07,5.2,5.2,0,0,1-1.35-1.84,1.73,1.73,0,0,1,.23-1.58A23.08,23.08,0,0,0,38.88,8.76h0s-.32.56-1.59.18a3.35,3.35,0,0,1-1.83-1.3A24.24,24.24,0,0,0,31.39,7,1.43,1.43,0,0,1,30,7.68,1.43,1.43,0,0,1,28.69,7a22.56,22.56,0,0,0-4.07.6,3.25,3.25,0,0,1-1.83,1.3c-1.27.38-1.59-.18-1.59-.18h0A23.16,23.16,0,0,0,8.76,21.2,1.69,1.69,0,0,1,9,22.78a5.31,5.31,0,0,1-1.35,1.84h0A23.08,23.08,0,0,0,7,28.69H7A1.43,1.43,0,0,1,7.68,30,1.43,1.43,0,0,1,7,31.39a22.5,22.5,0,0,0,.6,4.07A5.31,5.31,0,0,1,9,37.3a1.73,1.73,0,0,1-.23,1.58h0A23,23,0,0,0,21.2,51.31s.37-.54,1.59-.18a3.46,3.46,0,0,1,1.83,1.3,22.37,22.37,0,0,0,4.07.61A1.43,1.43,0,0,1,30,52.4a1.42,1.42,0,0,1,1.35.64,22.27,22.27,0,0,0,3.54-.48l.54-.13h0a3.36,3.36,0,0,1,1.83-1.3c1.27-.38,1.59.19,1.59.19h0A23,23,0,0,0,51.32,38.88a1.69,1.69,0,0,1-.23-1.58,5.31,5.31,0,0,1,1.35-1.84,23.26,23.26,0,0,0,.6-4.07A1.43,1.43,0,0,1,52.4,30Zm0,0"/><path class="cls-2" d="M53,31.39a24.32,24.32,0,0,0,0-2.7H42.94a62.7,62.7,0,0,0-.6-7.62,37.12,37.12,0,0,1,7.37,2.37l2.73,1.18a22.74,22.74,0,0,0-1.12-3.42,39.67,39.67,0,0,0-9.46-3,40.07,40.07,0,0,0-2.76-9l-.22-.5a23.19,23.19,0,0,0-3.42-1.12l1.16,2.7A34.63,34.63,0,0,1,39,17.74a62.37,62.37,0,0,0-7.61-.6V7a24.31,24.31,0,0,0-2.7,0v10.1a62.37,62.37,0,0,0-7.61.6,37.13,37.13,0,0,1,2.36-7.37l1.18-2.73A23.19,23.19,0,0,0,21.2,8.76l-.22.5a40.07,40.07,0,0,0-2.76,9,40.07,40.07,0,0,0-9,2.76l-.5.22a22.11,22.11,0,0,0-1.12,3.42l2.73-1.18a36.49,36.49,0,0,1,7.37-2.36,62.37,62.37,0,0,0-.6,7.61H7a24.32,24.32,0,0,0,0,2.7h10.1a62.37,62.37,0,0,0,.6,7.61,36.48,36.48,0,0,1-7.37-2.37c-.26-.1,1,.42-2.73-1.17a24.06,24.06,0,0,0,1.12,3.42l.5.22a40.07,40.07,0,0,0,9,2.76,40.24,40.24,0,0,0,2.76,9l.22.5a22,22,0,0,0,3.42,1.11c-1.6-3.7-1.07-2.45-1.18-2.72a37.13,37.13,0,0,1-2.36-7.37,62.37,62.37,0,0,0,7.61.6V53a24.31,24.31,0,0,0,2.7,0V42.94a62.37,62.37,0,0,0,7.61-.6,37.13,37.13,0,0,1-2.36,7.37l-1.18,2.73a23.19,23.19,0,0,0,3.42-1.12l.22-.5a40.24,40.24,0,0,0,2.76-9,40.07,40.07,0,0,0,9-2.76l.5-.22a23.19,23.19,0,0,0,1.12-3.42l-2.7,1.16A35.38,35.38,0,0,1,42.34,39a62.37,62.37,0,0,0,.6-7.61ZM28.69,40.24a57.85,57.85,0,0,1-8.14-.71,57.85,57.85,0,0,1-.71-8.14h8.85Zm0-11.55H19.84a57.85,57.85,0,0,1,.71-8.14,57.85,57.85,0,0,1,8.14-.71ZM39.53,39.53a57.85,57.85,0,0,1-8.14.71V31.39h8.85a57.85,57.85,0,0,1-.71,8.14ZM31.39,28.69V19.84a57.85,57.85,0,0,1,8.14.71,57.85,57.85,0,0,1,.71,8.14Zm0,0"/></svg>