<?xml version="1.0" encoding="utf-8"?>
<!-- Generator: Adobe Illustrator 25.2.0, SVG Export Plug-In . SVG Version: 6.00 Build 0)  -->
<svg version="1.1" id="Layer_1" xmlns="http://www.w3.org/2000/svg" xmlns:xlink="http://www.w3.org/1999/xlink" x="0px" y="0px"
	 viewBox="0 0 60 60" style="enable-background:new 0 0 60 60;" xml:space="preserve">
<path style="fill:#0000FF;" d="M50.38,13.35v29.7H9.7v-29.7c-0.01-0.73,0.58-1.34,1.31-1.35c0.01,0,0.03,0,0.04,0H49
	c0.73-0.01,1.34,0.58,1.35,1.31c0,0.01,0,0.03,0,0.04H50.38z"/>
<rect x="12.4" y="14.7" style="fill:#FFFFFF;" width="35.28" height="24.3"/>
<path style="fill:#BFBFFF;" d="M42.09,22.8H39.6c-0.75,0-1.35-0.6-1.35-1.35s0.6-1.35,1.35-1.35h2.49c0.75,0,1.35,0.6,1.35,1.35
	S42.83,22.8,42.09,22.8z"/>
<path style="fill:#BFBFFF;" d="M35.44,21.45c0,0.75-0.6,1.35-1.35,1.35c-0.75,0-1.35-0.6-1.35-1.35s0.6-1.35,1.35-1.35l0,0
	c0.74-0.01,1.34,0.59,1.35,1.33C35.44,21.44,35.44,21.44,35.44,21.45z"/>
<path style="fill:#BFBFFF;" d="M42.09,28.2H34.2c-0.75,0-1.35-0.6-1.35-1.35s0.6-1.35,1.35-1.35h7.89c0.75,0,1.35,0.6,1.35,1.35
	S42.83,28.2,42.09,28.2z"/>
<path style="fill:#BFBFFF;" d="M42.09,33.6H34.2c-0.75,0-1.35-0.6-1.35-1.35c0-0.75,0.6-1.35,1.35-1.35h7.89
	c0.75,0,1.35,0.6,1.35,1.35C43.44,33,42.83,33.6,42.09,33.6z"/>
<path style="fill:#4040FF;" d="M8.35,41.7C7.61,41.69,7.01,42.29,7,43.03c0,0.01,0,0.01,0,0.02c-0.03,2.21,1.74,4.02,3.95,4.05
	c0.03,0,0.07,0,0.1,0h12.24L26,44.51l-2.7-2.81L8.35,41.7z"/>
<path style="fill:#4040FF;" d="M51.73,41.7H36.79l-2.7,2.92l2.7,2.48H49c2.21,0,4-1.79,4-4c0-0.02,0-0.03,0-0.05
	c0.01-0.74-0.59-1.34-1.33-1.35c-0.01,0-0.01,0-0.02,0L51.73,41.7z"/>
<rect x="23.29" y="41.7" style="fill:#8080FF;" width="13.5" height="5.4"/>
<g>
	<path style="fill:#8080FF;" d="M29.53,19.33h-3.08l-2.08,2.08h-2.08l-2.11-2.08H17.1c-0.57-0.03-1.05,0.41-1.09,0.98
		c0,0.03,0,0.07,0,0.1v12.47c0,0.57,0.45,1.04,1.02,1.04c0.01,0,0.01,0,0.02,0h12.47c0.57,0,1.04-0.45,1.04-1.02
		c0-0.01,0-0.01,0-0.02V20.41c0-0.57-0.45-1.04-1.02-1.04c-0.01,0-0.01,0-0.02,0V19.33z"/>
	<path style="fill:#4040FF;" d="M23.26,19.33h-3.08v5.2c0,0.57,0.45,1.04,1.02,1.04c0.01,0,0.01,0,0.02,0h4.16
		c0.57,0,1.04-0.45,1.04-1.02c0-0.01,0-0.01,0-0.02v-5.2H23.26z"/>
</g>
</svg>
