<svg id="Layer_1" data-name="Layer 1" xmlns="http://www.w3.org/2000/svg" viewBox="0 0 60 60"><defs><style>.cls-1{fill:blue;}.cls-2{fill:#bfbfff;}.cls-3{fill:#8080ff;}.cls-4{fill:#4040ff;}</style></defs><title>digital-marketing023-laptop</title><path class="cls-1" d="M50.38,16.05v27H9.7v-27A4,4,0,0,1,13.75,12H46.33a4,4,0,0,1,4.05,4.05Zm0,0"/><path class="cls-2" d="M47.68,16.05V39H12.4V16.05a1.34,1.34,0,0,1,1.35-1.35H46.33a1.34,1.34,0,0,1,1.35,1.35Zm0,0"/><path class="cls-3" d="M40.84,17.4H19.15a1.34,1.34,0,0,0-1.35,1.35v5.4a1.34,1.34,0,0,0,1.35,1.35H40.84a1.34,1.34,0,0,0,1.35-1.35v-5.4a1.34,1.34,0,0,0-1.35-1.35Zm0,0"/><path class="cls-3" d="M27.34,36.3H19.15A1.36,1.36,0,0,1,17.8,35v-5.4a1.35,1.35,0,0,1,1.35-1.35h8.19a1.34,1.34,0,0,1,1.35,1.35V35a1.35,1.35,0,0,1-1.35,1.35Zm0,0"/><path class="cls-3" d="M40.84,30.9h-8.1a1.35,1.35,0,0,1,0-2.7h8.1a1.35,1.35,0,0,1,0,2.7Zm0,0"/><path class="cls-3" d="M40.84,36.3h-8.1a1.35,1.35,0,0,1,0-2.7h8.1a1.35,1.35,0,0,1,0,2.7Zm0,0"/><path class="cls-4" d="M53,43.53a11.92,11.92,0,0,1-1.92,3.11,1.33,1.33,0,0,1-1,.46H10a1.33,1.33,0,0,1-1-.46,11.92,11.92,0,0,1-1.92-3.11,1.4,1.4,0,0,1,.17-1.27,1.35,1.35,0,0,1,1.1-.56H51.73a1.35,1.35,0,0,1,1.1.56A1.4,1.4,0,0,1,53,43.53Zm0,0"/></svg>