<?xml version="1.0" encoding="utf-8"?>
<!-- Generator: Adobe Illustrator 25.4.1, SVG Export Plug-In . SVG Version: 6.00 Build 0)  -->
<svg version="1.1" id="Layer_1" xmlns="http://www.w3.org/2000/svg" xmlns:xlink="http://www.w3.org/1999/xlink" x="0px" y="0px"
	 viewBox="0 0 60 60" style="enable-background:new 0 0 60 60;" xml:space="preserve">
<g>
	<path style="fill:#BFBFFF;" d="M52.1,42.6L34.4,24.9c-0.3-0.3-0.8-0.3-1.1,0L29.1,29c-0.3,0.3-0.3,0.8,0,1.1L46.8,48
		c1.5,1.4,3.9,1.3,5.3-0.2C53.4,46.3,53.4,44.1,52.1,42.6z"/>
	<path style="fill:#8080FF;" d="M21.8,42.4h-10c-1.4,0-2.5,1.1-2.5,2.5v3.3c0,0.5,0.4,0.8,0.8,0.8l0,0h13.2c0.5,0,0.8-0.4,0.8-0.8
		l0,0v-3.3C24.3,43.6,23.2,42.5,21.8,42.4z"/>
	<path style="fill:#8080FF;" d="M37.3,22L29,13.7c-0.3-0.3-0.8-0.3-1.1,0l-9.9,9.9c-0.3,0.3-0.3,0.8,0,1.1l8.3,8.3
		c0.3,0.3,0.8,0.3,1.1,0l9.9-9.9C37.6,22.8,37.6,22.3,37.3,22z"/>
	<path style="fill:#0000FF;" d="M7.7,47.4h18.2c0.5,0,0.8,0.4,0.8,0.8l0,0v4.9c0,0.5-0.4,0.8-0.8,0.8l0,0H7.7
		c-0.5,0-0.8-0.4-0.8-0.8l0,0v-4.9C6.9,47.8,7.3,47.4,7.7,47.4L7.7,47.4z"/>
	<path style="fill:#0000FF;" d="M43.9,18.7L31.5,6.3c-0.3-0.3-0.8-0.3-1.1,0l-5,5c-0.3,0.3-0.3,0.8,0,1.1l12.4,12.4
		c0.3,0.3,0.8,0.3,1.1,0l5-5C44.2,19.5,44.2,19,43.9,18.7z"/>
	<path style="fill:#0000FF;" d="M16.6,21.2c-0.3-0.3-0.8-0.3-1.1,0l-5,5c-0.3,0.3-0.3,0.8,0,1.1l12.4,12.4c0.3,0.3,0.8,0.3,1.1,0
		l5-4.9c0.3-0.3,0.3-0.8,0-1.1L16.6,21.2z"/>
</g>
</svg>
