<?xml version="1.0" encoding="utf-8"?>
<!-- Generator: Adobe Illustrator 25.4.1, SVG Export Plug-In . SVG Version: 6.00 Build 0)  -->
<svg version="1.1" id="Layer_1" xmlns="http://www.w3.org/2000/svg" xmlns:xlink="http://www.w3.org/1999/xlink" x="0px" y="0px"
	 viewBox="0 0 60 60" style="enable-background:new 0 0 60 60;" xml:space="preserve">
<path style="fill:#8080FF;" d="M8.4,53.1c-0.2,0-0.4-0.1-0.6-0.2C7.3,52.7,7,52.2,7,51.7V25.6c0-2.2,1.8-4,4.1-4.1h28.8
	c2.2,0,4,1.8,4,4v19.8c0,2.2-1.8,4-4,4H14.2l-5.1,3.4C8.9,53,8.6,53.1,8.4,53.1z"/>
<path style="fill:#BFBFFF;" d="M22.8,32.4h-9c-0.7,0-1.4-0.6-1.4-1.4s0.6-1.4,1.4-1.4l0,0h9c0.7,0,1.4,0.6,1.4,1.4
	S23.5,32.4,22.8,32.4z"/>
<path style="fill:#BFBFFF;" d="M37.2,37.8H13.8c-0.7,0-1.4-0.6-1.4-1.3c0-0.7,0.6-1.4,1.4-1.4l0,0h23.4c0.7,0,1.3,0.6,1.3,1.4
	C38.5,37.2,37.9,37.8,37.2,37.8z"/>
<path style="fill:#BFBFFF;" d="M37.2,43.2H13.8c-0.7,0-1.4-0.6-1.4-1.3c0-0.7,0.6-1.4,1.4-1.4l0,0h23.4c0.7,0,1.3,0.6,1.3,1.4
	C38.5,42.6,37.9,43.2,37.2,43.2z"/>
<g>
	<path style="fill:#BFBFFF;" d="M52,25.3l-9.5-9.5c-0.2-0.2-0.4-0.2-0.6,0L39.7,18c-0.2,0.2-0.2,0.4,0,0.6l9.5,9.5
		c0.8,0.7,2.1,0.7,2.8-0.1C52.7,27.2,52.7,26.1,52,25.3z"/>
	<path style="fill:#8080FF;" d="M35.8,25.2h-5.3c-0.7,0-1.3,0.6-1.3,1.3v1.8c0,0.2,0.2,0.4,0.4,0.4l0,0h7.1c0.2,0,0.4-0.2,0.4-0.4
		l0,0v-1.8C37.1,25.8,36.6,25.2,35.8,25.2z"/>
	<path style="fill:#8080FF;" d="M44.1,14.3l-4.4-4.4c-0.2-0.2-0.4-0.2-0.6,0l-5.3,5.3c-0.2,0.2-0.2,0.4,0,0.6l4.4,4.4
		c0.2,0.2,0.4,0.2,0.6,0l5.3-5.3C44.2,14.7,44.2,14.5,44.1,14.3z"/>
	<path style="fill:#0000FF;" d="M28.3,27.8H38c0.2,0,0.4,0.2,0.4,0.4l0,0v2.6c0,0.2-0.2,0.4-0.4,0.4l0,0h-9.7
		c-0.2,0-0.4-0.2-0.4-0.4l0,0v-2.6C27.9,28,28.1,27.8,28.3,27.8L28.3,27.8z"/>
	<path style="fill:#0000FF;" d="M47.6,12.5L41,5.9c-0.2-0.2-0.4-0.2-0.6,0l-2.6,2.6c-0.2,0.2-0.2,0.4,0,0.6l6.6,6.6
		c0.2,0.2,0.4,0.2,0.6,0l2.6-2.7C47.8,13,47.8,12.7,47.6,12.5z"/>
	<path style="fill:#0000FF;" d="M33,13.8c-0.2-0.2-0.4-0.2-0.6,0l-2.6,2.6c-0.2,0.2-0.2,0.4,0,0.6l6.6,6.6c0.2,0.2,0.4,0.2,0.6,0
		l2.6-2.6c0.2-0.2,0.2-0.4,0-0.6L33,13.8z"/>
</g>
</svg>
