<?xml version="1.0" encoding="utf-8"?>
<!-- Generator: Adobe Illustrator 25.4.1, SVG Export Plug-In . SVG Version: 6.00 Build 0)  -->
<svg version="1.1" id="Layer_1" xmlns="http://www.w3.org/2000/svg" xmlns:xlink="http://www.w3.org/1999/xlink" x="0px" y="0px"
	 viewBox="0 0 60 60" style="enable-background:new 0 0 60 60;" xml:space="preserve">
<path style="fill:#0000FF;" d="M50,14.2v41.2c0,0.9-0.7,1.6-1.5,1.6l0,0H10.6C9.7,57,9,56.3,9,55.5l0,0V4.7c0-0.9,0.7-1.6,1.5-1.6
	l0,0h25.3L39,8.6l3.2,2.3L50,14.2z"/>
<path style="fill:#8080FF;" d="M49.4,12.9L36.8,3.5c-0.3-0.2-0.6-0.3-0.9-0.3v9.5c0,0.9,0.7,1.6,1.6,1.6l0,0H50
	C50,13.7,49.8,13.2,49.4,12.9z"/>
<path style="fill:#BFBFFF;" d="M29.5,47.3c-7.8,0-14.2-6.3-14.2-14.2c0-7.8,6.3-14.2,14.2-14.2c7.8,0,14.2,6.3,14.2,14.2l0,0
	C43.7,40.9,37.4,47.3,29.5,47.3z"/>
<g>
	<path style="fill:#0000FF;" d="M39.3,36.7l-7.5-7.5c-0.1-0.1-0.3-0.1-0.5,0L29.6,31c-0.1,0.1-0.1,0.3,0,0.5l7.5,7.5
		c0.6,0.6,1.6,0.5,2.2-0.1C39.9,38.2,39.9,37.3,39.3,36.7z"/>
	<path style="fill:#8080FF;" d="M26.6,36.6h-4.2c-0.6,0-1,0.5-1,1V39c0,0.2,0.2,0.3,0.3,0.3l0,0h5.6c0.2,0,0.3-0.2,0.3-0.3l0,0v-1.4
		C27.6,37.1,27.1,36.6,26.6,36.6z"/>
	<path style="fill:#8080FF;" d="M33.1,28l-3.5-3.5c-0.1-0.1-0.3-0.1-0.5,0l-4.2,4.2c-0.1,0.1-0.1,0.3,0,0.5l3.5,3.5
		c0.1,0.1,0.3,0.1,0.5,0l4.2-4.2C33.2,28.4,33.2,28.1,33.1,28z"/>
	<path style="fill:#0000FF;" d="M20.6,38.7h7.7c0.2,0,0.3,0.2,0.3,0.3l0,0v2.1c0,0.2-0.2,0.3-0.3,0.3l0,0h-7.7
		c-0.2,0-0.3-0.2-0.3-0.3l0,0V39C20.3,38.9,20.4,38.7,20.6,38.7L20.6,38.7z"/>
	<path style="fill:#0000FF;" d="M35.8,26.6l-5.2-5.2c-0.1-0.1-0.3-0.1-0.5,0L28,23.5c-0.1,0.1-0.1,0.3,0,0.5l5.2,5.2
		c0.1,0.1,0.3,0.1,0.5,0l2.1-2.1C36,27,36,26.7,35.8,26.6z"/>
	<path style="fill:#0000FF;" d="M24.3,27.7c-0.1-0.1-0.3-0.1-0.5,0l-2.1,2.1c-0.1,0.1-0.1,0.3,0,0.5l5.2,5.2c0.1,0.1,0.3,0.1,0.5,0
		l2.1-2.1c0.1-0.1,0.1-0.3,0-0.5L24.3,27.7z"/>
</g>
</svg>
