<svg id="Layer_1" data-name="Layer 1" xmlns="http://www.w3.org/2000/svg" viewBox="0 0 60 60"><defs><style>.cls-1{fill:#fff4f4;}.cls-2{fill:#f6efea;}.cls-3{fill:blue;}.cls-4{fill:#8080ff;}.cls-5{fill:#4040ff;}.cls-6,.cls-7{fill:#bfbfff;}.cls-6{fill-rule:evenodd;}</style></defs><title>work-from-home049-document</title><rect class="cls-1" x="11.48" y="14.9" width="37.11" height="29.07"/><rect class="cls-2" x="30.04" y="14.9" width="18.56" height="29.07"/><path class="cls-3" d="M48.6,45.31H11.48A1.34,1.34,0,0,1,10.14,44V14.9a1.34,1.34,0,0,1,1.34-1.35H48.6a1.34,1.34,0,0,1,1.34,1.35V44a1.34,1.34,0,0,1-1.34,1.35ZM12.83,42.62H47.25V16.24H12.83Zm0,0"/><path class="cls-3" d="M48.6,13.55H30v2.69H47.25V42.62H30v2.69H48.6A1.34,1.34,0,0,0,49.94,44V14.9a1.34,1.34,0,0,0-1.34-1.35Zm0,0"/><path class="cls-4" d="M43,45.31H16.86A1.34,1.34,0,0,1,15.52,44V10.34A1.34,1.34,0,0,1,16.86,9H37.21l7.17,7.18V44A1.34,1.34,0,0,1,43,45.31Zm0,0"/><path class="cls-5" d="M45.46,51.58H14.62A7.62,7.62,0,0,1,7,44a1.34,1.34,0,0,1,1.34-1.34h43.4A1.34,1.34,0,0,1,53.08,44a7.62,7.62,0,0,1-7.62,7.62Zm0,0"/><path class="cls-6" d="M37.21,9v5.83a1.34,1.34,0,0,0,1.35,1.34h5.82Zm0,0"/><path class="cls-7" d="M30.49,17.07H22.24a1.35,1.35,0,0,1,0-2.69h8.25a1.35,1.35,0,0,1,0,2.69Zm0,0"/><path class="cls-7" d="M30.49,22.45H22.24a1.35,1.35,0,0,1,0-2.69h8.25a1.35,1.35,0,0,1,0,2.69Zm0,0"/><path class="cls-7" d="M37.66,29.17H22.24a1.35,1.35,0,0,1,0-2.69H37.66a1.35,1.35,0,1,1,0,2.69Zm0,0"/><path class="cls-7" d="M37.66,34.55H22.24a1.35,1.35,0,0,1,0-2.69H37.66a1.35,1.35,0,1,1,0,2.69Zm0,0"/><path class="cls-7" d="M37.66,39.93H22.24a1.35,1.35,0,0,1,0-2.69H37.66a1.35,1.35,0,1,1,0,2.69Zm0,0"/><path class="cls-4" d="M44.38,16.18,37.21,9H43a1.34,1.34,0,0,1,1.34,1.34Zm0,0"/></svg>