<?xml version="1.0" encoding="utf-8"?>
<!-- Generator: Adobe Illustrator 25.4.1, SVG Export Plug-In . SVG Version: 6.00 Build 0)  -->
<svg version="1.1" id="Layer_1" xmlns="http://www.w3.org/2000/svg" xmlns:xlink="http://www.w3.org/1999/xlink" x="0px" y="0px"
	 viewBox="0 0 60 60" style="enable-background:new 0 0 60 60;" xml:space="preserve">
<g>
	<path style="fill:#0000FF;" d="M47.5,16.5v35.3c0,0.7-0.6,1.3-1.3,1.3c0,0,0,0,0,0H13.8c-0.7,0-1.3-0.6-1.4-1.3c0,0,0,0,0,0V8.4
		C12.4,7.6,13,7,13.8,7c0,0,0,0,0,0h21.7l2.7,4.7l2.7,2L47.5,16.5z"/>
	<path style="fill:#8080FF;" d="M47,15.4L36.2,7.3C36,7.1,35.7,7,35.4,7v8.1c0,0.7,0.6,1.3,1.3,1.4c0,0,0,0,0,0h10.8
		C47.6,16,47.4,15.6,47,15.4z"/>
</g>
<g>
	<path style="fill:#4040FF;" d="M43.4,41.2L37,34.7c-0.1-0.1-0.3-0.2-0.5-0.2h-0.1c-0.4,0-0.7,0.3-0.7,0.7c0,0,0,0,0,0v1.2l-2,0.6
		c-0.1,0-0.3,0.1-0.4,0.3l-0.9,1.2c-0.2,0.3-0.2,0.7,0.1,0.9l6.3,6.3c0.2,0.3,0.7,0.4,1,0.2c0.3-0.2,0.4-0.5,0.3-0.7v-2.9H43
		c0.4,0,0.7-0.3,0.7-0.7C43.7,41.5,43.6,41.3,43.4,41.2L43.4,41.2z"/>
	<path style="fill:#4040FF;" d="M27.5,38.6l-0.9-1.2c-0.1-0.1-0.2-0.2-0.4-0.3l-2-0.6v-1.2c0-0.4-0.3-0.7-0.7-0.7l0,0h-0.1
		c-0.2,0-0.4,0.1-0.5,0.2l-6.5,6.5c-0.3,0.3-0.3,0.7,0,1c0.1,0.1,0.3,0.2,0.5,0.2h2.9v2.9c0,0.4,0.3,0.7,0.7,0.7
		c0.2,0,0.4-0.1,0.5-0.2l6.3-6.3C27.7,39.3,27.7,38.9,27.5,38.6z"/>
	<path style="fill:#8080FF;" d="M38.5,31.9L37.1,30v-2.3c0-0.3-0.2-0.6-0.5-0.7l-2.2-0.7L33,24.4c-0.2-0.2-0.5-0.3-0.8-0.2L30,24.9
		l-2.2-0.7c-0.3-0.1-0.6,0-0.8,0.3l-1.4,1.9L23.4,27c-0.3,0.1-0.5,0.4-0.5,0.7V30l-1.4,1.9c-0.2,0.2-0.2,0.6,0,0.8l1.4,1.9V37
		c0,0.3,0.2,0.6,0.5,0.7l2.2,0.7l1.4,1.9c0.2,0.2,0.5,0.4,0.8,0.3l2.2-0.7l2.2,0.7c0.1,0,0.2,0,0.2,0c0.2,0,0.4-0.1,0.6-0.3l1.4-1.9
		l2.2-0.7c0.3-0.1,0.5-0.4,0.5-0.7v-2.3l1.4-1.9C38.7,32.5,38.7,32.2,38.5,31.9z"/>
	<path style="fill:#4040FF;" d="M34.3,32.3c0,2.4-1.9,4.3-4.3,4.3s-4.3-1.9-4.3-4.3c0-2.4,1.9-4.3,4.3-4.3l0,0
		C32.4,28,34.3,29.9,34.3,32.3C34.3,32.3,34.3,32.3,34.3,32.3z"/>
</g>
</svg>
