<svg id="Layer_1" data-name="Layer 1" xmlns="http://www.w3.org/2000/svg" viewBox="0 0 60 60"><defs><style>.cls-1{fill:#bfbfff;}.cls-2{fill:blue;}.cls-3{fill:#8080ff;}</style></defs><title>ecommerce027-world</title><path class="cls-1" d="M53.07,30A23,23,0,1,1,30,7a23,23,0,0,1,23,23Zm0,0"/><path class="cls-1" d="M53.07,30a23,23,0,0,1-23,23V7a23,23,0,0,1,23,23Zm0,0"/><path class="cls-2" d="M46.33,13.75a23,23,0,1,0,0,32.58,23,23,0,0,0,0-32.58Zm2.15,7.71H41a45.84,45.84,0,0,0-2.33-9.85,20.5,20.5,0,0,1,9.85,9.85Zm-27-9.85a45.84,45.84,0,0,0-2.33,9.85H11.61a20.43,20.43,0,0,1,9.84-9.85ZM35.17,49.72a20.42,20.42,0,0,1-3.78.61V38.62h6.84a38.42,38.42,0,0,1-3.06,11.1Zm3.46-1.25A45.84,45.84,0,0,0,41,38.62h7.52a20.5,20.5,0,0,1-9.85,9.85ZM31.39,35.92V26.43a1.35,1.35,0,0,0-2.7,0v9.49H23.53a1.35,1.35,0,1,0,0,2.7h5.16V50.33a20.42,20.42,0,0,1-3.78-.61,36,36,0,0,1-2.76-9.18,1.35,1.35,0,1,0-2.66.46,43.34,43.34,0,0,0,2,7.47,20.43,20.43,0,0,1-9.84-9.85h4.7a1.35,1.35,0,1,0,0-2.7H10.57a20.39,20.39,0,0,1,0-11.76h8.26a68,68,0,0,0-.16,9.57,1.35,1.35,0,1,0,2.7-.15,64.64,64.64,0,0,1,.17-9.42h4.89a1.35,1.35,0,0,0,0-2.7H21.85a38.42,38.42,0,0,1,3.06-11.1,20.42,20.42,0,0,1,3.78-.61V19.2a1.35,1.35,0,0,0,2.7,0V9.75a20.42,20.42,0,0,1,3.78.61,38.42,38.42,0,0,1,3.06,11.1H33.65a1.35,1.35,0,0,0,0,2.7h4.89c.18,1.92.27,3.89.27,5.88a1.35,1.35,0,0,0,2.7,0c0-2-.09-4-.26-5.88h8.26a20.39,20.39,0,0,1,0,11.76Zm0,0"/><path class="cls-3" d="M19.92,32.3a5,5,0,1,0,5,5,5,5,0,0,0-5-5Zm0,0"/><path class="cls-3" d="M35,22.81a5,5,0,1,1-5-5,5,5,0,0,1,5,5Zm0,0"/><path class="cls-3" d="M40.16,28.69a5,5,0,1,0,5,5,5,5,0,0,0-5-5Zm0,0"/></svg>