<svg id="Layer_1" data-name="Layer 1" xmlns="http://www.w3.org/2000/svg" viewBox="0 0 60 60"><defs><style>.cls-1{fill:blue;}.cls-2{fill:#bfbfff;}.cls-3{fill:#8080ff;}.cls-4{fill:#376cfb;}.cls-5{fill:#4040ff;}</style></defs><title>business-strategy009-checklist</title><path class="cls-1" d="M39.68,10.88H33.92a.72.72,0,0,0-.72.72v3.6h-18V11.6a.72.72,0,0,0-.72-.72H8.72A.72.72,0,0,0,8,11.6V51.92a.72.72,0,0,0,.72.72h31a.72.72,0,0,0,.72-.72V11.6a.72.72,0,0,0-.72-.72Zm0,0"/><path class="cls-2" d="M37.52,44V14.48a.72.72,0,0,0-.72-.72H33.92a.72.72,0,0,0-.72.72v.72h-18v-.72a.72.72,0,0,0-.72-.72H11.6a.72.72,0,0,0-.72.72V49.76a.72.72,0,0,0,.72.72H31Zm0,0"/><path class="cls-2" d="M52.64,15.2V47.6a5,5,0,0,1-10.08,0V15.2a.72.72,0,0,1,.12-.4L47,8.32a.75.75,0,0,1,1.2,0l4.32,6.48a.72.72,0,0,1,.12.4Zm0,0"/><path class="cls-3" d="M33.92,22.4H23.84a.72.72,0,1,1,0-1.44H33.92a.72.72,0,0,1,0,1.44Zm0,0"/><path class="cls-3" d="M28.16,25.28H23.84a.72.72,0,0,1,0-1.44h4.32a.72.72,0,0,1,0,1.44Zm0,0"/><path class="cls-3" d="M33.92,31H23.84a.72.72,0,1,1,0-1.44H33.92a.72.72,0,0,1,0,1.44Zm0,0"/><path class="cls-3" d="M28.16,33.92H23.84a.72.72,0,0,1,0-1.44h4.32a.72.72,0,0,1,0,1.44Zm0,0"/><path class="cls-3" d="M49.52,46.88a.72.72,0,0,1-.72-.72v-31a.72.72,0,1,1,1.44,0v31a.72.72,0,0,1-.72.72Zm0,0"/><path class="cls-3" d="M45.68,46.88a.72.72,0,0,1-.72-.72v-31a.72.72,0,1,1,1.44,0v31a.72.72,0,0,1-.72.72Zm0,0"/><path class="cls-3" d="M33.92,10.88H30.77L29.52,8.4a.71.71,0,0,0-.64-.4H20.24a.71.71,0,0,0-.64.4l-1.25,2.48H14.48a.72.72,0,0,0-.72.72v4.32a.72.72,0,0,0,.72.72H33.92a.72.72,0,0,0,.72-.72V11.6a.72.72,0,0,0-.72-.72Zm0,0"/><path class="cls-3" d="M33.92,39.68H23.84a.72.72,0,1,1,0-1.44H33.92a.72.72,0,0,1,0,1.44Zm0,0"/><path class="cls-3" d="M28.16,42.56H23.84a.72.72,0,0,1,0-1.44h4.32a.72.72,0,1,1,0,1.44Zm0,0"/><path class="cls-3" d="M14.48,19.52h5.76a.72.72,0,0,1,.72.72V26a.72.72,0,0,1-.72.72H14.48a.72.72,0,0,1-.72-.72V20.24a.72.72,0,0,1,.72-.72Zm0,0"/><path class="cls-4" d="M18.08,24.56a.75.75,0,0,1-.51-.21l-1.44-1.44a.72.72,0,0,1,1-1l.93.93,3.09-3.09a.72.72,0,0,1,1,1l-3.6,3.6a.75.75,0,0,1-.51.21Zm0,0"/><path class="cls-3" d="M14.48,28.16h5.76a.72.72,0,0,1,.72.72v5.76a.72.72,0,0,1-.72.72H14.48a.72.72,0,0,1-.72-.72V28.88a.72.72,0,0,1,.72-.72Zm0,0"/><path class="cls-3" d="M14.48,36.8h5.76a.72.72,0,0,1,.72.72v5.76a.72.72,0,0,1-.72.72H14.48a.72.72,0,0,1-.72-.72V37.52a.72.72,0,0,1,.72-.72Zm0,0"/><path class="cls-5" d="M31,50.48V44h6.48Zm0,0"/><path class="cls-5" d="M52.64,46.16V47.6a5,5,0,0,1-10.08,0V46.16Zm0,0"/></svg>