<?xml version="1.0" encoding="utf-8"?>
<!-- Generator: Adobe Illustrator 25.2.0, SVG Export Plug-In . SVG Version: 6.00 Build 0)  -->
<svg version="1.1" id="Layer_1" xmlns="http://www.w3.org/2000/svg" xmlns:xlink="http://www.w3.org/1999/xlink" x="0px" y="0px"
	 viewBox="0 0 60 60" style="enable-background:new 0 0 60 60;" xml:space="preserve">
<path style="fill:#0000FF;" d="M35.27,11.05V49c0,2.21-1.79,4-4,4c-0.02,0-0.03,0-0.05,0h-19c-2.21,0.02-4.02-1.75-4.04-3.96
	c0-0.01,0-0.03,0-0.04V11c0-2.21,1.79-4,4-4c0.02,0,0.03,0,0.05,0h18.95c2.21-0.03,4.02,1.74,4.05,3.95c0,0.03,0,0.07,0,0.1H35.27z"
	/>
<path style="fill:#BFBFFF;" d="M32.57,11.05V49c0.03,0.73-0.54,1.35-1.28,1.38c-0.04,0-0.07,0-0.11,0h-19
	c-0.73-0.02-1.32-0.62-1.3-1.36c0-0.01,0-0.01,0-0.02V11c0.02-0.73,0.62-1.31,1.35-1.3h18.95c0.73-0.01,1.34,0.58,1.35,1.31
	c0,0.01,0,0.03,0,0.04H32.57z"/>
<path style="fill:#FFFFFF;" d="M23.12,13.75c0,0.75-0.6,1.35-1.35,1.35s-1.35-0.6-1.35-1.35c0-0.75,0.6-1.35,1.35-1.35
	c0.74-0.01,1.34,0.59,1.35,1.33C23.12,13.74,23.12,13.74,23.12,13.75z"/>
<path style="fill:#FFFFFF;" d="M24.47,46.33c0.01,0.73-0.58,1.34-1.31,1.35c-0.01,0-0.03,0-0.04,0h-2.7c-0.75,0-1.35-0.6-1.35-1.35
	c0-0.75,0.6-1.35,1.35-1.35h2.7c0.73-0.01,1.34,0.58,1.35,1.31C24.48,46.3,24.48,46.32,24.47,46.33z"/>
<g>
	<path style="fill:#FFFFFF;" d="M27.38,35.13c-0.01-0.26-0.22-0.48-0.49-0.47h-2.28c-1.01,0-1.83-0.82-1.83-1.83v-5.71
		c0.04-0.84-0.61-1.56-1.45-1.6c-0.84-0.04-1.56,0.61-1.6,1.45c0,0.05,0,0.1,0,0.15v8.01c0,0.27,0.22,0.49,0.49,0.49
		c0.27,0,0.49-0.22,0.49-0.49v-8.01c-0.05-0.3,0.15-0.58,0.45-0.63c0.3-0.05,0.58,0.15,0.63,0.45c0.01,0.06,0.01,0.12,0,0.18v5.69
		c0,1.55,1.26,2.81,2.81,2.81h2.28c0.27,0,0.49-0.22,0.49-0.49H27.38z"/>
	<path style="fill:#FFFFFF;" d="M23.68,27.08v5.64c0,0.57,0.46,1.03,1.03,1.03h2.17c0.27,0,0.49-0.22,0.49-0.49
		c0-0.27-0.22-0.49-0.49-0.49h-2.17c-0.03,0-0.06-0.03-0.06-0.06v-5.64c0-1.88-1.52-3.4-3.4-3.4c-1.88,0-3.4,1.52-3.4,3.4l0,0v8.05
		c0,0.27,0.22,0.49,0.49,0.49c0.27,0,0.49-0.22,0.49-0.49v-8.05c0-1.34,1.08-2.42,2.42-2.42C22.6,24.65,23.68,25.74,23.68,27.08
		C23.68,27.07,23.68,27.07,23.68,27.08z"/>
	<path style="fill:#FFFFFF;" d="M16.08,29.69c0,0.27,0.22,0.49,0.49,0.49s0.49-0.22,0.49-0.49v-2.75c0-2.33,1.89-4.22,4.22-4.22
		c2.33,0,4.22,1.89,4.22,4.22c0,0,0,0,0,0v4.23c0,0.27,0.22,0.49,0.49,0.49c0.27,0,0.49-0.22,0.49-0.49v-4.23
		c0-2.87-2.32-5.19-5.19-5.19s-5.19,2.32-5.19,5.19c0,0,0,0,0,0L16.08,29.69z"/>
	<path style="fill:#FFFFFF;" d="M16.56,31.4c-0.27,0-0.49,0.21-0.49,0.48c0,0,0,0,0,0.01v3.26c0,0.27,0.22,0.49,0.49,0.49
		c0.27,0,0.49-0.22,0.49-0.49v-3.26C17.05,31.62,16.83,31.4,16.56,31.4z"/>
</g>
<g>
	<path style="fill:#4040FF;" d="M51.81,23.29V26l-2.7,1.35H24.73L22.02,26v-2.7l2.71-1.36h24.38L51.81,23.29z"/>
	<path style="fill:#8080FF;" d="M51.81,26v12.14c0.01,0.73-0.58,1.34-1.31,1.35c-0.01,0-0.03,0-0.04,0H23.37
		c-0.73,0.01-1.34-0.58-1.35-1.31c0-0.01,0-0.03,0-0.04V26H51.81z"/>
	<path style="fill:#8080FF;" d="M51.81,19.24v4.05H22.02v-4.05c-0.01-0.73,0.58-1.34,1.31-1.35c0.01,0,0.03,0,0.04,0h27.09
		c0.73-0.01,1.34,0.58,1.35,1.31C51.82,19.21,51.82,19.23,51.81,19.24z"/>
	<path style="fill:#4040FF;" d="M48.34,33.01h-2.7c-0.75,0-1.35-0.6-1.35-1.35c0-0.75,0.6-1.35,1.35-1.35h2.7
		c0.75,0,1.35,0.6,1.35,1.35C49.69,32.41,49.09,33.01,48.34,33.01z"/>
	<path style="fill:#4040FF;" d="M41.63,33.01h-2.7c-0.75,0-1.35-0.6-1.35-1.35c0-0.75,0.6-1.35,1.35-1.35h2.7
		c0.75,0,1.35,0.6,1.35,1.35C42.98,32.41,42.37,33.01,41.63,33.01z"/>
	<path style="fill:#4040FF;" d="M34.91,33.01h-2.7c-0.75,0-1.35-0.6-1.35-1.35c0-0.75,0.6-1.35,1.35-1.35h2.7
		c0.75,0,1.35,0.6,1.35,1.35C36.26,32.41,35.66,33.01,34.91,33.01z"/>
</g>
<path style="fill:#4040FF;" d="M28.2,33.01h-2.7c-0.75,0-1.35-0.6-1.35-1.35c0-0.75,0.6-1.35,1.35-1.35h2.7
	c0.75,0,1.35,0.6,1.35,1.35C29.55,32.41,28.95,33.01,28.2,33.01z"/>
</svg>
