<svg id="Layer_1" data-name="Layer 1" xmlns="http://www.w3.org/2000/svg" viewBox="0 0 60 60"><defs><style>.cls-1{fill:#bfbfff;}.cls-2{fill:blue;}.cls-3{fill:#8080ff;}.cls-4{fill:#edf5ff;}.cls-5{fill:#fff;}</style></defs><title>communication-and-media042-fax</title><path class="cls-1" d="M46.24,20.59H30a1.34,1.34,0,0,1-1.35-1.35V8.35A1.34,1.34,0,0,1,30,7h16.2a1.34,1.34,0,0,1,1.35,1.35V19.24a1.34,1.34,0,0,1-1.35,1.35Zm0,0"/><path class="cls-2" d="M51.73,17.89H24.64a1.34,1.34,0,0,0-1.35,1.35V46.33a4.05,4.05,0,0,1-8.1,0V19.24a1.34,1.34,0,0,0-1.35-1.35H8.35A1.34,1.34,0,0,0,7,19.24V51.73a1.34,1.34,0,0,0,1.35,1.35H51.73a1.34,1.34,0,0,0,1.35-1.35V19.24a1.34,1.34,0,0,0-1.35-1.35Zm0,0"/><path class="cls-3" d="M19.24,53.08a6.76,6.76,0,0,1-6.75-6.75V19.24a6.75,6.75,0,0,1,13.5,0V46.33a6.76,6.76,0,0,1-6.75,6.75Zm0,0"/><path class="cls-4" d="M40.84,15.19h-5.4a1.35,1.35,0,0,1,0-2.7h5.4a1.35,1.35,0,1,1,0,2.7Zm0,0"/><path class="cls-1" d="M46.24,31.48H30a1.34,1.34,0,0,1-1.35-1.35V24.64A1.34,1.34,0,0,1,30,23.29h16.2a1.34,1.34,0,0,1,1.35,1.35v5.49a1.34,1.34,0,0,1-1.35,1.35Zm0,0"/><path class="cls-5" d="M34.09,35.53a1.35,1.35,0,1,1-1.35-1.35,1.34,1.34,0,0,1,1.35,1.35Zm0,0"/><path class="cls-5" d="M39.49,35.53a1.35,1.35,0,1,1-1.35-1.35,1.34,1.34,0,0,1,1.35,1.35Zm0,0"/><path class="cls-5" d="M44.89,35.53a1.35,1.35,0,1,1-1.35-1.35,1.34,1.34,0,0,1,1.35,1.35Zm0,0"/><path class="cls-5" d="M34.09,40.93a1.35,1.35,0,1,1-1.35-1.35,1.34,1.34,0,0,1,1.35,1.35Zm0,0"/><path class="cls-5" d="M39.49,40.93a1.35,1.35,0,1,1-1.35-1.35,1.34,1.34,0,0,1,1.35,1.35Zm0,0"/><path class="cls-5" d="M44.89,40.93a1.35,1.35,0,1,1-1.35-1.35,1.34,1.34,0,0,1,1.35,1.35Zm0,0"/><path class="cls-5" d="M34.09,46.33A1.35,1.35,0,1,1,32.74,45a1.34,1.34,0,0,1,1.35,1.35Zm0,0"/><path class="cls-5" d="M39.49,46.33A1.35,1.35,0,1,1,38.14,45a1.34,1.34,0,0,1,1.35,1.35Zm0,0"/><path class="cls-5" d="M44.89,46.33A1.35,1.35,0,1,1,43.54,45a1.34,1.34,0,0,1,1.35,1.35Zm0,0"/><path class="cls-5" d="M40.84,15.19h-5.4a1.35,1.35,0,0,1,0-2.7h5.4a1.35,1.35,0,1,1,0,2.7Zm0,0"/></svg>