<svg id="Layer_1" data-name="Layer 1" xmlns="http://www.w3.org/2000/svg" viewBox="0 0 60 60"><defs><style>.cls-1{fill:blue;}.cls-2{fill:#bfbfff;}.cls-3{fill:#8080ff;}.cls-4{fill:#4040ff;}</style></defs><title>work-from-home026-working-at home</title><path class="cls-1" d="M36.88,8.35V51.73a1.33,1.33,0,0,1-1.35,1.35H26l-2.7-2.7h-2.7l-2.7,2.7H8.35A1.33,1.33,0,0,1,7,51.73V8.35A1.33,1.33,0,0,1,8.35,7H35.53a1.33,1.33,0,0,1,1.35,1.35Zm0,0"/><path class="cls-2" d="M30.13,20.59H24.64a1.34,1.34,0,0,1-1.35-1.35V13.75a1.34,1.34,0,0,1,1.35-1.35h5.49a1.34,1.34,0,0,1,1.35,1.35v5.49a1.34,1.34,0,0,1-1.35,1.35Zm0,0"/><path class="cls-2" d="M19.24,31.39h-5.4A1.34,1.34,0,0,1,12.49,30v-5.4a1.34,1.34,0,0,1,1.35-1.35h5.4a1.34,1.34,0,0,1,1.35,1.35V30a1.34,1.34,0,0,1-1.35,1.35Zm0,0"/><path class="cls-2" d="M19.24,42.19h-5.4a1.34,1.34,0,0,1-1.35-1.35v-5.4a1.34,1.34,0,0,1,1.35-1.35h5.4a1.34,1.34,0,0,1,1.35,1.35v5.4a1.34,1.34,0,0,1-1.35,1.35Zm0,0"/><path class="cls-2" d="M30.13,42.19H24.64a1.34,1.34,0,0,1-1.35-1.35v-5.4a1.34,1.34,0,0,1,1.35-1.35h5.49a1.34,1.34,0,0,1,1.35,1.35v5.4a1.34,1.34,0,0,1-1.35,1.35Zm0,0"/><path class="cls-2" d="M19.24,20.59h-5.4a1.34,1.34,0,0,1-1.35-1.35V13.75a1.34,1.34,0,0,1,1.35-1.35h5.4a1.34,1.34,0,0,1,1.35,1.35v5.49a1.34,1.34,0,0,1-1.35,1.35Zm0,0"/><path class="cls-3" d="M40.93,7A12.24,12.24,0,0,0,28.78,19.24v4.84l-5.09,5a1.34,1.34,0,0,0-.3,1.47,1.35,1.35,0,0,0,1.25.83h6.19a12.15,12.15,0,0,0,22.25-6.75v-5.4A12.24,12.24,0,0,0,40.93,7Zm0,0"/><path class="cls-2" d="M40.93,12.4a4.14,4.14,0,0,0-4,4.14,4,4,0,0,0,8.1,0,4.14,4.14,0,0,0-4-4.14Zm0,0"/><path class="cls-4" d="M40.93,20.59a6.76,6.76,0,0,0-6.75,6.75,1.34,1.34,0,0,0,1.35,1.35h10.8a1.34,1.34,0,0,0,1.35-1.35,6.76,6.76,0,0,0-6.75-6.75Zm0,0"/><path class="cls-2" d="M26,46.24v6.84h-8.1V46.24a1.33,1.33,0,0,1,1.35-1.35h5.4A1.33,1.33,0,0,1,26,46.24Zm0,0"/></svg>