<svg id="Layer_1" data-name="Layer 1" xmlns="http://www.w3.org/2000/svg" viewBox="0 0 60 60"><defs><style>.cls-1{fill:#8080ff;}.cls-2{fill:#2486fc;}.cls-3{fill:#4040ff;}.cls-4{fill:blue;}.cls-5{fill:#bfbfff;}</style></defs><title>ecommerce014-telephone</title><path class="cls-1" d="M24.56,35.2V46.72a3.6,3.6,0,0,1-3.6,3.6H11.6A3.6,3.6,0,0,1,8,46.72V35.2A2.16,2.16,0,0,1,10.16,33H11.6v1.44H10.16a.72.72,0,0,0-.72.72V46.72a2.16,2.16,0,0,0,2.16,2.16H21a2.16,2.16,0,0,0,2.16-2.16V35.2a.72.72,0,1,1,1.44,0Zm0,0"/><rect class="cls-2" x="11.6" y="33.04" width="1.44" height="1.44"/><path class="cls-3" d="M12.32,30.88H15.2a.72.72,0,0,1,.72.72v4.32a.72.72,0,0,1-.72.72H12.32a.72.72,0,0,1-.72-.72V31.6a.72.72,0,0,1,.72-.72Zm0,0"/><path class="cls-4" d="M51.2,15V42.4a.72.72,0,0,1-.72.72H15.2a.72.72,0,0,1-.72-.72V15a.72.72,0,0,1,.72-.72h3.6a.72.72,0,0,1,.72.72V30.88a.72.72,0,0,0,.72.72h7.2a.72.72,0,0,0,.72-.72V15a.72.72,0,0,1,.72-.72h21.6a.72.72,0,0,1,.72.72Zm0,0"/><path class="cls-5" d="M33.2,17.2H47.6a.72.72,0,0,1,.72.72v5.76a.72.72,0,0,1-.72.72H33.2a.72.72,0,0,1-.72-.72V17.92a.72.72,0,0,1,.72-.72Zm0,0"/><path class="cls-5" d="M36.8,28a2.16,2.16,0,1,1-2.16-2.16A2.16,2.16,0,0,1,36.8,28Zm0,0"/><path class="cls-5" d="M42.56,28a2.16,2.16,0,1,1-2.16-2.16A2.16,2.16,0,0,1,42.56,28Zm0,0"/><path class="cls-5" d="M48.32,28a2.16,2.16,0,1,1-2.16-2.16A2.16,2.16,0,0,1,48.32,28Zm0,0"/><path class="cls-5" d="M36.8,33a2.16,2.16,0,1,1-2.16-2.16A2.16,2.16,0,0,1,36.8,33Zm0,0"/><path class="cls-5" d="M42.56,33a2.16,2.16,0,1,1-2.16-2.16A2.16,2.16,0,0,1,42.56,33Zm0,0"/><path class="cls-5" d="M48.32,33a2.16,2.16,0,1,1-2.16-2.16A2.16,2.16,0,0,1,48.32,33Zm0,0"/><path class="cls-5" d="M36.8,38.08a2.16,2.16,0,1,1-2.16-2.16,2.16,2.16,0,0,1,2.16,2.16Zm0,0"/><path class="cls-5" d="M42.56,38.08a2.16,2.16,0,1,1-2.16-2.16,2.16,2.16,0,0,1,2.16,2.16Zm0,0"/><path class="cls-5" d="M48.32,38.08a2.16,2.16,0,1,1-2.16-2.16,2.16,2.16,0,0,1,2.16,2.16Zm0,0"/><rect class="cls-3" x="33.92" y="18.64" width="1.44" height="4.32"/><rect class="cls-3" x="36.08" y="18.64" width="1.44" height="4.32"/><path class="cls-1" d="M24.56,35.2v7.92H23.12V35.2a.72.72,0,1,1,1.44,0Zm0,0"/><path class="cls-3" d="M26.72,32.32V35.2a.73.73,0,0,1-.45.67.86.86,0,0,1-.27.05H21.68A.72.72,0,0,1,21,35.2V32.32a.72.72,0,0,1,.72-.72H26a.72.72,0,0,1,.72.72Zm0,0"/><path class="cls-1" d="M20.24,10h7.2a2.15,2.15,0,0,1,2.16,2.16V30.88A2.15,2.15,0,0,1,27.44,33h-7.2a2.15,2.15,0,0,1-2.16-2.16V12.16A2.15,2.15,0,0,1,20.24,10Zm0,0"/></svg>