<?xml version="1.0" encoding="utf-8"?>
<!-- Generator: Adobe Illustrator 25.4.1, SVG Export Plug-In . SVG Version: 6.00 Build 0)  -->
<svg version="1.1" id="Layer_1" xmlns="http://www.w3.org/2000/svg" xmlns:xlink="http://www.w3.org/1999/xlink" x="0px" y="0px"
	 viewBox="0 0 60 60" style="enable-background:new 0 0 60 60;" xml:space="preserve">
<path style="fill:#BFBFFF;" d="M41.6,30.8H30.7v-3.4c0-0.4-0.3-0.7-0.7-0.7s-0.7,0.3-0.7,0.7v3.4H18.4c-1.9,0-3.4,1.5-3.4,3.4v2.1
	c0,0.4,0.3,0.7,0.7,0.7s0.7-0.3,0.7-0.7v-2.1c0-1.1,0.9-2.1,2.1-2.1h10.9v4.1c0,0.4,0.3,0.7,0.7,0.7s0.7-0.3,0.7-0.7v-4.1h10.9
	c1.1,0,2.1,0.9,2.1,2.1v2.1c0,0.4,0.3,0.7,0.7,0.7c0.4,0,0.7-0.3,0.7-0.7l0,0v-2.1C45,32.4,43.5,30.9,41.6,30.8L41.6,30.8L41.6,30.8
	z"/>
<path style="fill:#8080FF;" d="M15,8.5c0-0.8,0.6-1.4,1.4-1.4c0,0,0,0,0,0h8.2v16.5l-1.4,4.1h-6.8c-0.8,0-1.4-0.6-1.4-1.4
	c0,0,0,0,0,0v-5.5l2.7-1.4l-2.7-1.4v-2.7l2.7-1.4l-2.7-1.4L15,8.5z"/>
<path style="fill:#BFBFFF;" d="M20.4,14.1c0,0.8-0.6,1.4-1.4,1.4c0,0,0,0,0,0H15v-2.7h4.1C19.8,12.7,20.4,13.3,20.4,14.1L20.4,14.1z
	"/>
<path style="fill:#BFBFFF;" d="M19.1,18.2c0.8,0,1.4,0.6,1.4,1.4c0,0.8-0.6,1.4-1.4,1.4H15v-2.7H19.1z"/>
<path style="fill:#8080FF;" d="M45.1,8.5c0-0.8-0.6-1.4-1.4-1.4c0,0,0,0,0,0h-8.2v16.5l1.4,4.1h6.8c0.8,0,1.4-0.6,1.4-1.4
	c0,0,0,0,0,0v-5.5l-2.7-1.4l2.7-1.4v-2.7L42.3,14l2.7-1.4V8.5z"/>
<path style="fill:#BFBFFF;" d="M39.6,14.1c0,0.8,0.6,1.4,1.4,1.4c0,0,0,0,0,0H45v-2.7h-4.1C40.2,12.7,39.6,13.3,39.6,14.1L39.6,14.1
	z"/>
<path style="fill:#BFBFFF;" d="M40.9,18.2c-0.8,0-1.4,0.6-1.4,1.4c0,0.8,0.6,1.4,1.4,1.4H45v-2.7H40.9z"/>
<path style="fill:#4040FF;" d="M35.5,4.4H24.5c-0.8,0-1.4,0.6-1.4,1.4c0,0,0,0,0,0v21.9h5.5l1.3-1.3l1.4,1.3h5.5V5.8
	C36.9,5,36.2,4.4,35.5,4.4C35.5,4.4,35.5,4.4,35.5,4.4z"/>
<path style="fill:#BFBFFF;" d="M30,20.9c-0.8,0-1.4,0.6-1.4,1.4c0,0,0,0,0,0v5.4h2.7v-5.5C31.3,21.5,30.7,20.9,30,20.9z"/>
<path style="fill:#BFBFFF;" d="M28.6,12.7h2.7c0.8,0,1.4-0.6,1.4-1.4c0-0.8-0.6-1.4-1.4-1.4l0,0h-2.7c-0.8,0-1.4,0.6-1.4,1.4
	C27.3,12.1,27.9,12.7,28.6,12.7z"/>
<path style="fill:#BFBFFF;" d="M31.4,15.4h-2.7c-0.8,0-1.4,0.6-1.4,1.4c0,0.8,0.6,1.4,1.4,1.4l0,0h2.7c0.8,0,1.4-0.6,1.4-1.4
	C32.7,16,32.1,15.4,31.4,15.4z"/>
<path style="fill:#BFBFFF;" d="M51.7,42c0,3.3-2.7,6.1-6.1,6.1s-6.1-2.7-6.1-6.1s2.7-6.1,6.1-6.1h0C49,35.9,51.7,38.6,51.7,42
	L51.7,42z"/>
<path style="fill:#4040FF;" d="M36.7,55.6c-0.6,0-1-0.5-1-1c0,0,0-0.1,0-0.1c0.7-5.5,5.7-9.4,11.2-8.7c4.5,0.6,8.1,4.1,8.7,8.7
	c0.1,0.6-0.3,1-0.9,1.1c0,0-0.1,0-0.1,0H36.7z"/>
<path style="fill:#BFBFFF;" d="M20.4,42c0,3.3-2.7,6.1-6.1,6.1S8.3,45.3,8.3,42s2.7-6.1,6.1-6.1S20.4,38.6,20.4,42L20.4,42z"/>
<path style="fill:#4040FF;" d="M5.4,55.6c-0.6,0-1-0.4-1-1c0-0.1,0-0.2,0-0.2c0.7-5.5,5.7-9.4,11.2-8.7c4.5,0.6,8.1,4.1,8.7,8.7
	c0.1,0.6-0.3,1-0.9,1.1c0,0-0.1,0-0.1,0L5.4,55.6z"/>
<path style="fill:#BFBFFF;" d="M36.1,42c0,3.3-2.7,6-6.1,6c-3.3,0-6-2.7-6-6.1c0-3.3,2.7-6,6-6C33.3,35.9,36,38.6,36.1,42L36.1,42
	L36.1,42z"/>
<path style="fill:#8080FF;" d="M30,46c-5.4,0-9.8,4.3-10,9.6h20.1C39.8,50.3,35.4,46,30,46L30,46z"/>
</svg>
