<svg id="Layer_1" data-name="Layer 1" xmlns="http://www.w3.org/2000/svg" viewBox="0 0 60 60"><defs><style>.cls-1{fill:blue;}.cls-2{fill:#bfbfff;}.cls-3{fill:#4294ff;}.cls-4{fill:#4040ff;}.cls-5{fill:#8080ff;}</style></defs><title>business-strategy029-rocket-launch</title><path class="cls-1" d="M32.33,26.28a.72.72,0,0,0-.57-.28H27.44a.72.72,0,0,0-.57.28.75.75,0,0,0-.13.62l.72,2.88a.72.72,0,0,0,.7.54H31a.72.72,0,0,0,.7-.54l.72-2.88a.75.75,0,0,0-.13-.62Zm0,0"/><path class="cls-1" d="M25.8,17.94a.74.74,0,0,0-.82.14l-6,6a.75.75,0,0,0-.16.79.73.73,0,0,0,.67.44h5.76a.72.72,0,0,0,.72-.72v-2.2a35.09,35.09,0,0,1,.2-3.69.71.71,0,0,0-.4-.73Zm0,0"/><path class="cls-1" d="M40.19,24.05l-6-6A.72.72,0,0,0,33.4,18a.69.69,0,0,0-.4.72,35.09,35.09,0,0,1,.2,3.69v2.2a.72.72,0,0,0,.72.72h5.76a.73.73,0,0,0,.67-.44.75.75,0,0,0-.16-.79Zm0,0"/><path class="cls-2" d="M42.56,33.2h0a3.62,3.62,0,0,0-2.34-1.39,5,5,0,0,0-4.84-3.65.72.72,0,0,0,0,1.44,3.58,3.58,0,0,1,3.35,2.3,3.46,3.46,0,0,0-1.13.54.71.71,0,0,0-.3.47.72.72,0,0,0,1.14.7,2.16,2.16,0,0,1,3.42,1.75.72.72,0,0,0,1.44,0,3.47,3.47,0,0,0-.06-.64,2.89,2.89,0,0,1,2.22,2.8.72.72,0,1,0,1.44,0,4.33,4.33,0,0,0-4.32-4.32Zm0,0"/><path class="cls-2" d="M20.49,31.9a3.58,3.58,0,0,1,3.35-2.3.72.72,0,1,0,0-1.44A5,5,0,0,0,19,31.81a3.62,3.62,0,0,0-2.34,1.39h0a4.32,4.32,0,0,0-4.32,4.32.72.72,0,1,0,1.44,0A2.89,2.89,0,0,1,16,34.72a3.47,3.47,0,0,0-.06.64.72.72,0,1,0,1.44,0,2.16,2.16,0,0,1,3.42-1.75.72.72,0,0,0,1.14-.7.71.71,0,0,0-.3-.47,3.46,3.46,0,0,0-1.13-.54Zm0,0"/><path class="cls-2" d="M24.56,33.2a.72.72,0,0,0,0,1.44.72.72,0,0,1,.72.72.72.72,0,0,0,1.44,0,2.16,2.16,0,0,0-2.16-2.16Zm0,0"/><path class="cls-3" d="M34.64,33.2a2.16,2.16,0,0,0-2.16,2.16.72.72,0,0,0,1.44,0,.72.72,0,0,1,.72-.72.72.72,0,0,0,0-1.44Zm0,0"/><path class="cls-4" d="M46.16,41.12H38.54L34.43,37a.72.72,0,0,0-1,0L29.3,41.12H13a.72.72,0,0,0-.72.72V51.92a.72.72,0,0,0,.72.72H46.16a.72.72,0,0,0,.72-.72V41.84a.72.72,0,0,0-.72-.72Zm0,0"/><path class="cls-1" d="M46.88,41.84V51.92a.72.72,0,0,1-.72.72H33.92V36.8a.74.74,0,0,1,.51.21l4.11,4.11h7.62a.72.72,0,0,1,.72.72Zm0,0"/><path class="cls-5" d="M33.92,36.8,29.6,42.56H8l4.32-5.76Zm0,0"/><path class="cls-5" d="M51.2,42.56H39l-5-5.76h13Zm0,0"/><path class="cls-5" d="M30,8.15a.69.69,0,0,0-.86,0c-.19.14-4.61,3.61-4.61,14.21v4.36a.72.72,0,0,0,.72.72h8.64a.72.72,0,0,0,.72-.72V22.36c0-10.6-4.42-14.07-4.61-14.21Zm0,0"/><path class="cls-1" d="M33.16,13H26a11,11,0,0,1,3.13-4.89.69.69,0,0,1,.86,0A11,11,0,0,1,33.16,13Zm0,0"/><path class="cls-1" d="M31.76,18.8a2.16,2.16,0,1,1-2.16-2.16,2.16,2.16,0,0,1,2.16,2.16Zm0,0"/><path class="cls-2" d="M29.6,31a2.16,2.16,0,0,0-2.16,2.16c0,1,1.27,2.31,1.66,2.68a.71.71,0,0,0,1,0c.4-.37,1.67-1.65,1.67-2.68A2.16,2.16,0,0,0,29.6,31Zm0,0"/></svg>