<svg id="Layer_1" data-name="Layer 1" xmlns="http://www.w3.org/2000/svg" viewBox="0 0 60 60"><defs><style>.cls-1{fill:blue;}.cls-2{fill:#bfbfff;}.cls-3{fill:#8080ff;}.cls-4{fill:#fff;}</style></defs><title>communication-and-media006-mail</title><path class="cls-1" d="M45.79,30.44A19.4,19.4,0,1,1,26.44,11.09,19.34,19.34,0,0,1,45.79,30.44Zm0,0"/><path class="cls-2" d="M51.73,19.73H27.79a1.34,1.34,0,0,0-1.35,1.35V39.8a1.34,1.34,0,0,0,1.35,1.35H51.73a1.34,1.34,0,0,0,1.35-1.35V21.08a1.34,1.34,0,0,0-1.35-1.35Zm0,0"/><path class="cls-3" d="M53,20.64a1.33,1.33,0,0,0-1.27-.91H27.79a1.36,1.36,0,0,0-1.28.91A1.38,1.38,0,0,0,27,22.15L39,31.51a1.37,1.37,0,0,0,1.67,0l11.88-9.36a1.35,1.35,0,0,0,.43-1.5Zm0,0"/><path class="cls-4" d="M20.68,25.31H18.52a1.35,1.35,0,0,1,0-2.7h2.16a1.35,1.35,0,0,1,0,2.7Zm0,0"/><path class="cls-4" d="M20,36.83H15.64a1.35,1.35,0,1,1,0-2.7H20a1.35,1.35,0,1,1,0,2.7Zm0,0"/><path class="cls-4" d="M29.23,29.72a1.34,1.34,0,0,1-1.35,1.35H20a1.35,1.35,0,1,1,0-2.7h7.92a1.34,1.34,0,0,1,1.35,1.35Zm0,0"/></svg>