<svg id="Layer_1" data-name="Layer 1" xmlns="http://www.w3.org/2000/svg" viewBox="0 0 60 60"><defs><style>.cls-1{fill:blue;}.cls-2{fill:#8080ff;}.cls-3{fill:#bfbfff;}.cls-4{fill:#4040ff;}</style></defs><title>document-and-files031-profile</title><path class="cls-1" d="M47.1,16.45V51.73a1.33,1.33,0,0,1-1.35,1.35H13.35A1.33,1.33,0,0,1,12,51.73V8.35A1.33,1.33,0,0,1,13.35,7H35l2.7,4.72,2.7,2Zm0,0"/><path class="cls-2" d="M46.56,15.37l-10.8-8.1A1.46,1.46,0,0,0,35,7v8.1a1.34,1.34,0,0,0,1.35,1.35H47.1a1.3,1.3,0,0,0-.54-1.08Zm0,0"/><path class="cls-3" d="M41.7,32.65A12.15,12.15,0,1,1,29.55,20.5,12.15,12.15,0,0,1,41.7,32.65Zm0,0"/><path class="cls-4" d="M29.55,35.35a8.11,8.11,0,0,0-6.86,3.79,9.43,9.43,0,0,0,13.72,0,8.11,8.11,0,0,0-6.86-3.79Zm0,0"/><path class="cls-4" d="M29.55,34A4.05,4.05,0,1,1,33.6,30,4.06,4.06,0,0,1,29.55,34Zm0,0"/></svg>