<?xml version="1.0" encoding="utf-8"?>
<!-- Generator: Adobe Illustrator 25.4.1, SVG Export Plug-In . SVG Version: 6.00 Build 0)  -->
<svg version="1.1" id="Layer_1" xmlns="http://www.w3.org/2000/svg" xmlns:xlink="http://www.w3.org/1999/xlink" x="0px" y="0px"
	 viewBox="0 0 60 60" style="enable-background:new 0 0 60 60;" xml:space="preserve">
<path style="fill:#BFBFFF;" d="M53,14.4c0-0.7-0.6-1.3-1.3-1.4c0,0,0,0,0,0H13.9c-0.7,0-1.3,0.6-1.4,1.3c0,0,0,0,0,0v7.1l0.4,0.5
	h39.6l0.5-0.5V14.4z"/>
<path style="fill:#8080FF;" d="M12.5,21.5v30.7c0,0.7,0.6,1.3,1.3,1.3c0,0,0,0,0,0h37.8c0.7,0,1.3-0.6,1.3-1.3c0,0,0,0,0,0V21.5
	H12.5z"/>
<path style="fill:#8080FF;" d="M47.5,8.8c0-0.7-0.6-1.3-1.3-1.3c0,0,0,0,0,0H8.3C7.6,7.5,7,8,7,8.8c0,0,0,0,0,0v6.4l0.4,0.5H47
	l0.5-0.5L47.5,8.8z"/>
<path style="fill:#0000FF;" d="M7,15.2V44c0,0.7,0.6,1.3,1.3,1.3c0,0,0,0,0,0h37.8c0.7,0,1.3-0.6,1.3-1.3c0,0,0,0,0,0V15.2H7z"/>
<path style="fill:#BFBFFF;" d="M19.2,31.9h-5.4c-0.7,0-1.3,0.6-1.4,1.3c0,0,0,0,0,0v5.4c0,0.7,0.6,1.3,1.3,1.3c0,0,0,0,0,0h5.4
	c0.7,0,1.4-0.6,1.4-1.3v-5.4C20.5,32.5,19.9,31.8,19.2,31.9C19.2,31.8,19.2,31.8,19.2,31.9z M17.8,37.3h-2.7v-2.7h2.7V37.3z"/>
<path style="fill:#BFBFFF;" d="M40.8,21.1H24.6c-0.7,0-1.4,0.6-1.4,1.4s0.6,1.4,1.4,1.4h16.2c0.7,0,1.4-0.6,1.4-1.4
	S41.5,21.1,40.8,21.1z"/>
<path style="fill:#BFBFFF;" d="M38.1,26.4H24.6c-0.7,0-1.4,0.6-1.4,1.4s0.6,1.4,1.4,1.4h13.5c0.7,0,1.3-0.6,1.3-1.4
	S38.8,26.4,38.1,26.4z"/>
<path style="fill:#BFBFFF;" d="M40.8,31.9H24.6c-0.7,0-1.4,0.6-1.4,1.4c0,0.7,0.6,1.3,1.4,1.3h16.2c0.7,0,1.4-0.6,1.4-1.3
	C42.2,32.5,41.5,31.9,40.8,31.9z"/>
<path style="fill:#BFBFFF;" d="M38.1,37.3H24.6c-0.7,0-1.4,0.6-1.4,1.3c0,0.7,0.6,1.4,1.4,1.4h13.5c0.7,0,1.3-0.6,1.3-1.4
	C39.4,37.9,38.8,37.3,38.1,37.3z"/>
<path style="fill:#BFBFFF;" d="M20,21.3c-0.6-0.4-1.5-0.2-1.9,0.4c0,0,0,0,0,0l-2.7,4.1l-0.8-0.6c-0.6-0.4-1.5-0.3-1.9,0.3
	c-0.4,0.6-0.3,1.5,0.3,1.9l0,0l2,1.4c0.2,0.2,0.5,0.2,0.8,0.2c0.1,0,0.2,0,0.3,0c0.4-0.1,0.7-0.3,0.9-0.6l3.4-5.3
	C20.8,22.5,20.6,21.7,20,21.3L20,21.3z"/>
</svg>
