<svg id="Layer_1" data-name="Layer 1" xmlns="http://www.w3.org/2000/svg" viewBox="0 0 60 60"><defs><style>.cls-1{fill:#8080ff;}.cls-2{fill:blue;}.cls-3{fill:#bfbfff;}.cls-4{fill:#4040ff;}</style></defs><title>work-from-home038-wireless-router</title><path class="cls-1" d="M13.75,35.3A1.34,1.34,0,0,1,12.4,34V15.05a1.35,1.35,0,1,1,2.7,0V34a1.34,1.34,0,0,1-1.35,1.35Zm0,0"/><path class="cls-1" d="M46.33,35.3A1.34,1.34,0,0,1,45,34V15.05a1.35,1.35,0,1,1,2.7,0V34a1.34,1.34,0,0,1-1.35,1.35Zm0,0"/><path class="cls-1" d="M49,48.8a1.34,1.34,0,0,1-1.35-1.35v-2.7a1.35,1.35,0,0,1,2.7,0v2.7A1.34,1.34,0,0,1,49,48.8Zm0,0"/><path class="cls-1" d="M13.75,48.8a1.34,1.34,0,0,1-1.35-1.35v-2.7a1.35,1.35,0,0,1,2.7,0v2.7a1.34,1.34,0,0,1-1.35,1.35Zm0,0"/><path class="cls-2" d="M51.73,32.6H8.35A1.34,1.34,0,0,0,7,34v10.8A1.34,1.34,0,0,0,8.35,46.1H51.73a1.34,1.34,0,0,0,1.35-1.35V34a1.34,1.34,0,0,0-1.35-1.35Zm0,0"/><path class="cls-3" d="M15.1,39.35A1.35,1.35,0,1,1,13.75,38a1.34,1.34,0,0,1,1.35,1.35Zm0,0"/><path class="cls-3" d="M20.5,39.35A1.35,1.35,0,1,1,19.15,38a1.34,1.34,0,0,1,1.35,1.35Zm0,0"/><path class="cls-3" d="M25.9,39.35A1.35,1.35,0,1,1,24.55,38a1.34,1.34,0,0,1,1.35,1.35Zm0,0"/><path class="cls-3" d="M38.23,40.7h-2.7a1.35,1.35,0,0,1,0-2.7h2.7a1.35,1.35,0,0,1,0,2.7Zm0,0"/><path class="cls-3" d="M46.33,40.7h-2.7a1.35,1.35,0,0,1,0-2.7h2.7a1.35,1.35,0,0,1,0,2.7Zm0,0"/><path class="cls-4" d="M40.63,15.35a15.07,15.07,0,0,0-21.18,0,1.36,1.36,0,0,0,0,1.91,1.35,1.35,0,0,0,1.91,0,12.36,12.36,0,0,1,17.36,0,1.35,1.35,0,0,0,1.91,0,1.36,1.36,0,0,0,0-1.91Zm0,0"/><path class="cls-1" d="M30,16.49a9.62,9.62,0,0,0-6.77,2.68,1.35,1.35,0,0,0,1.91,1.91,7.11,7.11,0,0,1,9.72,0,1.35,1.35,0,1,0,1.91-1.91A9.62,9.62,0,0,0,30,16.49Zm0,0"/><path class="cls-3" d="M34.18,25.85A4.14,4.14,0,1,1,30,21.8a4.09,4.09,0,0,1,4.14,4.05Zm0,0"/></svg>