<svg id="Layer_1" data-name="Layer 1" xmlns="http://www.w3.org/2000/svg" viewBox="0 0 60 60"><defs><style>.cls-1{fill:#8080ff;}.cls-2{fill:blue;}.cls-3{fill:#bfbfff;}</style></defs><title>document-and-files048-folder</title><path class="cls-1" d="M51.73,23.5H8.35A1.34,1.34,0,0,1,7,22.15v-8.1A4.06,4.06,0,0,1,11.05,10h10.8a4.06,4.06,0,0,1,4,4.05V15.4H49a4.06,4.06,0,0,1,4,4v2.7a1.34,1.34,0,0,1-1.35,1.35Zm0,0"/><path class="cls-2" d="M53.08,22.15v24.3a4.06,4.06,0,0,1-4,4h-38a4.06,4.06,0,0,1-4.05-4V22.15Zm0,0"/><path class="cls-3" d="M39.86,36.64l-1.27-.73v-.52l1.27-.73a1.35,1.35,0,0,0,.49-1.85l-2.7-4.67a1.35,1.35,0,0,0-1.84-.5l-1.28.74-.44-.26V26.65a1.34,1.34,0,0,0-1.35-1.35h-5.4A1.34,1.34,0,0,0,26,26.65v1.47l-.44.26-1.28-.74a1.35,1.35,0,0,0-1.84.5l-2.7,4.67a1.35,1.35,0,0,0,.49,1.85l1.27.73v.52l-1.27.73a1.35,1.35,0,0,0-.49,1.85l2.7,4.67a1.35,1.35,0,0,0,1.84.5l1.28-.74.44.26v1.47A1.34,1.34,0,0,0,27.34,46h5.4a1.34,1.34,0,0,0,1.35-1.35V43.18l.44-.26,1.28.74a1.35,1.35,0,0,0,1.84-.5l2.7-4.67a1.35,1.35,0,0,0-.49-1.85ZM30,38.35a2.7,2.7,0,1,1,2.7-2.7,2.7,2.7,0,0,1-2.7,2.7Zm0,0"/></svg>