<svg id="Layer_1" data-name="Layer 1" xmlns="http://www.w3.org/2000/svg" viewBox="0 0 60 60"><defs><style>.cls-1{fill:#8080ff;}.cls-2{fill:#4040ff;}.cls-3{fill:#bfbfff;}.cls-4{fill:blue;}</style></defs><title>insurance033-monitor</title><path class="cls-1" d="M36.75,44.2a1.35,1.35,0,0,0-1.31-1H24.64a1.35,1.35,0,0,0-1.31,1l-1.8,7.2h17Zm0,0"/><path class="cls-2" d="M39.94,53.08H20.14a1.35,1.35,0,1,1,0-2.7h19.8a1.35,1.35,0,1,1,0,2.7Zm0,0"/><path class="cls-2" d="M48.13,14.38H12A5,5,0,0,0,7,19.33v21.6a5,5,0,0,0,4.95,5H48.13a5,5,0,0,0,4.95-5V19.33a5,5,0,0,0-4.95-4.95Zm0,0"/><path class="cls-3" d="M9.7,19.33A2.25,2.25,0,0,1,12,17.08H48.13a2.25,2.25,0,0,1,2.25,2.25V37.78H9.7Zm0,0"/><path class="cls-4" d="M30,33.1a1.32,1.32,0,0,1-.39-.06,14,14,0,0,1-10-13.39V12A1.34,1.34,0,0,1,21,10.6a4.45,4.45,0,0,0,4-2.47l.19-.38A1.36,1.36,0,0,1,26.44,7h7.2a1.36,1.36,0,0,1,1.21.75l.19.38a4.45,4.45,0,0,0,4,2.47A1.34,1.34,0,0,1,40.39,12v7.7A14,14,0,0,1,30.43,33a1.32,1.32,0,0,1-.39.06Zm0,0"/><path class="cls-3" d="M22.39,13.17v6.48A11.2,11.2,0,0,0,30,30.33a11.2,11.2,0,0,0,7.65-10.68V13.17A7.09,7.09,0,0,1,32.82,9.7H27.26a7.09,7.09,0,0,1-4.87,3.47Zm0,0"/><path class="cls-1" d="M28.77,24a1.38,1.38,0,0,1-1-.4L25.27,21a1.35,1.35,0,0,1,1.91-1.9l1.59,1.59,4.13-4.14a1.35,1.35,0,1,1,1.91,1.91l-5.09,5.09a1.36,1.36,0,0,1-.95.4Zm0,0"/></svg>