<svg id="Layer_1" data-name="Layer 1" xmlns="http://www.w3.org/2000/svg" viewBox="0 0 60 60"><defs><style>.cls-1{fill:#8080ff;}.cls-2{fill:#195d80;}.cls-3{fill:#bfbfff;}.cls-4{fill:blue;}.cls-5{fill:#4040ff;}</style></defs><title>technology009-server</title><path class="cls-1" d="M28.55,47.38H17.61a1.34,1.34,0,0,0-1.34,1.41,1.37,1.37,0,0,0,1.38,1.29H28.81c-.08-.9-.24-1.79-.26-2.7Zm0,0"/><path class="cls-1" d="M42,47.38H31v2.7H42a1.35,1.35,0,0,0,1.35-1.42A1.38,1.38,0,0,0,42,47.38Zm0,0"/><path class="cls-2" d="M29.74,51.52a1.38,1.38,0,0,1-1.28-1.39V39.55a1.37,1.37,0,0,1,1.28-1.38,1.34,1.34,0,0,1,1.41,1.34V50.17a1.35,1.35,0,0,1-1.41,1.35Zm0,0"/><path class="cls-2" d="M29.74,51.52a1.38,1.38,0,0,1-1.28-1.39V39.55a1.37,1.37,0,0,1,1.28-1.38,1.34,1.34,0,0,1,1.41,1.34V50.17a1.35,1.35,0,0,1-1.41,1.35Zm0,0"/><path class="cls-1" d="M29.74,51.52a1.38,1.38,0,0,1-1.28-1.39V39.55a1.37,1.37,0,0,1,1.28-1.38,1.34,1.34,0,0,1,1.41,1.34V50.17a1.35,1.35,0,0,1-1.41,1.35Zm0,0"/><path class="cls-1" d="M47.16,29.28,29,30.18l-16.57-.9V18.14l16.27-.9,18.44.9Zm0,0"/><path class="cls-3" d="M41,25.06a1.36,1.36,0,0,0,1.35-1.35A1.35,1.35,0,1,0,41,25.06Zm0,0"/><path class="cls-3" d="M35.41,25.06a1.36,1.36,0,1,0-1.35-1.35,1.36,1.36,0,0,0,1.35,1.35Zm0,0"/><path class="cls-3" d="M29.81,25.06a1.36,1.36,0,1,0-1.36-1.35,1.39,1.39,0,0,0,1.36,1.35Zm0,0"/><path class="cls-3" d="M24.2,25.06a1.37,1.37,0,0,0,1.36-1.35,1.36,1.36,0,1,0-2.71,0,1.37,1.37,0,0,0,1.35,1.35Zm0,0"/><path class="cls-3" d="M18.6,25.06A1.36,1.36,0,0,0,20,23.71a1.35,1.35,0,1,0-1.35,1.35Zm0,0"/><path class="cls-4" d="M45.29,40.41h-31a1.87,1.87,0,0,1-1.87-1.87V29.28H47.16v9.26a1.87,1.87,0,0,1-1.87,1.87Zm0,0"/><path class="cls-3" d="M41,36.2a1.36,1.36,0,1,0-1.35-1.36A1.37,1.37,0,0,0,41,36.2Zm0,0"/><path class="cls-3" d="M35.41,36.2a1.36,1.36,0,0,0,0-2.71,1.36,1.36,0,0,0-1.35,1.35,1.37,1.37,0,0,0,1.35,1.36Zm0,0"/><path class="cls-3" d="M29.81,36.2a1.36,1.36,0,1,0-1.36-1.36,1.38,1.38,0,0,0,1.36,1.36Zm0,0"/><path class="cls-3" d="M24.2,36.2a1.36,1.36,0,1,0-1.35-1.36A1.38,1.38,0,0,0,24.2,36.2Zm0,0"/><path class="cls-3" d="M18.6,36.2a1.36,1.36,0,1,0-1.35-1.36A1.37,1.37,0,0,0,18.6,36.2Zm0,0"/><path class="cls-4" d="M47.16,18.14H12.45V8.87A1.87,1.87,0,0,1,14.32,7h31a1.87,1.87,0,0,1,1.87,1.87Zm0,0"/><path class="cls-3" d="M41,13.92a1.35,1.35,0,1,0-1.35-1.35A1.36,1.36,0,0,0,41,13.92Zm0,0"/><path class="cls-3" d="M35.41,13.92a1.35,1.35,0,1,0-1.35-1.35,1.36,1.36,0,0,0,1.35,1.35Zm0,0"/><path class="cls-3" d="M29.81,13.92a1.35,1.35,0,1,0-1.36-1.35,1.39,1.39,0,0,0,1.36,1.35Zm0,0"/><path class="cls-3" d="M24.2,13.92a1.35,1.35,0,1,0-1.35-1.35,1.37,1.37,0,0,0,1.35,1.35Zm0,0"/><path class="cls-3" d="M18.6,13.92a1.35,1.35,0,1,0-1.35-1.35,1.36,1.36,0,0,0,1.35,1.35Zm0,0"/><path class="cls-5" d="M20.58,48.79a4.27,4.27,0,1,1-1.25-3,4.29,4.29,0,0,1,1.25,3Zm0,0"/><path class="cls-5" d="M34.1,48.79a4.3,4.3,0,1,1-4.29-4.29,4.29,4.29,0,0,1,4.29,4.29Zm0,0"/><path class="cls-5" d="M47.61,48.79a4.29,4.29,0,1,1-4.29-4.29,4.29,4.29,0,0,1,4.29,4.29Zm0,0"/></svg>