<svg id="Layer_1" data-name="Layer 1" xmlns="http://www.w3.org/2000/svg" viewBox="0 0 60 60"><defs><style>.cls-1{fill:#4040ff;}.cls-2{fill:blue;}.cls-3{fill:#bfbfff;}.cls-4{fill:#8080ff;}</style></defs><title>document-and-files046-folder</title><path class="cls-1" d="M51.73,23.5H19.33A1.34,1.34,0,0,1,18,22.15v-9A3.15,3.15,0,0,1,21.13,10h9a3.15,3.15,0,0,1,3.15,3.15V15.4H49.93a3.15,3.15,0,0,1,3.15,3.15v3.6a1.34,1.34,0,0,1-1.35,1.35Zm0,0"/><path class="cls-2" d="M53.08,22.15v14.4a3.15,3.15,0,0,1-3.15,3.15H21.13A3.15,3.15,0,0,1,18,36.55V22.15Zm0,0"/><path class="cls-3" d="M46.24,28.9H13.84a1.34,1.34,0,0,1-1.35-1.35v-9a3.15,3.15,0,0,1,3.15-3.15h9a3.15,3.15,0,0,1,3.15,3.15V20.8H44.44A3.15,3.15,0,0,1,47.59,24v3.6a1.34,1.34,0,0,1-1.35,1.35Zm0,0"/><path class="cls-1" d="M47.59,27.55V42a3.15,3.15,0,0,1-3.15,3.15H15.64A3.15,3.15,0,0,1,12.49,42V27.55Zm0,0"/><path class="cls-4" d="M40.75,34.3H8.35A1.34,1.34,0,0,1,7,33V24a3.15,3.15,0,0,1,3.15-3.15h9A3.15,3.15,0,0,1,22.3,24V26.2H39a3.15,3.15,0,0,1,3.15,3.15V33a1.34,1.34,0,0,1-1.35,1.35Zm0,0"/><path class="cls-2" d="M42.1,33v14.4A3.15,3.15,0,0,1,39,50.5H10.15A3.15,3.15,0,0,1,7,47.35V33Zm0,0"/></svg>