<svg id="Layer_1" data-name="Layer 1" xmlns="http://www.w3.org/2000/svg" viewBox="0 0 60 60"><defs><style>.cls-1{fill:#4040ff;}.cls-2{fill:#bfbfff;}.cls-3{fill:blue;}.cls-4{fill:#8080ff;}.cls-5{fill:#fff;}</style></defs><title>insurance003-delivery-truck</title><path class="cls-1" d="M39.58,19.78H35.35V46.33a1.34,1.34,0,0,0,1.35,1.35h15a1.34,1.34,0,0,0,1.35-1.35V35.08Zm0,0"/><path class="cls-2" d="M44.53,19.78h-5V33.73a1.34,1.34,0,0,0,1.35,1.35H53.08V28.33a8.57,8.57,0,0,0-8.55-8.55Zm0,0"/><path class="cls-3" d="M36.7,47.68H8.35A1.34,1.34,0,0,1,7,46.33v-9A1.34,1.34,0,0,1,8.35,36h27a1.34,1.34,0,0,1,1.35,1.35Zm0,0"/><path class="cls-4" d="M35.35,16.18h-27A1.34,1.34,0,0,0,7,17.53v19.8H36.7V17.53a1.34,1.34,0,0,0-1.35-1.35Zm0,0"/><path class="cls-3" d="M21.85,33.1a1.32,1.32,0,0,1-.39-.06,14,14,0,0,1-10-13.39V12a1.34,1.34,0,0,1,1.35-1.35,4.45,4.45,0,0,0,4-2.47L17,7.75A1.36,1.36,0,0,1,18.25,7h7.2a1.36,1.36,0,0,1,1.21.75l.19.38a4.45,4.45,0,0,0,4,2.47A1.34,1.34,0,0,1,32.2,12v7.7A14,14,0,0,1,22.24,33a1.32,1.32,0,0,1-.39.06Zm0,0"/><path class="cls-2" d="M14.2,13.17v6.48a11.2,11.2,0,0,0,7.65,10.68A11.2,11.2,0,0,0,29.5,19.65V13.17A7.09,7.09,0,0,1,24.63,9.7H19.07a7.09,7.09,0,0,1-4.87,3.47Zm0,0"/><path class="cls-4" d="M20.58,24a1.38,1.38,0,0,1-1-.4L17.08,21A1.35,1.35,0,1,1,19,19.1l1.59,1.59,4.13-4.14a1.35,1.35,0,0,1,1.91,1.91l-5.09,5.09a1.36,1.36,0,0,1-1,.4Zm0,0"/><path class="cls-4" d="M21.4,47.68a5.39,5.39,0,1,1-1.58-3.82,5.4,5.4,0,0,1,1.58,3.82Zm0,0"/><path class="cls-5" d="M18.7,47.68A2.7,2.7,0,1,1,16,45a2.7,2.7,0,0,1,2.7,2.7Zm0,0"/><path class="cls-4" d="M49.48,47.68a5.4,5.4,0,1,1-5.4-5.4,5.4,5.4,0,0,1,5.4,5.4Zm0,0"/><path class="cls-5" d="M46.78,47.68a2.7,2.7,0,1,1-2.7-2.7,2.7,2.7,0,0,1,2.7,2.7Zm0,0"/></svg>