<svg id="Layer_1" data-name="Layer 1" xmlns="http://www.w3.org/2000/svg" viewBox="0 0 60 60"><defs><style>.cls-1{fill:#8080ff;}.cls-2{fill:#bfbfff;}.cls-3{fill:#4040ff;}.cls-4{fill:#fff;}.cls-5{fill:blue;}</style></defs><title>communication-and-media039-press-conference</title><path class="cls-1" d="M38.59,27.16v5.76a1.34,1.34,0,0,1-1.35,1.35H22.84a1.34,1.34,0,0,1-1.35-1.35V27.16c0-5.09,3.38-10,8.55-10s8.55,4.9,8.55,10Zm0,0"/><path class="cls-2" d="M36.43,13.48A6.39,6.39,0,1,1,30,7a6.47,6.47,0,0,1,6.39,6.48Zm0,0"/><path class="cls-3" d="M11.32,34.27A1.34,1.34,0,0,1,10,32.92V27.16a1.4,1.4,0,0,1,.19-.69L13,21.74a1.35,1.35,0,1,1,2.32,1.38l-2.65,4.41v5.39a1.34,1.34,0,0,1-1.35,1.35Zm0,0"/><path class="cls-3" d="M19.87,20a4.23,4.23,0,1,1-4.23-4.23A4.23,4.23,0,0,1,19.87,20Zm0,0"/><path class="cls-3" d="M48.76,34.27a1.34,1.34,0,0,1-1.35-1.35V27.53l-2.65-4.41a1.35,1.35,0,1,1,2.32-1.38l2.84,4.73a1.4,1.4,0,0,1,.19.69v5.76a1.34,1.34,0,0,1-1.35,1.35Zm0,0"/><path class="cls-3" d="M48.67,20a4.23,4.23,0,1,1-4.23-4.23A4.23,4.23,0,0,1,48.67,20Zm0,0"/><path class="cls-3" d="M47.23,40.12V51.73a1.34,1.34,0,0,1-1.35,1.35H14.2a1.34,1.34,0,0,1-1.35-1.35V40.12a1.34,1.34,0,0,1,1.35-1.35H45.88a1.34,1.34,0,0,1,1.35,1.35Zm0,0"/><path class="cls-4" d="M37.15,47.32a1.34,1.34,0,0,1-1.35,1.35H24.28a1.35,1.35,0,0,1,0-2.7H35.8a1.34,1.34,0,0,1,1.35,1.35Zm0,0"/><path class="cls-5" d="M53.08,32.92v7.2a1.34,1.34,0,0,1-1.35,1.35H8.35A1.34,1.34,0,0,1,7,40.12v-7.2a1.34,1.34,0,0,1,1.35-1.35H51.73a1.34,1.34,0,0,1,1.35,1.35Zm0,0"/></svg>