<svg id="Layer_1" data-name="Layer 1" xmlns="http://www.w3.org/2000/svg" viewBox="0 0 60 60"><defs><style>.cls-1{fill:blue;}.cls-2{fill:#8080ff;}.cls-3{fill:#fff;}.cls-4{fill:#bfbfff;}</style></defs><title>digital-marketing047-statistics</title><path class="cls-1" d="M45.75,7H13.35A1.34,1.34,0,0,0,12,8.35V39.58l13.5,13.5H45.75a1.34,1.34,0,0,0,1.35-1.35V8.35A1.34,1.34,0,0,0,45.75,7Zm0,0"/><path class="cls-2" d="M24.15,39.58H12v1.35a1.31,1.31,0,0,0,.4,1l10.8,10.8a1.31,1.31,0,0,0,.95.4H25.5V40.93a1.34,1.34,0,0,0-1.35-1.35Zm0,0"/><path class="cls-3" d="M40.35,38.23A1.33,1.33,0,0,1,39,39.58H30.9a1.35,1.35,0,1,1,0-2.7H39a1.33,1.33,0,0,1,1.35,1.35Zm0,0"/><path class="cls-3" d="M40.35,43.63A1.33,1.33,0,0,1,39,45H30.9a1.35,1.35,0,0,1,0-2.7H39a1.33,1.33,0,0,1,1.35,1.35Zm0,0"/><path class="cls-3" d="M40.35,13.84A1.33,1.33,0,0,1,39,15.19H30.9a1.35,1.35,0,1,1,0-2.7H39a1.33,1.33,0,0,1,1.35,1.35Zm0,0"/><path class="cls-4" d="M41.3,23.68l-4-4a1.33,1.33,0,0,0-1.9,0l-5.8,5.79L28.2,26.78l-3.1-3.09a1.33,1.33,0,0,0-1.9,0l-4.45,4.44v4.7h23V24.64a1.36,1.36,0,0,0-.4-1Zm0,0"/><path class="cls-2" d="M40.35,31.48H20.1V16.54a1.35,1.35,0,0,0-2.7,0V32.83a1.34,1.34,0,0,0,1.35,1.35h21.6a1.35,1.35,0,1,0,0-2.7Zm0,0"/></svg>