<?xml version="1.0" encoding="utf-8"?>
<!-- Generator: Adobe Illustrator 25.4.1, SVG Export Plug-In . SVG Version: 6.00 Build 0)  -->
<svg version="1.1" id="Layer_1" xmlns="http://www.w3.org/2000/svg" xmlns:xlink="http://www.w3.org/1999/xlink" x="0px" y="0px"
	 viewBox="0 0 60 60" style="enable-background:new 0 0 60 60;" xml:space="preserve">
<g>
	<path style="fill:#0000FF;" d="M46.1,10.4H13.8c-0.7,0-1.3,0.6-1.4,1.3c0,0,0,0,0,0v36.5c0,0.7,0.6,1.3,1.3,1.3c0,0,0,0,0,0h32.3
		c0.7,0,1.3-0.6,1.3-1.3V11.7C47.5,11,46.9,10.4,46.1,10.4z"/>
	<path style="fill:#8080FF;" d="M47.5,36H35.4c-0.7,0-1.3,0.6-1.3,1.3v12.2L47.5,36z"/>
	<path style="fill:#BFBFFF;" d="M19.2,25.2h21.5c0.7,0,1.3-0.6,1.3-1.4s-0.6-1.4-1.3-1.4H19.2c-0.7,0-1.4,0.6-1.4,1.4
		S18.4,25.2,19.2,25.2z"/>
	<path style="fill:#BFBFFF;" d="M40.7,27.9H19.2c-0.7,0-1.4,0.6-1.4,1.3c0,0.7,0.6,1.4,1.4,1.4h21.5c0.7,0,1.3-0.6,1.3-1.4
		C42,28.5,41.4,27.9,40.7,27.9z"/>
	<path style="fill:#BFBFFF;" d="M28.6,33.3h-9.5c-0.7,0-1.4,0.6-1.4,1.3c0,0.7,0.6,1.4,1.4,1.4h9.5c0.7,0,1.4-0.6,1.4-1.4
		C30,33.9,29.4,33.3,28.6,33.3z"/>
	<path style="fill:#BFBFFF;" d="M28.6,38.7h-9.5c-0.7,0-1.4,0.6-1.4,1.4c0,0.7,0.6,1.3,1.4,1.3h9.5c0.7,0,1.4-0.6,1.4-1.3
		C30,39.3,29.4,38.7,28.6,38.7z"/>
	<path style="fill:#BFBFFF;" d="M19.2,19.8h21.5c0.7,0,1.3-0.6,1.3-1.4s-0.6-1.4-1.3-1.4H19.2c-0.7,0-1.4,0.6-1.4,1.4
		S18.4,19.8,19.2,19.8z"/>
</g>
</svg>
