<svg id="Layer_1" data-name="Layer 1" xmlns="http://www.w3.org/2000/svg" viewBox="0 0 60 60"><defs><style>.cls-1{fill:#bfbfff;}.cls-2{fill:#ffb454;}.cls-3{fill:#8080ff;}.cls-4{fill:blue;}.cls-5{fill:#4040ff;}</style></defs><title>communication-and-media010-customer-support</title><path class="cls-1" d="M44.8,15.38A18.24,18.24,0,0,0,30.46,10a16.68,16.68,0,0,0-8,2.82,17.11,17.11,0,0,0-7.17,17.47L12,33.64a3.14,3.14,0,0,0,.11,4.53,7.39,7.39,0,0,0,2.67,1.65,20,20,0,0,0,2.68,7.25,4.22,4.22,0,0,0,4.19,2.08l2.65-.33L24.8,52a1.35,1.35,0,0,0,1.34,1.13h14.4a1.35,1.35,0,0,0,1.31-1.67s-1.18-5.24,2.32-12.32A32.9,32.9,0,0,1,46.64,35a26,26,0,0,0,2.1-3.5,10.16,10.16,0,0,0,1.07-4.26,16.67,16.67,0,0,0-5-11.84ZM30.46,35.91V31.48h1.28a12.42,12.42,0,0,1-1.28,4.43Zm0,0"/><path class="cls-2" d="M44.8,15.38c-5.9-5.91-15.27-7.31-22.32-2.53a17,17,0,0,0-6.05,7.29,1.35,1.35,0,0,0,.69,1.78,14.71,14.71,0,0,0,12.3-.51,2.81,2.81,0,0,1,1-.34c.24,0,.53.37.66.78a8.16,8.16,0,0,1,.18,2.22,20.7,20.7,0,0,0,1.23,6.74,13.83,13.83,0,0,0,2.07,3.87,13.73,13.73,0,0,0,8.29,4.62,1.41,1.41,0,0,0,.35.05,1.35,1.35,0,0,0,1.19-.73A33.75,33.75,0,0,1,46.64,35c1.64-2.36,3.16-4.94,3.17-7.76a16.67,16.67,0,0,0-5-11.84Zm0,0"/><path class="cls-3" d="M44.8,15.38A18.24,18.24,0,0,0,30.46,10v11c.23,0,.52.37.64.77a8.16,8.16,0,0,1,.18,2.22,20.7,20.7,0,0,0,1.23,6.74,13.83,13.83,0,0,0,2.07,3.87,13.73,13.73,0,0,0,8.29,4.62,1.41,1.41,0,0,0,.35.05,1.35,1.35,0,0,0,1.19-.73A33.75,33.75,0,0,1,46.64,35c1.64-2.36,3.16-4.94,3.17-7.76a16.67,16.67,0,0,0-5-11.84Zm0,0"/><path class="cls-3" d="M22.48,12.85a17,17,0,0,0-6.05,7.29,1.35,1.35,0,0,0,.69,1.78,14.71,14.71,0,0,0,12.3-.51,2.81,2.81,0,0,1,1-.34h0V10a16.68,16.68,0,0,0-8,2.82Zm0,0"/><path class="cls-4" d="M34.69,8.35V25.72a1.35,1.35,0,0,1-1.35,1.35H27.58a1.34,1.34,0,0,1-1.35-1.35V8.35A1.34,1.34,0,0,1,27.58,7h5.76a1.35,1.35,0,0,1,1.35,1.35Zm0,0"/><path class="cls-5" d="M37.57,28.6a7.11,7.11,0,1,1-7.13-7.11,7.12,7.12,0,0,1,7.13,7.11Zm0,0"/><path class="cls-4" d="M31.81,30a1.35,1.35,0,0,0-2.7,0,9.34,9.34,0,0,1-3.39,7.53,10.83,10.83,0,0,1-3.54,2,1.35,1.35,0,1,0,.71,2.6,13.09,13.09,0,0,0,4.46-2.42,12.07,12.07,0,0,0,3.11-3.81,12.22,12.22,0,0,0,1.26-4.43h0C31.78,31,31.81,30.54,31.81,30Z"/></svg>