<svg id="Layer_1" data-name="Layer 1" xmlns="http://www.w3.org/2000/svg" viewBox="0 0 60 60"><defs><style>.cls-1{fill:#8080ff;}.cls-2{fill:blue;}.cls-3{fill:#bfbfff;}</style></defs><title>office035-telephone</title><path class="cls-1" d="M43.82,36.8v2.7a3.37,3.37,0,0,1-.22,6.74H22.22v-3.3a6.16,6.16,0,0,0-6.15-6.15,6.08,6.08,0,0,0,0,12.15h3.45v2.79a1.35,1.35,0,0,0,2.7,0V48.94H43.6a6.07,6.07,0,0,0,.22-12.14Zm-24.3,9.44H16.07a3.38,3.38,0,0,1,0-6.75,3.45,3.45,0,0,1,3.45,3.45Zm0,0"/><path class="cls-2" d="M41.35,31.32a20,20,0,0,1-6.76-1.66,1.36,1.36,0,0,0-1.62.41l-1.49,2a23.72,23.72,0,0,1-8.92-8.92l2-1.49A1.36,1.36,0,0,0,24.92,20a20,20,0,0,1-1.66-6.76,3.15,3.15,0,0,0-3.14-2.92H14.67a3.15,3.15,0,0,0-3.14,3.35A31.51,31.51,0,0,0,40.92,43.05c2.33-.35,3.35-1.39,3.35-3.14V34.46a3.15,3.15,0,0,0-2.92-3.14Zm0,0"/><path class="cls-3" d="M30.48,7a1.35,1.35,0,0,0,0,2.7A14.14,14.14,0,0,1,44.63,23.84a1.35,1.35,0,0,0,2.7,0A16.84,16.84,0,0,0,30.48,7Zm0,0"/><path class="cls-3" d="M30.48,12.4a1.35,1.35,0,0,0,0,2.7,8.74,8.74,0,0,1,8.75,8.74,1.35,1.35,0,1,0,2.7,0A11.44,11.44,0,0,0,30.48,12.4Zm0,0"/><path class="cls-3" d="M30.48,17.8a1.35,1.35,0,1,0,0,2.7,3.35,3.35,0,0,1,3.35,3.34,1.35,1.35,0,0,0,2.7,0,6.06,6.06,0,0,0-6.05-6Zm0,0"/></svg>