<svg id="Layer_1" data-name="Layer 1" xmlns="http://www.w3.org/2000/svg" viewBox="0 0 60 60"><defs><style>.cls-1{fill:#bfbfff;}.cls-2{fill:#8080ff;}.cls-3{fill:none;}.cls-4{fill:blue;}</style></defs><title>communication-and-media034-globe</title><path class="cls-1" d="M43.54,30.28A13.5,13.5,0,1,1,30,16.78a13.49,13.49,0,0,1,13.5,13.5Zm0,0"/><path class="cls-2" d="M48.18,39.27A20.23,20.23,0,0,1,9.82,30.82l-.52.41a1.34,1.34,0,0,1-1.89-1.89l2.79-2.7a1.32,1.32,0,0,1,1.89,0l2.69,2.7a1.33,1.33,0,1,1-1.88,1.89l-.38-.36a17.54,17.54,0,0,0,33.26,7.19,1.34,1.34,0,1,1,2.4,1.21Zm0,0"/><path class="cls-2" d="M52.68,31.23l-2.79,2.7a1.33,1.33,0,0,1-1.89,0l-2.7-2.7a1.29,1.29,0,0,1-.41-.95,1.26,1.26,0,0,1,.41-.94,1.3,1.3,0,0,1,1.89,0l.37.35A17.54,17.54,0,0,0,14.3,22.5a1.35,1.35,0,0,1-1.81.6,1.33,1.33,0,0,1-.59-1.81,20.23,20.23,0,0,1,38.36,8.45l.53-.4a1.3,1.3,0,0,1,1.89,0,1.32,1.32,0,0,1,0,1.89Zm0,0"/><rect class="cls-3" x="7" y="10" width="46.08" height="40.56"/><path class="cls-4" d="M30,15.43A14.85,14.85,0,1,0,44.89,30.28,14.86,14.86,0,0,0,30,15.43Zm12,13.5H36.76A25,25,0,0,0,34.53,19a12.09,12.09,0,0,1,7.52,9.91ZM30,42.43c-1.55,0-3.72-4.18-4-10.8h8c-.28,6.62-2.45,10.8-4,10.8Zm-4-13.5c.28-6.62,2.45-10.8,4-10.8s3.72,4.18,4,10.8ZM25.55,19a25.13,25.13,0,0,0-2.23,9.92H18A12.12,12.12,0,0,1,25.55,19ZM18,31.63h5.29a25.13,25.13,0,0,0,2.23,9.92A12.12,12.12,0,0,1,18,31.63Zm16.5,9.92a25.13,25.13,0,0,0,2.23-9.92h5.29a12.12,12.12,0,0,1-7.52,9.92Zm0,0"/><rect class="cls-3" x="7" y="10" width="46.08" height="40.56"/></svg>