<svg id="Layer_1" data-name="Layer 1" xmlns="http://www.w3.org/2000/svg" viewBox="0 0 60 60"><defs><style>.cls-1{fill:#8080ff;}.cls-2{fill:blue;}.cls-3{fill:#bfbfff;}</style></defs><title>document-and-files043-folder</title><path class="cls-1" d="M51.73,24.5H8.35A1.34,1.34,0,0,1,7,23.15v-8.1A4.06,4.06,0,0,1,11.05,11h10.8a4.06,4.06,0,0,1,4,4.05V16.4H49a4.06,4.06,0,0,1,4,4.05v2.7a1.34,1.34,0,0,1-1.35,1.35Zm0,0"/><path class="cls-2" d="M53.08,23.15V45.83a4.06,4.06,0,0,1-4,4.05h-38A4.06,4.06,0,0,1,7,45.83V23.15Zm0,0"/><path class="cls-3" d="M37.69,49.88H22.39V43.14a7.65,7.65,0,1,1,15.3-.1Zm0,0"/><path class="cls-1" d="M30,38.09a5.4,5.4,0,1,1,5.4-5.4,5.4,5.4,0,0,1-5.4,5.4Zm0,0"/></svg>