<?xml version="1.0" encoding="utf-8"?>
<!-- Generator: Adobe Illustrator 25.2.0, SVG Export Plug-In . SVG Version: 6.00 Build 0)  -->
<svg version="1.1" id="Layer_1" xmlns="http://www.w3.org/2000/svg" xmlns:xlink="http://www.w3.org/1999/xlink" x="0px" y="0px"
	 viewBox="0 0 60 60" style="enable-background:new 0 0 60 60;" xml:space="preserve">
<path style="fill:#0000FF;" d="M53.08,33.25v-6.42c0-0.64-0.45-1.2-1.08-1.33l-4-0.8c-0.37-1.24-0.86-2.44-1.48-3.57l2.27-3.41
	c0.36-0.54,0.28-1.27-0.19-1.72l-4.54-4.54c-0.45-0.46-1.17-0.53-1.7-0.17L39,13.58c-1.13-0.62-2.33-1.11-3.57-1.48l-0.8-4
	c-0.12-0.66-0.71-1.13-1.38-1.1h-6.42c-0.65,0-1.21,0.45-1.33,1.09l-0.8,4c-1.24,0.37-2.44,0.86-3.57,1.48l-3.41-2.27
	c-0.53-0.36-1.25-0.29-1.7,0.17L11.48,16c-0.46,0.45-0.53,1.17-0.17,1.7l2.27,3.41c-0.62,1.14-1.12,2.34-1.48,3.59l-4,0.8
	C7.46,25.62,7,26.18,7,26.83v6.42c0,0.65,0.45,1.21,1.09,1.33l4,0.8c0.36,1.26,0.86,2.47,1.49,3.62l-2.27,3.41
	c-0.36,0.53-0.29,1.25,0.17,1.7L16,48.6c0.45,0.46,1.17,0.53,1.7,0.17l3.41-2.27c1.14,0.63,2.34,1.13,3.59,1.5l0.8,4
	c0.12,0.64,0.68,1.09,1.33,1.09h6.42c0.65,0,1.21-0.45,1.33-1.09l0.8-4c1.26-0.37,2.47-0.87,3.62-1.5l3.41,2.27
	c0.53,0.36,1.25,0.29,1.7-0.17l4.54-4.54c0.46-0.45,0.53-1.17,0.17-1.7L46.5,39c0.63-1.15,1.13-2.36,1.5-3.62l4-0.8
	C52.64,34.46,53.09,33.9,53.08,33.25L53.08,33.25z"/>
<path style="fill:#BFBFFF;" d="M30,42.19C23.29,42.17,17.87,36.71,17.89,30s5.48-12.13,12.19-12.11
	c6.68,0.02,12.09,5.43,12.11,12.11c0.02,6.72-5.41,12.17-12.13,12.19C30.04,42.19,30.02,42.19,30,42.19z"/>
<path style="fill:#8080FF;" d="M30,29.95c-2.21-0.03-3.98-1.84-3.95-4.05c0.03-2.21,1.84-3.98,4.05-3.95
	c2.17,0.03,3.92,1.78,3.95,3.95C34.04,28.13,32.23,29.94,30,29.95z"/>
<path style="fill:#4040FF;" d="M35.4,38.05H24.6c-0.74,0.01-1.34-0.59-1.35-1.33c0-0.01,0-0.01,0-0.02c0-3.73,3.02-6.75,6.75-6.75
	s6.75,3.02,6.75,6.75c0.01,0.74-0.59,1.34-1.33,1.35C35.41,38.05,35.41,38.05,35.4,38.05z"/>
</svg>
