<svg id="Layer_1" data-name="Layer 1" xmlns="http://www.w3.org/2000/svg" viewBox="0 0 60 60"><defs><style>.cls-1{fill:#4040ff;}.cls-2{fill:blue;}.cls-3{fill:#bfbfff;}.cls-4{fill:#8080ff;}</style></defs><title>digital-marketing024-computer</title><path class="cls-1" d="M36.57,49.09H23.51S26,45.34,26,41.75V40.4h8.1v1.35c0,3.59,2.46,7.32,2.48,7.34Zm0,0"/><path class="cls-2" d="M49,8h-38A4,4,0,0,0,7,12.05v27a4,4,0,0,0,4.05,4.05H49a4,4,0,0,0,4-4.05v-27A4,4,0,0,0,49,8Zm0,0"/><path class="cls-3" d="M49,10.7h-38A1.33,1.33,0,0,0,9.7,12.05v27a1.33,1.33,0,0,0,1.35,1.35H49a1.33,1.33,0,0,0,1.35-1.35v-27A1.33,1.33,0,0,0,49,10.7Zm0,0"/><path class="cls-2" d="M42.19,49.85a1.33,1.33,0,0,1-1.35,1.35H19.24a1.35,1.35,0,1,1,0-2.7h21.6a1.33,1.33,0,0,1,1.35,1.35Zm0,0"/><path class="cls-4" d="M30,13.4A12.15,12.15,0,1,0,42.19,25.55,12.16,12.16,0,0,0,30,13.4Zm0,0"/><path class="cls-3" d="M35.14,29.92a1.35,1.35,0,0,1-1.83.52,6.78,6.78,0,0,0-6.54,0,1.34,1.34,0,1,1-1.29-2.35,9.54,9.54,0,0,1,9.12,0,1.33,1.33,0,0,1,.54,1.83Zm0,0"/><path class="cls-3" d="M30,18.8a4.05,4.05,0,1,0,4.05,4.05A4,4,0,0,0,30,18.8Zm0,0"/></svg>