<svg id="Layer_1" data-name="Layer 1" xmlns="http://www.w3.org/2000/svg" viewBox="0 0 60 60"><defs><style>.cls-1{fill:#bfbfff;}.cls-2{fill:#fff;}.cls-3{fill:#8080ff;}.cls-4{fill:blue;}</style></defs><title>work-from-home032-working-at home</title><path class="cls-1" d="M38.14,29.6H36.79L34.09,31H26l-2.7-1.35H21.94a6.76,6.76,0,0,0-6.75,6.75v5.4h29.7v-5.4a6.76,6.76,0,0,0-6.75-6.75Zm0,0"/><path class="cls-2" d="M34.09,29.6,31.39,31h-2.7L26,29.6h-2.7V31a6.75,6.75,0,0,0,13.5,0V29.6Zm0,0"/><path class="cls-3" d="M32.74,28.25V26.9h-5.4v1.35A1.36,1.36,0,0,1,26,29.6V31a4.05,4.05,0,1,0,8.1,0V29.6a1.36,1.36,0,0,1-1.35-1.35Zm0,0"/><path class="cls-1" d="M35.44,16.1H30a4.13,4.13,0,0,1-2.7-1,4.13,4.13,0,0,1-2.7,1,1.33,1.33,0,0,0-1.35,1.35v5.4a6.75,6.75,0,0,0,13.5,0v-5.4a1.33,1.33,0,0,0-1.35-1.35Zm0,0"/><path class="cls-3" d="M13.16,43.1a5.49,5.49,0,0,0-5.49,5.4v1.35A1.35,1.35,0,0,0,9,51.2h7.09l2-3.43-3.59-4.48a5.73,5.73,0,0,0-1.37-.19Zm0,0"/><path class="cls-3" d="M48.26,43.1a5.72,5.72,0,0,0-1.36.19L43.34,47.6l2,3.6H52.4a1.34,1.34,0,0,0,1.35-1.35V48.5a5.48,5.48,0,0,0-5.49-5.4Zm0,0"/><path class="cls-4" d="M47.28,35.49a1.34,1.34,0,0,0-1-.49H13.84a1.34,1.34,0,0,0-1.32,1.61L15.43,51.2H44.65l2.91-14.59a1.35,1.35,0,0,0-.28-1.12Zm0,0"/><path class="cls-1" d="M31.39,44.45A1.35,1.35,0,1,1,30,43.1a1.34,1.34,0,0,1,1.35,1.35Zm0,0"/><path class="cls-4" d="M32.74,9.7H28.69a1.36,1.36,0,0,1-1.35-1.35A1.34,1.34,0,0,0,26,7H24.64a5.41,5.41,0,0,0-5.33,6.31,5.62,5.62,0,0,0,5.63,4.49H36.79V13.75a4,4,0,0,0-4-4.05Zm0,0"/></svg>