<svg id="Layer_1" data-name="Layer 1" xmlns="http://www.w3.org/2000/svg" viewBox="0 0 60 60"><defs><style>.cls-1{fill:#8080ff;}.cls-2{fill:blue;}.cls-3{fill:#bfbfff;}</style></defs><title>live-streaming050-focus</title><path class="cls-1" d="M49,53.08h-38A4.06,4.06,0,0,1,7,49v-38A4.06,4.06,0,0,1,11.05,7H49a4.06,4.06,0,0,1,4,4.05V49a4.06,4.06,0,0,1-4,4Zm0,0"/><path class="cls-2" d="M11.05,9.7A1.36,1.36,0,0,0,9.7,11.05V49a1.36,1.36,0,0,0,1.35,1.35H49A1.36,1.36,0,0,0,50.38,49v-38A1.36,1.36,0,0,0,49,9.7Zm0,0"/><path class="cls-1" d="M37.24,39.49H22.84a1.34,1.34,0,0,1-1.35-1.35v-.9a8.55,8.55,0,0,1,17.1,0v.9a1.34,1.34,0,0,1-1.35,1.35Zm0,0"/><path class="cls-3" d="M30,31.39a5.4,5.4,0,1,1,5.4-5.4,5.4,5.4,0,0,1-5.4,5.4Zm0,0"/><path class="cls-1" d="M46.24,20.59a1.34,1.34,0,0,1-1.35-1.35v-4h-4a1.35,1.35,0,0,1,0-2.7h5.4a1.34,1.34,0,0,1,1.35,1.35v5.4a1.34,1.34,0,0,1-1.35,1.35Zm0,0"/><path class="cls-1" d="M46.24,47.59h-5.4a1.35,1.35,0,0,1,0-2.7h4v-4a1.35,1.35,0,0,1,2.7,0v5.4a1.34,1.34,0,0,1-1.35,1.35Zm0,0"/><path class="cls-1" d="M13.84,20.59a1.34,1.34,0,0,1-1.35-1.35v-5.4a1.34,1.34,0,0,1,1.35-1.35h5.4a1.35,1.35,0,1,1,0,2.7h-4v4a1.34,1.34,0,0,1-1.35,1.35Zm0,0"/><path class="cls-1" d="M19.24,47.59h-5.4a1.34,1.34,0,0,1-1.35-1.35v-5.4a1.35,1.35,0,0,1,2.7,0v4h4a1.35,1.35,0,0,1,0,2.7Zm0,0"/></svg>