<svg id="Layer_1" data-name="Layer 1" xmlns="http://www.w3.org/2000/svg" viewBox="0 0 60 60"><defs><style>.cls-1{fill:#4040ff;}.cls-2{fill:#8080ff;}.cls-3{fill:gray;}.cls-4{fill:#bfbfff;}.cls-5{fill:blue;}</style></defs><title>work-from-home021-videoconference</title><path class="cls-1" d="M36.79,52.68H23.29a1.35,1.35,0,0,1-1.35-1.36v-7.1a1.35,1.35,0,0,1,1.35-1.36h13.5a1.35,1.35,0,0,1,1.35,1.36v7.1a1.35,1.35,0,0,1-1.35,1.36Zm0,0"/><path class="cls-2" d="M25.09,27.88H13.45a1.34,1.34,0,0,1-1.35-1.35V25.7a7.17,7.17,0,0,1,14.34,0v.83a1.34,1.34,0,0,1-1.35,1.35Zm0,0"/><path class="cls-2" d="M46.51,27.88H34.87a1.34,1.34,0,0,1-1.35-1.35V25.7a7.17,7.17,0,0,1,14.34,0v.83a1.34,1.34,0,0,1-1.35,1.35Zm0,0"/><path class="cls-2" d="M25.09,45.51H13.45a1.34,1.34,0,0,1-1.35-1.35v-.38a7.17,7.17,0,0,1,14.34,0v.38a1.34,1.34,0,0,1-1.35,1.35Zm0,0"/><path class="cls-2" d="M46.51,45.51H34.87a1.34,1.34,0,0,1-1.35-1.35v-.38a7.17,7.17,0,0,1,14.34,0v.38a1.34,1.34,0,0,1-1.35,1.35Zm0,0"/><path class="cls-3" d="M51.73,46H8.35A1.34,1.34,0,0,1,7,44.62V8.35A1.34,1.34,0,0,1,8.35,7H51.73a1.34,1.34,0,0,1,1.35,1.35V44.62A1.34,1.34,0,0,1,51.73,46Zm-42-2.7H50.38V9.7H9.7Zm0,0"/><path class="cls-4" d="M19.27,20.5a4.05,4.05,0,1,1,4.05-4.05,4.06,4.06,0,0,1-4.05,4.05Zm0,0"/><path class="cls-4" d="M40.69,20.5a4.05,4.05,0,1,1,4.05-4.05,4.06,4.06,0,0,1-4.05,4.05Zm0,0"/><path class="cls-4" d="M19.27,38.58a4,4,0,1,1,4.05-4,4.06,4.06,0,0,1-4.05,4Zm0,0"/><path class="cls-4" d="M40.69,38.58a4,4,0,1,1,4.05-4,4.06,4.06,0,0,1-4.05,4Zm0,0"/><path class="cls-5" d="M51.73,46H8.35A1.34,1.34,0,0,1,7,44.62V8.35A1.34,1.34,0,0,1,8.35,7H51.73a1.34,1.34,0,0,1,1.35,1.35V44.62A1.34,1.34,0,0,1,51.73,46Zm-42-2.7H50.38V9.7H9.7Zm0,0"/><path class="cls-5" d="M41.47,53.08H18.61a1.35,1.35,0,0,1,0-2.7H41.47a1.35,1.35,0,1,1,0,2.7Zm0,0"/><rect class="cls-1" x="29.79" y="9.7" width="0.5" height="33.57"/><rect class="cls-1" x="29.79" y="9.7" width="0.5" height="33.57"/><rect class="cls-1" x="9.7" y="27.63" width="40.68" height="0.5"/></svg>