<?xml version="1.0" encoding="utf-8"?>
<!-- Generator: Adobe Illustrator 25.4.1, SVG Export Plug-In . SVG Version: 6.00 Build 0)  -->
<svg version="1.1" id="Layer_1" xmlns="http://www.w3.org/2000/svg" xmlns:xlink="http://www.w3.org/1999/xlink" x="0px" y="0px"
	 viewBox="0 0 60 60" style="enable-background:new 0 0 60 60;" xml:space="preserve">
<path style="fill-rule:evenodd;clip-rule:evenodd;fill:#BFBFFF;" d="M51,17.8c0,5.2-4.2,9.5-9.5,9.5s-9.5-4.2-9.5-9.5
	s4.2-9.4,9.5-9.4C46.8,8.3,51,12.6,51,17.8L51,17.8z"/>
<path style="fill:#4040FF;" d="M41.6,7c-6,0-10.8,4.8-10.8,10.8s4.8,10.8,10.8,10.8s10.8-4.8,10.8-10.8c0,0,0,0,0,0
	C52.4,11.8,47.5,7,41.6,7z M42.9,25.8v-0.2c0-0.7-0.6-1.4-1.4-1.4c-0.7,0-1.3,0.6-1.3,1.4l0,0v0.2c-3.4-0.6-6.1-3.2-6.6-6.6h0.2
	c0.7,0,1.3-0.6,1.3-1.4s-0.6-1.4-1.3-1.4h-0.2c0.6-3.4,3.2-6.1,6.6-6.6V10c0,0.7,0.6,1.4,1.3,1.4c0.7,0,1.4-0.6,1.4-1.4V9.8
	c3.4,0.6,6.1,3.2,6.6,6.6h-0.2c-0.7,0-1.3,0.6-1.3,1.4s0.6,1.4,1.3,1.4h0.2C49,22.5,46.3,25.2,42.9,25.8z"/>
<path style="fill:#0000FF;" d="M10.6,36.3c-0.6,0-1.1-0.1-1.6-0.4c-0.4-0.2-0.7-0.7-0.7-1.2v-3.6c0-1.1,0.2-2.2,0.7-3.2
	c1.3-2.9,4.2-4.7,7.3-4.6h0.5c0.7,0,1.3,0.6,1.3,1.4c0,0.1,0,0.2,0,0.3l-2.2,7.4c0,0.1-0.1,0.2-0.1,0.3c-0.7,1.2-1.6,2.2-2.8,2.9
	C12.3,36.1,11.4,36.3,10.6,36.3L10.6,36.3z"/>
<path style="fill:#8080FF;" d="M34.6,53.1H16.3l-1.4-1.2l-1.4,1.2H8.4c-0.7,0-1.3-0.6-1.4-1.3c0,0,0,0,0,0v-2.2
	c0-7.9,6.4-14.4,14.4-14.4h0.2c7.9,0,14.4,6.4,14.4,14.4v2.2C35.9,52.5,35.3,53.1,34.6,53.1C34.6,53.1,34.6,53.1,34.6,53.1z"/>
<path style="fill:#BFBFFF;" d="M21.5,37.5c-4.5,0-8.1-3.6-8.1-8.1c0-4.5,16.2-4.5,16.2,0C29.5,33.8,25.9,37.5,21.5,37.5z"/>
<path style="fill:#4040FF;" d="M21.5,21.3c-4.5,0-8.1,3.6-8.1,8.1c0,0.3,0,0.6,0,0.9c0.5,0.1,1.1,0.1,1.7,0.1c2.4,0,4.6-0.9,6.4-2.4
	c1.8,1.5,4,2.4,6.4,2.4c0.6,0,1.1,0,1.7-0.1c0-0.3,0-0.6,0-0.9C29.5,24.9,25.9,21.2,21.5,21.3L21.5,21.3z"/>
<path style="fill:#BFBFFF;" d="M16.3,53.1V46c0-0.7-0.6-1.4-1.3-1.4s-1.4,0.6-1.4,1.3c0,0,0,0,0,0v7.1L16.3,53.1z"/>
<path style="fill:#0000FF;" d="M50.3,53.1H32.8c-1.5,0-2.8-1.2-2.8-2.7c0,0,0,0,0,0V36.2c0-1.5,1.2-2.8,2.8-2.8l0,0h17.5
	c1.5,0,2.8,1.2,2.8,2.8l0,0v14.1C53,51.8,51.8,53.1,50.3,53.1L50.3,53.1L50.3,53.1z"/>
<path style="fill-rule:evenodd;clip-rule:evenodd;fill:#BFBFFF;" d="M44.2,42.6c0.3,1.5-0.5,2.9-2,3.3s-2.9-0.5-3.3-2s0.5-2.9,2-3.3
	c0,0,0,0,0,0C42.4,40.3,43.8,41.2,44.2,42.6z"/>
<path style="fill-rule:evenodd;clip-rule:evenodd;fill:#BFBFFF;" d="M49.3,15.9c1,4.3-1.6,8.6-5.9,9.6c-4.3,1-8.6-1.6-9.6-5.9
	c-1-4.3,1.6-8.6,5.9-9.6c0,0,0,0,0,0C44,9.1,48.3,11.7,49.3,15.9z"/>
<path style="fill:#4040FF;" d="M40.3,21.7c-0.4,0-0.7-0.1-1-0.4l-2.5-2.6c-0.5-0.5-0.5-1.4,0-1.9s1.4-0.5,1.9,0l0,0l1.6,1.6l4.1-4.1
	c0.5-0.5,1.4-0.5,1.9,0s0.5,1.4,0,1.9l-5.1,5.1C41,21.5,40.6,21.7,40.3,21.7L40.3,21.7z"/>
</svg>
