<?xml version="1.0" encoding="utf-8"?>
<!-- Generator: Adobe Illustrator 25.4.1, SVG Export Plug-In . SVG Version: 6.00 Build 0)  -->
<svg version="1.1" id="Layer_1" xmlns="http://www.w3.org/2000/svg" xmlns:xlink="http://www.w3.org/1999/xlink" x="0px" y="0px"
	 viewBox="0 0 60 60" style="enable-background:new 0 0 60 60;" xml:space="preserve">
<path style="fill:#4040FF;" d="M26,33.9h-1.8l-6.7-7H33L26,33.9z"/>
<path style="fill:#BFBFFF;" d="M41.5,36.6c-0.1-3.8-2.7-7-6.4-8l-3-0.8c-0.5-0.1-1,0-1.4,0.4l-0.1,0.1l-5.3,5.2l-5.5-5.4
	c-0.3-0.3-0.8-0.5-1.3-0.4l-3,0.8C11.7,29.5,9,32.9,9,36.9v14.9c0,0.7,0.6,1.3,1.4,1.3h29.7c0.7,0,1.3-0.6,1.3-1.3
	C41.4,51.7,41.4,36.6,41.5,36.6z"/>
<path style="fill:#8080FF;" d="M26.6,40.8c0,0.7-0.6,1.4-1.3,1.4s-1.4-0.6-1.4-1.3c0-0.7,0.6-1.4,1.3-1.4c0,0,0,0,0,0
	C26,39.5,26.6,40.1,26.6,40.8C26.6,40.8,26.6,40.8,26.6,40.8z"/>
<path style="fill:#8080FF;" d="M26.6,46.2c0,0.7-0.6,1.4-1.3,1.4s-1.4-0.6-1.4-1.3c0-0.7,0.6-1.4,1.3-1.4c0,0,0,0,0,0
	C26,44.9,26.6,45.5,26.6,46.2C26.6,46.2,26.6,46.2,26.6,46.2z"/>
<path style="fill:#8080FF;" d="M34.3,23c0,3.8-3,6.9-6.8,6.9c0,0,0,0,0,0h-5.1c-3.8,0-6.9-3.1-6.9-6.9v-4.9c0.5-0.6,1.2-1,1.9-1.3
	c2.1-0.8,4.7,0.4,8.2,0.4c3.2,0,6.7-0.8,8.8-3.2C34.3,14.2,34.3,13.7,34.3,23L34.3,23z"/>
<path style="fill:#4040FF;" d="M35.3,7H22.1c-3.7,0-6.7,3-6.7,6.7v5.5c0.7-1.3,2.1-2.1,3.5-2.1c1.8,0,4.4,0.7,7.1,0.6
	c6.3-0.2,10.6-3.1,10.6-9.4C36.7,7.6,36.1,7,35.3,7C35.3,7,35.3,7,35.3,7z"/>
<path style="fill:#0000FF;" d="M48.3,34.6c4.2,4.2,4.2,11.1,0,15.3s-11.1,4.2-15.3,0s-4.2-11.1,0-15.3c0,0,0,0,0,0
	C37.2,30.4,44,30.4,48.3,34.6C48.3,34.6,48.3,34.6,48.3,34.6z"/>
<rect x="9" y="7" style="fill:none;" width="42.5" height="46.1"/>
<path style="fill:#BFBFFF;" d="M44.9,35.4c3.8,2.4,5,7.4,2.6,11.2c-2.4,3.8-7.4,5-11.2,2.6s-5-7.4-2.6-11.2c0,0,0,0,0,0
	C36.1,34.2,41.1,33,44.9,35.4C44.9,35.4,44.9,35.4,44.9,35.4L44.9,35.4z"/>
<path style="fill:#4040FF;" d="M39.4,46.2c-0.4,0-0.7-0.1-1-0.4l-2.5-2.6c-0.5-0.5-0.5-1.4,0-1.9s1.4-0.5,1.9,0l0,0l1.6,1.6l4.1-4.1
	c0.5-0.5,1.4-0.5,1.9,0s0.5,1.4,0,1.9l-5.1,5.1C40.1,46,39.7,46.2,39.4,46.2L39.4,46.2z"/>
</svg>
