<svg id="Layer_1" data-name="Layer 1" xmlns="http://www.w3.org/2000/svg" viewBox="0 0 60 60"><defs><style>.cls-1{fill:blue;}.cls-2{fill:#8080ff;}.cls-3{fill:#fff;}.cls-4{fill:#bfbfff;}.cls-5{fill:#4040ff;}</style></defs><title>digital-marketing007-web-settings</title><path class="cls-1" d="M50.38,18.1H9.7L7,20.8V49.15A1.33,1.33,0,0,0,8.35,50.5H18.42l3.77-1.35,3.39,1.35H34.5l3.64-1.35,3.52,1.35H51.73a1.33,1.33,0,0,0,1.35-1.35V20.8Zm0,0"/><path class="cls-2" d="M53.08,11.35V20.8H7V11.35A1.33,1.33,0,0,1,8.35,10H51.73a1.33,1.33,0,0,1,1.35,1.35Zm0,0"/><path class="cls-3" d="M15.19,15.4a1.35,1.35,0,1,1-1.35-1.35,1.34,1.34,0,0,1,1.35,1.35Zm0,0"/><path class="cls-4" d="M20.59,15.4a1.35,1.35,0,1,1-1.35-1.35,1.34,1.34,0,0,1,1.35,1.35Zm0,0"/><path class="cls-4" d="M26,15.4a1.35,1.35,0,1,1-1.35-1.35A1.34,1.34,0,0,1,26,15.4Zm0,0"/><path class="cls-5" d="M46.24,14.05H31.39a1.35,1.35,0,0,0,0,2.7H46.24a1.35,1.35,0,1,0,0-2.7Zm0,0"/><path class="cls-4" d="M17.89,45.1H13.84a1.35,1.35,0,1,1,0-2.7h4.05a1.35,1.35,0,0,1,0,2.7Zm0,0"/><path class="cls-4" d="M46.24,45.1H42.19a1.35,1.35,0,1,1,0-2.7h4.05a1.35,1.35,0,1,1,0,2.7Zm0,0"/><path class="cls-4" d="M38.63,36.51a1.35,1.35,0,0,1-1-2.3l2.87-2.87a1.35,1.35,0,1,1,1.91,1.91l-2.87,2.87a1.35,1.35,0,0,1-.95.39Zm0,0"/><path class="cls-4" d="M21.45,36.51a1.35,1.35,0,0,1-.95-.39l-2.87-2.87a1.35,1.35,0,0,1,1.91-1.91l2.87,2.87a1.35,1.35,0,0,1-1,2.3Zm0,0"/><path class="cls-4" d="M30,26.2a1.34,1.34,0,0,0-1.35,1.35V31.6a1.35,1.35,0,0,0,2.7,0V27.55A1.34,1.34,0,0,0,30,26.2Zm0,0"/><path class="cls-4" d="M30,30.25a13.52,13.52,0,0,0-13.5,13.5,13.26,13.26,0,0,0,1.88,6.75h7.16a8.1,8.1,0,1,1,8.92,0h7.16a13.26,13.26,0,0,0,1.88-6.75A13.52,13.52,0,0,0,30,30.25Zm0,0"/></svg>