<?xml version="1.0" standalone="no"?>
<!DOCTYPE svg PUBLIC "-//W3C//DTD SVG 20010904//EN"
 "http://www.w3.org/TR/2001/REC-SVG-20010904/DTD/svg10.dtd">
<svg version="1.0" xmlns="http://www.w3.org/2000/svg"
 width="700.000000pt" height="700.000000pt" viewBox="0 0 700.000000 700.000000"
 preserveAspectRatio="xMidYMid meet">
<metadata>
Created by potrace 1.14, written by Peter Selinger 2001-2017
</metadata>
<g transform="translate(0.000000,700.000000) scale(0.100000,-0.100000)"
fill="#000000" stroke="none">
<path d="M5935 6653 c-174 -749 -543 -1572 -1038 -2313 -93 -140 -177 -261
-187 -270 -3 -3 -44 -57 -92 -120 -116 -154 -170 -224 -177 -230 -4 -3 -26
-30 -51 -60 -25 -30 -47 -57 -50 -60 -3 -3 -18 -21 -34 -40 -193 -236 -583
-626 -871 -872 -199 -169 -445 -364 -555 -438 -12 -8 -49 -35 -83 -59 -102
-74 -364 -243 -517 -333 -207 -122 -300 -173 -515 -279 -184 -91 -220 -108
-350 -164 -33 -14 -69 -30 -80 -35 -101 -48 -572 -215 -718 -254 -31 -9 -83
-23 -115 -32 -31 -9 -66 -18 -77 -20 -124 -28 -205 -52 -180 -54 123 -7 430 2
494 15 9 1 45 6 81 10 36 4 74 9 85 11 11 2 61 11 110 20 75 12 141 27 275 60
8 2 42 10 75 18 33 8 61 13 62 12 2 -1 -4 -27 -12 -57 -27 -100 -75 -300 -75
-314 0 -7 19 -23 43 -35 23 -12 94 -49 157 -82 63 -33 171 -90 240 -126 69
-35 158 -83 199 -105 l74 -40 71 75 c39 41 123 130 187 198 l116 124 264 -53
c360 -71 528 -106 532 -112 2 -2 34 -78 72 -169 37 -91 76 -184 87 -207 10
-24 23 -54 27 -67 9 -22 13 -23 58 -16 26 4 71 11 98 14 28 4 77 11 110 16 33
5 80 12 105 15 25 3 86 12 135 20 82 13 113 17 215 31 98 13 94 9 105 109 3
33 8 71 10 85 2 14 6 50 10 80 23 186 35 272 41 281 3 5 9 9 14 9 8 0 54 21
260 117 52 25 164 76 247 114 84 39 164 76 179 84 30 15 2 29 286 -144 93 -55
173 -101 179 -101 6 0 86 74 177 164 92 91 221 216 286 279 l119 115 -73 134
c-40 73 -83 151 -95 173 -12 22 -38 69 -58 105 l-36 66 25 44 c14 24 40 71 58
104 19 34 87 156 152 271 66 116 128 227 139 248 11 20 26 37 35 38 8 0 23 2
32 4 9 2 59 6 110 10 51 3 113 8 138 10 25 2 81 7 125 10 44 4 83 10 86 13 6
6 14 47 34 167 3 17 8 46 11 65 3 19 8 46 10 60 2 14 7 41 10 60 4 19 8 42 9
50 2 8 6 33 10 55 3 22 8 54 11 70 2 17 9 53 14 80 11 58 17 93 25 149 6 39 5
42 -27 55 -18 8 -94 43 -168 78 -74 35 -170 80 -212 100 -53 25 -78 42 -79 55
-1 10 -2 21 -3 26 -2 4 -6 39 -10 77 -4 39 -9 81 -11 95 -2 14 -6 49 -9 78 -6
52 -16 136 -22 182 -2 14 -6 51 -9 83 -4 32 -8 66 -10 75 -1 9 -6 53 -9 97
l-7 80 190 160 c152 128 189 164 184 179 -3 11 -83 176 -177 367 -126 256
-175 347 -186 344 -8 -2 -35 -7 -60 -10 -24 -4 -47 -8 -50 -10 -4 -2 -29 -7
-56 -11 -27 -3 -51 -8 -54 -9 -3 -2 -48 -11 -100 -20 -52 -9 -104 -18 -114
-22 -16 -4 -18 -2 -12 18 46 158 103 406 122 529 3 25 8 54 10 65 2 11 7 45
10 75 3 30 8 69 11 85 6 40 15 495 10 495 -3 0 -17 -53 -32 -117z m-779 -2783
c58 -629 -173 -1205 -646 -1612 -222 -191 -555 -351 -835 -402 -16 -3 -41 -8
-55 -11 -120 -26 -483 -27 -609 -2 -47 10 -86 19 -88 20 -1 2 57 43 130 92
121 82 415 298 427 315 3 4 12 11 21 16 9 5 41 30 70 55 30 26 88 75 129 110
41 35 80 68 86 74 6 5 51 46 100 90 274 249 637 638 850 914 27 35 65 85 84
110 49 64 196 271 255 361 l49 74 12 -59 c7 -33 16 -98 20 -145z"/>
<path d="M3277 6734 c-1 -1 -63 -4 -137 -8 -542 -25 -1079 -207 -1554 -528
-100 -68 -88 -59 -221 -168 -89 -73 -296 -275 -365 -355 -261 -304 -457 -645
-582 -1015 -33 -98 -81 -267 -94 -335 -2 -11 -6 -31 -9 -45 -13 -61 -20 -105
-40 -245 -10 -71 -19 -230 -19 -355 0 -125 12 -358 19 -370 2 -3 6 -31 9 -62
7 -63 40 -238 57 -303 6 -22 13 -47 14 -55 17 -80 86 -281 140 -410 102 -245
324 -612 428 -710 92 -86 205 -72 278 35 23 33 27 49 25 92 -3 53 -1 48 -130
232 -226 321 -380 710 -451 1146 -3 17 -7 64 -11 105 -3 41 -8 86 -10 100 -11
67 -4 388 11 485 3 17 7 56 11 87 4 46 51 267 78 370 10 39 80 236 98 278 106
243 254 493 383 649 306 369 625 614 1035 794 182 79 430 157 580 181 19 3 46
8 60 10 134 24 227 31 435 31 224 0 285 -5 435 -29 129 -21 134 -23 245 -51
347 -90 652 -236 940 -448 92 -68 116 -79 167 -79 93 1 181 101 172 195 -5 54
-52 116 -131 174 -365 268 -766 450 -1183 537 -99 20 -159 30 -315 52 -16 2
-86 6 -155 10 -69 3 -144 7 -168 8 -23 1 -43 1 -45 0z"/>
<path d="M3125 6013 c-127 -16 -272 -39 -325 -53 -19 -5 -46 -11 -60 -14 -95
-18 -298 -94 -455 -171 -234 -115 -407 -237 -600 -424 -333 -322 -560 -727
-659 -1176 -28 -124 -30 -140 -51 -320 -7 -56 -7 -339 0 -400 51 -471 193
-843 459 -1205 132 -180 207 -239 285 -227 74 12 147 84 157 154 8 55 -18 110
-89 193 -83 98 -196 272 -259 401 -79 162 -153 384 -173 524 -3 22 -8 46 -10
53 -26 75 -25 512 0 626 3 12 7 32 9 46 4 23 20 96 31 147 18 78 86 257 140
369 239 488 652 852 1160 1022 133 45 215 65 310 78 22 3 46 7 54 10 68 23
461 22 571 -1 14 -3 52 -10 85 -15 308 -55 627 -203 890 -415 109 -88 145
-107 200 -107 77 0 166 93 167 174 1 48 -27 112 -64 143 -189 163 -321 251
-533 355 -150 74 -361 151 -480 176 -65 13 -176 34 -215 40 -25 3 -54 8 -65
11 -25 6 -439 11 -480 6z"/>
<path d="M3157 5289 c-27 -4 -69 -10 -93 -14 -131 -17 -375 -98 -477 -157 -26
-15 -51 -28 -55 -28 -14 0 -180 -113 -242 -165 -68 -57 -216 -210 -262 -272
-72 -95 -160 -248 -206 -356 -39 -90 -96 -281 -108 -359 -20 -134 -26 -375
-11 -493 38 -294 164 -592 348 -817 74 -91 150 -167 181 -184 69 -36 147 -22
201 38 77 84 64 163 -48 283 -174 187 -291 411 -341 655 -18 91 -25 303 -12
400 63 471 406 893 864 1065 458 172 953 65 1331 -286 105 -99 175 -117 253
-65 76 50 102 131 68 207 -41 92 -284 286 -483 386 -88 45 -242 100 -342 124
-93 22 -102 24 -173 34 -66 10 -337 13 -393 4z"/>
<path d="M3215 4235 c-5 -1 -35 -10 -65 -19 -408 -122 -539 -637 -238 -937 60
-60 98 -84 218 -139 9 -4 49 -13 89 -20 176 -29 354 26 480 150 66 64 88 95
123 170 116 248 30 554 -197 704 -95 64 -175 88 -295 92 -58 1 -109 1 -115 -1z"/>
</g>
</svg>
